<svg width="115" height="94" fill="none" xmlns="http://www.w3.org/2000/svg"><g filter="url(#a)"><rect width="89" height="79" rx="10" fill="#022AF0"/></g><rect x=".5" y=".5" width="88" height="78" rx="9.5" stroke="#FAFAFA" stroke-opacity=".1"/><rect x="9" y="13" width="50" height="8" rx="4" fill="#131DAA" fill-opacity=".37"/><rect x="9.5" y="13.5" width="49" height="7" rx="3.5" stroke="#80FF9F" stroke-opacity=".5"/><rect x="71" y="13" width="10" height="8" rx="4" fill="#022AF0" fill-opacity=".36"/><rect x="71.5" y="13.5" width="9" height="7" rx="3.5" stroke="#80FF9F" stroke-opacity=".5"/><rect x="9" y="34" width="41" height="13" rx="5" fill="#0A1193" fill-opacity=".4"/><rect x="9.5" y="34.5" width="40" height="12" rx="4.5" stroke="#80FF9F" stroke-opacity=".5"/><rect x="9" y="52" width="41" height="13" rx="5" fill="#0A1193" fill-opacity=".4"/><rect x="9.5" y="52.5" width="40" height="12" rx="4.5" stroke="#80FF9F" stroke-opacity=".5"/><rect width="26" height="31" rx="5" transform="matrix(-1 0 0 1 79 34)" fill="#131DAA" fill-opacity=".23"/><rect x="-.5" y=".5" width="25" height="30" rx="4.5" transform="matrix(-1 0 0 1 78 34)" stroke="#80FF9F" stroke-opacity=".5"/><path d="M99.286 87.56c1.101-.449 2.381-.492 3.386.144l1.362.862a3 3 0 0 0 3.734-.422l1.448-1.46a3 3 0 0 0 .417-3.698l-1.033-1.658c-.55-.883-.588-1.98-.159-2.928.069-.153.137-.306.202-.46.434-1.024 1.278-1.857 2.362-2.102l1.657-.375A3 3 0 0 0 115 72.537v-2.074a3 3 0 0 0-2.338-2.926l-1.707-.386c-1.057-.24-1.882-1.04-2.275-2.05-.049-.125-.099-.25-.151-.374-.432-1.036-.441-2.233.153-3.186l.951-1.526a3 3 0 0 0-.417-3.7l-1.448-1.46a3 3 0 0 0-3.734-.421l-1.579 1c-.891.563-2.005.601-2.964.162-.15-.069-.3-.136-.453-.2-1.002-.43-1.822-1.25-2.079-2.31l-.436-1.794A3 3 0 0 0 93.608 49h-2.216a3 3 0 0 0-2.915 2.292l-.436 1.794c-.257 1.06-1.08 1.87-2.091 2.275-.107.043-.213.087-.32.132-1.044.45-2.256.465-3.217-.144l-1.447-.915a3 3 0 0 0-3.734.422l-1.448 1.46a3 3 0 0 0-.417 3.698l1.033 1.658c.55.883.588 1.98.159 2.928-.07.153-.137.306-.202.46-.434 1.024-1.278 1.857-2.362 2.102l-1.657.375A3 3 0 0 0 70 70.463v2.074a3 3 0 0 0 2.338 2.926l1.657.375c1.084.245 1.917 1.08 2.327 2.114.044.11.089.22.135.328.44 1.033.455 2.226-.139 3.179l-.95 1.527a3 3 0 0 0 .416 3.699l1.448 1.46a3 3 0 0 0 3.734.421l1.58-1c.89-.563 2.004-.601 2.963-.162.15.069.3.136.453.2 1.002.43 1.822 1.25 2.079 2.31l.436 1.794A3 3 0 0 0 91.392 94h2.216a3 3 0 0 0 2.915-2.292l.436-1.794c.257-1.06 1.08-1.87 2.096-2.262l.231-.091Zm-6.61-7.415c-4.817 0-8.694-3.908-8.694-8.763 0-4.856 3.877-8.764 8.694-8.764 4.817 0 8.695 3.908 8.695 8.764 0 4.855-3.877 8.763-8.695 8.763Z" fill="url(#b)"/><defs><linearGradient id="b" x1="78" y1="53.5" x2="107" y2="89" gradientUnits="userSpaceOnUse"><stop stop-color="#80FF9F"/><stop offset="1" stop-color="#56CCF2"/></linearGradient><filter id="a" x="0" y="0" width="89" height="83" filterUnits="userSpaceOnUse" color-interpolation-filters="sRGB"><feFlood flood-opacity="0" result="BackgroundImageFix"/><feBlend in="SourceGraphic" in2="BackgroundImageFix" result="shape"/><feColorMatrix in="SourceAlpha" values="0 0 0 0 0 0 0 0 0 0 0 0 0 0 0 0 0 0 127 0" result="hardAlpha"/><feOffset dy="4"/><feGaussianBlur stdDeviation="15"/><feComposite in2="hardAlpha" operator="arithmetic" k2="-1" k3="1"/><feColorMatrix values="0 0 0 0 0.5 0 0 0 0 1 0 0 0 0 0.625065 0 0 0 1 0"/><feBlend in2="shape" result="effect1_innerShadow"/></filter></defs></svg>