<svg width="89" height="79" fill="none" xmlns="http://www.w3.org/2000/svg"><rect width="89" height="79" rx="20" fill="url(#a)"/><rect x=".5" y=".5" width="88" height="78" rx="19.5" stroke="#FAFAFA" stroke-opacity=".1"/><path d="M27.222 22c-1.835 0-3.333 1.517-3.333 3.333v22.535c-1.321 2.822-2.645 5.684-3.785 8.108a1.115 1.115 0 0 0-.104.468v2.223c0 .975.407 1.928 1.146 2.517.74.59 1.69.816 2.743.816H66.11c1.053 0 2.004-.227 2.743-.816.74-.59 1.146-1.542 1.146-2.517v-2.223c0-.16-.036-.322-.104-.468l-3.785-8.108V25.333c0-1.816-1.498-3.333-3.333-3.333H27.222Zm0 2.222h35.556c.772 0 1.11.353 1.11 1.111v22.223H26.112V25.333c0-.758.34-1.11 1.111-1.11Zm-1.77 25.556h39.097l2.604 5.555H22.847l2.604-5.555Zm-3.23 7.778h45.556v1.11c0 .457-.107.6-.313.765-.206.164-.631.347-1.354.347H23.89c-.723 0-1.148-.183-1.354-.347-.206-.164-.313-.308-.313-.764v-1.111Z" fill="#fff" stroke="#fff"/><path d="M36 39.4v3.8c0 .6.4 1 1 1h16.1c.6 0 1-.4 1-1v-3.8c0-2.8-2.2-5-5-5H41c-2.8 0-5 2.3-5 5Zm2 0c0-1.7 1.3-3 3-3h8.1c1.7 0 3 1.3 3 3v2.8H38v-2.8ZM45.1 32.9c3 0 5.3-3 5.3-5.7 0-2.8-2.4-5.2-5.3-5.2s-5.3 2.3-5.3 5.2c0 2.7 2.2 5.7 5.3 5.7Zm0-8.9c1.8 0 3.3 1.4 3.3 3.2 0 1.7-1.4 3.7-3.3 3.7s-3.3-2-3.3-3.7c0-1.8 1.4-3.2 3.3-3.2Z" fill="#022AF0"/><defs><linearGradient id="a" x1="30" y1="13" x2="105" y2="99" gradientUnits="userSpaceOnUse"><stop stop-color="#5DD4E8"/><stop offset="1" stop-color="#76F3B5"/></linearGradient></defs></svg>