<svg width="115" height="95" fill="none" xmlns="http://www.w3.org/2000/svg"><g filter="url(#a)"><rect width="89" height="79" rx="10" fill="#022AF0"/></g><rect x=".5" y=".5" width="88" height="78" rx="9.5" stroke="#FAFAFA" stroke-opacity=".1"/><rect x="9" y="13" width="50" height="8" rx="4" fill="#131DAA" fill-opacity=".37"/><rect x="9.5" y="13.5" width="49" height="7" rx="3.5" stroke="#80FF9F" stroke-opacity=".5"/><rect x="71" y="13" width="10" height="8" rx="4" fill="#022AF0" fill-opacity=".36"/><rect x="71.5" y="13.5" width="9" height="7" rx="3.5" stroke="#80FF9F" stroke-opacity=".5"/><rect x="9" y="34" width="70" height="13" rx="5" fill="#0A1193" fill-opacity=".4"/><rect x="9.5" y="34.5" width="69" height="12" rx="4.5" stroke="#80FF9F" stroke-opacity=".5"/><rect width="70" height="13" rx="5" transform="matrix(-1 0 0 1 79 52)" fill="#131DAA" fill-opacity=".23"/><rect x="-.5" y=".5" width="69" height="12" rx="4.5" transform="matrix(-1 0 0 1 78 52)" stroke="#80FF9F" stroke-opacity=".5"/><path d="m113.404 89.34-9.529-9.48a19.135 19.135 0 0 0 3.821-11.512C107.696 57.707 99.038 49 88.348 49 77.707 49 69 57.658 69 68.348s8.658 19.348 19.348 19.348c3.966 0 7.69-1.21 10.787-3.29l9.625 9.627c.629.628 1.5.967 2.322.967.822 0 1.693-.339 2.322-.967a3.39 3.39 0 0 0 0-4.692ZM75.578 68.349c0-7.062 5.756-12.818 12.77-12.818 7.014 0 12.77 5.756 12.77 12.77 0 7.013-5.708 12.818-12.77 12.818-7.062 0-12.77-5.756-12.77-12.77Z" fill="url(#b)"/><defs><linearGradient id="b" x1="76.36" y1="49" x2="114.08" y2="95" gradientUnits="userSpaceOnUse"><stop stop-color="#80FF9F"/><stop offset="1" stop-color="#56CCF2"/></linearGradient><filter id="a" x="0" y="0" width="89" height="83" filterUnits="userSpaceOnUse" color-interpolation-filters="sRGB"><feFlood flood-opacity="0" result="BackgroundImageFix"/><feBlend in="SourceGraphic" in2="BackgroundImageFix" result="shape"/><feColorMatrix in="SourceAlpha" values="0 0 0 0 0 0 0 0 0 0 0 0 0 0 0 0 0 0 127 0" result="hardAlpha"/><feOffset dy="4"/><feGaussianBlur stdDeviation="15"/><feComposite in2="hardAlpha" operator="arithmetic" k2="-1" k3="1"/><feColorMatrix values="0 0 0 0 0.5 0 0 0 0 1 0 0 0 0 0.625065 0 0 0 1 0"/><feBlend in2="shape" result="effect1_innerShadow"/></filter></defs></svg>