<svg width="89" height="79" fill="none" xmlns="http://www.w3.org/2000/svg"><rect width="89" height="79" rx="20" fill="url(#a)"/><rect x=".5" y=".5" width="88" height="78" rx="19.5" stroke="#FAFAFA" stroke-opacity=".1"/><path d="M35.515 46.453v3.8c0 .6.4 1 1 1h16.1c.6 0 1-.4 1-1v-3.8c0-2.8-2.2-5-5-5h-8.1c-2.8 0-5 2.3-5 5Zm2 0c0-1.7 1.3-3 3-3h8.1c1.7 0 3 1.3 3 3v2.8h-14.1v-2.8ZM44.615 39.953c3 0 5.3-3 5.3-5.7 0-2.8-2.4-5.2-5.3-5.2s-5.3 2.3-5.3 5.2c0 2.7 2.2 5.7 5.3 5.7Zm0-8.9c1.8 0 3.3 1.4 3.3 3.2 0 1.7-1.4 3.7-3.3 3.7s-3.3-2-3.3-3.7c0-1.8 1.4-3.2 3.3-3.2Z" fill="#022AF0"/><path d="M56.015 57.553c-7 4.5-16 4.5-23 0h-.1l4-.3c.6 0 1-.5.9-1.1-.1-.6-.5-1-1.1-.9l-5.7.4c-.3 0-.5.1-.7.3-.2.2-.3.5-.2.7l.4 5.7c0 .5.5.9 1 .9h.1c.6 0 1-.5.9-1.1l-.2-2.7c7.7 4.7 17.3 4.5 24.7-.3.5-.3.6-.9.3-1.4-.2-.4-.8-.5-1.3-.2ZM27.715 25.453l-5.6-.6c-.6-.1-1 .3-1.1.9-.1.5.3 1 .9 1.1l2.6.3c-2.2 3.7-3.4 7.9-3.4 12.2 0 4.5 1.3 8.8 3.6 12.6.3.5.9.6 1.4.3.5-.3.6-.9.3-1.4-2.2-3.4-3.3-7.4-3.3-11.5s1.1-8.1 3.3-11.5v-.1l-.4 4c-.1.5.3 1 .9 1.1h.1c.5 0 .9-.4 1-.9l.6-5.4c0-.5-.4-1-.9-1.1ZM58.215 15.753c-.1-.5-.7-.9-1.2-.7-.5.1-.9.7-.7 1.2l.8 3.1c-3.8-2.4-8.1-3.6-12.5-3.6-4.5 0-8.8 1.3-12.6 3.7-.5.3-.6.9-.3 1.4.3.5.9.6 1.4.3 3.4-2.2 7.4-3.3 11.5-3.3s8.1 1.2 11.5 3.3h.1l-3.2.8c-.6.2-.9.7-.8 1.2.1.5.5.7 1 .7h.3l5.5-1.4c.5-.1.9-.7.7-1.2l-1.5-5.5ZM67.415 52.052l-2.9-.3c2.3-3.7 3.6-8 3.6-12.4 0-4.5-1.3-8.8-3.6-12.6-.3-.5-.9-.6-1.4-.3-.5.3-.6.9-.3 1.4 2.2 3.4 3.3 7.4 3.3 11.5 0 4-1.1 7.9-3.2 11.3l.4-3.7c.1-.5-.3-1-.9-1.1-.5 0-1 .3-1.1.9l-.6 5.7c0 .3.1.5.2.7.2.2.4.3.7.4l5.6.6h.1c.5 0 .9-.4 1-.9 0-.7-.4-1.2-.9-1.2Z" fill="#fff" stroke="#fff" stroke-width=".5"/><defs><linearGradient id="a" x1="30" y1="13" x2="105" y2="99" gradientUnits="userSpaceOnUse"><stop stop-color="#5DD4E8"/><stop offset="1" stop-color="#76F3B5"/></linearGradient></defs></svg>