<svg width="89" height="79" fill="none" xmlns="http://www.w3.org/2000/svg"><g filter="url(#a)"><path d="M69 0H20C8.954 0 0 8.954 0 20v39c0 11.046 8.954 20 20 20h49c11.046 0 20-8.954 20-20V20C89 8.954 80.046 0 69 0Z" fill="url(#b)"/><path d="M69 .5H20C9.23.5.5 9.23.5 20v39C.5 69.77 9.23 78.5 20 78.5h49c10.77 0 19.5-8.73 19.5-19.5V20C88.5 9.23 79.77.5 69 .5Z" stroke="#FAFAFA" stroke-opacity=".1"/></g><path d="M32.5 61a7.5 7.5 0 1 0 0-15 7.5 7.5 0 0 0 0 15Zm0-10.91a3.41 3.41 0 1 1 0 6.82 3.41 3.41 0 0 1 0-6.82ZM64 28.5a7.5 7.5 0 1 0-15 0 7.5 7.5 0 0 0 15 0Zm-10.91 0a3.41 3.41 0 1 1 6.82 0 3.41 3.41 0 0 1-6.82 0Z" fill="#fff"/><path d="m44.594 54.466 6.742 6.815a1 1 0 0 0 1.422 0l1.466-1.482a1 1 0 0 0 0-1.406l-3.288-3.325h6.612c.978 0 1.947-.194 2.852-.573a7.448 7.448 0 0 0 2.417-1.633c.692-.7 1.241-1.53 1.616-2.445A7.607 7.607 0 0 0 65 47.534V41a1 1 0 0 0-1-1h-2.065a1 1 0 0 0-1 1v6.534c0 .909-.357 1.78-.992 2.422a3.369 3.369 0 0 1-2.395 1.003h-6.612l3.288-3.324a1 1 0 0 0 0-1.407l-1.466-1.482a1 1 0 0 0-1.422 0l-6.742 6.816c-.38.385-.594.907-.594 1.452 0 .544.214 1.066.594 1.452ZM24 34.466V41a1 1 0 0 0 1 1h2.065a1 1 0 0 0 1-1v-6.534c0-.909.357-1.78.992-2.422a3.369 3.369 0 0 1 2.395-1.003h6.612l-3.288 3.324a1 1 0 0 0 0 1.407l1.466 1.482a1 1 0 0 0 1.422 0l6.742-6.816c.38-.385.594-.907.594-1.452 0-.544-.214-1.067-.594-1.452l-6.742-6.815a1 1 0 0 0-1.422 0L34.776 22.2a1 1 0 0 0 0 1.406l3.288 3.325h-6.612a7.412 7.412 0 0 0-5.27 2.206A7.576 7.576 0 0 0 24 34.466Z" fill="#022AF0"/><defs><linearGradient id="b" x1="30" y1="13" x2="105" y2="99" gradientUnits="userSpaceOnUse"><stop stop-color="#5DD4E8"/><stop offset="1" stop-color="#76F3B5"/></linearGradient><filter id="a" x="0" y="0" width="89" height="83" filterUnits="userSpaceOnUse" color-interpolation-filters="sRGB"><feFlood flood-opacity="0" result="BackgroundImageFix"/><feBlend in="SourceGraphic" in2="BackgroundImageFix" result="shape"/><feColorMatrix in="SourceAlpha" values="0 0 0 0 0 0 0 0 0 0 0 0 0 0 0 0 0 0 127 0" result="hardAlpha"/><feOffset dy="4"/><feGaussianBlur stdDeviation="15"/><feComposite in2="hardAlpha" operator="arithmetic" k2="-1" k3="1"/><feColorMatrix values="0 0 0 0 0.5 0 0 0 0 1 0 0 0 0 0.625065 0 0 0 0.25 0"/><feBlend in2="shape" result="effect1_innerShadow_5:21"/></filter></defs></svg>