<svg width="89" height="79" fill="none" xmlns="http://www.w3.org/2000/svg"><path d="M69 0H20C8.954 0 0 8.954 0 20v39c0 11.046 8.954 20 20 20h49c11.046 0 20-8.954 20-20V20C89 8.954 80.046 0 69 0Z" fill="url(#a)"/><path d="M69 .5H20C9.23.5.5 9.23.5 20v39C.5 69.77 9.23 78.5 20 78.5h49c10.77 0 19.5-8.73 19.5-19.5V20C88.5 9.23 79.77.5 69 .5Z" stroke="#FAFAFA" stroke-opacity=".1"/><path d="M26.5 45.5v-5a1 1 0 0 1 1-1h32a1 1 0 0 1 1 1V45" stroke="#022AF0" stroke-width="4" stroke-linecap="round"/><path d="M29 47h-4a4 4 0 0 0-4 4v4a4 4 0 0 0 4 4h4a4 4 0 0 0 4-4v-4a4 4 0 0 0-4-4ZM62 47h-4a4 4 0 0 0-4 4v4a4 4 0 0 0 4 4h4a4 4 0 0 0 4-4v-4a4 4 0 0 0-4-4Z" stroke="#022AF0" stroke-width="4" stroke-linejoin="round"/><path d="M43.5 31v8.5" stroke="#022AF0" stroke-width="4" stroke-linecap="round"/><path d="M43.5 32a8.5 8.5 0 1 0 0-17 8.5 8.5 0 0 0 0 17Zm0-12.364a3.864 3.864 0 1 1 0 7.728 3.864 3.864 0 0 1 0-7.728Z" fill="#fff"/><defs><linearGradient id="a" x1="30" y1="13" x2="105" y2="99" gradientUnits="userSpaceOnUse"><stop stop-color="#5DD4E8"/><stop offset="1" stop-color="#76F3B5"/></linearGradient></defs></svg>