<svg width="89" height="79" fill="none" xmlns="http://www.w3.org/2000/svg"><rect width="89" height="79" rx="20" fill="url(#a)"/><rect x=".5" y=".5" width="88" height="78" rx="19.5" stroke="#FAFAFA" stroke-opacity=".1"/><path d="M50 30 40 53" stroke="#022AF0" stroke-width="5" stroke-linecap="round"/><path d="M34.844 27.621a2.394 2.394 0 0 0-3.314.093l-11.89 12.22a2.226 2.226 0 0 0 0 3.125l11.889 12.227a2.372 2.372 0 0 0 1.705.714c.578 0 1.156-.205 1.61-.62a2.228 2.228 0 0 0 .096-3.217L24.57 41.498l10.369-10.66a2.229 2.229 0 0 0-.095-3.217Zm35.517 12.32L58.47 27.714a2.396 2.396 0 0 0-3.315-.093 2.229 2.229 0 0 0-.096 3.217l10.37 10.665-10.37 10.659a2.228 2.228 0 0 0 .096 3.217 2.374 2.374 0 0 0 1.609.621 2.37 2.37 0 0 0 1.705-.713l11.89-12.221a2.227 2.227 0 0 0 0-3.125Z" fill="#fff"/><defs><linearGradient id="a" x1="30" y1="13" x2="105" y2="99" gradientUnits="userSpaceOnUse"><stop stop-color="#5DD4E8"/><stop offset="1" stop-color="#76F3B5"/></linearGradient></defs></svg>