<svg width="126" height="105" fill="none" xmlns="http://www.w3.org/2000/svg"><g filter="url(#a)"><rect width="89" height="79" rx="10" fill="#022AF0"/></g><rect x=".5" y=".5" width="88" height="78" rx="9.5" stroke="#FAFAFA" stroke-opacity=".1"/><rect x="9" y="13" width="50" height="8" rx="4" fill="#131DAA" fill-opacity=".37"/><rect x="9.5" y="13.5" width="49" height="7" rx="3.5" stroke="#80FF9F" stroke-opacity=".5"/><rect x="71" y="13" width="10" height="8" rx="4" fill="#022AF0" fill-opacity=".36"/><rect x="71.5" y="13.5" width="9" height="7" rx="3.5" stroke="#80FF9F" stroke-opacity=".5"/><rect x="9" y="34" width="39" height="34" rx="5" fill="#0A1193" fill-opacity=".4"/><rect x="9.5" y="34.5" width="38" height="33" rx="4.5" stroke="#80FF9F" stroke-opacity=".5"/><rect width="32" height="13" rx="5" transform="matrix(-1 0 0 1 84 34)" fill="#131DAA" fill-opacity=".12"/><rect x="-.5" y=".5" width="31" height="12" rx="4.5" transform="matrix(-1 0 0 1 83 34)" stroke="#80FF9F" stroke-opacity=".5"/><rect width="32" height="13" rx="5" transform="matrix(-1 0 0 1 84 51)" fill="#131DAA" fill-opacity=".23"/><rect x="-.5" y=".5" width="31" height="12" rx="4.5" transform="matrix(-1 0 0 1 83 51)" stroke="#80FF9F" stroke-opacity=".5"/><g filter="url(#b)"><path d="M92.903 57.708h19.231c.629 0 1.015-.676.725-1.256-2.996-5.17-7.924-9.036-13.77-10.63-.387-.097-.774.096-.967.386l-5.895 10.244c-.338.58.048 1.256.676 1.256Z" fill="url(#c)"/><path d="M115.179 62.153a.885.885 0 0 0-.822-.628h-11.79c-.628 0-1.014.677-.725 1.256l9.616 16.67a.859.859 0 0 0 1.45 0C114.84 76.07 116 72.156 116 68a25.095 25.095 0 0 0-.821-5.847Z" fill="url(#d)"/><path d="M82.66 62.878a.858.858 0 0 0 1.45 0l9.615-16.622c.29-.531-.048-1.256-.677-1.256-6.281 0-11.983 2.56-16.138 6.668-.242.242-.29.676-.145 1.015l5.895 10.195Z" fill="url(#e)"/><path d="M103.34 73.025a.858.858 0 0 0-1.449 0l-9.616 16.622c-.29.532.048 1.256.677 1.256 6.281 0 11.983-2.56 16.138-6.668.242-.241.29-.676.145-1.014l-5.895-10.196Z" fill="url(#f)"/><path d="M93.097 78.195H73.866c-.629 0-1.015.677-.725 1.257 2.996 5.17 7.924 9.035 13.77 10.63a.809.809 0 0 0 .919-.387l5.895-10.243c.386-.58 0-1.257-.628-1.257Z" fill="url(#g)"/><path d="M84.158 73.122 74.542 56.5a.858.858 0 0 0-1.45 0C71.16 59.882 70 63.796 70 67.952c0 2.029.29 3.962.773 5.798a.885.885 0 0 0 .822.628h11.838c.676 0 1.063-.676.725-1.256Z" fill="url(#h)"/></g><defs><linearGradient id="c" x1="102.529" y1="45.796" x2="102.529" y2="57.708" gradientUnits="userSpaceOnUse"><stop stop-color="#80FF9F"/><stop offset="1" stop-color="#56CCF2"/></linearGradient><linearGradient id="d" x1="108.872" y1="61.525" x2="108.872" y2="79.85" gradientUnits="userSpaceOnUse"><stop stop-color="#80FF9F"/><stop offset="1" stop-color="#56CCF2"/></linearGradient><linearGradient id="e" x1="85.257" y1="45" x2="85.257" y2="63.277" gradientUnits="userSpaceOnUse"><stop stop-color="#80FF9F"/><stop offset="1" stop-color="#56CCF2"/></linearGradient><linearGradient id="f" x1="100.744" y1="72.627" x2="100.744" y2="90.903" gradientUnits="userSpaceOnUse"><stop stop-color="#80FF9F"/><stop offset="1" stop-color="#56CCF2"/></linearGradient><linearGradient id="g" x1="83.461" y1="78.195" x2="83.461" y2="90.111" gradientUnits="userSpaceOnUse"><stop stop-color="#80FF9F"/><stop offset="1" stop-color="#56CCF2"/></linearGradient><linearGradient id="h" x1="77.141" y1="56.101" x2="77.141" y2="74.378" gradientUnits="userSpaceOnUse"><stop stop-color="#80FF9F"/><stop offset="1" stop-color="#56CCF2"/></linearGradient><filter id="a" x="0" y="0" width="89" height="83" filterUnits="userSpaceOnUse" color-interpolation-filters="sRGB"><feFlood flood-opacity="0" result="BackgroundImageFix"/><feBlend in="SourceGraphic" in2="BackgroundImageFix" result="shape"/><feColorMatrix in="SourceAlpha" values="0 0 0 0 0 0 0 0 0 0 0 0 0 0 0 0 0 0 127 0" result="hardAlpha"/><feOffset dy="4"/><feGaussianBlur stdDeviation="15"/><feComposite in2="hardAlpha" operator="arithmetic" k2="-1" k3="1"/><feColorMatrix values="0 0 0 0 0.5 0 0 0 0 1 0 0 0 0 0.625065 0 0 0 1 0"/><feBlend in2="shape" result="effect1_innerShadow"/></filter><filter id="b" x="60" y="39" width="66" height="65.903" filterUnits="userSpaceOnUse" color-interpolation-filters="sRGB"><feFlood flood-opacity="0" result="BackgroundImageFix"/><feColorMatrix in="SourceAlpha" values="0 0 0 0 0 0 0 0 0 0 0 0 0 0 0 0 0 0 127 0" result="hardAlpha"/><feOffset dy="4"/><feGaussianBlur stdDeviation="5"/><feComposite in2="hardAlpha" operator="out"/><feColorMatrix values="0 0 0 0 0.5 0 0 0 0 1 0 0 0 0 0.625065 0 0 0 0.15 0"/><feBlend in2="BackgroundImageFix" result="effect1_dropShadow"/><feBlend in="SourceGraphic" in2="effect1_dropShadow" result="shape"/></filter></defs></svg>