<svg width="89" height="79" fill="none" xmlns="http://www.w3.org/2000/svg"><rect width="89" height="79" rx="20" fill="url(#a)"/><rect x=".5" y=".5" width="88" height="78" rx="19.5" stroke="#FAFAFA" stroke-opacity=".1"/><path d="M64.455 36.28h-1.921c-.192-.576-.433-1.2-.72-1.728l1.344-1.345c.624-.576.96-1.345.96-2.21 0-.864-.336-1.68-.912-2.256l-4.37-4.37a3.116 3.116 0 0 0-4.419.047l-1.392 1.393-1.73-.72V23.17a3.167 3.167 0 0 0-3.17-3.17h-6.098a3.167 3.167 0 0 0-3.17 3.17v1.92c-.624.193-1.2.433-1.729.721l-1.345-1.345c-1.2-1.2-3.265-1.2-4.466 0l-4.322 4.323a3.22 3.22 0 0 0 0 4.466l2.257 2.257a1.74 1.74 0 0 0 2.45 0 1.74 1.74 0 0 0 0-2.449l-2.018-2.017 3.89-3.842 2.017 2.017c.576.576 1.393.672 2.065.288a15.832 15.832 0 0 1 3.41-1.44c.72-.24 1.249-.913 1.249-1.682v-2.881h5.475v2.881c0 .769.528 1.49 1.296 1.681 1.25.336 2.402.817 3.41 1.393.673.384 1.537.288 2.065-.288l2.017-2.017 3.89 3.89-2.017 2.065c-.528.576-.672 1.393-.288 2.065a14.492 14.492 0 0 1 1.393 3.41c.192.768.913 1.297 1.68 1.297h2.883v5.474h-2.882c-.769 0-1.489.529-1.681 1.297a14.492 14.492 0 0 1-1.393 3.41 1.752 1.752 0 0 0 .288 2.113l2.066 2.017-3.89 3.89-2.018-2.065c-.576-.576-1.392-.672-2.113-.288a12.437 12.437 0 0 1-3.41 1.393c-.768.192-1.296.912-1.296 1.68v2.882h-5.38v-2.833c0-.769-.527-1.49-1.296-1.681a16.388 16.388 0 0 1-3.41-1.393c-.672-.384-1.537-.288-2.065.288l-2.017 2.017-3.842-3.842 2.017-2.017a1.74 1.74 0 0 0 0-2.45 1.74 1.74 0 0 0-2.45 0l-2.304 2.114a3.116 3.116 0 0 0 .048 4.418l4.322 4.323c.576.576 1.345.912 2.257.912.865 0 1.633-.336 2.161-.912l1.393-1.393c.576.288 1.153.528 1.729.72v1.921c0 1.73 1.393 3.122 3.17 3.122h6.147a3.115 3.115 0 0 0 3.122-3.122V59.91a13.196 13.196 0 0 0 1.729-.72l1.392 1.393c1.201 1.152 3.218 1.152 4.467-.048l4.37-4.37c1.153-1.201 1.153-3.218-.048-4.467l-1.345-1.345c.24-.576.48-1.104.72-1.729H64.6a3.167 3.167 0 0 0 3.17-3.17V39.45c-.145-1.729-1.537-3.17-3.314-3.17Z" fill="#fff"/><path d="M42.363 48.047a1.74 1.74 0 0 0 0 2.45c.336.336.768.528 1.248.528a1.83 1.83 0 0 0 1.25-.529l6.723-6.723a1.74 1.74 0 0 0 0-2.45L44.86 34.6a1.74 1.74 0 0 0-2.45 0 1.74 1.74 0 0 0 0 2.45l3.795 3.793H23.729c-.96 0-1.729.769-1.729 1.73 0 .96.768 1.728 1.729 1.728h22.38l-3.746 3.746Z" fill="#022AF0"/><defs><linearGradient id="a" x1="30" y1="13" x2="105" y2="99" gradientUnits="userSpaceOnUse"><stop stop-color="#5DD4E8"/><stop offset="1" stop-color="#76F3B5"/></linearGradient></defs></svg>