<svg width="624" height="423" viewBox="0 0 624 423" fill="none" xmlns="http://www.w3.org/2000/svg">
<path style="mix-blend-mode:screen" opacity="0.5" d="M345.589 40.8706C350.886 46.167 355.089 52.455 357.956 59.3755C360.823 66.2961 362.298 73.7136 362.298 81.2045C362.298 88.6954 360.823 96.113 357.956 103.034C355.089 109.954 350.886 116.242 345.589 121.538L97.3664 369.771C86.6678 380.466 72.1594 386.474 57.0318 386.474C41.9041 386.474 27.3957 380.466 16.6971 369.771C6.00564 359.071 0 344.564 0 329.437C0 314.311 6.00564 299.804 16.6971 289.103L264.92 40.8706C275.618 30.1757 290.126 24.1676 305.254 24.1676C320.382 24.1676 334.89 30.1757 345.589 40.8706Z" fill="url(#paint0_linear)" fill-opacity="0.3"/>
<path style="mix-blend-mode:screen" opacity="0.5" d="M605.836 18.1641C611.595 23.9186 616.162 30.7513 619.279 38.2717C622.395 45.7922 624 53.853 624 61.9936C624 70.1342 622.395 78.1951 619.279 85.7155C616.162 93.236 611.595 100.069 605.836 105.823L349.965 361.704C338.337 373.327 322.569 379.856 306.128 379.856C289.686 379.856 273.918 373.327 262.29 361.704C250.667 350.076 244.138 334.308 244.138 317.867C244.138 301.427 250.667 285.659 262.29 274.03L518.161 18.1641C523.917 12.4056 530.751 7.83748 538.273 4.72082C545.794 1.60415 553.857 0 561.999 0C570.141 0 578.203 1.60415 585.725 4.72082C593.246 7.83748 600.08 12.4056 605.836 18.1641Z" fill="url(#paint1_linear)" fill-opacity="0.3"/>
<path style="mix-blend-mode:screen" opacity="0.5" d="M596.545 186.611C599.287 189.35 601.462 192.604 602.946 196.185C604.43 199.765 605.193 203.603 605.193 207.48C605.193 211.356 604.43 215.194 602.946 218.775C601.462 222.355 599.287 225.609 596.545 228.349L480.561 344.346C475.023 349.876 467.517 352.982 459.691 352.982C451.865 352.982 444.359 349.876 438.822 344.346C436.079 341.605 433.904 338.35 432.42 334.768C430.936 331.186 430.172 327.347 430.172 323.469C430.172 319.592 430.936 315.753 432.42 312.171C433.904 308.589 436.079 305.334 438.822 302.593L554.806 186.611C557.546 183.869 560.799 181.694 564.38 180.21C567.961 178.726 571.799 177.962 575.676 177.962C579.552 177.962 583.39 178.726 586.971 180.21C590.552 181.694 593.805 183.869 596.545 186.611Z" fill="url(#paint2_linear)" fill-opacity="0.3"/>
<path style="mix-blend-mode:screen" opacity="0.5" d="M501.459 124.541C508.862 131.95 513.021 141.995 513.021 152.468C513.021 162.942 508.862 172.987 501.459 180.396L270.969 410.807C267.302 414.478 262.948 417.391 258.154 419.378C253.361 421.365 248.223 422.388 243.034 422.388C237.845 422.388 232.707 421.365 227.913 419.378C223.12 417.391 218.765 414.478 215.098 410.807C207.695 403.398 203.537 393.353 203.537 382.88C203.537 372.406 207.695 362.361 215.098 354.952L445.603 124.541C449.27 120.872 453.624 117.961 458.416 115.976C463.208 113.99 468.344 112.968 473.531 112.968C478.719 112.968 483.855 113.99 488.647 115.976C493.439 117.961 497.793 120.872 501.459 124.541Z" fill="url(#paint3_linear)" fill-opacity="0.3"/>
<defs>
<linearGradient id="paint0_linear" x1="343.057" y1="36.5605" x2="14.7266" y2="364.897" gradientUnits="userSpaceOnUse">
<stop stop-color="white"/>
<stop offset="1" stop-opacity="0"/>
</linearGradient>
<linearGradient id="paint1_linear" x1="-295301" y1="50544.1" x2="-382710" y2="137955" gradientUnits="userSpaceOnUse">
<stop stop-color="white"/>
<stop offset="1" stop-opacity="0"/>
</linearGradient>
<linearGradient id="paint2_linear" x1="-99999.6" y1="6284.65" x2="-118480" y2="24765.7" gradientUnits="userSpaceOnUse">
<stop stop-color="white"/>
<stop offset="1" stop-opacity="0"/>
</linearGradient>
<linearGradient id="paint3_linear" x1="108031" y1="21973.5" x2="81352.4" y2="48657.2" gradientUnits="userSpaceOnUse">
<stop stop-color="white"/>
<stop offset="1" stop-opacity="0"/>
</linearGradient>
</defs>
</svg>
