<svg xmlns="http://www.w3.org/2000/svg" xmlns:xlink="http://www.w3.org/1999/xlink" viewBox="0 0 680 564"><defs><linearGradient id="A" x1="270.163" y1="120.808" x2="480.909" y2="553.927" xlink:href="#S"><stop offset="0" stop-color="#7cea57"/><stop offset=".978" stop-color="#c9ffa9"/></linearGradient><linearGradient id="B" x1="495.623" y1="432.52" x2="221.011" y2="101.242" xlink:href="#S"><stop offset="0" stop-color="#94f8a5"/><stop offset="1" stop-color="#00b818"/></linearGradient><linearGradient id="C" x1="283.269" y1="151.987" x2="431.427" y2="155.393" xlink:href="#S"><stop offset=".725" stop-color="#00d228" stop-opacity="0"/><stop offset="1" stop-color="#00b322" stop-opacity=".55"/></linearGradient><linearGradient id="D" x1="260.888" y1="181.466" x2="421.021" y2="181.466" xlink:href="#C"/><linearGradient id="E" x1="482.98" y1="354.517" x2="573.274" y2="537.449" xlink:href="#S"><stop offset=".311" stop-color="#17d23b"/><stop offset="1" stop-color="#7cea57"/></linearGradient><linearGradient id="F" x1="515.834" y1="206.512" x2="685.683" y2="663.796" xlink:href="#A"/><linearGradient id="G" x1="165.456" y1="500.706" x2="395.946" y2="69.603" xlink:href="#S"><stop offset="0" stop-color="#17d23b"/><stop offset="1" stop-color="#7cea57"/></linearGradient><linearGradient id="H" x1="348.456" y1="615.269" x2="694.231" y2="209.731" xlink:href="#S"><stop offset=".062" stop-color="#7cea57"/><stop offset="1" stop-color="#c9ffa9"/></linearGradient><linearGradient id="I" x1="166.45" y1="460.377" x2="512.287" y2="54.766" xlink:href="#H"/><linearGradient id="J" x1="41.329" y1="353.802" x2="387.093" y2="-51.723" xlink:href="#H"/><linearGradient id="K" x1="373.466" y1="62.064" x2="429.244" y2="64.608" xlink:href="#S"><stop offset=".624" stop-color="#00d228" stop-opacity="0"/><stop offset="1" stop-color="#00b322" stop-opacity=".15"/></linearGradient><linearGradient id="L" x1="392.726" y1="34.019" x2="424.703" y2="34.988" xlink:href="#K"/><linearGradient id="M" x1="370.731" y1="433.917" x2="430.277" y2="-5.952" xlink:href="#G"/><linearGradient id="N" x1="538.84" y1="392.133" x2="538.911" y2="391.609" xlink:href="#G"/><linearGradient id="O" x1="537.532" y1="395.247" x2="537.802" y2="393.254" xlink:href="#G"/><radialGradient id="P" cx="407.893" cy="328.944" r="94.809" gradientTransform="matrix(.927 .379 -1.461 3.566 637.438 -944.096)" xlink:href="#S"><stop offset="0" stop-color="#00b322" stop-opacity=".25"/><stop offset=".438" stop-color="#00d228" stop-opacity="0"/></radialGradient><path id="Q" d="M424.576 87.324c-.077-.022-.147-.051-.221-.077l-.1-.035-.026-.01h-.013a207.482 207.482 0 0 0-11.74-3.721l-.125-.036q-.753-.213-1.508-.421l-.565-.157-1.329-.357-.72-.193q-.708-.186-1.419-.366l-.592-.152q-.87-.219-1.743-.431l-.237-.059a205.86 205.86 0 0 0-12-2.538l-.565-.1-.4-.072-.56-.1q-3.7-.638-7.451-1.159a200.515 200.515 0 0 0-23.285-1.887h-.323l-2.532-.053h-.084a70.587 70.587 0 0 0-2.954-.064h-.229l-1.095.012-2.236.025-1.743.044-1.764.048q-1.4.049-2.786.119l-.688.03a211.537 211.537 0 0 0-169.328 99.996c-.013.012-.026.019-.039.031l-3.1 5.211-1.17 2-1.208 2.224-2.3 4.269a206.346 206.346 0 0 0-13.5 32.633l-.09.275-1.506 4.748-.077.257v-.005c0-.015.013-.032.019-.048a2.13 2.13 0 0 1 .067-.151l.084-.192.014-.033.128-.379 2.484-6.8.041-.128q1.327-3.639 2.811-7.2a177.227 177.227 0 0 1 192.282-106.858h.01l3.028.522q1.707.306 3.4.649 1.693.343 3.4.72l.837.186a179.36 179.36 0 0 1 64.432 28.872l.042.029a.362.362 0 0 0 .032.022h.006l.281.192V87.331a.192.192 0 0 1-.047-.007z"/><path id="R" d="M424.341 136.474h-.006a.227.227 0 0 1-.032-.022l-.042-.029a179.353 179.353 0 0 0-64.432-28.872l-.836-.186q-1.692-.378-3.4-.72-1.708-.342-3.4-.649a151.827 151.827 0 0 0-3.028-.522h-.01a177.175 177.175 0 0 0-192.283 106.843q-1.479 3.563-2.811 7.2l-.041.128-2.484 6.8-.128.379-.014.033-.084.192-.067.151-.018.048c.052-.115.155-.265.209-.388l.632-1.46 1.313-2.981.071-.157.962-2.068.391-.759a169.39 169.39 0 0 1 3.313-6.356l.67-1.19.417-.723.708-1.226.269-.458q.429-.738.872-1.459l.24-.4.231-.362a.6.6 0 0 0 .051-.08c.049-.064.09-.144.138-.207l.446-.7.589-.932.167-.262.731-1.127a37.56 37.56 0 0 1 1.484-2.166l.423-.631.359-.505.1-.141.9-1.274q.15-.225.318-.451.168-.226.336-.454l.068-.093.317-.438 1.554-2.062.519-.691.122-.15a32.04 32.04 0 0 1 1-1.287l1.445-1.744 1.218-1.494.324-.365.25-.307.977-1.092.148-.163 1.593-1.776.663-.752.545-.589a77.741 77.741 0 0 1 2.17-2.3l1.531-1.53 2.4-2.32.939-.9c.025-.055.08-.08.131-.135l.51-.457 2.3-2.106 2-1.715a.781.781 0 0 1 .071-.058.592.592 0 0 0 .045-.041.913.913 0 0 0 .125-.1l3.714-3.03 2.324-1.789 2.192-1.664 3.413-2.4.926-.637a142.497 142.497 0 0 1 3.362-2.189 7.2 7.2 0 0 0 .74-.48l1.859-1.1 2.125-1.229a129.948 129.948 0 0 1 8.839-4.73l.987-.493.43-.2 2.849-1.318 1.214-.531.071-.029.013-.007a78.35 78.35 0 0 1 3.807-1.613c3.468-1.373 6.987-2.643 10.557-3.75a127.254 127.254 0 0 1 5.08-1.482 117.66 117.66 0 0 1 4.339-1.107l1.509-.346a104.9 104.9 0 0 1 3.994-.845c1.561-.313 3.121-.579 4.708-.845l2.512-.368c1.564-.236 3.125-.422 4.711-.608l3.914-.371a7.617 7.617 0 0 1 .769-.051c1.56-.131 3.1-.211 4.656-.266.529-.051 1.032-.051 1.532-.076q2.385-.083 4.763-.08c2.214 0 4.394.127 6.579.23l5.833.368 2.231.234q3.735.4 7.409.988l1.532.234q4.4.759 8.711 1.782c.474.113.936.244 1.407.362q3.648.9 7.224 2 .942.284 1.884.58a141.19 141.19 0 0 1 16.194 6.317l1.837.87q3.254 1.565 6.416 3.284l1.362.729q3.72 2.074 7.3 4.369l1.423.944a.5.5 0 0 0 .054.035q2.852 1.881 5.605 3.885l1.84 1.351c2.231 1.68 4.429 3.4 6.554 5.206.064.055.128.113.192.17a142.441 142.441 0 0 1 5.971 5.418l1.856 1.814q2.216 2.195 4.332 4.484l1.587 1.7q2.658 2.973 5.147 6.081c.554.691 1.077 1.4 1.615 2.1q1.74 2.256 3.388 4.58a145.91 145.91 0 0 1 1.814 2.605q1.768 2.611 3.413 5.315c.663 1.079 1.3 2.17 1.936 3.268.961 1.667 1.9 3.344 2.788 5.053.5.947.968 1.907 1.442 2.867.086.18.16.365.247.545l10.084 26.724.875 2.41.061.166q.879 2.415 1.756 4.833l.638 1.766c.426 1.047.8 2.064 1.208 3.1l.01.026c.009.029.019.048.029.076l.041.1V259c.106.272.275.544.38.816l-.022-123.116v-.028c-.08-.063-.2-.144-.281-.198z"/><linearGradient id="S" gradientUnits="userSpaceOnUse"/></defs><use xlink:href="#Q" fill="url(#A)"/><use xlink:href="#R" fill="url(#B)"/><use xlink:href="#Q" fill="url(#C)"/><use xlink:href="#R" fill="url(#D)"/><path d="M546.684 381.732q-4.052 10.638-8.931 20.851-1.63 3.416-3.348 6.78-1.982 3.9-4.079 7.724-2.178 3.975-4.48 7.872-4.216 7.137-8.839 14-2.347 3.489-4.8 6.9-6.328 8.829-13.3 17.144l-.016.019 33.591 92.6.03.082.795 2.19.07.193.108.3.374 1.032.043.121H611.2z" fill="url(#E)"/><path d="M565.42 243.74l-.115-.32-.488-.8.25 39.758-.041 1.559a195.852 195.852 0 0 1-.09 4.909l-.029.675-.006.352q-.078 2.363-.186 4.717l-.41 7.489q-.26 3.936-.638 7.831a1.82 1.82 0 0 0-.042.477q-.648 6.375-1.586 12.657a280.42 280.42 0 0 1-15.355 58.689l64.511 177.8H680z" fill="url(#F)"/><path d="M563.811 306.384l-.224 2.14q-.8 7.313-2.035 14.491a244.215 244.215 0 0 1-16.22 54.99q-.658 1.539-1.34 3.067l-.109.245-.115.257q-.311.7-.625 1.388l-.321.7-.432.943a230.393 230.393 0 0 1-2.448 5.112l-.09.187-.358.723-.408.829a9.845 9.845 0 0 1-.193.384l-.371.743-.087.17-.033.064-.562 1.1-.075.146-.065.127-.518 1.009-.9 1.709q-.538 1.028-1.1 2.049a.524.524 0 0 0-.032.057q-.678 1.248-1.368 2.49-1.044 1.868-2.112 3.716l-1.381 2.348q-1.476 2.478-3.01 4.919-.375.6-.756 1.2-4.134 6.5-8.663 12.727l-.833 1.14q-2.086 2.836-4.253 5.607l-.561.716q-1.023 1.306-2.067 2.589-.432.533-.869 1.066l-1.044 1.27q-.447.543-.9 1.082-5.749 6.859-11.993 13.278c-.006.006-.009.013-.016.019l-.288.3-.019.019-1.122 1.14q-.505.517-1.019 1.027-.514.51-1.026 1.02-1.029 1.023-2.07 2.026-2.034 1.969-4.109 3.882a1.125 1.125 0 0 1-.1.093q-1.062.988-2.141 1.952-.539.49-1.08.967-1.082.969-2.176 1.913-1.044.912-2.1 1.805a1.128 1.128 0 0 1-.1.083q-1.052.9-2.121 1.783a1.297 1.297 0 0 1-.1.08q-1.491 1.236-3 2.447l-.061.05-.839.667-.172.135-1.132.89-1.062.835-.424.333q-.627.483-1.255.963-1.448 1.1-2.91 2.185-.663.488-1.325.971l-.506.363-.224.161q-.652.472-1.308.94l-.2.144-.551.4-1.4.989q-1.414.984-2.833 1.946-1.419.962-2.862 1.907a.724.724 0 0 1-.09.058q-1.823 1.2-3.67 2.362-1.187.753-2.384 1.485a1.31 1.31 0 0 1-.087.051q-2.437 1.5-4.916 2.944a1.53 1.53 0 0 1-.083.048q-1.26.735-2.529 1.453-1.9 1.08-3.83 2.125-1.24.676-2.493 1.338-.711.374-1.423.745-1.274.663-2.554 1.309-.713.36-1.423.714l-1.2.588q-2.658 1.307-5.355 2.548-1.264.58-2.538 1.152-6.187 2.764-12.554 5.2l-2.448.922q-3.49 1.291-7.032 2.48-2.782.932-5.595 1.8-2.13.657-4.276 1.277l-4.307 1.2q-1.441.388-2.891.759-1.45.371-2.9.726-2.909.711-5.846 1.347l-.958.2q-1.764.38-3.538.73-1.264.249-2.532.486l-.9.166-.968.176a246.031 246.031 0 0 1-24.478 3.13q-1.221.1-2.446.176-4.764.327-9.573.464l-7.278.18C182.7 527.979 72.47 417.912 72.314 282.021 72.314 146.174 182.507 36.1 318.588 36.1l1.773.007 1.769.019 1.769.032 1.371.032q.467.009.933.029.611.014 1.221.038.735.024 1.465.058l.618.025 1.426.064 1.753.093 1.978.118 1.513.1 1.81.134q.832.063 1.66.135.89.077 1.779.157.851.077 1.695.163 1.587.153 3.17.333c.093.009.186.019.279.032q.707.077 1.413.163l.792.1 1.487.185 1.458.192q1.812.24 3.612.513l1.5.23 1.513.24 2.1.349q.731.124 1.462.256l1.512.272.359.067 1.4.266.359.067 1.41.278q.837.163 1.673.339l1.029.215 1.195.256a141.646 141.646 0 0 1 1.878.413q2.193.489 4.368 1.021l1.856.46 1.343.343q.783.2 1.567.41l1.635.438q2.135.581 4.249 1.2l1.042.307 1.08.323 2.141.656q1.409.438 2.8.893.687.222 1.371.452l1.34.448 1.3.445q2.38.816 4.731 1.683l1.557.579.141.051 1.074.41q.563.212 1.125.432 1.561.6 3.109 1.229l1.083.438 1.121.461q2.76 1.143 5.481 2.349l1.218.547q.635.279 1.266.573l1.509.694q.995.462 1.987.935l.071.032c.089.045.182.083.275.122l.041.019V38.336A281.24 281.24 0 0 0 282.39 0C126.412 0 0 126.265 0 282.018c0 153.918 123.454 278.99 276.916 281.9l5.474.08h.076a284.569 284.569 0 0 0 52.752-4.944 279.851 279.851 0 0 0 92.96-35.469c6.949-4.15 13.7-8.659 20.255-13.4a283.578 283.578 0 0 0 50.15-46.788l.006-.009.01-.01.032-.038.259-.314a.07.07 0 0 0 .016-.019q6.972-8.306 13.305-17.144 2.448-3.414 4.8-6.9 4.617-6.861 8.839-14 2.3-3.9 4.48-7.872 2.1-3.828 4.077-7.726 1.719-3.361 3.35-6.778 4.87-10.2 8.931-20.851a280.4 280.4 0 0 0 15.355-58.689q.938-6.285 1.586-12.657a1.82 1.82 0 0 1 .042-.477q.384-3.894.638-7.831z" fill="url(#G)"/><path d="M538.522 392.586l.371-.743a9.81 9.81 0 0 0 .193-.383l-.009.013-.555 1.113z" fill="url(#H)"/><path d="M564.817 242.818V0h-90.572v235.064a187.63 187.63 0 0 1-24.658 93.171A188.938 188.938 0 0 1 297.036 423.4l-2.035.064-1.186.036-.587.018-2.048.151q-.735.052-1.477.1l-7.313.243c-1.161 0-2.4-.041-3.558-.041h-.038l-3.878-.186-1.917-.093-.387-.029a33.21 33.21 0 0 1-1.731-.131l-1.971-.173-.744-.067a62.398 62.398 0 0 1-2.756-.278l-1.134-.163-5.782-.836-1.987-.342-.327-.055c-.641-.16-1.24-.237-1.836-.358l-3.317-.717-.561-.144-5.955-1.494-2.035-.56-7.993-2.59a51.774 51.774 0 0 1-3-1.126l-.2-.07-.179-.074a47.07 47.07 0 0 1-2.856-1.126l-4.91-2.151-.285-.122a2.37 2.37 0 0 0-.125-.06l-2.432-1.136-1.516-.72a1.505 1.505 0 0 1-.08-.039l-3-1.555a133.869 133.869 0 0 1-12.585-7.543.938.938 0 0 1-.077-.052 38.973 38.973 0 0 1-2.2-1.5 140.24 140.24 0 0 1-4.4-3.2 6.154 6.154 0 0 0-.15-.108l-.135-.106-4.3-3.367-1.958-1.677-2.958-2.656c-2.718-2.448-5.368-4.976-7.91-7.639-.144-.147-.294-.285-.439-.435-.012-.016-.028-.032-.041-.048l-1.875-2.026a13.279 13.279 0 0 0-1-1.12c-.542-.608-1.035-1.219-1.554-1.831l-.433-.508-1.567-1.847a73.681 73.681 0 0 1-2.157-2.7.292.292 0 0 0-.042-.051c-.013-.016-.022-.035-.035-.051-.67-.826-1.336-1.722-2-2.583a152.214 152.214 0 0 1-7.884-11.863c-.019-.035-.045-.071-.064-.106s-.042-.064-.058-.1c-.384-.646-.8-1.293-1.144-1.939l-1.612-2.912a.246.246 0 0 1-.022-.039c-.013-.025-.026-.051-.039-.073q-1.6-2.963-3.08-6.033a49.163 49.163 0 0 1-1.342-2.918.243.243 0 0 1-.016-.036 54.089 54.089 0 0 1-1-2.23.062.062 0 0 0-.007-.023 48.33 48.33 0 0 1-.872-2.093c-.275-.63-.551-1.225-.788-1.856l-.01-.019-.009-.029-1.189-3.162a35.38 35.38 0 0 1-.792-2.256.042.042 0 0 1-.006-.019 179.594 179.594 0 0 1-2.16-6.621v-.042c-.439-1.395-.757-2.793-1.157-4.227v-.013a84.544 84.544 0 0 1-.879-3.379q-.177-.84-.359-1.674a50.594 50.594 0 0 1-.717-3.556c-.241-1.037-.4-2.07-.6-3.149-.6-3.514-1.08-7.063-1.4-10.653l-.317-3.981v-.007q-.122-2.213-.241-4.547a219.452 219.452 0 0 1 6.833-48.874c0-.039 0-.08.08-.16a137.401 137.401 0 0 1 3.875-10.452l.041-.039v-.08l.156-.363c.472-1.6 1-3.166 1.5-4.748l.09-.275a206.346 206.346 0 0 1 13.5-32.633c.743-1.437 1.526-2.848 2.3-4.269l1.208-2.224 1.17-2 3.1-5.21c.013-.013.026-.019.039-.032A211.537 211.537 0 0 1 343.546 75.6l.688-.03 2.786-.118 1.764-.049 1.743-.044 2.236-.025 1.1-.012h.665c.53 0 1.055.017 1.58.035l.938.033.748.018q.935.015 1.867.038h.324a200.516 200.516 0 0 1 23.284 1.887q3.747.514 7.451 1.159l.56.1.4.072.565.1a204.47 204.47 0 0 1 12 2.538l.237.059q.871.212 1.742.431l.592.152q.711.182 1.42.366l.719.193 1.329.357.565.157q.756.209 1.508.421l.126.036c4 1.142 7.938 2.388 11.74 3.721h.012l.026.009.1.035c.074.026.144.055.221.077a.241.241 0 0 0 .042.016V60.024c-.012-.007-.028-.013-.041-.019-.093-.039-.185-.077-.275-.122l-.071-.032q-.99-.475-1.987-.935l-1.509-.694q-.63-.292-1.266-.573l-1.218-.547q-2.721-1.2-5.48-2.349l-1.122-.461-1.083-.438q-1.548-.63-3.109-1.229-.562-.221-1.125-.432l-1.073-.41a2.75 2.75 0 0 1-.141-.051l-1.558-.579q-2.351-.864-4.73-1.684l-1.305-.444-1.339-.448-1.372-.452q-1.393-.456-2.8-.893a161.29 161.29 0 0 0-2.141-.656 74.97 74.97 0 0 0-1.08-.323l-1.042-.307q-2.115-.619-4.249-1.2l-1.635-.439q-.783-.21-1.567-.409l-1.343-.343-1.855-.46q-2.174-.534-4.368-1.021l-1.766-.391a1.256 1.256 0 0 0-.113-.022l-1.195-.256a62.72 62.72 0 0 0-1.029-.215q-.836-.177-1.673-.339c-.468-.1-.939-.188-1.41-.278l-.359-.067-1.4-.266-.359-.067-1.513-.272q-.731-.131-1.462-.256l-2.1-.349q-.759-.124-1.513-.24l-1.5-.231q-1.8-.269-3.612-.512l-1.458-.192-1.487-.185-.792-.1q-.707-.087-1.413-.163a8.83 8.83 0 0 0-.279-.033q-1.581-.177-3.169-.332l-1.7-.164q-.888-.081-1.778-.156-.828-.072-1.66-.135l-1.811-.134-1.513-.1-1.977-.118-1.753-.093-1.426-.064c-.206-.013-.414-.019-.619-.025l-1.465-.058q-.611-.024-1.221-.038a157.915 157.915 0 0 0-2.304-.061l-1.769-.032-1.769-.019-1.772-.007C182.507 36.1 72.315 146.174 72.315 282.021 72.47 417.912 182.7 527.979 318.588 527.937c2.439 0 4.856-.109 7.279-.18q4.812-.138 9.572-.464 1.227-.081 2.446-.176a245.993 245.993 0 0 0 24.478-3.13l.968-.176.9-.166q1.269-.235 2.532-.486 1.773-.351 3.538-.73l.958-.2q2.937-.639 5.846-1.347 1.457-.355 2.9-.726 1.443-.371 2.891-.759 2.159-.581 4.308-1.2 2.149-.619 4.275-1.277 2.813-.869 5.6-1.8 3.541-1.191 7.031-2.48l2.448-.922q6.366-2.429 12.554-5.2 1.273-.572 2.538-1.152 2.7-1.243 5.355-2.548l1.2-.588 1.423-.714q1.278-.648 2.554-1.309.711-.369 1.423-.745 1.25-.663 2.493-1.338 1.923-1.042 3.83-2.125 1.269-.716 2.529-1.453c.029-.016.058-.032.083-.048q2.477-1.444 4.916-2.944a166.567 166.567 0 0 0 2.471-1.537q1.846-1.165 3.67-2.361a.724.724 0 0 0 .09-.058q1.179-.774 2.348-1.565l.514-.342.694-.477q.4-.27.79-.543l1.349-.926 1.4-.989c.185-.13.367-.265.551-.4l.2-.144q.656-.468 1.307-.94l.224-.161.506-.363q.662-.483 1.325-.971l.059-.043q1.38-1.023 2.747-2.062l.1-.08q.627-.478 1.255-.963l.424-.333.147-.116q1.029-.8 2.047-1.609l.172-.135.839-.667.061-.05q1.512-1.212 3-2.447c.034-.025.067-.052.1-.08q1.067-.883 2.122-1.783a1.28 1.28 0 0 0 .1-.083q1.053-.893 2.1-1.805 1.1-.945 2.176-1.913.543-.476 1.08-.967 1.077-.965 2.141-1.952a1.125 1.125 0 0 0 .1-.093q2.077-1.92 4.109-3.882 1.038-1 2.07-2.026.515-.5 1.026-1.02.511-.52 1.019-1.028l1.122-1.139.019-.019c.1-.1.192-.2.288-.3.007-.006.01-.013.016-.019q6.235-6.419 11.993-13.278.457-.537.9-1.082l1.045-1.27q.436-.532.868-1.066 1.044-1.287 2.067-2.589l.561-.717q2.169-2.769 4.253-5.607l.833-1.139q4.524-6.22 8.663-12.727.38-.6.756-1.2 1.534-2.444 3.01-4.919l1.381-2.349q1.072-1.848 2.112-3.715.692-1.239 1.368-2.49a.77.77 0 0 1 .032-.057q.558-1.023 1.1-2.049l.9-1.709q.148-.288.292-.576l.143-.279.535-1.044.136-.264.112-.223.033-.064c.029-.054.058-.112.087-.169l.453-.91-.226.445.19-.376.063-.124.044-.089q.106-.216.215-.432l-.169.343.402-.813.448-.91 2.448-5.112.432-.943h-.008l.954-2.083.224-.5q.68-1.529 1.34-3.067a244.215 244.215 0 0 0 16.22-54.99q1.23-7.176 2.035-14.491l.224-2.14.494-4.307.41-7.489q.106-2.357.186-4.717c0-.118.006-.233.006-.352l.029-.675.09-4.909c.042-.519.042-1.04.042-1.559zm-24.344 145.808l-.109.226-.033.068.012-.027.593-1.24-.463.973zm17.791-50.159q.533-2.266 1.028-4.548-.492 2.286-1.028 4.548zm3.127-15.454l-.346 1.977q.174-.987.34-1.977l.128-.733-.122.733z" fill="url(#I)"/><path d="m153.449 222.267-.07.157.063-.136Z" fill="url(#J)"/><path d="M604.6 369.758q0-10.2-.755-20.128L565.42 243.74l-.115-.32-.488-.8.25 39.758-.041 1.559a191.194 191.194 0 0 1-.09 4.909l-.029.675-.006.352q-.076 2.363-.186 4.717l-.41 7.489q-.26 3.936-.638 7.831a1.82 1.82 0 0 0-.042.477q-.648 6.375-1.586 12.657a280.448 280.448 0 0 1-15.352 58.681v.009q-4.052 10.638-8.931 20.851-1.63 3.416-3.348 6.78-1.982 3.9-4.079 7.724-2.178 3.975-4.48 7.872-4.216 7.137-8.839 14-2.347 3.489-4.8 6.9-6.328 8.829-13.3 17.144l-.016.019 27.585 76.048c21.989-13.1 40.859-34.993 54.542-62.678v-.012l.01-.019c14.831-30.015 23.569-66.826 23.569-106.605z" fill="url(#P)"/><path d="M424.62 60.022v27.317a.192.192 0 0 1-.042-.016c-.077-.022-.147-.051-.221-.077l-.1-.035-.026-.009h-.013a206.891 206.891 0 0 0-11.739-3.718l-.125-.039q-.75-.21-1.509-.419a30.923 30.923 0 0 0-.564-.157q-.664-.181-1.327-.358l-.721-.192q-.708-.187-1.42-.368l-.593-.151q-.87-.221-1.74-.431l-.237-.058a205.384 205.384 0 0 0-12.967-2.712l-.558-.1q-3.707-.644-7.452-1.158a200.535 200.535 0 0 0-23.286-1.889h-.324l-1.865-.038c-.25 0-.5-.01-.75-.016a38.15 38.15 0 0 0-.939-.032 41.134 41.134 0 0 0-1.577-.039l-.439.007h-.227l-1.1.013-2.237.026-1.741.045-1.766.048-2.784.118-.69.029a212.23 212.23 0 0 0-43.727 6.823V36.808q9.293-.7 18.771-.7l1.773.007 1.769.019 1.769.032 1.371.032q.466.009.933.029.611.014 1.221.041.735.02 1.465.055a109.865 109.865 0 0 1 2.044.093l1.753.092 1.978.116 1.513.1 1.81.135q.832.061 1.66.134l1.779.157q.851.077 1.695.163 1.587.153 3.17.333l.279.035 1.413.16.792.1 1.487.186 1.458.192q1.812.24 3.612.512l1.5.23 1.513.24 2.105.349q.732.124 1.462.256l1.512.272.359.067 1.4.266.359.067 1.41.278q.837.164 1.673.34l1.029.214 1.195.256a.982.982 0 0 1 .113.023l1.765.39q2.193.489 4.369 1.021l1.855.461 1.343.342 1.567.41 1.635.438q2.135.581 4.249 1.2l1.042.307 1.08.324 2.141.656q1.408.436 2.8.893l1.372.451 1.339.448 1.305.445q2.379.816 4.73 1.683a163.563 163.563 0 0 1 1.699.634l1.073.406 1.125.432q1.563.6 3.109 1.229l1.083.438 1.122.461q2.758 1.143 5.48 2.349l1.218.547q.634.279 1.266.573l1.509.7 1.987.937.071.029.275.122z" fill="url(#K)"/><path d="M424.62 38.334v21.688l-.042-.022a3.763 3.763 0 0 1-.275-.122.615.615 0 0 0-.071-.028l-1.987-.938-1.509-.7-1.266-.572-1.218-.548q-2.721-1.2-5.48-2.349l-1.122-.457-1.083-.439a156.712 156.712 0 0 0-3.109-1.228l-1.125-.436-1.074-.406a2.294 2.294 0 0 0-.141-.051q-.779-.3-1.557-.583-2.35-.864-4.731-1.683l-1.3-.442-1.34-.451-1.371-.451q-1.4-.456-2.8-.893a147.666 147.666 0 0 0-3.221-.976 28.923 28.923 0 0 0-1.042-.307q-2.115-.62-4.249-1.2l-1.635-.442q-.783-.212-1.567-.41l-1.343-.342-1.855-.461a245.778 245.778 0 0 0-4.369-1.021l-1.766-.39c-.035-.01-.073-.016-.112-.023l-1.195-.256-1.029-.214-1.673-.336-1.41-.279a6.895 6.895 0 0 0-.359-.067q-.7-.139-1.4-.265a258.847 258.847 0 0 0-1.871-.343l-1.462-.256-2.105-.349-1.513-.24-1.5-.227q-1.8-.273-3.612-.515l-1.458-.192-1.487-.186-.792-.093c-.035 0-.067-.009-.1-.012V7.625q6.345 1.5 12.572 3.286a280.647 280.647 0 0 1 64.154 27.423z" fill="url(#L)"/><path d="M424.618 73.307V282.02a144.092 144.092 0 0 1-11.975 57.73l-.05.11a.142.142 0 0 1-.02.06l-.291.64-1.892 4.069-1.512 3.179a2.383 2.383 0 0 0-.16.24l-1.833 3.43-2.963 5.019-2.874 4.439a142.5 142.5 0 0 1-80.9 58.02l-.931.28-1.152.27a142.238 142.238 0 0 1-23.049 3.909l-.551.03-.651.06 1.192-.04 2.032-.06a188.928 188.928 0 0 0 152.543-95.163h.01v-.01a187.666 187.666 0 0 0 24.652-93.164V0h-49.625z" fill="url(#M)"/><path d="M538.939 391.745l-.19.376.225-.445.028-.055-.063.124z" fill="url(#N)"/><path d="M537.475 394.624l-.293.576.518-1.009.065-.127.166-.325.221-.437-.535 1.043-.142.279z" fill="url(#O)"/></svg>