<svg width="50" height="51" fill="none" xmlns="http://www.w3.org/2000/svg"><path d="M21.887 2.144 8.725 6.706A10 10 0 0 0 2 16.155v17.967a10 10 0 0 0 6.656 9.424l13.16 4.67a10 10 0 0 0 6.738-.017l12.84-4.631A10 10 0 0 0 48 34.16V16.116a10 10 0 0 0-6.677-9.432L28.485 2.161a10 10 0 0 0-6.598-.017Z" fill="url(#a)" stroke="url(#b)" stroke-width="3" stroke-linecap="round"/><defs><linearGradient id="a" x1="6.336" y1="-1.488" x2="25.494" y2="49.226" gradientUnits="userSpaceOnUse"><stop stop-color="#0A1193"/><stop offset="1" stop-color="#5E2CE6"/></linearGradient><linearGradient id="b" x1="16.154" y1="14.112" x2="27.895" y2="58.737" gradientUnits="userSpaceOnUse"><stop stop-color="#62DAE0"/><stop offset="1" stop-color="#76F3B6"/></linearGradient></defs></svg>