<svg width="290" height="323" fill="none" xmlns="http://www.w3.org/2000/svg"><path d="M142.87 22.144 8.725 68.637A10 10 0 0 0 2 78.088v185.692a10 10 0 0 0 6.656 9.425l134.144 47.6c2.181.773 4.561.767 6.738-.018l131.855-47.561a10 10 0 0 0 6.607-9.407V78.048a10 10 0 0 0-6.677-9.432L149.468 22.161a10 10 0 0 0-6.598-.017Z" fill="url(#a)" stroke="url(#b)" stroke-width="3" stroke-linecap="round"/><path d="M61.89 2.144 30.725 12.946A10 10 0 0 0 24 22.394v42.927a10 10 0 0 0 6.656 9.424L61.82 85.804a10 10 0 0 0 6.738-.018l30.55-11.02a10 10 0 0 0 6.606-9.406V22.356a10 10 0 0 0-6.677-9.432L68.488 2.161a10 10 0 0 0-6.598-.017Z" fill="url(#c)" stroke="url(#d)" stroke-width="3" stroke-linecap="round"/><path d="M85.163 39.956c-.236-.282-.487-.55-.744-.803l-7.906-8.012a4.567 4.567 0 0 0-2.603-1.317 4.537 4.537 0 0 0-2.861.535l-5.98-6.067a4.945 4.945 0 0 0-3.508-1.465 4.945 4.945 0 0 0-3.508 1.465 4.948 4.948 0 0 0-1.272 2.22 4.915 4.915 0 0 0-3.512-1.172 4.932 4.932 0 0 0-3.335 1.618 5.063 5.063 0 0 0-1.303 3.507 5.057 5.057 0 0 0 1.455 3.445l.285.29a4.952 4.952 0 0 0-2.193 1.32 5.05 5.05 0 0 0-1.257 2.249 5.096 5.096 0 0 0 .011 2.584 5.046 5.046 0 0 0 1.276 2.239l.862.873c-.82.227-1.565.67-2.162 1.283a5.073 5.073 0 0 0-1.445 3.551c0 1.331.52 2.608 1.445 3.552l12.515 12.683a17.764 17.764 0 0 0 12.599 5.342h.097a17.3 17.3 0 0 0 6.742-1.344 17.487 17.487 0 0 0 5.71-3.87 18.116 18.116 0 0 0 5.142-12.234 18.14 18.14 0 0 0-4.55-12.472ZM82.75 62.822a14.89 14.89 0 0 1-4.925 3.334 14.727 14.727 0 0 1-5.817 1.126 15.122 15.122 0 0 1-5.86-1.197 15.287 15.287 0 0 1-4.959-3.383L48.674 50.02a2.413 2.413 0 0 1-.695-1.734 2.46 2.46 0 0 1 .695-1.74 2.485 2.485 0 0 1 1.714-.688c.637 0 1.25.246 1.714.688l8.754 8.857a1.255 1.255 0 0 0 1.739-.048 1.291 1.291 0 0 0 .047-1.763l-8.719-8.843-3.921-3.974a2.476 2.476 0 0 1-.709-1.737c0-.652.255-1.276.709-1.737a2.472 2.472 0 0 1 1.714-.694c.638 0 1.251.249 1.714.694l10.742 10.887a1.258 1.258 0 0 0 1.79-.004 1.292 1.292 0 0 0-.003-1.815L51.872 32.093a2.49 2.49 0 0 1-.703-1.737c0-.65.253-1.274.703-1.736a2.485 2.485 0 0 1 1.718-.692c.638 0 1.253.247 1.717.692l2.781 2.818 3.199 3.241 6.257 6.342a1.26 1.26 0 0 0 1.794 0 1.294 1.294 0 0 0 0-1.818l-6.257-6.341-3.234-3.277a2.476 2.476 0 0 1-.708-1.737c0-.651.255-1.276.708-1.737a2.471 2.471 0 0 1 1.714-.693c.638 0 1.252.248 1.714.693l5.98 6.067a4.71 4.71 0 0 0 .771 5.538l3.282 3.326a7.251 7.251 0 0 0-1.505 4.552 7.245 7.245 0 0 0 1.658 4.496c.024.032.052.06.084.085a1.244 1.244 0 0 0 1.703.084 1.279 1.279 0 0 0 .451-.872 1.298 1.298 0 0 0-.291-.939 4.67 4.67 0 0 1-1.063-3.193 4.658 4.658 0 0 1 1.355-3.078c.043-.048.09-.093.14-.134a1.286 1.286 0 0 0 .5-.939 1.306 1.306 0 0 0-.369-.999L71.8 35.876a2.136 2.136 0 0 1 .242-2.7 2.065 2.065 0 0 1 2.664-.239l7.885 8.027a7.8 7.8 0 0 1 .626.705 15.546 15.546 0 0 1 3.91 10.67 15.528 15.528 0 0 1-4.376 10.483Z" fill="#80FF9F"/><path d="M84.064 51.203a5.748 5.748 0 0 1-.425 2.185 5.684 5.684 0 0 1-1.222 1.852c-.24.238-.562.372-.897.374-.251 0-.497-.074-.706-.215a1.278 1.278 0 0 1-.467-.577 1.298 1.298 0 0 1 .276-1.4c.578-.59.903-1.388.903-2.22 0-.831-.325-1.63-.903-2.22a1.294 1.294 0 0 1 0-1.817 1.26 1.26 0 0 1 1.794 0c.524.53.94 1.159 1.222 1.852.283.693.427 1.435.425 2.185ZM78.898 30.387a1.25 1.25 0 0 1-.895-.375 1.284 1.284 0 0 1-.37-.907 3.164 3.164 0 0 0-.909-2.216 3.08 3.08 0 0 0-2.186-.92 1.26 1.26 0 0 1-.897-.377 1.295 1.295 0 0 1 0-1.818 1.26 1.26 0 0 1 .897-.377 5.6 5.6 0 0 1 3.98 1.674 5.754 5.754 0 0 1 1.652 4.034 1.298 1.298 0 0 1-.373.909 1.262 1.262 0 0 1-.9.373Z" fill="#80FF9F"/><path d="M83.237 30.12c-.335 0-.657-.136-.895-.376a1.291 1.291 0 0 1-.37-.907 7.322 7.322 0 0 0-2.104-5.138 7.127 7.127 0 0 0-5.072-2.127 1.26 1.26 0 0 1-.897-.377 1.295 1.295 0 0 1 0-1.818 1.26 1.26 0 0 1 .897-.377 9.67 9.67 0 0 1 6.883 2.89 9.933 9.933 0 0 1 2.851 6.975 1.296 1.296 0 0 1-.39.899 1.264 1.264 0 0 1-.903.355ZM48 61.702a5.601 5.601 0 0 1-3.981-1.674 5.754 5.754 0 0 1-1.652-4.034c0-.34.134-.668.372-.91a1.26 1.26 0 0 1 1.794 0c.238.242.372.57.372.91.002.831.328 1.628.908 2.215a3.08 3.08 0 0 0 2.186.92c.337 0 .66.136.897.378a1.294 1.294 0 0 1 0 1.818 1.26 1.26 0 0 1-.897.377Z" fill="#80FF9F"/><path d="M47.734 66.099a9.669 9.669 0 0 1-6.883-2.89A9.933 9.933 0 0 1 38 56.234c0-.341.134-.668.372-.91a1.26 1.26 0 0 1 1.794 0c.238.242.372.569.372.91a7.357 7.357 0 0 0 .542 2.794 7.28 7.28 0 0 0 1.56 2.369 7.17 7.17 0 0 0 2.337 1.58 7.095 7.095 0 0 0 2.757.55c.337 0 .66.135.897.376a1.295 1.295 0 0 1 0 1.819 1.26 1.26 0 0 1-.897.377Z" fill="#80FF9F"/><defs><linearGradient id="a" x1="28.959" y1="5.534" x2="148.071" y2="320.84" gradientUnits="userSpaceOnUse"><stop stop-color="#0A1193"/><stop offset="1" stop-color="#5E2CE6"/></linearGradient><linearGradient id="b" x1="90" y1="102.521" x2="163.001" y2="379.972" gradientUnits="userSpaceOnUse"><stop stop-color="#62DAE0"/><stop offset="1" stop-color="#76F3B6"/></linearGradient><linearGradient id="c" x1="31.703" y1="-3.419" x2="65.735" y2="86.668" gradientUnits="userSpaceOnUse"><stop stop-color="#0A1193"/><stop offset="1" stop-color="#5E2CE6"/></linearGradient><linearGradient id="d" x1="49.143" y1="24.292" x2="70" y2="103.563" gradientUnits="userSpaceOnUse"><stop stop-color="#62DAE0"/><stop offset="1" stop-color="#76F3B6"/></linearGradient></defs></svg>