<svg width="517" height="217" viewBox="0 0 517 217" fill="none" xmlns="http://www.w3.org/2000/svg">
<path opacity="0.81" fill-rule="evenodd" clip-rule="evenodd" d="M0.332031 0C21.6676 123.257 129.127 217 258.482 217C387.837 217 495.297 123.257 516.632 0H515.102C493.784 122.42 387.002 215.493 258.482 215.493C129.962 215.493 23.1804 122.42 1.86202 0H0.332031ZM10.401 0C31.6198 117.752 134.619 207.086 258.482 207.086C382.346 207.086 485.345 117.752 506.563 0H504.886C483.687 116.836 381.432 205.435 258.482 205.435C135.533 205.435 33.2773 116.836 12.0788 0H10.401ZM20.4724 0C41.5647 112.252 140.105 197.183 258.482 197.183C376.859 197.183 475.4 112.252 496.492 0H494.68C473.612 111.263 375.873 195.403 258.482 195.403C141.091 195.403 43.3525 111.263 22.284 0H20.4724ZM30.5769 0C51.5322 106.738 145.604 187.262 258.482 187.262C371.361 187.262 465.433 106.738 486.388 0H484.442C463.514 105.677 370.303 185.353 258.482 185.353C146.662 185.353 53.4506 105.677 32.5231 0H30.5769ZM40.68 0C61.4858 101.232 151.094 177.359 258.482 177.359C365.871 177.359 455.479 101.232 476.284 0H474.203C453.429 100.098 364.74 175.32 258.482 175.32C152.224 175.32 63.5352 100.098 42.7617 0H40.68ZM50.8133 0C71.4559 95.716 156.593 167.445 258.482 167.445C360.372 167.445 445.509 95.716 466.151 0H463.918C443.314 94.5017 359.161 165.263 258.482 165.263C157.803 165.263 73.6509 94.5017 53.0463 0H50.8133ZM60.9764 0C81.4397 90.1923 162.098 157.523 258.482 157.523C354.866 157.523 435.525 90.1923 455.988 0H453.617C433.198 88.905 353.583 155.212 258.482 155.212C163.381 155.212 83.7663 88.905 63.3473 0H60.9764ZM71.1474 0C91.4128 84.6744 167.597 147.62 258.482 147.62C349.368 147.62 425.552 84.6744 445.817 0H443.306C423.093 83.314 348.012 145.18 258.482 145.18C168.952 145.18 93.8715 83.314 73.658 0H71.1474ZM81.3673 0C101.413 79.1413 173.109 137.699 258.482 137.699C343.855 137.699 415.552 79.1413 435.597 0H432.945C412.96 77.7074 342.427 135.129 258.482 135.129C174.538 135.129 104.005 77.7074 84.0198 0H81.3673ZM91.5975 0C111.399 73.6164 178.613 127.803 258.482 127.803C338.352 127.803 405.566 73.6164 425.367 0H422.555C402.826 72.1006 336.842 125.09 258.482 125.09C180.122 125.09 114.138 72.1006 94.4092 0H91.5975ZM101.897 0C121.423 68.0701 184.136 117.881 258.482 117.881C332.829 117.881 395.541 68.0701 415.068 0H412.108C392.667 66.4799 331.245 115.039 258.482 115.039C185.719 115.039 124.298 66.4799 104.857 0H101.897ZM112.249 0C131.464 62.5157 189.666 107.96 258.482 107.96C327.298 107.96 385.501 62.5157 404.716 0H401.603C382.49 60.8503 325.641 104.989 258.482 104.989C191.324 104.989 134.475 60.8503 115.361 0H112.249ZM122.366 0C140.844 54.4926 191.355 94.6643 252.285 97.1015C317.241 99.6997 373.817 58.6042 393.647 0H390.351C370.65 56.7947 315.581 96.5135 252.41 93.9866C193.179 91.6174 144.015 52.7966 125.663 0H122.366ZM133.136 0C151.587 51.3886 200.743 88.1427 258.482 88.1427C316.222 88.1427 365.377 51.3886 383.828 0H380.375C362.071 49.5621 314.403 84.8987 258.482 84.8987C202.561 84.8987 154.893 49.5621 136.589 0H133.136ZM143.717 0C161.692 45.8074 206.299 78.24 258.482 78.24C310.665 78.24 355.273 45.8074 373.248 0H369.615C351.821 43.9021 308.768 74.8668 258.482 74.8668C208.197 74.8668 165.143 43.9021 147.349 0H143.717ZM154.451 0C171.862 40.1967 211.888 68.3185 258.482 68.3185C305.077 68.3185 345.103 40.1967 362.514 0H358.685C341.498 38.2106 303.097 64.816 258.482 64.816C213.867 64.816 175.467 38.2106 158.28 0H154.451ZM165.357 0C182.091 34.5659 217.503 58.4041 258.482 58.4041C299.462 58.4041 334.874 34.5659 351.608 0H347.538C331.09 32.4878 297.387 54.7581 258.482 54.7581C219.578 54.7581 185.875 32.4878 169.426 0H165.357ZM176.502 0C192.405 28.9102 223.156 48.5014 258.482 48.5014C293.809 48.5014 324.559 28.9102 340.462 0H336.125C320.592 26.7437 291.637 44.7262 258.482 44.7262C225.327 44.7262 196.373 26.7437 180.84 0H176.502ZM188.038 0C202.89 23.2012 228.89 38.5798 258.482 38.5798C288.074 38.5798 314.074 23.2012 328.926 0H324.242C309.886 20.9393 285.788 34.6755 258.482 34.6755C231.176 34.6755 207.079 20.9393 192.722 0H188.038ZM200.141 0C213.614 17.443 234.736 28.6768 258.482 28.6768C282.228 28.6768 303.35 17.443 316.824 0H311.636C298.862 15.0746 279.789 24.6433 258.482 24.6433C237.175 24.6433 218.103 15.0746 205.328 0H200.141ZM213.309 0C224.854 11.5899 240.831 18.7628 258.482 18.7628C276.134 18.7628 292.111 11.5899 303.656 0H297.541C287.082 9.08579 273.424 14.5857 258.482 14.5857C243.54 14.5857 229.883 9.08579 219.424 0H213.309ZM228.934 0C234.009 3.33011 239.737 5.85217 245.982 7.34217C260.991 10.9235 276.033 7.83872 287.995 0H279.125C269.411 4.4626 258.186 5.82706 246.981 3.15351C243.769 2.38712 240.706 1.32394 237.813 0H228.934Z" fill="#80FF9F" fill-opacity="0.5"/>
</svg>
