<svg width="33" height="33" fill="none" xmlns="http://www.w3.org/2000/svg"><path d="M20.773 11.185h-8.545c-.59 0-1.043.487-1.043 1.042v8.546c0 .59.487 1.042 1.043 1.042h8.545c.59 0 1.042-.487 1.042-1.042v-8.546c0-.59-.452-1.042-1.042-1.042Zm-1.042 8.546H13.27v-6.462h6.426v6.462h.035Z" fill="#80FF9F"/><path d="M31.958 19.73h-4.342v-6.46h4.342c.59 0 1.042-.487 1.042-1.043 0-.555-.486-1.042-1.042-1.042h-4.342v-1.98a3.81 3.81 0 0 0-3.821-3.82h-1.946V1.041C21.85.452 21.363 0 20.807 0c-.59 0-1.042.486-1.042 1.042v4.342H13.27V1.042C13.27.452 12.783 0 12.227 0c-.555 0-1.042.486-1.042 1.042v4.342h-1.98c-2.084 0-3.82 1.737-3.82 3.821v1.945H1.041c-.59 0-1.042.487-1.042 1.043 0 .555.486 1.042 1.042 1.042h4.342v6.426H1.042c-.59 0-1.042.486-1.042 1.042s.486 1.042 1.042 1.042h4.342v2.05a3.81 3.81 0 0 0 3.821 3.82h1.945v4.343c0 .59.487 1.042 1.043 1.042.555 0 1.042-.486 1.042-1.042v-4.342h6.46v4.342c0 .59.487 1.042 1.043 1.042.59 0 1.042-.486 1.042-1.042v-4.342h2.015a3.81 3.81 0 0 0 3.82-3.821v-1.98h4.343c.59 0 1.042-.487 1.042-1.042 0-.556-.486-1.043-1.042-1.043Zm-6.461 4.065c0 .938-.764 1.737-1.737 1.737H9.205a1.742 1.742 0 0 1-1.737-1.737V9.205c0-.938.765-1.737 1.737-1.737h14.59c.938 0 1.737.765 1.737 1.737v14.59h-.035Z" fill="#80FF9F"/></svg>