<svg width="33" height="28" fill="none" xmlns="http://www.w3.org/2000/svg"><path d="M30.239 2.648a9.498 9.498 0 0 0-3.071-1.96A9.869 9.869 0 0 0 23.542 0a9.868 9.868 0 0 0-3.626.688 9.497 9.497 0 0 0-3.071 1.96l-.34.324-.34-.324C14.39.957 11.981.006 9.47.005c-2.51 0-4.919.948-6.695 2.637C1 4.332 0 6.624 0 9.014c-.001 2.39.995 4.683 2.77 6.374L15.672 27.67c.109.104.238.187.381.244a1.224 1.224 0 0 0 1.284-.244L30.24 15.388C32.007 13.695 33 11.405 33 9.018s-.993-4.678-2.761-6.37Zm-1.666 11.165-12.069 11.49L5.608 14.93l-1.173-1.117a6.767 6.767 0 0 1-1.544-2.198 6.497 6.497 0 0 1-.544-2.593c0-.89.183-1.772.54-2.594a6.766 6.766 0 0 1 1.543-2.2 7.153 7.153 0 0 1 2.309-1.47 7.433 7.433 0 0 1 2.724-.518c.935 0 1.86.174 2.725.514.864.34 1.65.84 2.31 1.468l1.174 1.117c.109.104.238.187.381.244a1.224 1.224 0 0 0 1.284-.244l1.173-1.117a7.154 7.154 0 0 1 2.31-1.468 7.433 7.433 0 0 1 2.726-.514c.935 0 1.86.176 2.724.517.864.341 1.649.841 2.31 1.47a6.765 6.765 0 0 1 1.541 2.2 6.497 6.497 0 0 1-.003 5.188 6.767 6.767 0 0 1-1.545 2.198Z" fill="#80FF9F"/><path d="M20.023 11.77h-2.346V9.537c0-.296-.124-.58-.344-.79a1.203 1.203 0 0 0-.829-.327c-.311 0-.61.118-.83.327a1.09 1.09 0 0 0-.343.79v2.233h-2.346c-.31 0-.609.118-.829.327a1.09 1.09 0 0 0-.344.79c0 .296.124.58.344.789.22.21.518.327.83.327h2.345v2.233c0 .296.124.58.344.79.22.21.518.327.83.327.31 0 .608-.118.828-.327.22-.21.344-.494.344-.79v-2.233h2.346c.31 0 .61-.118.83-.327.219-.21.343-.493.343-.79 0-.296-.124-.58-.344-.789a1.204 1.204 0 0 0-.83-.327Z" fill="#80FF9F"/></svg>