<svg width="41" height="38" fill="none" xmlns="http://www.w3.org/2000/svg"><path d="M20.637 15.143a6.896 6.896 0 0 0 3.87-1.192 7.05 7.05 0 0 0 2.567-3.174 7.168 7.168 0 0 0 .396-4.085 7.104 7.104 0 0 0-1.906-3.62 6.937 6.937 0 0 0-3.568-1.936 6.873 6.873 0 0 0-4.026.402 6.991 6.991 0 0 0-3.127 2.605 7.147 7.147 0 0 0 .87 8.926 6.924 6.924 0 0 0 4.924 2.074Zm2.245-1.755a5.612 5.612 0 0 1-4.49 0V10.32c0-.255.1-.5.277-.681a.943.943 0 0 1 .672-.283h2.591c.252 0 .494.102.672.283.178.18.278.426.278.681v3.067Zm-3.354-7.084c0-.223.065-.44.187-.625s.295-.33.497-.415a1.093 1.093 0 0 1 1.209.244 1.13 1.13 0 0 1 .24 1.226 1.122 1.122 0 0 1-.409.505 1.097 1.097 0 0 1-1.399-.14 1.135 1.135 0 0 1-.325-.795Zm1.109-4.018a5.637 5.637 0 0 1 3.309 1.071 5.773 5.773 0 0 1 2.08 2.823 5.861 5.861 0 0 1 .078 3.525 5.783 5.783 0 0 1-1.955 2.914v-2.298a2.264 2.264 0 0 0-.558-1.483 2.202 2.202 0 0 0-1.385-.738c.362-.324.619-.752.736-1.227a2.444 2.444 0 0 0-.083-1.434 2.405 2.405 0 0 0-.871-1.132 2.351 2.351 0 0 0-2.702 0 2.406 2.406 0 0 0-.872 1.132c-.17.458-.199.958-.082 1.434.117.475.373.903.736 1.227a2.203 2.203 0 0 0-1.386.738c-.358.409-.556.936-.558 1.483v2.298a5.783 5.783 0 0 1-1.954-2.914 5.86 5.86 0 0 1 .077-3.525 5.772 5.772 0 0 1 2.08-2.823 5.638 5.638 0 0 1 3.31-1.071ZM20.303 17.071a.3.3 0 0 0-.3.3v6.772h-1.9a.627.627 0 0 0-.56.34.65.65 0 0 0 .032.66L20.11 29a.637.637 0 0 0 .527.286.627.627 0 0 0 .527-.286l2.534-3.858a.65.65 0 0 0-.202-.908.627.627 0 0 0-.325-.091h-1.9V17.37a.3.3 0 0 0-.3-.3h-.667Zm1.683 8.357-1.35 2.058-1.35-2.058h2.7Z" fill="#7CEA57" stroke="#7CEA57" stroke-width=".5"/><path d="M14.174 24.335a.304.304 0 0 0 .214-.367l-.169-.663a.297.297 0 0 0-.366-.214c-3.691 1.026-5.884 2.85-5.884 4.909 0 3.244 5.564 5.786 12.668 5.786 7.104 0 12.669-2.542 12.669-5.786 0-2.059-2.193-3.883-5.884-4.909a.297.297 0 0 0-.366.214l-.17.663c-.04.16.056.323.215.367 3.01.841 4.938 2.264 4.938 3.665 0 2.652-6.009 4.5-11.402 4.5-5.393 0-11.401-1.848-11.401-4.5 0-1.4 1.927-2.824 4.938-3.665Z" fill="#022AF0" stroke="#022AF0" stroke-width=".3"/><path d="M29.297 19.9a.3.3 0 0 0-.357.231l-.139.671a.303.303 0 0 0 .233.356c6.07 1.343 9.972 4.014 9.972 6.842 0 4.182-8.412 7.714-18.37 7.714-9.957 0-18.37-3.532-18.37-7.714 0-2.828 3.904-5.5 9.97-6.842a.303.303 0 0 0 .234-.354l-.135-.671a.3.3 0 0 0-.358-.233C5.197 21.4 1 24.488 1 28c0 5.047 8.625 9 19.636 9s19.637-3.953 19.637-9c0-3.512-4.197-6.601-10.976-8.1Z" fill="#022AF0" stroke="#022AF0" stroke-width=".3"/></svg>