<svg width="28" height="31" fill="none" xmlns="http://www.w3.org/2000/svg"><path d="M23.067 14.094c.278.553.736.989 1.295 1.233a2.558 2.558 0 0 0 1.767.107 2.615 2.615 0 0 0 1.427-1.07 2.713 2.713 0 0 0-.332-3.387 2.569 2.569 0 0 0-3.317-.298c-.5.353-.865.873-1.03 1.471h-8.659V8.991h6.657a.94.94 0 0 0 .673-.284.983.983 0 0 0 .278-.688V4.657a2.4 2.4 0 0 0 1.162-1.112c.25-.496.326-1.065.215-1.612a2.44 2.44 0 0 0-.828-1.389 2.346 2.346 0 0 0-1.5-.544c-.546 0-1.076.192-1.5.544a2.44 2.44 0 0 0-.827 1.39 2.478 2.478 0 0 0 .215 1.61 2.4 2.4 0 0 0 1.161 1.113v2.39h-5.706V2.675a.988.988 0 0 0-.133-.486A4.303 4.303 0 0 0 12.007.413 4.193 4.193 0 0 0 9.303.268 4.276 4.276 0 0 0 7.055 1.81a4.435 4.435 0 0 0-.892 2.613c-.001.22.015.44.048.656a5.697 5.697 0 0 0-3.095 2.054 5.913 5.913 0 0 0-.786 5.814A3.814 3.814 0 0 0 .82 14.122a3.93 3.93 0 0 0-.768 1.775 3.968 3.968 0 0 0 .168 1.933c.214.62.58 1.173 1.06 1.61a5.927 5.927 0 0 0 .598 5.089 5.74 5.74 0 0 0 1.857 1.823 5.596 5.596 0 0 0 2.453.8A4.417 4.417 0 0 0 7.27 29.57a4.26 4.26 0 0 0 2.254 1.33 4.194 4.194 0 0 0 2.591-.251 4.308 4.308 0 0 0 1.97-1.738.989.989 0 0 0 .133-.486v-4.86h5.706v1.803c-.587.169-1.1.542-1.447 1.055a2.722 2.722 0 0 0 .291 3.404 2.577 2.577 0 0 0 3.327.34 2.675 2.675 0 0 0 1.05-1.465 2.733 2.733 0 0 0-.105-1.813 2.655 2.655 0 0 0-1.214-1.327v-2.964c0-.258-.1-.505-.278-.687a.94.94 0 0 0-.673-.285h-6.657v-2.673h5.23c.222.302.51.547.84.716a2.336 2.336 0 0 0 2.333-.12c.38-.246.685-.597.877-1.012a2.477 2.477 0 0 0-.306-2.578 2.378 2.378 0 0 0-1.089-.768 2.329 2.329 0 0 0-1.322-.055c-.437.11-.834.345-1.145.677a2.447 2.447 0 0 0-.615 1.197h-4.803v-2.916h8.85Zm2.326-1.944c.14 0 .279.043.396.123a.744.744 0 0 1 .108 1.121.708.708 0 0 1-.777.158.717.717 0 0 1-.32-.268.74.74 0 0 1 .088-.92.706.706 0 0 1 .505-.214ZM20.875 1.945c.094 0 .186.029.264.082a.484.484 0 0 1 .203.499.489.489 0 0 1-.13.249.472.472 0 0 1-.519.105.493.493 0 0 1-.154-.793.47.47 0 0 1 .336-.142ZM12.316 28.12c-.219.304-.506.55-.836.72-.331.169-.696.255-1.066.251-.63 0-1.235-.256-1.681-.711a2.457 2.457 0 0 1-.696-1.718 1.365 1.365 0 0 1 .023-.311.993.993 0 0 0-.237-.88.952.952 0 0 0-.69-.301.857.857 0 0 0-.157 0c-.12.02-.243.03-.366.029a3.763 3.763 0 0 1-2.69-1.139 3.931 3.931 0 0 1-1.114-2.749c.014-.619.177-1.225.476-1.764a.988.988 0 0 0-.105-1.081.956.956 0 0 0-.29-.24 1.93 1.93 0 0 1-.826-.931 1.983 1.983 0 0 1-.096-1.252c.104-.417.341-.787.673-1.051.332-.265.74-.41 1.162-.411.177 0 .35-.051.5-.147a.965.965 0 0 0 .35-.394.99.99 0 0 0-.094-1.02 3.855 3.855 0 0 1-.756-2.327 3.932 3.932 0 0 1 1.076-2.678 3.767 3.767 0 0 1 2.59-1.175.936.936 0 0 0 .456-.132.961.961 0 0 0 .338-.34.988.988 0 0 0 .033-.938 2.31 2.31 0 0 1-.228-1.025c0-.644.25-1.262.696-1.718a2.352 2.352 0 0 1 2.747-.46c.33.169.618.416.837.72l-.029 25.172Zm8.321-.904c.142 0 .28.042.397.122a.744.744 0 0 1 .108 1.122.709.709 0 0 1-.777.158.717.717 0 0 1-.32-.268.741.741 0 0 1 .088-.92.706.706 0 0 1 .505-.214Zm.714-10.205c.094 0 .186.028.264.081a.484.484 0 0 1 .202.5.49.49 0 0 1-.13.248.473.473 0 0 1-.518.106.493.493 0 0 1-.154-.793.47.47 0 0 1 .336-.142Z" fill="#80FF9F"/></svg>