<svg width="33" height="27" fill="none" xmlns="http://www.w3.org/2000/svg"><path d="M19.468 12.68c-.384-1.183-1.56-2.051-2.968-2.051-1.409 0-2.585.868-2.968 2.051-.084.26-.143.53-.143.816 0 .286.059.556.143.816.383 1.183 1.56 2.052 2.968 2.052 1.409 0 2.584-.869 2.968-2.052.084-.26.143-.53.143-.816a2.63 2.63 0 0 0-.143-.816ZM22.163 23.706a.802.802 0 0 1-.692-.376c-.212-.352-.072-.796.31-.99 3.508-1.782 5.687-5.172 5.687-8.844 0-3.666-2.174-7.052-5.673-8.836-.382-.195-.52-.638-.309-.99.212-.351.69-.48 1.074-.285 4.002 2.041 6.488 5.916 6.488 10.111 0 4.203-2.492 8.08-6.504 10.12a.842.842 0 0 1-.38.09Z" fill="#80FF9F"/><path d="M20.484 20.412a.806.806 0 0 1-.68-.357c-.222-.345-.1-.792.276-.997 2.12-1.162 3.438-3.293 3.438-5.562 0-2.297-1.28-4.373-3.425-5.554-.374-.206-.496-.653-.273-.998.224-.346.709-.459 1.083-.252 2.588 1.424 4.195 4.031 4.195 6.804 0 2.78-1.614 5.39-4.211 6.813a.832.832 0 0 1-.403.103ZM12.514 20.412a.833.833 0 0 1-.402-.103C9.514 18.886 7.9 16.276 7.9 13.496c0-2.773 1.607-5.38 4.195-6.804.375-.208.86-.094 1.083.252.224.345.102.792-.273.998-2.144 1.18-3.425 3.257-3.425 5.554 0 2.269 1.318 4.4 3.438 5.562.376.206.499.652.276.998a.806.806 0 0 1-.68.356Z" fill="#80FF9F"/><path d="M10.836 23.706a.843.843 0 0 1-.38-.09C6.442 21.576 3.95 17.7 3.95 13.496c0-4.195 2.486-8.07 6.488-10.11.384-.196.864-.067 1.074.284.212.352.073.795-.309.99-3.499 1.784-5.673 5.17-5.673 8.836 0 3.673 2.18 7.062 5.687 8.844.383.194.521.637.31.99a.803.803 0 0 1-.692.376ZM23.843 27a.801.801 0 0 1-.699-.387c-.204-.355-.058-.796.327-.984 4.903-2.401 7.948-7.05 7.948-12.133 0-5.077-3.04-9.723-7.933-12.125-.385-.19-.531-.63-.326-.985.206-.355.683-.49 1.07-.3C29.638 2.74 33 7.88 33 13.495c0 5.623-3.367 10.765-8.787 13.418a.836.836 0 0 1-.37.086Z" fill="#80FF9F"/><path d="M22.163 23.706a.802.802 0 0 1-.692-.376c-.212-.352-.072-.796.31-.99 3.508-1.782 5.687-5.172 5.687-8.844 0-3.666-2.174-7.052-5.673-8.836-.382-.195-.52-.638-.309-.99.212-.351.69-.48 1.074-.285 4.002 2.041 6.488 5.916 6.488 10.111 0 4.203-2.492 8.08-6.504 10.12a.842.842 0 0 1-.38.09ZM10.836 23.706a.843.843 0 0 1-.38-.09C6.442 21.576 3.95 17.7 3.95 13.496c0-4.195 2.486-8.07 6.488-10.11.384-.196.864-.067 1.074.284.212.352.073.795-.309.99-3.499 1.784-5.673 5.17-5.673 8.836 0 3.673 2.18 7.062 5.687 8.844.383.194.521.637.31.99a.803.803 0 0 1-.692.376Z" fill="#80FF9F"/><path d="M9.157 27a.831.831 0 0 1-.37-.086C3.367 24.26 0 19.12 0 13.496 0 7.88 3.36 2.742 8.77.086c.386-.189.864-.055 1.07.3.205.355.059.796-.326.985C4.62 3.773 1.58 8.42 1.58 13.496c0 5.084 3.046 9.732 7.948 12.133.385.189.532.63.327.984a.801.801 0 0 1-.698.387Z" fill="#80FF9F"/></svg>