<svg width="41" height="41" fill="none" xmlns="http://www.w3.org/2000/svg"><path d="m25.733 9.757 5.593 5.65a1.775 1.775 0 0 0 1.27.54 1.762 1.762 0 0 0 1.27-.54l5.6-5.65A1.793 1.793 0 0 0 40 8.477a1.806 1.806 0 0 0-.533-1.28l-5.605-5.655A1.771 1.771 0 0 0 32.592 1a1.758 1.758 0 0 0-1.27.542l-5.589 5.651a1.79 1.79 0 0 0-.537 1.282 1.801 1.801 0 0 0 .537 1.282Zm1.14-1.414 5.592-5.652a.165.165 0 0 1 .262 0l5.6 5.652a.167.167 0 0 1 0 .264l-5.6 5.651a.166.166 0 0 1-.131.065.165.165 0 0 1-.131-.065L26.86 8.607a.166.166 0 0 1-.047-.206.166.166 0 0 1 .047-.058h.012ZM7.804 1.607a6.761 6.761 0 0 0-3.78 1.157 6.853 6.853 0 0 0-2.506 3.081 6.924 6.924 0 0 0-.387 3.967 6.886 6.886 0 0 0 1.862 3.516 6.786 6.786 0 0 0 3.484 1.879 6.748 6.748 0 0 0 3.931-.39 6.819 6.819 0 0 0 3.054-2.53 6.91 6.91 0 0 0-.848-8.667 6.782 6.782 0 0 0-4.81-2.013Zm0 12.11a5.16 5.16 0 0 1-2.885-.882 5.23 5.23 0 0 1-1.913-2.352 5.285 5.285 0 0 1-.296-3.027c.2-1.017.694-1.95 1.42-2.684A5.18 5.18 0 0 1 6.79 3.337a5.15 5.15 0 0 1 3 .297 5.204 5.204 0 0 1 2.332 1.928 5.275 5.275 0 0 1-.645 6.617 5.179 5.179 0 0 1-3.672 1.539Z" fill="#7CEA57" stroke="#7CEA57"/><path d="m20.649 11.76 3.889-3.287-3.89-3.283-1.034 1.247 1.453 1.223H15.99v1.625h5.077l-1.453 1.227 1.035 1.247ZM32.089 16.846a.3.3 0 0 0-.3.3v4.82l-1.019-1.234a.3.3 0 0 0-.425-.038l-.777.657a.3.3 0 0 0-.038.42l2.833 3.421a.3.3 0 0 0 .462 0l2.833-3.42a.3.3 0 0 0-.037-.421l-.774-.656a.3.3 0 0 0-.425.037l-1.023 1.233v-4.819a.3.3 0 0 0-.3-.3h-1.01Z" fill="#022AF0"/><path d="M13.61 28.28a1 1 0 0 0-1-1H2.98a1 1 0 0 0-1 1v9.716a1 1 0 0 0 1 1h9.632a1 1 0 0 0 1-1V28.28ZM12 36.37a1 1 0 0 1-1 1H4.589a1 1 0 0 1-1-1v-6.467a1 1 0 0 1 1-1h6.41a1 1 0 0 1 1 1v6.467ZM25.79 33.134c0 1.358.4 2.687 1.148 3.816a6.819 6.819 0 0 0 3.056 2.529 6.747 6.747 0 0 0 3.934.388 6.786 6.786 0 0 0 3.484-1.884 6.886 6.886 0 0 0 1.858-3.52 6.924 6.924 0 0 0-.394-3.968 6.853 6.853 0 0 0-2.513-3.078 6.761 6.761 0 0 0-3.785-1.15 6.782 6.782 0 0 0-4.798 2.02 6.906 6.906 0 0 0-1.99 4.847Zm6.788-5.241a5.16 5.16 0 0 1 2.886.883 5.23 5.23 0 0 1 1.913 2.352c.393.958.496 2.012.295 3.028a5.256 5.256 0 0 1-1.421 2.684 5.18 5.18 0 0 1-2.66 1.434 5.15 5.15 0 0 1-3-.298 5.204 5.204 0 0 1-2.331-1.93 5.273 5.273 0 0 1 .648-6.615 5.179 5.179 0 0 1 3.67-1.538Z" fill="#7CEA57" stroke="#7CEA57"/><path d="M20.233 35.402a.3.3 0 0 0-.037-.42l-1.222-1.035h4.773a.3.3 0 0 0 .3-.3V32.62a.3.3 0 0 0-.3-.3h-4.773l1.222-1.03a.3.3 0 0 0 .037-.422l-.651-.785a.3.3 0 0 0-.425-.038l-3.386 2.859a.3.3 0 0 0 0 .458l3.386 2.862a.3.3 0 0 0 .425-.037l.651-.786Z" fill="#022AF0"/></svg>