<svg width="149" height="139" fill="none" xmlns="http://www.w3.org/2000/svg"><g filter="url(#a)"><rect x="30" y="26" width="89" height="79" rx="20" fill="url(#b)"/><rect x="30.5" y="26.5" width="88" height="78" rx="19.5" stroke="#FAFAFA" stroke-opacity=".1"/></g><path d="M56.5 71.5v-5a1 1 0 0 1 1-1h32a1 1 0 0 1 1 1V71" stroke="#022AF0" stroke-width="4" stroke-linecap="round"/><rect x="51" y="73" width="12" height="12" rx="4" stroke="#022AF0" stroke-width="4" stroke-linejoin="round"/><rect x="84" y="73" width="12" height="12" rx="4" stroke="#022AF0" stroke-width="4" stroke-linejoin="round"/><path d="M73.5 57v8.5" stroke="#022AF0" stroke-width="4" stroke-linecap="round"/><path d="M73.5 58a8.5 8.5 0 1 0 0-17 8.5 8.5 0 0 0 0 17Zm0-12.364a3.864 3.864 0 1 1 0 7.728 3.864 3.864 0 0 1 0-7.728Z" fill="#fff"/><defs><linearGradient id="b" x1="30" y1="13" x2="105" y2="99" gradientUnits="userSpaceOnUse"><stop stop-color="#5DD4E8"/><stop offset="1" stop-color="#76F3B5"/></linearGradient><filter id="a" x="0" y="0" width="149" height="139" filterUnits="userSpaceOnUse" color-interpolation-filters="sRGB"><feFlood flood-opacity="0" result="BackgroundImageFix"/><feColorMatrix in="SourceAlpha" values="0 0 0 0 0 0 0 0 0 0 0 0 0 0 0 0 0 0 127 0" result="hardAlpha"/><feOffset dy="4"/><feGaussianBlur stdDeviation="15"/><feComposite in2="hardAlpha" operator="out"/><feColorMatrix values="0 0 0 0 0.5 0 0 0 0 1 0 0 0 0 0.625065 0 0 0 0.25 0"/><feBlend in2="BackgroundImageFix" result="effect1_dropShadow_1028:1130"/><feBlend in="SourceGraphic" in2="effect1_dropShadow_1028:1130" result="shape"/></filter></defs></svg>