<svg width="149" height="139" viewBox="0 0 149 139" fill="none" xmlns="http://www.w3.org/2000/svg">
    <g filter="url(#filter0_d_1028:1130)">
        <rect x="30" y="26" width="89" height="79" rx="20" fill="url(#paint0_linear_1028:1130)"/>
        <rect x="30.5" y="26.5" width="88" height="78" rx="19.5" stroke="#FAFAFA" stroke-opacity="0.1"/>
    </g>
    <path d="M56.5 71.5V66.5C56.5 65.9477 56.9477 65.5 57.5 65.5H89.5C90.0523 65.5 90.5 65.9477 90.5 66.5V71"
          stroke="#022AF0" stroke-width="4" stroke-linecap="round"/>
    <rect x="51" y="73" width="12" height="12" rx="4" stroke="#022AF0" stroke-width="4" stroke-linejoin="round"/>
    <rect x="84" y="73" width="12" height="12" rx="4" stroke="#022AF0" stroke-width="4" stroke-linejoin="round"/>
    <path d="M73.5 57V65.5" stroke="#022AF0" stroke-width="4" stroke-linecap="round"/>
    <path d="M73.5 58C75.1811 58 76.8245 57.5015 78.2223 56.5675C79.6202 55.6335 80.7096 54.306 81.353 52.7528C81.9963 51.1996 82.1646 49.4906 81.8367 47.8417C81.5087 46.1929 80.6992 44.6783 79.5104 43.4896C78.3217 42.3008 76.8071 41.4913 75.1583 41.1633C73.5094 40.8354 71.8004 41.0037 70.2472 41.647C68.694 42.2904 67.3665 43.3798 66.4325 44.7777C65.4985 46.1755 65 47.8189 65 49.5C65 51.7543 65.8955 53.9164 67.4896 55.5104C69.0836 57.1045 71.2457 58 73.5 58ZM73.5 45.6364C74.2642 45.6364 75.0111 45.863 75.6465 46.2875C76.2819 46.712 76.7771 47.3155 77.0695 48.0215C77.362 48.7274 77.4385 49.5043 77.2894 50.2538C77.1403 51.0032 76.7723 51.6917 76.232 52.232C75.6917 52.7723 75.0032 53.1403 74.2538 53.2894C73.5043 53.4385 72.7274 53.362 72.0214 53.0695C71.3155 52.7771 70.712 52.2819 70.2875 51.6465C69.863 51.0112 69.6364 50.2642 69.6364 49.5C69.6364 48.4753 70.0434 47.4926 70.768 46.768C71.4926 46.0434 72.4753 45.6364 73.5 45.6364V45.6364Z"
          fill="white"/>
    <defs>
        <filter id="filter0_d_1028:1130" x="0" y="0" width="149" height="139" filterUnits="userSpaceOnUse"
                color-interpolation-filters="sRGB">
            <feFlood flood-opacity="0" result="BackgroundImageFix"/>
            <feColorMatrix in="SourceAlpha" type="matrix" values="0 0 0 0 0 0 0 0 0 0 0 0 0 0 0 0 0 0 127 0"
                           result="hardAlpha"/>
            <feOffset dy="4"/>
            <feGaussianBlur stdDeviation="15"/>
            <feComposite in2="hardAlpha" operator="out"/>
            <feColorMatrix type="matrix" values="0 0 0 0 0.5 0 0 0 0 1 0 0 0 0 0.625065 0 0 0 0.25 0"/>
            <feBlend mode="normal" in2="BackgroundImageFix" result="effect1_dropShadow_1028:1130"/>
            <feBlend mode="normal" in="SourceGraphic" in2="effect1_dropShadow_1028:1130" result="shape"/>
        </filter>
        <linearGradient id="paint0_linear_1028:1130" x1="30" y1="13" x2="105" y2="99" gradientUnits="userSpaceOnUse">
            <stop stop-color="#5DD4E8"/>
            <stop offset="1" stop-color="#76F3B5"/>
        </linearGradient>
    </defs>
</svg>
