<svg width="366" height="366" viewBox="0 0 366 366" fill="none" xmlns="http://www.w3.org/2000/svg">
    <g opacity="0.81">
        <path fill-rule="evenodd" clip-rule="evenodd"
              d="M146.512 174.275C141.704 194.425 154.141 214.657 174.291 219.465C194.442 224.273 214.674 211.835 219.482 191.685C224.29 171.535 211.852 151.303 191.702 146.495C171.552 141.687 151.32 154.124 146.512 174.275ZM174.988 216.547C156.449 212.123 145.007 193.509 149.43 174.971C153.853 156.432 172.468 144.99 191.006 149.413C209.544 153.836 220.987 172.451 216.564 190.989C212.14 209.527 193.526 220.97 174.988 216.547Z"
              fill="#80FF9F" fill-opacity="0.5"/>
        <path fill-rule="evenodd" clip-rule="evenodd"
              d="M138.579 183C138.579 158.468 158.467 138.58 183 138.58C207.533 138.58 227.421 158.468 227.421 183C227.421 207.533 207.533 227.421 183 227.421C158.467 227.421 138.579 207.533 138.579 183ZM183 141.49C160.074 141.49 141.489 160.075 141.489 183C141.489 205.926 160.074 224.511 183 224.511C205.926 224.511 224.511 205.926 224.511 183C224.511 160.075 205.926 141.49 183 141.49Z"
              fill="#80FF9F" fill-opacity="0.5"/>
        <path fill-rule="evenodd" clip-rule="evenodd"
              d="M183 131.673C154.653 131.673 131.673 154.653 131.673 183.001C131.673 211.348 154.653 234.328 183 234.328C211.347 234.328 234.327 211.348 234.327 183.001C234.327 154.653 211.347 131.673 183 131.673ZM134.483 183.001C134.483 156.205 156.205 134.483 183 134.483C209.795 134.483 231.517 156.205 231.517 183.001C231.517 209.796 209.795 231.518 183 231.518C156.205 231.518 134.483 209.796 134.483 183.001Z"
              fill="#80FF9F" fill-opacity="0.5"/>
        <path fill-rule="evenodd" clip-rule="evenodd"
              d="M124.773 183C124.773 150.843 150.842 124.774 183 124.774C215.158 124.774 241.227 150.843 241.227 183C241.227 215.158 215.158 241.227 183 241.227C150.842 241.227 124.773 215.158 124.773 183ZM183 127.494C152.344 127.494 127.493 152.345 127.493 183C127.493 213.656 152.344 238.507 183 238.507C213.655 238.507 238.507 213.656 238.507 183C238.507 152.345 213.655 127.494 183 127.494Z"
              fill="#80FF9F" fill-opacity="0.5"/>
        <path fill-rule="evenodd" clip-rule="evenodd"
              d="M183 117.862C147.025 117.862 117.862 147.026 117.862 183.001C117.862 218.975 147.025 248.139 183 248.139C218.975 248.139 248.138 218.975 248.138 183.001C248.138 147.026 218.975 117.862 183 117.862ZM120.492 183.001C120.492 148.478 148.478 120.492 183 120.492C217.522 120.492 245.508 148.478 245.508 183.001C245.508 217.523 217.522 245.509 183 245.509C148.478 245.509 120.492 217.523 120.492 183.001Z"
              fill="#80FF9F" fill-opacity="0.5"/>
        <path fill-rule="evenodd" clip-rule="evenodd"
              d="M110.962 183C110.962 143.215 143.215 110.962 183 110.962C222.785 110.962 255.038 143.215 255.038 183C255.038 222.785 222.785 255.038 183 255.038C143.215 255.038 110.962 222.785 110.962 183ZM183 113.502C144.617 113.502 113.502 144.617 113.502 183C113.502 221.382 144.617 252.498 183 252.498C221.382 252.498 252.498 221.382 252.498 183C252.498 144.617 221.382 113.502 183 113.502Z"
              fill="#80FF9F" fill-opacity="0.5"/>
        <path fill-rule="evenodd" clip-rule="evenodd"
              d="M183 104.056C139.4 104.056 104.056 139.401 104.056 183C104.056 226.6 139.4 261.945 183 261.945C226.6 261.945 261.944 226.6 261.944 183C261.944 139.401 226.6 104.056 183 104.056ZM106.496 183C106.496 140.748 140.748 106.496 183 106.496C225.252 106.496 259.504 140.748 259.504 183C259.504 225.252 225.252 259.505 183 259.505C140.748 259.505 106.496 225.252 106.496 183Z"
              fill="#80FF9F" fill-opacity="0.5"/>
        <path fill-rule="evenodd" clip-rule="evenodd"
              d="M97.1442 183.001C97.1442 135.584 135.583 97.1449 183 97.1449C230.417 97.1449 268.856 135.584 268.856 183.001C268.856 230.418 230.417 268.857 183 268.857C135.583 268.857 97.1442 230.418 97.1442 183.001ZM183 99.4949C136.881 99.4949 99.4942 136.882 99.4942 183.001C99.4942 229.12 136.881 266.507 183 266.507C229.119 266.507 266.506 229.12 266.506 183.001C266.506 136.882 229.119 99.4949 183 99.4949Z"
              fill="#80FF9F" fill-opacity="0.5"/>
        <path fill-rule="evenodd" clip-rule="evenodd"
              d="M183 90.2449C131.773 90.2449 90.2446 131.773 90.2446 183C90.2446 234.227 131.773 275.755 183 275.755C234.227 275.755 275.755 234.227 275.755 183C275.755 131.773 234.227 90.2449 183 90.2449ZM92.5046 183C92.5046 133.021 133.021 92.5049 183 92.5049C232.979 92.5049 273.495 133.021 273.495 183C273.495 232.979 232.979 273.495 183 273.495C133.021 273.495 92.5046 232.979 92.5046 183Z"
              fill="#80FF9F" fill-opacity="0.5"/>
        <path fill-rule="evenodd" clip-rule="evenodd"
              d="M178.683 281.997C123.638 279.795 80.8006 233.388 83.0024 178.343C85.2042 123.299 131.611 80.4612 186.656 82.663C241.7 84.8647 284.538 131.272 282.336 186.316C280.134 241.361 233.727 284.198 178.683 281.997ZM85.1724 178.43C83.0186 232.276 124.923 277.673 178.769 279.827C232.615 281.98 278.012 240.076 280.166 186.23C282.32 132.384 240.415 86.9868 186.569 84.833C132.723 82.6791 87.3263 124.584 85.1724 178.43Z"
              fill="#80FF9F" fill-opacity="0.5"/>
        <path fill-rule="evenodd" clip-rule="evenodd"
              d="M183 76.4388C124.148 76.4388 76.4387 124.148 76.4387 183C76.4387 241.852 124.148 289.561 183 289.561C241.852 289.561 289.561 241.852 289.561 183C289.561 124.148 241.852 76.4388 183 76.4388ZM78.5087 183C78.5087 125.291 125.291 78.5088 183 78.5088C240.709 78.5088 287.491 125.291 287.491 183C287.491 240.709 240.709 287.491 183 287.491C125.291 287.491 78.5087 240.709 78.5087 183Z"
              fill="#80FF9F" fill-opacity="0.5"/>
        <path fill-rule="evenodd" clip-rule="evenodd"
              d="M69.5272 183C69.5272 120.331 120.331 69.5274 183 69.5274C245.669 69.5274 296.473 120.331 296.473 183C296.473 245.67 245.669 296.473 183 296.473C120.331 296.473 69.5272 245.67 69.5272 183ZM183 71.5074C121.424 71.5074 71.5072 121.424 71.5072 183C71.5072 244.576 121.424 294.493 183 294.493C244.576 294.493 294.493 244.576 294.493 183C294.493 121.424 244.576 71.5074 183 71.5074Z"
              fill="#80FF9F" fill-opacity="0.5"/>
        <path fill-rule="evenodd" clip-rule="evenodd"
              d="M183 62.6162C116.514 62.6162 62.6156 116.514 62.6156 183.001C62.6156 249.487 116.514 303.385 183 303.385C249.486 303.385 303.384 249.487 303.384 183.001C303.384 116.514 249.486 62.6162 183 62.6162ZM64.5056 183.001C64.5056 117.558 117.557 64.5062 183 64.5062C248.443 64.5062 301.494 117.558 301.494 183.001C301.494 248.443 248.443 301.495 183 301.495C117.557 301.495 64.5056 248.443 64.5056 183.001Z"
              fill="#80FF9F" fill-opacity="0.5"/>
        <path fill-rule="evenodd" clip-rule="evenodd"
              d="M55.7212 183C55.7212 112.706 112.706 55.7214 183 55.7214C253.294 55.7214 310.279 112.706 310.279 183C310.279 253.294 253.294 310.279 183 310.279C112.706 310.279 55.7212 253.294 55.7212 183ZM183 57.5114C113.695 57.5114 57.5112 113.695 57.5112 183C57.5112 252.306 113.695 308.489 183 308.489C252.306 308.489 308.489 252.306 308.489 183C308.489 113.695 252.306 57.5114 183 57.5114Z"
              fill="#80FF9F" fill-opacity="0.5"/>
        <path fill-rule="evenodd" clip-rule="evenodd"
              d="M183 48.81C108.889 48.81 48.8095 108.889 48.8095 183C48.8095 257.112 108.889 317.191 183 317.191C257.111 317.191 317.19 257.112 317.19 183C317.19 108.889 257.111 48.81 183 48.81ZM50.5095 183C50.5095 109.828 109.827 50.51 183 50.51C256.172 50.51 315.49 109.828 315.49 183C315.49 256.173 256.172 315.491 183 315.491C109.827 315.491 50.5095 256.173 50.5095 183Z"
              fill="#80FF9F" fill-opacity="0.5"/>
        <path fill-rule="evenodd" clip-rule="evenodd"
              d="M41.9101 183C41.9101 105.078 105.078 41.9102 183 41.9102C260.922 41.9102 324.09 105.078 324.09 183C324.09 260.922 260.922 324.09 183 324.09C105.078 324.09 41.9101 260.922 41.9101 183ZM183 43.5202C105.967 43.5202 43.5201 105.967 43.5201 183C43.5201 260.033 105.967 322.48 183 322.48C260.032 322.48 322.48 260.033 322.48 183C322.48 105.967 260.032 43.5202 183 43.5202Z"
              fill="#80FF9F" fill-opacity="0.5"/>
        <path fill-rule="evenodd" clip-rule="evenodd"
              d="M183 34.999C101.261 34.999 34.9986 101.261 34.9986 183C34.9986 264.739 101.261 331.002 183 331.002C264.739 331.002 331.001 264.739 331.001 183C331.001 101.261 264.739 34.999 183 34.999ZM36.5186 183C36.5186 102.101 102.101 36.519 183 36.519C263.899 36.519 329.481 102.101 329.481 183C329.481 263.9 263.899 329.482 183 329.482C102.101 329.482 36.5186 263.9 36.5186 183Z"
              fill="#80FF9F" fill-opacity="0.5"/>
        <path fill-rule="evenodd" clip-rule="evenodd"
              d="M28.092 183.001C28.092 97.4472 97.4466 28.0926 183 28.0926C268.553 28.0926 337.908 97.4472 337.908 183.001C337.908 268.554 268.553 337.909 183 337.909C97.4466 337.909 28.092 268.554 28.092 183.001ZM183 29.5126C98.2309 29.5126 29.512 98.2315 29.512 183.001C29.512 267.77 98.2309 336.489 183 336.489C267.769 336.489 336.488 267.77 336.488 183.001C336.488 98.2315 267.769 29.5126 183 29.5126Z"
              fill="#80FF9F" fill-opacity="0.5"/>
        <path fill-rule="evenodd" clip-rule="evenodd"
              d="M183 21.1927C93.6363 21.1927 21.1926 93.6364 21.1926 183C21.1926 272.364 93.6363 344.808 183 344.808C272.364 344.808 344.808 272.364 344.808 183C344.808 93.6364 272.364 21.1927 183 21.1927ZM22.5226 183C22.5226 94.3709 94.3708 22.5227 183 22.5227C271.629 22.5227 343.478 94.3709 343.478 183C343.478 271.629 271.629 343.478 183 343.478C94.3708 343.478 22.5226 271.629 22.5226 183Z"
              fill="#80FF9F" fill-opacity="0.5"/>
        <path fill-rule="evenodd" clip-rule="evenodd"
              d="M14.2809 183.001C14.2809 89.8196 89.819 14.2815 183 14.2815C276.181 14.2815 351.719 89.8196 351.719 183.001C351.719 276.181 276.181 351.719 183 351.719C89.819 351.719 14.2809 276.181 14.2809 183.001ZM183 15.5215C90.5038 15.5215 15.5209 90.5044 15.5209 183.001C15.5209 275.497 90.5038 350.479 183 350.479C275.496 350.479 350.479 275.497 350.479 183.001C350.479 90.5044 275.496 15.5215 183 15.5215Z"
              fill="#80FF9F" fill-opacity="0.5"/>
        <path fill-rule="evenodd" clip-rule="evenodd"
              d="M183 7.38148C86.0086 7.38148 7.38153 86.0085 7.38153 183C7.38153 279.991 86.0086 358.618 183 358.618C279.991 358.618 358.618 279.991 358.618 183C358.618 86.0085 279.991 7.38148 183 7.38148ZM8.53153 183C8.53153 86.6437 86.6437 8.53148 183 8.53148C279.356 8.53148 357.468 86.6437 357.468 183C357.468 279.356 279.356 357.468 183 357.468C86.6437 357.468 8.53153 279.356 8.53153 183Z"
              fill="#80FF9F" fill-opacity="0.5"/>
        <path fill-rule="evenodd" clip-rule="evenodd"
              d="M183 0.475098C82.1942 0.475098 0.474976 82.1943 0.474976 183C0.474976 283.806 82.1942 365.525 183 365.525C283.806 365.525 365.525 283.806 365.525 183C365.525 82.1943 283.806 0.475098 183 0.475098ZM1.52498 183C1.52498 82.7742 82.7741 1.5251 183 1.5251C283.226 1.5251 364.475 82.7742 364.475 183C364.475 283.226 283.226 364.475 183 364.475C82.7741 364.475 1.52498 283.226 1.52498 183Z"
              fill="#80FF9F" fill-opacity="0.5"/>
    </g>
</svg>
