<svg width="366" height="366" fill="none" xmlns="http://www.w3.org/2000/svg"><g opacity=".81" fill-rule="evenodd" clip-rule="evenodd" fill="#80FF9F" fill-opacity=".5"><path d="M146.512 174.275c-4.808 20.15 7.629 40.382 27.779 45.19 20.151 4.808 40.383-7.63 45.191-27.78 4.808-20.15-7.63-40.382-27.78-45.19-20.15-4.808-40.382 7.629-45.19 27.78Zm28.476 42.272c-18.539-4.424-29.981-23.038-25.558-41.576 4.423-18.539 23.038-29.981 41.576-25.558 18.538 4.423 29.981 23.038 25.558 41.576-4.424 18.538-23.038 29.981-41.576 25.558Z"/><path d="M138.579 183c0-24.532 19.888-44.42 44.421-44.42 24.533 0 44.421 19.888 44.421 44.42 0 24.533-19.888 44.421-44.421 44.421-24.533 0-44.421-19.888-44.421-44.421ZM183 141.49c-22.926 0-41.511 18.585-41.511 41.51 0 22.926 18.585 41.511 41.511 41.511 22.926 0 41.511-18.585 41.511-41.511 0-22.925-18.585-41.51-41.511-41.51Z"/><path d="M183 131.673c-28.347 0-51.327 22.98-51.327 51.328 0 28.347 22.98 51.327 51.327 51.327 28.347 0 51.327-22.98 51.327-51.327 0-28.348-22.98-51.328-51.327-51.328Zm-48.517 51.328c0-26.796 21.722-48.518 48.517-48.518s48.517 21.722 48.517 48.518c0 26.795-21.722 48.517-48.517 48.517s-48.517-21.722-48.517-48.517Z"/><path d="M124.773 183c0-32.157 26.069-58.226 58.227-58.226s58.227 26.069 58.227 58.226c0 32.158-26.069 58.227-58.227 58.227S124.773 215.158 124.773 183ZM183 127.494c-30.656 0-55.507 24.851-55.507 55.506 0 30.656 24.851 55.507 55.507 55.507 30.655 0 55.507-24.851 55.507-55.507 0-30.655-24.852-55.506-55.507-55.506Z"/><path d="M183 117.862c-35.975 0-65.138 29.164-65.138 65.139 0 35.974 29.163 65.138 65.138 65.138 35.975 0 65.138-29.164 65.138-65.138 0-35.975-29.163-65.139-65.138-65.139Zm-62.508 65.139c0-34.523 27.986-62.509 62.508-62.509 34.522 0 62.508 27.986 62.508 62.509 0 34.522-27.986 62.508-62.508 62.508-34.522 0-62.508-27.986-62.508-62.508Z"/><path d="M110.962 183c0-39.785 32.253-72.038 72.038-72.038s72.038 32.253 72.038 72.038-32.253 72.038-72.038 72.038-72.038-32.253-72.038-72.038ZM183 113.502c-38.383 0-69.498 31.115-69.498 69.498 0 38.382 31.115 69.498 69.498 69.498 38.382 0 69.498-31.116 69.498-69.498 0-38.383-31.116-69.498-69.498-69.498Z"/><path d="M183 104.056c-43.6 0-78.944 35.345-78.944 78.944 0 43.6 35.344 78.945 78.944 78.945S261.944 226.6 261.944 183c0-43.599-35.344-78.944-78.944-78.944ZM106.496 183c0-42.252 34.252-76.504 76.504-76.504s76.504 34.252 76.504 76.504-34.252 76.505-76.504 76.505-76.504-34.253-76.504-76.505Z"/><path d="M97.144 183.001c0-47.417 38.439-85.856 85.856-85.856 47.417 0 85.856 38.439 85.856 85.856 0 47.417-38.439 85.856-85.856 85.856-47.417 0-85.856-38.439-85.856-85.856ZM183 99.495c-46.119 0-83.506 37.387-83.506 83.506s37.387 83.506 83.506 83.506 83.506-37.387 83.506-83.506S229.119 99.495 183 99.495Z"/><path d="M183 90.245c-51.227 0-92.755 41.528-92.755 92.755s41.528 92.755 92.755 92.755 92.755-41.528 92.755-92.755S234.227 90.245 183 90.245ZM92.505 183c0-49.979 40.516-90.495 90.495-90.495 49.979 0 90.495 40.516 90.495 90.495 0 49.979-40.516 90.495-90.495 90.495-49.979 0-90.495-40.516-90.495-90.495Z"/><path d="M178.683 281.997c-55.045-2.202-97.882-48.609-95.68-103.654 2.201-55.044 48.608-97.882 103.653-95.68 55.044 2.202 97.882 48.609 95.68 103.653-2.202 55.045-48.609 97.882-103.653 95.681ZM85.173 178.43c-2.154 53.846 39.75 99.243 93.596 101.397 53.846 2.153 99.243-39.751 101.397-93.597 2.154-53.846-39.751-99.243-93.597-101.397-53.846-2.154-99.243 39.751-101.397 93.597Z"/><path d="M183 76.439c-58.852 0-106.561 47.709-106.561 106.561 0 58.852 47.709 106.561 106.561 106.561 58.852 0 106.561-47.709 106.561-106.561 0-58.852-47.709-106.561-106.561-106.561ZM78.509 183c0-57.709 46.782-104.491 104.491-104.491S287.491 125.29 287.491 183 240.709 287.491 183 287.491 78.509 240.709 78.509 183Z"/><path d="M69.527 183c0-62.669 50.804-113.473 113.473-113.473S296.473 120.331 296.473 183c0 62.67-50.804 113.473-113.473 113.473S69.527 245.67 69.527 183ZM183 71.507c-61.576 0-111.493 49.917-111.493 111.493 0 61.576 49.917 111.493 111.493 111.493 61.576 0 111.493-49.917 111.493-111.493 0-61.576-49.917-111.493-111.493-111.493Z"/><path d="M183 62.616c-66.486 0-120.384 53.898-120.384 120.385 0 66.486 53.898 120.384 120.384 120.384 66.486 0 120.384-53.898 120.384-120.384 0-66.487-53.898-120.385-120.384-120.385ZM64.506 183.001c0-65.443 53.051-118.495 118.494-118.495s118.494 53.052 118.494 118.495c0 65.442-53.051 118.494-118.494 118.494S64.506 248.443 64.506 183.001Z"/><path d="M55.721 183c0-70.294 56.985-127.279 127.279-127.279S310.279 112.706 310.279 183 253.294 310.279 183 310.279 55.721 253.294 55.721 183ZM183 57.511c-69.305 0-125.489 56.184-125.489 125.489 0 69.306 56.184 125.489 125.489 125.489 69.306 0 125.489-56.183 125.489-125.489 0-69.305-56.183-125.489-125.489-125.489Z"/><path d="M183 48.81c-74.111 0-134.19 60.079-134.19 134.19 0 74.112 60.079 134.191 134.19 134.191 74.111 0 134.19-60.079 134.19-134.191 0-74.111-60.079-134.19-134.19-134.19ZM50.51 183c0-73.172 59.317-132.49 132.49-132.49 73.172 0 132.49 59.318 132.49 132.49 0 73.173-59.318 132.491-132.49 132.491-73.173 0-132.49-59.318-132.49-132.491Z"/><path d="M41.91 183c0-77.922 63.168-141.09 141.09-141.09S324.09 105.078 324.09 183 260.922 324.09 183 324.09 41.91 260.922 41.91 183ZM183 43.52c-77.033 0-139.48 62.447-139.48 139.48 0 77.033 62.447 139.48 139.48 139.48 77.032 0 139.48-62.447 139.48-139.48 0-77.033-62.448-139.48-139.48-139.48Z"/><path d="M183 34.999c-81.739 0-148.001 66.262-148.001 148.001S101.26 331.002 183 331.002 331.001 264.739 331.001 183 264.739 34.999 183 34.999ZM36.519 183C36.519 102.101 102.1 36.519 183 36.519S329.481 102.101 329.481 183c0 80.9-65.582 146.482-146.481 146.482S36.519 263.9 36.519 183Z"/><path d="M28.092 183.001C28.092 97.447 97.447 28.093 183 28.093c85.553 0 154.908 69.354 154.908 154.908 0 85.553-69.355 154.908-154.908 154.908-85.553 0-154.908-69.355-154.908-154.908ZM183 29.513C98.23 29.513 29.512 98.23 29.512 183c0 84.769 68.719 153.488 153.488 153.488s153.488-68.719 153.488-153.488c0-84.77-68.719-153.488-153.488-153.488Z"/><path d="M183 21.193C93.636 21.193 21.193 93.636 21.193 183c0 89.364 72.443 161.808 161.807 161.808 89.364 0 161.808-72.444 161.808-161.808 0-89.364-72.444-161.807-161.808-161.807ZM22.523 183C22.523 94.37 94.37 22.523 183 22.523S343.478 94.37 343.478 183 271.629 343.478 183 343.478c-88.63 0-160.477-71.849-160.477-160.478Z"/><path d="M14.28 183.001C14.28 89.82 89.82 14.281 183 14.281s168.719 75.539 168.719 168.72c0 93.18-75.538 168.718-168.719 168.718S14.28 276.181 14.28 183.001ZM183 15.521c-92.496 0-167.48 74.983-167.48 167.48 0 92.496 74.984 167.478 167.48 167.478s167.479-74.982 167.479-167.478c0-92.497-74.983-167.48-167.479-167.48Z"/><path d="M183 7.381C86.009 7.381 7.382 86.008 7.382 183c0 96.991 78.627 175.618 175.618 175.618S358.618 279.991 358.618 183C358.618 86.008 279.991 7.381 183 7.381ZM8.532 183C8.532 86.644 86.644 8.531 183 8.531S357.468 86.644 357.468 183 279.356 357.468 183 357.468 8.532 279.356 8.532 183Z"/><path d="M183 .475C82.194.475.475 82.195.475 183c0 100.806 81.72 182.525 182.525 182.525 100.806 0 182.525-81.719 182.525-182.525C365.525 82.194 283.806.475 183 .475ZM1.525 183C1.525 82.774 82.775 1.525 183 1.525c100.226 0 181.475 81.25 181.475 181.475 0 100.226-81.249 181.475-181.475 181.475S1.525 283.226 1.525 183Z"/></g></svg>