<svg width="814" height="554" fill="none" xmlns="http://www.w3.org/2000/svg"><g opacity=".5" fill-opacity=".5"><path style="mix-blend-mode:screen" opacity=".5" d="M519.502-19.564a85.738 85.738 0 0 1 25.117 60.628 85.724 85.724 0 0 1-25.117 60.628L146.386 474.824a85.759 85.759 0 0 1-121.259 0 85.776 85.776 0 0 1 0-121.256L398.244-19.564a85.755 85.755 0 0 1 121.258 0Z" fill="url(#a)"/><path style="mix-blend-mode:screen" opacity=".5" d="M910.694-53.695a93.143 93.143 0 0 1 20.207 101.54 93.142 93.142 0 0 1-20.207 30.225L526.081 462.699a93.214 93.214 0 0 1-131.79 0 93.21 93.21 0 0 1 0-131.788L778.905-53.695a93.161 93.161 0 0 1 65.894-27.303 93.164 93.164 0 0 1 65.895 27.303Z" fill="url(#b)"/><path style="mix-blend-mode:screen" opacity=".5" d="M896.727 199.506a44.339 44.339 0 0 1 9.621 48.347 44.331 44.331 0 0 1-9.621 14.391L722.385 436.606a44.397 44.397 0 0 1-62.74 0 44.362 44.362 0 0 1-13.002-31.38 44.365 44.365 0 0 1 13.002-31.381l174.342-174.339a44.339 44.339 0 0 1 48.349-9.621 44.326 44.326 0 0 1 14.391 9.621Z" fill="url(#c)"/><path style="mix-blend-mode:screen" opacity=".5" d="M753.8 106.206a59.395 59.395 0 0 1 0 83.958L407.338 536.508a59.36 59.36 0 0 1-41.991 17.407 59.35 59.35 0 0 1-41.992-17.407 59.395 59.395 0 0 1 0-83.959L669.84 106.206a59.347 59.347 0 0 1 83.96 0Z" fill="url(#d)"/></g><defs><linearGradient id="a" x1="515.696" y1="-26.042" x2="22.165" y2="467.497" gradientUnits="userSpaceOnUse"><stop stop-color="#fff"/><stop offset="1" stop-opacity="0"/></linearGradient><linearGradient id="b" x1="-443883" y1="75894.4" x2="-575272" y2="207286" gradientUnits="userSpaceOnUse"><stop stop-color="#fff"/><stop offset="1" stop-opacity="0"/></linearGradient><linearGradient id="c" x1="-150315" y1="9365.79" x2="-178094" y2="37145.6" gradientUnits="userSpaceOnUse"><stop stop-color="#fff"/><stop offset="1" stop-opacity="0"/></linearGradient><linearGradient id="d" x1="162387" y1="32948.6" x2="122285" y2="73058.2" gradientUnits="userSpaceOnUse"><stop stop-color="#fff"/><stop offset="1" stop-opacity="0"/></linearGradient></defs></svg>