<svg width="465" height="438" fill="none" xmlns="http://www.w3.org/2000/svg"><g filter="url(#a)"><circle cx="222" cy="198" r="182" fill="url(#b)"/></g><g opacity=".81" stroke="#FAFAFA" stroke-linecap="round" stroke-linejoin="round"><path opacity=".81" d="M150.44 300.35c82.793 0 149.91-67.117 149.91-149.91C300.35 67.647 233.233.53 150.44.53 67.647.53.53 67.647.53 150.44c0 82.793 67.117 149.91 149.91 149.91Z" stroke-width="1.05"/><path opacity=".81" d="M150.44 294.62c79.628 0 144.18-64.552 144.18-144.18S230.068 6.26 150.44 6.26 6.26 70.812 6.26 150.44s64.552 144.18 144.18 144.18Z" stroke-width="1.15"/><path opacity=".81" d="M150.44 288.9c76.469 0 138.46-61.991 138.46-138.46 0-76.47-61.991-138.46-138.46-138.46-76.47 0-138.46 61.99-138.46 138.46 0 76.469 61.99 138.46 138.46 138.46Z" stroke-width="1.24"/><path opacity=".81" d="M150.44 283.17c73.305 0 132.73-59.425 132.73-132.73 0-73.305-59.425-132.73-132.73-132.73-73.305 0-132.73 59.425-132.73 132.73 0 73.305 59.425 132.73 132.73 132.73Z" stroke-width="1.33"/><path opacity=".81" d="M150.44 277.45c70.146 0 127.01-56.864 127.01-127.01 0-70.146-56.864-127.01-127.01-127.01-70.146 0-127.01 56.864-127.01 127.01 0 70.146 56.864 127.01 127.01 127.01Z" stroke-width="1.42"/><path opacity=".81" d="M150.44 271.72c66.981 0 121.28-54.299 121.28-121.28S217.421 29.16 150.44 29.16 29.16 83.459 29.16 150.44s54.299 121.28 121.28 121.28Z" stroke-width="1.52"/><path opacity=".81" d="M150.44 265.99c63.817 0 115.55-51.733 115.55-115.55 0-63.816-51.733-115.55-115.55-115.55-63.816 0-115.55 51.734-115.55 115.55 0 63.817 51.734 115.55 115.55 115.55Z" stroke-width="1.61"/><path opacity=".81" d="M150.44 260.27c60.657 0 109.83-49.173 109.83-109.83S211.097 40.61 150.44 40.61 40.61 89.783 40.61 150.44s49.173 109.83 109.83 109.83Z" stroke-width="1.7"/><path opacity=".81" d="M150.44 254.54c57.493 0 104.1-46.607 104.1-104.1 0-57.493-46.607-104.1-104.1-104.1-57.493 0-104.1 46.607-104.1 104.1 0 57.493 46.607 104.1 104.1 104.1Z" stroke-width="1.79"/><path opacity=".81" d="M150.44 248.82c54.334 0 98.38-44.046 98.38-98.38 0-54.334-44.046-98.38-98.38-98.38-54.334 0-98.38 44.046-98.38 98.38 0 54.334 44.046 98.38 98.38 98.38Z" stroke-width="1.89"/><path opacity=".81" d="M150.44 243.09c51.169 0 92.65-41.481 92.65-92.65 0-51.17-41.481-92.65-92.65-92.65-51.17 0-92.65 41.48-92.65 92.65 0 51.169 41.48 92.65 92.65 92.65Z" stroke-width="1.98"/><path opacity=".81" d="M150.44 237.36c48.005 0 86.92-38.915 86.92-86.92s-38.915-86.92-86.92-86.92-86.92 38.915-86.92 86.92 38.915 86.92 86.92 86.92Z" stroke-width="2.07"/><path opacity=".81" d="M231.368 153.136c1.793-44.846-33.107-82.655-77.952-84.448-44.846-1.794-82.655 33.106-84.448 77.952-1.794 44.845 33.106 82.654 77.952 84.448 44.845 1.793 82.654-33.107 84.448-77.952Z" stroke-width="2.172"/><path opacity=".81" d="M150.44 225.91c41.681 0 75.47-33.789 75.47-75.47s-33.789-75.47-75.47-75.47-75.47 33.789-75.47 75.47 33.789 75.47 75.47 75.47Z" stroke-width="2.26"/><path opacity=".81" d="M150.44 220.19c38.522 0 69.75-31.228 69.75-69.75s-31.228-69.75-69.75-69.75-69.75 31.228-69.75 69.75 31.228 69.75 69.75 69.75Z" stroke-width="2.35"/><path opacity=".81" d="M150.44 214.46c35.357 0 64.02-28.663 64.02-64.02s-28.663-64.02-64.02-64.02-64.02 28.663-64.02 64.02 28.663 64.02 64.02 64.02Z" stroke-width="2.44"/><path opacity=".81" d="M150.44 208.73c32.193 0 58.29-26.097 58.29-58.29s-26.097-58.29-58.29-58.29-58.29 26.097-58.29 58.29 26.097 58.29 58.29 58.29Z" stroke-width="2.54"/><path opacity=".81" d="M150.44 203.01c29.034 0 52.57-23.536 52.57-52.57s-23.536-52.57-52.57-52.57-52.57 23.536-52.57 52.57 23.536 52.57 52.57 52.57Z" stroke-width="2.63"/><path opacity=".81" d="M150.44 197.28c25.869 0 46.84-20.971 46.84-46.84 0-25.869-20.971-46.84-46.84-46.84-25.869 0-46.84 20.971-46.84 46.84 0 25.869 20.971 46.84 46.84 46.84Z" stroke-width="2.72"/><path opacity=".81" d="M150.44 191.56c22.71 0 41.12-18.41 41.12-41.12 0-22.71-18.41-41.12-41.12-41.12-22.71 0-41.12 18.41-41.12 41.12 0 22.71 18.41 41.12 41.12 41.12Z" stroke-width="2.81"/><path opacity=".81" d="M150.44 185.83c19.545 0 35.39-15.845 35.39-35.39s-15.845-35.39-35.39-35.39-35.39 15.845-35.39 35.39 15.845 35.39 35.39 35.39Z" stroke-width="2.91"/><path opacity=".81" d="M179.288 157.307c3.801-15.934-6.033-31.932-21.967-35.734-15.933-3.802-31.932 6.033-35.734 21.966-3.801 15.934 6.033 31.932 21.967 35.734 15.933 3.802 31.932-6.033 35.734-21.966Z" stroke-width="3"/></g><g filter="url(#c)"><circle cx="404" cy="373" r="39" fill="url(#d)"/></g><defs><linearGradient id="b" x1="129.216" y1="48.118" x2="332.627" y2="396.059" gradientUnits="userSpaceOnUse"><stop offset=".034" stop-color="#56CCF2"/><stop offset="1" stop-color="#80FF9F"/></linearGradient><linearGradient id="d" x1="384.118" y1="340.882" x2="427.706" y2="415.441" gradientUnits="userSpaceOnUse"><stop offset=".034" stop-color="#56CCF2"/><stop offset="1" stop-color="#80FF9F"/></linearGradient><filter id="a" x="20" y="0" width="404" height="404" filterUnits="userSpaceOnUse" color-interpolation-filters="sRGB"><feFlood flood-opacity="0" result="BackgroundImageFix"/><feColorMatrix in="SourceAlpha" values="0 0 0 0 0 0 0 0 0 0 0 0 0 0 0 0 0 0 127 0" result="hardAlpha"/><feOffset dy="4"/><feGaussianBlur stdDeviation="10"/><feComposite in2="hardAlpha" operator="out"/><feColorMatrix values="0 0 0 0 0.5 0 0 0 0 1 0 0 0 0 0.625065 0 0 0 0.5 0"/><feBlend in2="BackgroundImageFix" result="effect1_dropShadow_1011:1054"/><feBlend in="SourceGraphic" in2="effect1_dropShadow_1011:1054" result="shape"/></filter><filter id="c" x="343" y="316" width="122" height="122" filterUnits="userSpaceOnUse" color-interpolation-filters="sRGB"><feFlood flood-opacity="0" result="BackgroundImageFix"/><feColorMatrix in="SourceAlpha" values="0 0 0 0 0 0 0 0 0 0 0 0 0 0 0 0 0 0 127 0" result="hardAlpha"/><feMorphology radius="2" operator="dilate" in="SourceAlpha" result="effect1_dropShadow_1011:1054"/><feOffset dy="4"/><feGaussianBlur stdDeviation="10"/><feComposite in2="hardAlpha" operator="out"/><feColorMatrix values="0 0 0 0 0.5 0 0 0 0 1 0 0 0 0 0.625065 0 0 0 0.5 0"/><feBlend in2="BackgroundImageFix" result="effect1_dropShadow_1011:1054"/><feBlend in="SourceGraphic" in2="effect1_dropShadow_1011:1054" result="shape"/></filter></defs></svg>