<svg width="237" height="206" fill="none" xmlns="http://www.w3.org/2000/svg"><g filter="url(#a)"><circle cx="87" cy="109" r="73" fill="url(#b)"/></g><g filter="url(#c)"><circle cx="198.5" cy="48.5" r="16.5" fill="url(#d)"/></g><g opacity=".81" stroke="#FAFAFA" stroke-linecap="round" stroke-linejoin="round"><path opacity=".81" d="M40.8 128.07c34.948 0 63.279-28.33 63.279-63.278S75.749 1.513 40.801 1.513s-63.279 28.33-63.279 63.279c0 34.947 28.33 63.278 63.279 63.278Z" stroke-width="1.05"/><path opacity=".81" d="M40.8 125.651c33.612 0 60.86-27.248 60.86-60.86 0-33.611-27.248-60.86-60.86-60.86-33.611 0-60.86 27.248-60.86 60.86 0 33.612 27.249 60.86 60.86 60.86Z"/><path opacity=".81" d="M40.8 123.237c32.279 0 58.446-26.167 58.446-58.446 0-32.278-26.167-58.445-58.445-58.445-32.279 0-58.446 26.167-58.446 58.445 0 32.279 26.167 58.446 58.445 58.446Z"/><path opacity=".81" d="M40.8 120.818c30.943 0 56.027-25.084 56.027-56.027 0-30.942-25.084-56.026-56.026-56.026-30.943 0-56.027 25.084-56.027 56.026 0 30.943 25.084 56.027 56.026 56.027Z"/><path opacity=".81" d="M40.8 118.404c29.61 0 53.612-24.003 53.612-53.612 0-29.61-24.002-53.612-53.612-53.612-29.609 0-53.612 24.003-53.612 53.612s24.003 53.612 53.612 53.612Z"/><path opacity=".81" d="M40.8 115.985c28.274 0 51.194-22.92 51.194-51.194 0-28.273-22.92-51.193-51.194-51.193-28.273 0-51.193 22.92-51.193 51.194 0 28.273 22.92 51.193 51.194 51.193Z"/><path opacity=".81" d="M40.8 113.567c26.938 0 48.775-21.838 48.775-48.775 0-26.938-21.837-48.775-48.775-48.775-26.937 0-48.774 21.837-48.774 48.775 0 26.937 21.837 48.775 48.775 48.775Z"/><path opacity=".81" d="M40.8 111.152c25.605 0 46.36-20.757 46.36-46.36 0-25.605-20.755-46.36-46.36-46.36-25.604 0-46.36 20.755-46.36 46.36 0 25.603 20.756 46.36 46.36 46.36Z"/><path opacity=".81" d="M40.8 108.733c24.269 0 43.942-19.673 43.942-43.941 0-24.269-19.673-43.942-43.942-43.942-24.268 0-43.941 19.673-43.941 43.942 0 24.268 19.673 43.941 43.941 43.941Z"/><path opacity=".81" d="M40.8 106.319c22.935 0 41.528-18.593 41.528-41.527 0-22.935-18.593-41.527-41.528-41.527-22.934 0-41.527 18.592-41.527 41.527 0 22.934 18.593 41.527 41.527 41.527Z"/><path opacity=".81" d="M40.8 103.9c21.6 0 39.109-17.51 39.109-39.109 0-21.598-17.51-39.108-39.109-39.108-21.598 0-39.108 17.51-39.108 39.108 0 21.6 17.51 39.109 39.108 39.109Z"/><path opacity=".81" d="M40.8 101.481c20.264 0 36.69-16.426 36.69-36.69 0-20.263-16.426-36.69-36.69-36.69-20.263 0-36.69 16.427-36.69 36.69 0 20.264 16.427 36.69 36.69 36.69Z"/><path opacity=".81" d="M74.96 65.93C75.719 47 60.987 31.04 42.058 30.283c-18.93-.757-34.89 13.975-35.647 32.905-.757 18.93 13.975 34.889 32.904 35.646 18.93.757 34.89-13.975 35.647-32.904Z"/><path opacity=".81" d="M40.8 96.648c17.594 0 31.857-14.263 31.857-31.856 0-17.594-14.263-31.857-31.856-31.857-17.594 0-31.857 14.263-31.857 31.857 0 17.593 14.263 31.856 31.856 31.856Z"/><path opacity=".81" d="M40.8 94.234c16.26 0 29.443-13.182 29.443-29.442 0-16.26-13.182-29.442-29.442-29.442-16.261 0-29.443 13.181-29.443 29.442 0 16.26 13.182 29.442 29.442 29.442Z"/><path opacity=".81" d="M40.8 91.815c14.925 0 27.024-12.099 27.024-27.023 0-14.925-12.099-27.024-27.023-27.024-14.925 0-27.024 12.099-27.024 27.023 0 14.925 12.099 27.024 27.023 27.024Z"/><path opacity=".81" d="M40.8 89.396c13.59 0 24.605-11.016 24.605-24.605S54.39 40.187 40.8 40.187c-13.588 0-24.604 11.015-24.604 24.604 0 13.59 11.016 24.605 24.604 24.605Z"/><path opacity=".81" d="M40.8 86.982c12.256 0 22.19-9.935 22.19-22.19 0-12.256-9.934-22.19-22.19-22.19-12.255 0-22.19 9.934-22.19 22.19 0 12.255 9.935 22.19 22.19 22.19Z"/><path opacity=".81" d="M40.8 84.563c10.92 0 19.772-8.852 19.772-19.771 0-10.92-8.852-19.772-19.772-19.772-10.92 0-19.771 8.852-19.771 19.772 0 10.92 8.852 19.771 19.771 19.771Z"/><path opacity=".81" d="M40.8 82.149c9.587 0 17.358-7.771 17.358-17.357 0-9.586-7.771-17.357-17.358-17.357-9.586 0-17.357 7.77-17.357 17.357 0 9.586 7.771 17.357 17.357 17.357Z"/><path opacity=".81" d="M40.8 79.73c8.25 0 14.939-6.688 14.939-14.939 0-8.25-6.688-14.938-14.938-14.938s-14.939 6.688-14.939 14.938S32.55 79.73 40.801 79.73Z"/><path opacity=".81" d="M52.977 67.69c1.605-6.726-2.546-13.479-9.272-15.084-6.726-1.604-13.479 2.547-15.083 9.273-1.605 6.725 2.546 13.479 9.272 15.083 6.725 1.605 13.479-2.546 15.083-9.272Z"/></g><defs><linearGradient id="b" x1="49.784" y1="48.882" x2="131.373" y2="188.441" gradientUnits="userSpaceOnUse"><stop offset=".034" stop-color="#56CCF2"/><stop offset="1" stop-color="#80FF9F"/></linearGradient><linearGradient id="d" x1="190.088" y1="34.912" x2="208.529" y2="66.456" gradientUnits="userSpaceOnUse"><stop offset=".034" stop-color="#56CCF2"/><stop offset="1" stop-color="#80FF9F"/></linearGradient><filter id="a" x="-6" y="20" width="186" height="186" filterUnits="userSpaceOnUse" color-interpolation-filters="sRGB"><feFlood flood-opacity="0" result="BackgroundImageFix"/><feColorMatrix in="SourceAlpha" values="0 0 0 0 0 0 0 0 0 0 0 0 0 0 0 0 0 0 127 0" result="hardAlpha"/><feOffset dy="4"/><feGaussianBlur stdDeviation="10"/><feComposite in2="hardAlpha" operator="out"/><feColorMatrix values="0 0 0 0 0.5 0 0 0 0 1 0 0 0 0 0.625065 0 0 0 0.5 0"/><feBlend in2="BackgroundImageFix" result="effect1_dropShadow_1021:1087"/><feBlend in="SourceGraphic" in2="effect1_dropShadow_1021:1087" result="shape"/></filter><filter id="c" x="160" y="14" width="77" height="77" filterUnits="userSpaceOnUse" color-interpolation-filters="sRGB"><feFlood flood-opacity="0" result="BackgroundImageFix"/><feColorMatrix in="SourceAlpha" values="0 0 0 0 0 0 0 0 0 0 0 0 0 0 0 0 0 0 127 0" result="hardAlpha"/><feMorphology radius="2" operator="dilate" in="SourceAlpha" result="effect1_dropShadow_1021:1087"/><feOffset dy="4"/><feGaussianBlur stdDeviation="10"/><feComposite in2="hardAlpha" operator="out"/><feColorMatrix values="0 0 0 0 0.5 0 0 0 0 1 0 0 0 0 0.625065 0 0 0 0.5 0"/><feBlend in2="BackgroundImageFix" result="effect1_dropShadow_1021:1087"/><feBlend in="SourceGraphic" in2="effect1_dropShadow_1021:1087" result="shape"/></filter></defs></svg>