<svg width="237" height="206" viewBox="0 0 237 206" fill="none" xmlns="http://www.w3.org/2000/svg">
    <g filter="url(#filter0_d_1021:1087)">
        <circle cx="87" cy="109" r="73" fill="url(#paint0_linear_1021:1087)"/>
    </g>
    <g filter="url(#filter1_d_1021:1087)">
        <circle cx="198.5" cy="48.5" r="16.5" fill="url(#paint1_linear_1021:1087)"/>
    </g>
    <g opacity="0.81">
        <path opacity="0.81"
              d="M40.8005 128.07C75.7482 128.07 104.079 99.7393 104.079 64.7916C104.079 29.8439 75.7482 1.51318 40.8005 1.51318C5.8528 1.51318 -22.4779 29.8439 -22.4779 64.7916C-22.4779 99.7393 5.8528 128.07 40.8005 128.07Z"
              stroke="#FAFAFA" stroke-width="1.05" stroke-linecap="round" stroke-linejoin="round"/>
        <path opacity="0.81"
              d="M40.8005 125.651C74.4124 125.651 101.66 98.4032 101.66 64.7914C101.66 31.1795 74.4124 3.93164 40.8005 3.93164C7.18862 3.93164 -20.0592 31.1795 -20.0592 64.7914C-20.0592 98.4032 7.18862 125.651 40.8005 125.651Z"
              stroke="#FAFAFA" stroke-linecap="round" stroke-linejoin="round"/>
        <path opacity="0.81"
              d="M40.8005 123.237C73.0789 123.237 99.2457 97.0699 99.2457 64.7914C99.2457 32.513 73.0789 6.34619 40.8005 6.34619C8.52206 6.34619 -17.6448 32.513 -17.6448 64.7914C-17.6448 97.0699 8.52206 123.237 40.8005 123.237Z"
              stroke="#FAFAFA" stroke-linecap="round" stroke-linejoin="round"/>
        <path opacity="0.81"
              d="M40.8005 120.818C71.7431 120.818 96.827 95.7338 96.827 64.7912C96.827 33.8486 71.7431 8.76465 40.8005 8.76465C9.85787 8.76465 -15.2261 33.8486 -15.2261 64.7912C-15.2261 95.7338 9.85787 120.818 40.8005 120.818Z"
              stroke="#FAFAFA" stroke-linecap="round" stroke-linejoin="round"/>
        <path opacity="0.81"
              d="M40.8004 118.404C70.4096 118.404 94.4125 94.4009 94.4125 64.7918C94.4125 35.1826 70.4096 11.1797 40.8004 11.1797C11.1913 11.1797 -12.8116 35.1826 -12.8116 64.7918C-12.8116 94.4009 11.1913 118.404 40.8004 118.404Z"
              stroke="#FAFAFA" stroke-linecap="round" stroke-linejoin="round"/>
        <path opacity="0.81"
              d="M40.8005 115.985C69.0738 115.985 91.9939 93.0649 91.9939 64.7915C91.9939 36.5182 69.0738 13.5981 40.8005 13.5981C12.5271 13.5981 -10.3929 36.5182 -10.3929 64.7915C-10.3929 93.0649 12.5271 115.985 40.8005 115.985Z"
              stroke="#FAFAFA" stroke-linecap="round" stroke-linejoin="round"/>
        <path opacity="0.81"
              d="M40.8005 113.567C67.738 113.567 89.5752 91.7293 89.5752 64.7918C89.5752 37.8543 67.738 16.0171 40.8005 16.0171C13.863 16.0171 -7.97424 37.8543 -7.97424 64.7918C-7.97424 91.7293 13.863 113.567 40.8005 113.567Z"
              stroke="#FAFAFA" stroke-linecap="round" stroke-linejoin="round"/>
        <path opacity="0.81"
              d="M40.8005 111.152C66.4046 111.152 87.1608 90.3955 87.1608 64.7914C87.1608 39.1873 66.4046 18.4312 40.8005 18.4312C15.1964 18.4312 -5.55975 39.1873 -5.55975 64.7914C-5.55975 90.3955 15.1964 111.152 40.8005 111.152Z"
              stroke="#FAFAFA" stroke-linecap="round" stroke-linejoin="round"/>
        <path opacity="0.81"
              d="M40.8005 108.733C65.0688 108.733 84.7421 89.0599 84.7421 64.7917C84.7421 40.5234 65.0688 20.8501 40.8005 20.8501C16.5323 20.8501 -3.14105 40.5234 -3.14105 64.7917C-3.14105 89.0599 16.5323 108.733 40.8005 108.733Z"
              stroke="#FAFAFA" stroke-linecap="round" stroke-linejoin="round"/>
        <path opacity="0.81"
              d="M40.8005 106.319C63.7353 106.319 82.3276 87.7265 82.3276 64.7918C82.3276 41.857 63.7353 23.2646 40.8005 23.2646C17.8657 23.2646 -0.726624 41.857 -0.726624 64.7918C-0.726624 87.7265 17.8657 106.319 40.8005 106.319Z"
              stroke="#FAFAFA" stroke-linecap="round" stroke-linejoin="round"/>
        <path opacity="0.81"
              d="M40.8005 103.9C62.3995 103.9 79.9089 86.3905 79.9089 64.7915C79.9089 43.1925 62.3995 25.6831 40.8005 25.6831C19.2015 25.6831 1.69208 43.1925 1.69208 64.7915C1.69208 86.3905 19.2015 103.9 40.8005 103.9Z"
              stroke="#FAFAFA" stroke-linecap="round" stroke-linejoin="round"/>
        <path opacity="0.81"
              d="M40.8005 101.481C61.0637 101.481 77.4902 85.0545 77.4902 64.7913C77.4902 44.5281 61.0637 28.1016 40.8005 28.1016C20.5373 28.1016 4.11078 44.5281 4.11078 64.7913C4.11078 85.0545 20.5373 101.481 40.8005 101.481Z"
              stroke="#FAFAFA" stroke-linecap="round" stroke-linejoin="round"/>
        <path opacity="0.81"
              d="M74.9608 65.9296C75.718 46.9999 60.9862 31.0406 42.0565 30.2834C23.1268 29.5262 7.16744 44.2579 6.41026 63.1876C5.65307 82.1173 20.3848 98.0767 39.3145 98.8339C58.2442 99.5911 74.2036 84.8593 74.9608 65.9296Z"
              stroke="#FAFAFA" stroke-linecap="round" stroke-linejoin="round"/>
        <path opacity="0.81"
              d="M40.8005 96.6482C58.3944 96.6482 72.6571 82.3855 72.6571 64.7916C72.6571 47.1977 58.3944 32.9351 40.8005 32.9351C23.2066 32.9351 8.94391 47.1977 8.94391 64.7916C8.94391 82.3855 23.2066 96.6482 40.8005 96.6482Z"
              stroke="#FAFAFA" stroke-linecap="round" stroke-linejoin="round"/>
        <path opacity="0.81"
              d="M40.8005 94.2338C57.0609 94.2338 70.2426 81.0522 70.2426 64.7917C70.2426 48.5313 57.0609 35.3496 40.8005 35.3496C24.54 35.3496 11.3583 48.5313 11.3583 64.7917C11.3583 81.0522 24.54 94.2338 40.8005 94.2338Z"
              stroke="#FAFAFA" stroke-linecap="round" stroke-linejoin="round"/>
        <path opacity="0.81"
              d="M40.8005 91.8149C55.7251 91.8149 67.8239 79.7161 67.8239 64.7915C67.8239 49.8669 55.7251 37.7681 40.8005 37.7681C25.8758 37.7681 13.777 49.8669 13.777 64.7915C13.777 79.7161 25.8758 91.8149 40.8005 91.8149Z"
              stroke="#FAFAFA" stroke-linecap="round" stroke-linejoin="round"/>
        <path opacity="0.81"
              d="M40.8005 89.396C54.3893 89.396 65.4052 78.3801 65.4052 64.7913C65.4052 51.2024 54.3893 40.1865 40.8005 40.1865C27.2117 40.1865 16.1957 51.2024 16.1957 64.7913C16.1957 78.3801 27.2117 89.396 40.8005 89.396Z"
              stroke="#FAFAFA" stroke-linecap="round" stroke-linejoin="round"/>
        <path opacity="0.81"
              d="M40.8005 86.9821C53.0558 86.9821 62.9907 77.0472 62.9907 64.7918C62.9907 52.5365 53.0558 42.6016 40.8005 42.6016C28.5451 42.6016 18.6102 52.5365 18.6102 64.7918C18.6102 77.0472 28.5451 86.9821 40.8005 86.9821Z"
              stroke="#FAFAFA" stroke-linecap="round" stroke-linejoin="round"/>
        <path opacity="0.81"
              d="M40.8005 84.5632C51.72 84.5632 60.5721 75.7112 60.5721 64.7916C60.5721 53.8721 51.72 45.02 40.8005 45.02C29.8809 45.02 21.0289 53.8721 21.0289 64.7916C21.0289 75.7112 29.8809 84.5632 40.8005 84.5632Z"
              stroke="#FAFAFA" stroke-linecap="round" stroke-linejoin="round"/>
        <path opacity="0.81"
              d="M40.8005 82.1488C50.3866 82.1488 58.1576 74.3778 58.1576 64.7917C58.1576 55.2056 50.3866 47.4346 40.8005 47.4346C31.2144 47.4346 23.4434 55.2056 23.4434 64.7917C23.4434 74.3778 31.2144 82.1488 40.8005 82.1488Z"
              stroke="#FAFAFA" stroke-linecap="round" stroke-linejoin="round"/>
        <path opacity="0.81"
              d="M40.8005 79.7299C49.0508 79.7299 55.739 73.0417 55.739 64.7915C55.739 56.5412 49.0508 49.853 40.8005 49.853C32.5502 49.853 25.8621 56.5412 25.8621 64.7915C25.8621 73.0417 32.5502 79.7299 40.8005 79.7299Z"
              stroke="#FAFAFA" stroke-linecap="round" stroke-linejoin="round"/>
        <path opacity="0.81"
              d="M52.9773 67.6901C54.5821 60.9644 50.4308 54.2113 43.7051 52.6065C36.9794 51.0017 30.2263 55.1531 28.6215 61.8787C27.0167 68.6044 31.1681 75.3576 37.8937 76.9623C44.6194 78.5671 51.3725 74.4158 52.9773 67.6901Z"
              stroke="#FAFAFA" stroke-linecap="round" stroke-linejoin="round"/>
    </g>
    <defs>
        <filter id="filter0_d_1021:1087" x="-6" y="20" width="186" height="186" filterUnits="userSpaceOnUse"
                color-interpolation-filters="sRGB">
            <feFlood flood-opacity="0" result="BackgroundImageFix"/>
            <feColorMatrix in="SourceAlpha" type="matrix" values="0 0 0 0 0 0 0 0 0 0 0 0 0 0 0 0 0 0 127 0"
                           result="hardAlpha"/>
            <feOffset dy="4"/>
            <feGaussianBlur stdDeviation="10"/>
            <feComposite in2="hardAlpha" operator="out"/>
            <feColorMatrix type="matrix" values="0 0 0 0 0.5 0 0 0 0 1 0 0 0 0 0.625065 0 0 0 0.5 0"/>
            <feBlend mode="normal" in2="BackgroundImageFix" result="effect1_dropShadow_1021:1087"/>
            <feBlend mode="normal" in="SourceGraphic" in2="effect1_dropShadow_1021:1087" result="shape"/>
        </filter>
        <filter id="filter1_d_1021:1087" x="160" y="14" width="77" height="77" filterUnits="userSpaceOnUse"
                color-interpolation-filters="sRGB">
            <feFlood flood-opacity="0" result="BackgroundImageFix"/>
            <feColorMatrix in="SourceAlpha" type="matrix" values="0 0 0 0 0 0 0 0 0 0 0 0 0 0 0 0 0 0 127 0"
                           result="hardAlpha"/>
            <feMorphology radius="2" operator="dilate" in="SourceAlpha" result="effect1_dropShadow_1021:1087"/>
            <feOffset dy="4"/>
            <feGaussianBlur stdDeviation="10"/>
            <feComposite in2="hardAlpha" operator="out"/>
            <feColorMatrix type="matrix" values="0 0 0 0 0.5 0 0 0 0 1 0 0 0 0 0.625065 0 0 0 0.5 0"/>
            <feBlend mode="normal" in2="BackgroundImageFix" result="effect1_dropShadow_1021:1087"/>
            <feBlend mode="normal" in="SourceGraphic" in2="effect1_dropShadow_1021:1087" result="shape"/>
        </filter>
        <linearGradient id="paint0_linear_1021:1087" x1="49.7843" y1="48.8823" x2="131.373" y2="188.441"
                        gradientUnits="userSpaceOnUse">
            <stop offset="0.0337936" stop-color="#56CCF2"/>
            <stop offset="1" stop-color="#80FF9F"/>
        </linearGradient>
        <linearGradient id="paint1_linear_1021:1087" x1="190.088" y1="34.9118" x2="208.529" y2="66.4559"
                        gradientUnits="userSpaceOnUse">
            <stop offset="0.0337936" stop-color="#56CCF2"/>
            <stop offset="1" stop-color="#80FF9F"/>
        </linearGradient>
    </defs>
</svg>
