<svg width="624" height="423" fill="none" xmlns="http://www.w3.org/2000/svg"><path style="mix-blend-mode:screen" opacity=".5" d="M345.589 40.87a57.044 57.044 0 0 1 16.709 40.335 57.038 57.038 0 0 1-16.709 40.334L97.366 369.771a57.051 57.051 0 0 1-80.669 0 57.063 57.063 0 0 1 0-80.667L264.92 40.871a57.049 57.049 0 0 1 80.669 0Z" fill="url(#a)" fill-opacity=".3"/><path style="mix-blend-mode:screen" opacity=".5" d="M605.837 18.164A61.959 61.959 0 0 1 624 61.994a61.955 61.955 0 0 1-18.163 43.829L349.966 361.704a62.012 62.012 0 0 1-87.676 0 62.008 62.008 0 0 1 0-87.674L518.161 18.164a61.983 61.983 0 0 1 87.676 0Z" fill="url(#b)" fill-opacity=".3"/><path style="mix-blend-mode:screen" opacity=".5" d="M596.545 186.61a29.511 29.511 0 0 1 8.648 20.87 29.502 29.502 0 0 1-8.648 20.869L480.56 344.346a29.532 29.532 0 0 1-41.739 0 29.517 29.517 0 0 1 0-41.753L554.806 186.61a29.514 29.514 0 0 1 20.869-8.648 29.504 29.504 0 0 1 20.87 8.648Z" fill="url(#c)" fill-opacity=".3"/><path style="mix-blend-mode:screen" opacity=".5" d="M501.46 124.541a39.51 39.51 0 0 1 0 55.855L270.97 410.807a39.49 39.49 0 0 1-27.936 11.581 39.482 39.482 0 0 1-27.935-11.581 39.51 39.51 0 0 1 0-55.855l230.505-230.411a39.48 39.48 0 0 1 55.856 0Z" fill="url(#d)" fill-opacity=".3"/><defs><linearGradient id="a" x1="343.057" y1="36.56" x2="14.727" y2="364.897" gradientUnits="userSpaceOnUse"><stop stop-color="#fff"/><stop offset="1" stop-opacity="0"/></linearGradient><linearGradient id="b" x1="-295301" y1="50544.1" x2="-382710" y2="137955" gradientUnits="userSpaceOnUse"><stop stop-color="#fff"/><stop offset="1" stop-opacity="0"/></linearGradient><linearGradient id="c" x1="-99999.6" y1="6284.65" x2="-118480" y2="24765.7" gradientUnits="userSpaceOnUse"><stop stop-color="#fff"/><stop offset="1" stop-opacity="0"/></linearGradient><linearGradient id="d" x1="108031" y1="21973.5" x2="81352.4" y2="48657.2" gradientUnits="userSpaceOnUse"><stop stop-color="#fff"/><stop offset="1" stop-opacity="0"/></linearGradient></defs></svg>