<svg width="710" height="716" fill="none" xmlns="http://www.w3.org/2000/svg"><g opacity=".81" fill-rule="evenodd" clip-rule="evenodd" fill="#80FF9F" fill-opacity=".3"><path d="M284.033 340.886c-9.351 39.522 14.839 79.205 54.029 88.635 39.191 9.43 78.542-14.964 87.893-54.486 9.351-39.522-14.839-79.205-54.03-88.635-39.19-9.43-78.541 14.964-87.892 54.486Zm55.384 82.912c-36.056-8.676-58.312-45.186-49.708-81.546 8.603-36.361 44.806-58.804 80.862-50.129 36.056 8.676 58.311 45.186 49.708 81.546-8.603 36.361-44.806 58.804-80.862 50.129Z"/><path d="M268.605 358.001c0-48.118 38.68-87.126 86.395-87.126 47.715 0 86.396 39.008 86.396 87.126S402.715 445.126 355 445.126s-86.395-39.007-86.395-87.125ZM355 276.583c-44.589 0-80.736 36.452-80.736 81.418 0 44.966 36.147 81.418 80.736 81.418 44.589 0 80.736-36.452 80.736-81.418 0-44.966-36.147-81.418-80.736-81.418Z"/><path d="M355 257.329c-55.134 0-99.828 45.072-99.828 100.672 0 55.6 44.694 100.672 99.828 100.672s99.828-45.072 99.828-100.672c0-55.6-44.694-100.672-99.828-100.672Zm-94.363 100.672c0-52.556 42.248-95.16 94.363-95.16s94.363 42.604 94.363 95.16-42.248 95.16-94.363 95.16-94.363-42.604-94.363-95.16Z"/><path d="M241.753 358c0-63.073 50.702-114.204 113.247-114.204S468.247 294.927 468.247 358c0 63.074-50.702 114.205-113.247 114.205S241.753 421.074 241.753 358ZM355 249.131c-59.623 0-107.957 48.742-107.957 108.869S295.377 466.87 355 466.87c59.623 0 107.957-48.743 107.957-108.87S414.623 249.131 355 249.131Z"/><path d="M355 230.24c-69.969 0-126.69 57.201-126.69 127.761s56.721 127.76 126.69 127.76 126.69-57.2 126.69-127.76S424.969 230.24 355 230.24ZM233.425 358.001c0-67.711 54.431-122.602 121.575-122.602s121.575 54.891 121.575 122.602c0 67.711-54.431 122.602-121.575 122.602s-121.575-54.891-121.575-122.602Z"/><path d="M214.891 358c0-78.034 62.729-141.293 140.109-141.293 77.38 0 140.109 63.259 140.109 141.293S432.38 499.293 355 499.293c-77.38 0-140.109-63.259-140.109-141.293ZM355 221.689c-74.652 0-135.169 61.028-135.169 136.311 0 75.282 60.517 136.311 135.169 136.311 74.652 0 135.169-61.029 135.169-136.311 0-75.283-60.517-136.311-135.169-136.311Z"/><path d="M355 203.161c-84.799 0-153.542 69.324-153.542 154.839 0 85.516 68.743 154.84 153.542 154.84S508.542 443.516 508.542 358c0-85.515-68.743-154.839-153.542-154.839ZM206.204 358c0-82.872 66.618-150.053 148.796-150.053S503.796 275.128 503.796 358c0 82.873-66.618 150.054-148.796 150.054S206.204 440.873 206.204 358Z"/><path d="M188.016 358.001c0-93.002 74.761-168.395 166.984-168.395 92.223 0 166.984 75.393 166.984 168.395 0 93.002-74.761 168.396-166.984 168.396-92.223 0-166.984-75.394-166.984-168.396ZM355 194.215c-89.699 0-162.414 73.33-162.414 163.786 0 90.457 72.715 163.786 162.414 163.786 89.699 0 162.414-73.329 162.414-163.786 0-90.456-72.715-163.786-162.414-163.786Z"/><path d="M355 176.072c-99.634 0-180.404 81.452-180.404 181.928S255.366 539.928 355 539.928 535.403 458.476 535.403 358 454.634 176.072 355 176.072ZM178.992 358c0-98.028 78.801-177.495 176.008-177.495 97.206 0 176.008 79.467 176.008 177.495S452.206 535.495 355 535.495c-97.207 0-176.008-79.467-176.008-177.495Z"/><path d="M346.603 552.169c-107.058-4.318-190.374-95.34-186.092-203.303 4.282-107.963 94.541-191.983 201.6-187.665 107.058 4.319 190.374 95.341 186.092 203.304-4.283 107.962-94.542 191.983-201.6 187.664ZM164.731 349.036c-4.189 105.612 77.314 194.653 182.041 198.877 104.727 4.225 193.021-77.966 197.21-183.579 4.189-105.612-77.313-194.652-182.04-198.877-104.727-4.224-193.022 77.967-197.211 183.579Z"/><path d="M355 148.993c-114.464 0-207.255 93.576-207.255 209.007 0 115.431 92.791 209.007 207.255 209.007S562.255 473.431 562.255 358c0-115.431-92.791-209.007-207.255-209.007ZM151.771 358c0-113.189 90.989-204.947 203.229-204.947 112.24 0 203.229 91.758 203.229 204.947 0 113.189-90.989 204.947-203.229 204.947-112.24 0-203.229-91.758-203.229-204.947Z"/><path d="M134.302 358c0-122.918 98.81-222.562 220.698-222.562S575.698 235.082 575.698 358 476.888 580.563 355 580.563 134.302 480.918 134.302 358ZM355 139.321c-119.761 0-216.847 97.906-216.847 218.679 0 120.774 97.086 218.68 216.847 218.68 119.761 0 216.847-97.906 216.847-218.68 0-120.773-97.086-218.679-216.847-218.679Z"/><path d="M355 121.882c-129.312 0-234.14 105.714-234.14 236.119S225.688 594.12 355 594.12c129.312 0 234.14-105.714 234.14-236.119S484.312 121.882 355 121.882ZM124.536 358.001c0-128.358 103.182-232.412 230.464-232.412s230.464 104.054 230.464 232.412S482.282 590.413 355 590.413 124.536 486.359 124.536 358.001Z"/><path d="M107.451 358c0-137.873 110.831-249.641 247.549-249.641 136.718 0 247.55 111.768 247.55 249.641 0 137.874-110.832 249.642-247.55 249.642-136.718 0-247.549-111.768-247.549-249.642ZM355 111.87c-134.795 0-244.068 110.196-244.068 246.13 0 135.935 109.273 246.131 244.068 246.131 134.795 0 244.068-110.196 244.068-246.131 0-135.934-109.273-246.13-244.068-246.13Z"/><path d="M355 94.803C210.858 94.803 94.008 212.64 94.008 358c0 145.36 116.85 263.197 260.992 263.197 144.142 0 260.992-117.837 260.992-263.197S499.142 94.803 355 94.803ZM97.314 358c0-143.519 115.37-259.864 257.686-259.864 142.316 0 257.686 116.345 257.686 259.864 0 143.518-115.37 259.863-257.686 259.863-142.316 0-257.686-116.345-257.686-259.863Z"/><path d="M80.589 358C80.589 205.166 203.447 81.27 355 81.27S629.411 205.166 629.411 358 506.553 634.73 355 634.73 80.589 510.834 80.589 358ZM355 84.428C205.176 84.428 83.72 206.91 83.72 358S205.176 631.572 355 631.572c149.824 0 271.28-122.482 271.28-273.572S504.824 84.428 355 84.428Z"/><path d="M355 67.714c-158.977 0-287.854 129.966-287.854 290.287 0 160.32 128.877 290.286 287.854 290.286 158.977 0 287.854-129.966 287.854-290.286C642.854 197.68 513.977 67.714 355 67.714ZM70.103 358.001C70.103 199.326 197.656 70.696 355 70.696S639.897 199.325 639.897 358c0 158.674-127.553 287.304-284.897 287.304S70.103 516.675 70.103 358.001Z"/><path d="M53.713 358.001C53.713 190.199 188.604 54.168 355 54.168S656.287 190.2 656.287 358.001c0 167.802-134.891 303.833-301.287 303.833S53.713 525.803 53.713 358.001ZM355 56.953c-164.871 0-298.525 134.784-298.525 301.048S190.13 659.048 355 659.048c164.871 0 298.525-134.783 298.525-301.047 0-166.264-133.654-301.048-298.525-301.048Z"/><path d="M355 40.635C181.193 40.635 40.295 182.724 40.295 358S181.193 675.365 355 675.365 669.706 533.276 669.706 358 528.807 40.635 355 40.635ZM42.881 358C42.881 184.165 182.622 43.244 355 43.244c172.379 0 312.119 140.921 312.119 314.756 0 173.835-139.74 314.757-312.119 314.757-172.378 0-312.119-140.922-312.119-314.757Z"/><path d="M26.852 358.001C26.852 175.238 173.769 27.08 355 27.08c181.231 0 328.148 148.158 328.148 330.921S536.231 688.922 355 688.922c-181.231 0-328.148-148.158-328.148-330.921ZM355 29.511c-179.899 0-325.737 147.07-325.737 328.49C29.263 539.42 175.101 686.49 355 686.49c179.899 0 325.736-147.07 325.736-328.489 0-181.42-145.837-328.49-325.736-328.49Z"/><path d="M355 13.546C166.358 13.546 13.433 167.763 13.433 358c0 190.236 152.925 344.453 341.567 344.453S696.567 548.236 696.567 358c0-190.237-152.925-344.454-341.567-344.454ZM15.67 358C15.67 169.009 167.592 15.802 355 15.802c187.407 0 339.33 153.207 339.33 342.198 0 188.99-151.923 342.198-339.33 342.198C167.593 700.198 15.67 546.99 15.67 358Z"/><path d="M355 0C158.939 0 0 160.282 0 358s158.939 358 355 358 355-160.282 355-358S551.061 0 355 0ZM2.042 358C2.042 161.419 160.067 2.06 355 2.06c194.933 0 352.958 159.359 352.958 355.94S549.933 713.941 355 713.941C160.067 713.941 2.042 554.581 2.042 358Z"/></g></svg>