<svg width="21" height="22" fill="none" xmlns="http://www.w3.org/2000/svg"><path d="M10.482 2.216c4.843 0 8.784 3.941 8.784 8.784 0 4.843-3.94 8.784-8.784 8.784C5.64 19.784 1.7 15.844 1.7 11c0-4.843 3.94-8.784 8.783-8.784Zm0-1.366C4.876.85.332 5.394.332 11c0 5.606 4.544 10.15 10.15 10.15 5.607 0 10.15-4.544 10.15-10.15 0-5.606-4.543-10.15-10.15-10.15Z" fill="#A2A2A4" stroke="#A2A2A4" stroke-width=".3"/><path d="M9.26 8.402c-.085.528.28 1.397 1.835 1.907 1.46.479 2.191 1.18 2.54 1.85.346.668.302 1.28.256 1.56-.178 1.123-1.112 2.008-2.334 2.332v.904c0 .435-.301.816-.768.816-.466 0-.767-.38-.767-.817v-.8c-1.086-.115-1.784-.532-2.213-1.04a2.473 2.473 0 0 1-.588-1.563c0-.447.346-.817.802-.817.45 0 .815.364.817.814a.866.866 0 0 0 .251.543c.22.228.652.462 1.517.462.99 0 1.629-.587 1.709-1.09.045-.286-.067-.579-.357-.86-.29-.282-.752-.54-1.367-.742-2.447-.804-3.128-2.485-2.93-3.717l1.597.258Zm0 0c.077-.482.57-1.021 1.58-1.021.63 0 1.004.294 1.23.607.228.319.303.657.316.725a.83.83 0 0 0 .943.66M9.26 8.402l4.069.97m0 0h.001m-.001 0h.001m0 0c.457-.08.705-.514.629-.945l-.629.945Zm-1.773-3.538V4.802c0-.435-.301-.816-.768-.816-.466 0-.767.38-.767.816V5.84c-1.224.271-2.173 1.136-2.36 2.305l3.895-2.31Z" fill="#A2A2A4" stroke="#A2A2A4" stroke-width=".3"/></svg>