<svg width="26" height="22" fill="none" xmlns="http://www.w3.org/2000/svg"><path d="m13.08 18.988-.021-.002c-.255-.027-.51-.056-.766-.085a55.94 55.94 0 0 0-2.045-.206h-.004a1.34 1.34 0 0 0-.724.131c-1.644.94-3.343 1.78-5.181 2.296m8.742-2.134L4.284 20.93m8.797-1.942.022-.002c.292-.034.586-.062.88-.09.654-.064 1.31-.127 1.95-.249 2.698-.5 5.147-1.581 7.11-3.647 2.675-2.81 2.886-6.654.497-9.688-1.174-1.493-2.683-2.53-4.386-3.256C16.018.72 12.772.474 9.474 1.204c-2.639.584-5.019 1.747-6.835 3.902C1.142 6.874.48 8.928.95 11.277c.365 1.823 1.355 3.269 2.716 4.437l.13-.152m9.286 3.426-9.286-3.426m.544 5.56-.055-.192m.055.192-.055-.192m.055.192a2.02 2.02 0 0 1-1.058.015l-.007-.001c-1.108-.325-1.448-1.569-.857-2.564m1.867 2.358a1.83 1.83 0 0 1-.954.014c-.955-.28-1.28-1.361-.74-2.27m-.173-.102.172.102m-.172-.102.172.102m-.172-.102c.29-.493.563-.991.838-1.493.169-.308.338-.618.512-.928M2.59 18.674c.292-.495.568-1 .844-1.504.169-.308.337-.615.509-.92m0 0-.175-.098m.175.097c.16-.285.113-.463-.147-.687m.147.687-.174-.098m0 0c.068-.122.072-.185.063-.224-.01-.045-.047-.11-.167-.214l.131-.151M19.958 4.365c-3.39-1.973-6.99-2.291-10.734-1.344-1.978.5-3.744 1.416-5.135 2.962-1.284 1.426-1.877 3.083-1.465 5.012l17.334-6.63Zm0 0 .003.001m-.003-.001.003.001m0 0a7.635 7.635 0 0 1 2.524 2.307c1.58 2.328 1.371 5.015-.556 7.105-1.547 1.675-3.5 2.588-5.678 3.087a14.566 14.566 0 0 1-6.175.06 1.38 1.38 0 0 0-1.073.208c-1.58.97-3.211 1.796-4.975 2.296M19.96 4.366 4.027 19.43m0 0a.065.065 0 0 0-.019.004l.383-.774c.403-.81.795-1.601 1.165-2.399m-1.53 3.169-1.403-8.434c.34 1.587 1.314 2.758 2.554 3.758m.379 1.507-.181-.084.181.084Zm0 0c.149-.318.237-.586.167-.845-.07-.253-.278-.447-.546-.662m0 0-.126.156.126-.156Z" fill="#C4C4C4" stroke="#C4C4C4" stroke-width=".4"/></svg>