<svg width="25" height="21" fill="none" xmlns="http://www.w3.org/2000/svg"><path d="M1.55 10.243h3.834v8.73h-2.19c-.302 0-.548.231-.548.514 0 .282.246.513.548.513h18.618c.301 0 .547-.231.547-.514 0-.282-.246-.513-.547-.513h-2.19v-8.73h3.833a.55.55 0 0 0 .515-.344.494.494 0 0 0-.176-.57L12.842 1.111a.58.58 0 0 0-.684 0L1.206 9.328a.496.496 0 0 0-.175.57.56.56 0 0 0 .52.345Zm8.215 8.73H6.479v-8.73h3.286v8.73Zm4.38 0H10.86v-8.73h3.286v8.73Zm4.381 0h-3.285v-8.73h3.285v8.73ZM12.503 2.17l9.391 7.045H3.111l9.392-7.045Z" fill="#A2A2A4" fill-opacity=".8"/><path d="M12.902 1.032a.68.68 0 0 0-.803 0h-.001L1.146 9.248l-.001.001a.596.596 0 0 0-.208.684v.003a.66.66 0 0 0 .614.407h3.733v8.53h-2.09c-.35 0-.648.27-.648.613 0 .344.297.614.648.614h18.618c.35 0 .647-.27.647-.614 0-.343-.297-.613-.647-.613h-2.09v-8.53h3.733a.647.647 0 0 0 .608-.41.594.594 0 0 0-.209-.685L12.902 1.032Zm-3.237 17.84H6.579v-8.53h3.086v8.53Zm1.295 0v-8.53h3.085v8.53H10.96Zm7.466 0h-3.085v-8.53h3.085v8.53ZM12.503 2.296l9.091 6.82H3.411l9.092-6.82Z" stroke="#A2A2A4" stroke-opacity=".8" stroke-width=".2"/></svg>