<svg width="29" height="28" fill="none" xmlns="http://www.w3.org/2000/svg"><path fill-rule="evenodd" clip-rule="evenodd" d="M1.984 4.41a.967.967 0 0 1 .16-.03c.029-.003.059-.003.088-.005h24.5l.09.004.006.001c.028.005.055.007.082.013a.856.856 0 0 1 .157.048l.021.01.021.009.02.01.013.006.011.007a.835.835 0 0 1 .229.18l.008.011a.87.87 0 0 1 .216.558l.001.018v17.527a.888.888 0 0 1-.037.226v.002l-.004.01v.003l-.001.002-.003.007v.005a.038.038 0 0 0-.006.013v.002a.87.87 0 0 1-.113.212v.002h-.002l-.002.004-.002.003-.003.003-.002.003v.002l-.002.002-.004.003-.002.005h-.001v.001a.88.88 0 0 1-.69.338h-24.5a.88.88 0 0 1-.237-.032l-.034-.01a.882.882 0 0 1-.533-.486l-.015-.037v-.003l-.002-.003-.002-.005v-.002a.35.35 0 0 1-.01-.027v-.003l-.005-.012v-.001a.96.96 0 0 1-.038-.253V5.25l.001-.03a.817.817 0 0 1 .042-.24.868.868 0 0 1 .175-.307h.001l.001-.001.002-.003.002-.002a.878.878 0 0 1 .308-.222l.012-.004V4.44l.003-.001.004-.001c.017-.008.036-.014.054-.02l.005-.002h.001l.01-.003.006-.002Zm15.99 10.822a5.288 5.288 0 0 1-1.636.993 5.278 5.278 0 0 1-4.066-.149 5.272 5.272 0 0 1-1.265-.83c-2.162 2.262-4.418 4.433-6.65 6.629h20.198c-2.23-2.177-4.385-4.43-6.58-6.643Zm7.883-7.862c-2.195 2.216-4.376 4.447-6.605 6.628 2.254 2.155 4.417 4.403 6.605 6.627V7.37ZM9.743 14 3.107 7.361v13.211c2.175-2.228 4.426-4.381 6.636-6.574Zm7.62-.619 7.257-7.256H4.345c2.385 2.385 4.729 4.812 7.146 7.163.07.05.133.11.184.18l.398.383a3.538 3.538 0 0 0 1.251.766 3.54 3.54 0 0 0 2.671-.146c.36-.173.682-.406.964-.685l.405-.405Z" fill="#7CEA57"/></svg>