<svg width="24" height="18" fill="none" xmlns="http://www.w3.org/2000/svg"><path fill-rule="evenodd" clip-rule="evenodd" d="M1.031.034a.8.8 0 0 1 .14-.03L1.249 0h21.467l.078.004h.005c.025.005.049.007.072.013.048.01.094.026.138.045l.019.008.018.01.018.01.01.005.01.006a.723.723 0 0 1 .2.169l.008.01a.83.83 0 0 1 .19.521v16.406a.886.886 0 0 1-.032.211v.001l-.004.01v.003l-.001.003-.002.006-.001.003v.001l-.005.012v.002a.83.83 0 0 1-.099.199v.002h-.001l-.002.003-.002.003-.002.003-.002.003v.002l-.002.001-.003.003-.003.005v.001a.774.774 0 0 1-.438.296.712.712 0 0 1-.166.02H1.248a.728.728 0 0 1-.556-.256.823.823 0 0 1-.16-.273L.53 17.47l-.001-.003-.002-.004v-.002a.328.328 0 0 1-.008-.025v-.004l-.005-.011a.952.952 0 0 1-.033-.237V.818L.483.79A.812.812 0 0 1 .52.565.827.827 0 0 1 .673.28h.001V.276L.677.275.678.273a.781.781 0 0 1 .27-.208l.01-.004H.96L.962.06.965.059 1.012.04l.005-.002.01-.003.004-.001Zm14.011 10.118a4.587 4.587 0 0 1-1.434.929 4.36 4.36 0 0 1-3.562-.14 4.6 4.6 0 0 1-1.109-.776c-1.894 2.115-3.87 4.145-5.826 6.199h17.697c-1.953-2.036-3.842-4.143-5.766-6.212Zm6.907-7.351c-1.924 2.071-3.835 4.158-5.788 6.197 1.976 2.016 3.87 4.118 5.788 6.197V2.8ZM7.83 8.999 2.016 2.793v12.353C3.92 13.063 5.894 11.05 7.83 9Zm6.677-.577 6.358-6.786H3.1c2.09 2.23 4.144 4.5 6.261 6.698a.775.775 0 0 1 .162.168c.116.12.231.24.348.359a3.055 3.055 0 0 0 1.096.716c.76.283 1.614.234 2.341-.137.314-.161.597-.38.845-.64l.354-.378Z" fill="#A2A2A4"/></svg>