<svg width="22" height="22" fill="none" xmlns="http://www.w3.org/2000/svg"><path d="M11 2.066c4.926 0 8.934 4.008 8.934 8.934 0 4.926-4.008 8.934-8.934 8.934-4.926 0-8.934-4.008-8.934-8.934 0-4.926 4.008-8.934 8.934-8.934ZM11 1C5.476 1 1 5.477 1 11s4.477 10 10 10 10-4.477 10-10S16.524 1 11 1Z" fill="#5E2CE6" fill-opacity=".8"/><path d="M11 2.216c4.843 0 8.784 3.941 8.784 8.784 0 4.843-3.941 8.784-8.784 8.784-4.843 0-8.784-3.94-8.784-8.784 0-4.843 3.941-8.784 8.784-8.784ZM11 .85C5.394.85.85 5.394.85 11c0 5.606 4.544 10.15 10.15 10.15 5.606 0 10.15-4.544 10.15-10.15C21.15 5.394 16.606.85 11 .85Z" stroke="#5E2CE6" stroke-opacity=".8" stroke-width=".3"/><path d="M11.568 10.451C9.977 9.93 9.53 9.01 9.63 8.378c.092-.57.662-1.147 1.729-1.147 1.374 0 1.664 1.302 1.693 1.455a.68.68 0 0 0 .77.539c.364-.064.571-.41.508-.772-.138-.785-.759-2.191-2.405-2.496V4.802c0-.368-.248-.666-.617-.666s-.617.298-.617.666v1.159C9.458 6.19 8.51 7.035 8.33 8.168c-.184 1.148.442 2.766 2.83 3.55 1.255.412 1.935 1.073 1.825 1.768-.095.598-.817 1.217-1.858 1.217-1.782 0-1.91-.97-1.917-1.152a.666.666 0 0 0-.667-.667.654.654 0 0 0-.652.667c0 .805.538 2.284 2.8 2.467v.936c0 .37.25.667.618.667.369 0 .617-.298.617-.666v-1.02c1.235-.289 2.165-1.156 2.337-2.24.085-.523.168-2.305-2.695-3.244Z" fill="#5E2CE6" fill-opacity=".8"/><path d="M9.78 8.402c-.085.528.28 1.397 1.834 1.907 1.46.479 2.192 1.18 2.54 1.85.347.668.302 1.28.257 1.56-.179 1.123-1.113 2.008-2.335 2.332v.904c0 .435-.3.816-.767.816-.466 0-.767-.38-.767-.817v-.8c-1.086-.115-1.785-.532-2.214-1.04a2.473 2.473 0 0 1-.587-1.563c0-.447.346-.817.802-.817.45 0 .815.364.817.814a.866.866 0 0 0 .25.543c.22.228.653.462 1.517.462.991 0 1.63-.587 1.71-1.09.045-.286-.067-.579-.357-.86-.291-.282-.752-.54-1.367-.742-2.448-.804-3.128-2.485-2.931-3.717l1.598.258Zm0 0c.077-.482.57-1.021 1.58-1.021.63 0 1.004.294 1.229.607.229.319.303.657.316.725a.83.83 0 0 0 .943.66M9.78 8.402l4.068.97m0 0h.002m-.002 0h.002m0 0c.456-.08.704-.514.628-.945l-.628.945Zm-1.774-3.538V4.802c0-.435-.3-.816-.767-.816-.466 0-.767.38-.767.816V5.84c-1.224.271-2.174 1.136-2.36 2.305l3.894-2.31Z" stroke="#5E2CE6" stroke-opacity=".8" stroke-width=".3"/></svg>