<svg width="24" height="21" fill="none" xmlns="http://www.w3.org/2000/svg"><path d="M22.989 5.262c0-.63-.53-1.144-1.18-1.144h-6.147V2.58c0-.871-.731-1.58-1.63-1.58H9.969c-.899 0-1.63.709-1.63 1.58v1.538H2.193c-.65 0-1.18.513-1.18 1.143L1 10.703a.46.46 0 0 0 .267.414c.25.118.508.227.767.335v7.404c0 .63.53 1.144 1.18 1.144h17.572c.65 0 1.18-.513 1.18-1.144v-7.515c.265-.119.526-.242.781-.372A.458.458 0 0 0 23 10.56l-.011-5.299ZM9.287 2.58a.67.67 0 0 1 .68-.66h4.066c.369 0 .68.302.68.66v1.538H9.288V2.58Zm11.73 16.276c0 .12-.107.224-.23.224H3.213a.231.231 0 0 1-.231-.224v-7.04c2.064.736 4.37 1.176 6.884 1.312v.637c0 .463.389.84.866.84h2.535a.853.853 0 0 0 .865-.84v-.644c2.547-.15 4.854-.616 6.884-1.389v7.124Zm-10.201-5.171v-1.526h2.369v1.526h-2.37Zm3.317-1.489v-.117a.853.853 0 0 0-.865-.84h-2.535a.854.854 0 0 0-.866.84v.127c-2.97-.165-5.632-.765-7.918-1.793l.011-5.15c0-.122.107-.225.232-.225H21.81a.23.23 0 0 1 .232.225l.01 5.019c-2.23 1.09-4.893 1.73-7.918 1.914Z" fill="#5E2CE6" fill-opacity=".8"/><path d="m.8 10.702.012-5.44V5.26h.2c0-.63.53-1.143 1.18-1.143L.8 10.702Zm0 0c0 .257.15.487.382.596.215.101.434.195.652.287L.8 10.702ZM8.139 2.58v1.338l15.05 1.344c0-.747-.625-1.344-1.38-1.344h-5.947V2.58c0-.987-.826-1.78-1.83-1.78H9.969c-1.003 0-1.83.793-1.83 1.78ZM23.2 10.56l-.011-5.298-.189 5.3.2-.001Zm-2.383 8.296a.028.028 0 0 1-.008.013.035.035 0 0 1-.023.011H3.214a.035.035 0 0 1-.023-.01c-.008-.007-.008-.012-.008-.014v-6.758c1.963.668 4.134 1.077 6.484 1.218v.45c0 .578.484 1.038 1.066 1.038h2.535c.582 0 1.065-.46 1.065-1.039v-.456c2.378-.156 4.55-.587 6.484-1.289v6.836ZM2.16 5.263c0-.002.001-.008.008-.015a.035.035 0 0 1 .024-.01H21.81a.03.03 0 0 1 .023.01c.008.007.008.013.008.015l.011 4.893c-2.128 1.019-4.655 1.631-7.522 1.827a1.056 1.056 0 0 0-1.06-.943h-2.536c-.553 0-1.017.416-1.062.954-2.815-.177-5.342-.75-7.521-1.71l.01-5.021ZM9.487 2.58c0-.248.21-.46.48-.46h4.066a.48.48 0 0 1 .48.46v1.338H9.488V2.58Zm1.529 10.905v-1.126h1.969v1.126h-1.97Z" stroke="#5E2CE6" stroke-opacity=".8" stroke-width=".4"/></svg>