<svg width="23" height="21" fill="none" xmlns="http://www.w3.org/2000/svg"><path d="m.282 10.702.012-5.44V5.26h.2c0-.63.53-1.143 1.18-1.143L.282 10.702Zm0 0c0 .257.15.487.382.596.215.101.434.195.653.287l-1.035-.883ZM7.621 2.58v1.338l15.05 1.344c0-.747-.625-1.344-1.38-1.344h-5.947V2.58c0-.987-.826-1.78-1.829-1.78H9.45c-1.003 0-1.829.793-1.829 1.78Zm15.061 7.98-.011-5.298-.189 5.3.2-.001ZM20.3 18.857a.03.03 0 0 1-.009.013.035.035 0 0 1-.022.011H2.697a.035.035 0 0 1-.024-.01c-.007-.007-.008-.012-.008-.014v-6.758c1.963.668 4.134 1.077 6.485 1.218v.45c0 .578.483 1.038 1.065 1.038h2.536c.581 0 1.064-.46 1.064-1.039v-.456c2.379-.156 4.55-.587 6.485-1.289v6.836ZM1.643 5.263c0-.002 0-.008.008-.015a.035.035 0 0 1 .024-.01h19.617c.007 0 .016.003.023.01.007.007.008.013.008.015l.01 4.893c-2.127 1.019-4.654 1.631-7.522 1.827a1.056 1.056 0 0 0-1.06-.943h-2.536c-.553 0-1.017.416-1.062.954-2.815-.177-5.342-.75-7.521-1.71l.01-5.021ZM8.969 2.58c0-.248.21-.46.481-.46h4.065a.48.48 0 0 1 .481.46v1.338H8.969V2.58Zm1.53 10.905v-1.126h1.968v1.126h-1.969Z" fill="#A2A2A4" stroke="#A2A2A4" stroke-width=".4"/></svg>