<svg width="301" height="300" fill="none" xmlns="http://www.w3.org/2000/svg"><g filter="url(#a)"><circle cx="150.482" cy="146" r="130" fill="url(#b)"/></g><g clip-path="url(#c)"><path d="m166.651 112.722-.042-.015-.019-.007-.005-.002h-.003a39.263 39.263 0 0 0-2.244-.712l-.024-.007-.289-.081-.108-.03a18.82 18.82 0 0 0-.254-.068l-.137-.037a27.152 27.152 0 0 0-.272-.07l-.113-.029a40.46 40.46 0 0 0-.333-.083l-.045-.011a38.747 38.747 0 0 0-2.294-.486l-.108-.019-.077-.014-.107-.019a41.379 41.379 0 0 0-1.424-.222 38.35 38.35 0 0 0-4.452-.362h-.062c-.16-.002-.321-.003-.484-.01h-.016l-.179-.006a12.278 12.278 0 0 0-.386-.006h-.043l-.21.002c-.142.001-.285.002-.427.005l-.333.009-.338.009c-.178.006-.356.014-.532.023l-.132.005a40.389 40.389 0 0 0-18.542 5.578 40.468 40.468 0 0 0-13.829 13.57l-.008.006c-.206.33-.4.663-.592.998-.075.128-.151.254-.224.383-.079.141-.153.285-.231.426-.148.272-.298.542-.44.818a39.583 39.583 0 0 0-2.581 6.248l-.017.053c-.095.303-.197.603-.288.909l-.014.049.003-.01.013-.029.016-.036.003-.007.024-.072c.136-.398.351-.963.475-1.302a33.924 33.924 0 0 1 15.372-18.039 33.835 33.835 0 0 1 21.933-3.827h.002a33.914 33.914 0 0 1 1.879.362l.16.036a34.249 34.249 0 0 1 12.318 5.529l.008.005.006.004h.001l.054.037v-9.445l-.009-.001Z" fill="url(#d)"/><path d="M166.606 122.133h-.001a.02.02 0 0 1-.006-.004l-.008-.005a34.249 34.249 0 0 0-12.318-5.529l-.16-.036a34.006 34.006 0 0 0-1.879-.362h-.002a33.826 33.826 0 0 0-21.934 3.824 33.909 33.909 0 0 0-15.371 18.039c-.124.34-.339.905-.475 1.302a1.517 1.517 0 0 0-.024.072l-.003.007-.016.036-.013.029-.003.01c.01-.022.029-.051.04-.075l.12-.279c.08-.183.168-.385.251-.571l.014-.03c.067-.149.131-.287.184-.396.024-.049.05-.097.075-.146.203-.41.413-.816.633-1.217.043-.076.086-.151.128-.228l.08-.138.135-.235.052-.087c.054-.095.11-.188.166-.28l.046-.076c.015-.026.03-.046.044-.07l.01-.015c.009-.012.017-.028.026-.04l.086-.134.112-.178.032-.05.14-.216c.091-.142.182-.278.284-.415.025-.041.053-.081.081-.121l.068-.097.019-.027c.058-.08.115-.164.172-.243.019-.029.04-.058.061-.087l.064-.087a.083.083 0 0 0 .013-.018l.061-.083c.097-.132.197-.263.297-.395.034-.044.065-.089.099-.133l.024-.028c.061-.082.123-.165.191-.247l.276-.334c.079-.095.153-.193.233-.286l.062-.07.048-.059c.06-.071.125-.139.186-.209l.029-.031c.101-.113.201-.228.304-.34.043-.051.085-.097.127-.144l.104-.113c.131-.147.273-.293.415-.44a7.36 7.36 0 0 1 .293-.293c.149-.153.303-.298.459-.444.059-.058.118-.117.179-.173.005-.01.015-.015.025-.026l.098-.087c.146-.137.295-.271.439-.403.13-.115.259-.222.383-.329l.013-.011.009-.008a.2.2 0 0 0 .024-.019c.236-.198.473-.398.71-.58.145-.118.295-.229.444-.343.14-.106.277-.215.419-.318.213-.157.43-.309.653-.46l.177-.122c.212-.141.425-.283.642-.419.049-.028.097-.058.142-.092.116-.073.237-.14.355-.211.134-.079.268-.162.407-.235.55-.324 1.115-.625 1.689-.906.064-.03.125-.063.189-.094.027-.014.055-.026.082-.038.18-.087.358-.173.545-.253.079-.036.153-.072.232-.101l.014-.006.002-.001c.243-.112.485-.213.728-.309a28.113 28.113 0 0 1 2.989-1.002c.273-.075.552-.147.83-.212.091-.02.187-.045.288-.066a28.1 28.1 0 0 1 1.664-.324c.162-.025.318-.05.48-.07.299-.046.598-.081.901-.117.247-.025.495-.051.748-.071.049-.006.098-.009.147-.01.298-.025.593-.04.89-.051.101-.009.197-.009.293-.014.304-.011.608-.016.911-.015.423 0 .84.024 1.257.044.374.019.746.036 1.115.07.143.014.285.03.427.045.476.051.948.114 1.416.189.098.016.196.028.293.045.561.097 1.116.211 1.666.341.09.022.179.047.269.069a25.844 25.844 0 0 1 1.741.495 27.005 27.005 0 0 1 4.674 2.005c.086.047.174.091.26.139.474.265.939.544 1.396.837.091.059.18.121.272.181a27.578 27.578 0 0 1 1.081.75c.118.086.236.171.352.259a26.836 26.836 0 0 1 1.29 1.029c.391.334.77.682 1.141 1.038.12.115.237.231.355.347.283.28.559.567.828.859.101.109.205.216.304.325.339.38.667.768.984 1.165.106.132.206.268.309.402a27.894 27.894 0 0 1 1.647 2.394 27.572 27.572 0 0 1 .903 1.593c.095.181.185.365.275.549.017.034.031.07.048.104.602 1.663 1.324 3.455 1.927 5.118l.168.461a.615.615 0 0 1 .011.032l.336.925.122.339c.081.2.153.395.231.593l.002.005.005.015.008.019c.02.052.053.104.073.156l-.004-23.575v-.006l-.054-.038Z" fill="url(#e)"/><path d="m166.651 112.722-.042-.015-.019-.007-.005-.002h-.003a39.263 39.263 0 0 0-2.244-.712l-.024-.007-.289-.081-.108-.03a18.82 18.82 0 0 0-.254-.068l-.137-.037a27.152 27.152 0 0 0-.272-.07l-.113-.029a40.46 40.46 0 0 0-.333-.083l-.045-.011a38.747 38.747 0 0 0-2.294-.486l-.108-.019-.077-.014-.107-.019a41.379 41.379 0 0 0-1.424-.222 38.35 38.35 0 0 0-4.452-.362h-.062c-.16-.002-.321-.003-.484-.01h-.016l-.179-.006a12.278 12.278 0 0 0-.386-.006h-.043l-.21.002c-.142.001-.285.002-.427.005l-.333.009-.338.009c-.178.006-.356.014-.532.023l-.132.005a40.389 40.389 0 0 0-18.542 5.578 40.468 40.468 0 0 0-13.829 13.57l-.008.006c-.206.33-.4.663-.592.998-.075.128-.151.254-.224.383-.079.141-.153.285-.231.426-.148.272-.298.542-.44.818a39.583 39.583 0 0 0-2.581 6.248l-.017.053c-.095.303-.197.603-.288.909l-.014.049.003-.01.013-.029.016-.036.003-.007.024-.072c.136-.398.351-.963.475-1.302a33.924 33.924 0 0 1 15.372-18.039 33.835 33.835 0 0 1 21.933-3.827h.002a33.914 33.914 0 0 1 1.879.362l.16.036a34.249 34.249 0 0 1 12.318 5.529l.008.005.006.004h.001l.054.037v-9.445l-.009-.001Z" fill="url(#f)"/><path d="M166.606 122.133h-.001a.02.02 0 0 1-.006-.004l-.008-.005a34.249 34.249 0 0 0-12.318-5.529l-.16-.036a34.006 34.006 0 0 0-1.879-.362h-.002a33.826 33.826 0 0 0-21.934 3.824 33.909 33.909 0 0 0-15.371 18.039c-.124.34-.339.905-.475 1.302a1.517 1.517 0 0 0-.024.072l-.003.007-.016.036-.013.029-.003.01c.01-.022.029-.051.04-.075l.12-.279c.08-.183.168-.385.251-.571l.014-.03c.067-.149.131-.287.184-.396.024-.049.05-.097.075-.146.203-.41.413-.816.633-1.217.043-.076.086-.151.128-.228l.08-.138.135-.235.052-.087c.054-.095.11-.188.166-.28l.046-.076c.015-.026.03-.046.044-.07l.01-.015c.009-.012.017-.028.026-.04l.086-.134.112-.178.032-.05.14-.216c.091-.142.182-.278.284-.415.025-.041.053-.081.081-.121l.068-.097.019-.027c.058-.08.115-.164.172-.243.019-.029.04-.058.061-.087l.064-.087a.083.083 0 0 0 .013-.018l.061-.083c.097-.132.197-.263.297-.395.034-.044.065-.089.099-.133l.024-.028c.061-.082.123-.165.191-.247l.276-.334c.079-.095.153-.193.233-.286l.062-.07.048-.059c.06-.071.125-.139.186-.209l.029-.031c.101-.113.201-.228.304-.34.043-.051.085-.097.127-.144l.104-.113c.131-.147.273-.293.415-.44a7.36 7.36 0 0 1 .293-.293c.149-.153.303-.298.459-.444.059-.058.118-.117.179-.173.005-.01.015-.015.025-.026l.098-.087c.146-.137.295-.271.439-.403.13-.115.259-.222.383-.329l.013-.011.009-.008a.2.2 0 0 0 .024-.019c.236-.198.473-.398.71-.58.145-.118.295-.229.444-.343.14-.106.277-.215.419-.318.213-.157.43-.309.653-.46l.177-.122c.212-.141.425-.283.642-.419.049-.028.097-.058.142-.092.116-.073.237-.14.355-.211.134-.079.268-.162.407-.235.55-.324 1.115-.625 1.689-.906.064-.03.125-.063.189-.094.027-.014.055-.026.082-.038.18-.087.358-.173.545-.253.079-.036.153-.072.232-.101l.014-.006.002-.001c.243-.112.485-.213.728-.309a28.113 28.113 0 0 1 2.989-1.002c.273-.075.552-.147.83-.212.091-.02.187-.045.288-.066a28.1 28.1 0 0 1 1.664-.324c.162-.025.318-.05.48-.07.299-.046.598-.081.901-.117.247-.025.495-.051.748-.071.049-.006.098-.009.147-.01.298-.025.593-.04.89-.051.101-.009.197-.009.293-.014.304-.011.608-.016.911-.015.423 0 .84.024 1.257.044.374.019.746.036 1.115.07.143.014.285.03.427.045.476.051.948.114 1.416.189.098.016.196.028.293.045.561.097 1.116.211 1.666.341.09.022.179.047.269.069a25.844 25.844 0 0 1 1.741.495 27.005 27.005 0 0 1 4.674 2.005c.086.047.174.091.26.139.474.265.939.544 1.396.837.091.059.18.121.272.181a27.578 27.578 0 0 1 1.081.75c.118.086.236.171.352.259a26.836 26.836 0 0 1 1.29 1.029c.391.334.77.682 1.141 1.038.12.115.237.231.355.347.283.28.559.567.828.859.101.109.205.216.304.325.339.38.667.768.984 1.165.106.132.206.268.309.402a27.894 27.894 0 0 1 1.647 2.394 27.572 27.572 0 0 1 .903 1.593c.095.181.185.365.275.549.017.034.031.07.048.104.602 1.663 1.324 3.455 1.927 5.118l.168.461a.615.615 0 0 1 .011.032l.336.925.122.339c.081.2.153.395.231.593l.002.005.005.015.008.019c.02.052.053.104.073.156l-.004-23.575v-.006l-.054-.038Z" fill="url(#g)"/><path d="M189.996 169.098a52.784 52.784 0 0 1-2.347 5.291 54.668 54.668 0 0 1-1.636 2.986 54.179 54.179 0 0 1-5.151 7.285l-.003.004 6.422 17.732.006.015.152.42.013.037.021.057.071.198.009.023h14.777l-12.334-34.048Z" fill="url(#h)"/><path d="m193.578 142.674-.022-.062-.093-.153.047 7.613c0 .1 0 .199-.007.299a36.75 36.75 0 0 1-.018.94l-.005.129-.001.068c-.01.301-.022.602-.036.903a61.98 61.98 0 0 1-.078 1.434 49.101 49.101 0 0 1-.122 1.499.316.316 0 0 0-.008.092 53.798 53.798 0 0 1-3.239 13.662l12.333 34.047h13.154l-21.905-60.471Z" fill="url(#i)"/><path d="M193.27 154.669a46.18 46.18 0 0 1-.432 3.185 46.811 46.811 0 0 1-3.357 11.117l-.021.047-.022.049-.119.266-.062.134c-.027.06-.054.121-.082.18a46.33 46.33 0 0 1-.468.979l-.018.036-.068.139-.078.158a6.262 6.262 0 0 1-.108.216l-.016.033-.007.012-.107.211-.015.028-.012.024-.099.193-.172.327a29.61 29.61 0 0 1-.216.404 54.622 54.622 0 0 1-.93 1.638c-.188.316-.38.63-.575.942l-.145.229a46.997 46.997 0 0 1-1.656 2.437l-.159.219a45.065 45.065 0 0 1-1.482 1.91l-.199.244-.172.207a46.363 46.363 0 0 1-2.351 2.603l-.004.004-.214.218-.195.197-.196.195a39.303 39.303 0 0 1-1.182 1.132l-.019.018a28.656 28.656 0 0 1-.616.558 33.071 33.071 0 0 1-.817.712l-.019.016a27.13 27.13 0 0 1-.425.357c-.19.158-.381.314-.573.469l-.012.009-.16.128-.033.026-.217.17-.203.16-.081.064-.24.184c-.184.141-.37.28-.556.419l-.253.186-.097.069-.043.031-.25.18-.038.028-.106.076-.267.19a65.038 65.038 0 0 1-1.106.748 36.527 36.527 0 0 1-1.158.737l-.016.01c-.311.191-.624.379-.94.564l-.016.009c-.16.094-.322.186-.483.278-.242.138-.487.274-.733.407-.158.086-.316.172-.476.256l-.272.143c-.163.084-.325.168-.488.25l-.272.137c-.077.039-.153.075-.23.113a45.762 45.762 0 0 1-3.909 1.704c-.155.06-.311.118-.468.177-.445.164-.893.323-1.344.475a53.381 53.381 0 0 1-1.887.589 47.98 47.98 0 0 1-.824.23l-.552.145c-.185.047-.37.094-.555.139a42.05 42.05 0 0 1-1.117.258l-.184.038a36.753 36.753 0 0 1-1.16.233l-.172.032c-.061.011-.123.023-.185.033a46.625 46.625 0 0 1-6.978.722c-.463.014-.925.035-1.391.035-25.98.008-47.053-21.069-47.083-47.09 0-26.014 21.066-47.092 47.082-47.092.113 0 .226 0 .339.002l.338.003a38.106 38.106 0 0 1 .6.013l.179.005c.078.002.155.004.233.008.094.003.187.006.28.011l.118.004.273.013.335.017.378.023.29.019.346.026.317.026.34.03.324.031c.202.02.404.041.606.064.018.002.036.003.053.006l.271.031.151.019c.096.012.19.023.284.036l.279.036c.231.031.461.064.691.099.095.014.191.028.286.044l.29.046c.133.021.267.044.401.067.093.015.186.032.28.049l.289.052.068.012.268.051.068.013.27.053.32.065.197.042a5.768 5.768 0 0 1 .249.053 37.562 37.562 0 0 1 1.528.358c.086.022.172.043.257.066.1.025.199.052.299.078.104.028.209.055.313.084a42.183 42.183 0 0 1 1.011.289 27.651 27.651 0 0 1 .616.187c.18.056.358.113.535.171l.263.087c.085.028.171.056.256.086l.248.085c.304.104.605.212.905.322l.297.111.027.01.206.078.215.083c.199.077.397.155.594.235l.207.084a40.743 40.743 0 0 1 1.262.538l.233.105c.081.036.162.072.242.11.097.043.193.088.289.133.126.059.253.118.38.179l.013.006a.499.499 0 0 0 .053.023l.008.004v-4.152A53.7 53.7 0 0 0 139.469 96c-29.82 0-53.987 24.178-53.987 54.003 0 29.474 23.602 53.424 52.94 53.981.343.008.695.015 1.047.015h.014c3.384 0 6.76-.317 10.085-.946a53.453 53.453 0 0 0 17.772-6.792 53.056 53.056 0 0 0 3.872-2.566 54.25 54.25 0 0 0 9.588-8.96l.001-.001.002-.002.006-.008.049-.06.004-.003a54.732 54.732 0 0 0 6.007-8.793c.268-.488.527-.982.779-1.479a53.1 53.1 0 0 0 2.348-5.291 53.744 53.744 0 0 0 3.239-13.662.347.347 0 0 1 .008-.091c.049-.497.09-.997.122-1.5l-.095.824Z" fill="url(#j)"/><path d="m188.436 171.176.07-.142c.013-.025.026-.049.037-.074l-.001.003-.106.213Z" fill="url(#k)"/><path d="M193.461 142.497V96h-17.315v45.012a35.966 35.966 0 0 1-4.714 17.842 36.155 36.155 0 0 1-12.279 12.809 36.092 36.092 0 0 1-16.885 5.414l-.389.012-.227.007-.112.003-.392.029-.282.019a23.73 23.73 0 0 1-1.398.047c-.222 0-.459-.008-.68-.008h-.007c-.251-.01-.496-.023-.742-.036-.121-.006-.245-.009-.366-.017l-.074-.006a6.465 6.465 0 0 1-.331-.025 5.801 5.801 0 0 1-.377-.033c-.048-.006-.096-.006-.142-.013a13.237 13.237 0 0 1-.527-.053c-.073-.009-.144-.023-.217-.032a21.755 21.755 0 0 1-1.105-.16c-.125-.019-.254-.044-.38-.065l-.063-.011c-.122-.03-.237-.045-.351-.068a33.82 33.82 0 0 0-.634-.137c-.035-.009-.072-.02-.107-.028a23.697 23.697 0 0 1-1.139-.286c-.129-.03-.259-.069-.389-.107a27.797 27.797 0 0 1-1.528-.496 9.544 9.544 0 0 1-.573-.216l-.038-.013-.035-.015a21.821 21.821 0 0 1-1.484-.627l-.055-.023-.024-.012c-.159-.072-.312-.145-.465-.217-.094-.044-.188-.094-.289-.138l-.016-.008-.573-.298a25.569 25.569 0 0 1-2.421-1.454 27.57 27.57 0 0 1-1.262-.9l-.028-.021-.026-.02c-.281-.215-.548-.43-.822-.645-.123-.107-.253-.214-.375-.321-.192-.163-.376-.338-.565-.508a27.793 27.793 0 0 1-1.512-1.463l-.084-.083a2.413 2.413 0 0 0-.558-.612c-.103-.116-.198-.233-.297-.351a7.15 7.15 0 0 1-.083-.097c-.099-.118-.202-.236-.299-.354a13.746 13.746 0 0 1-.421-.526l-.006-.01c-.128-.158-.256-.33-.383-.495a29.485 29.485 0 0 1-1.507-2.271l-.012-.021-.011-.019c-.074-.124-.153-.247-.219-.371-.105-.189-.21-.37-.308-.558l-.004-.007-.008-.014c-.204-.378-.4-.764-.589-1.155-.09-.182-.18-.378-.256-.559l-.003-.007a9.989 9.989 0 0 1-.191-.427l-.002-.005a9.67 9.67 0 0 1-.166-.4c-.053-.121-.106-.235-.151-.356l-.002-.003-.002-.006c-.076-.204-.152-.402-.227-.605a7.08 7.08 0 0 1-.151-.432l-.001-.004c-.146-.42-.284-.84-.413-1.268v-.008c-.084-.267-.145-.535-.222-.809v-.003c-.06-.213-.114-.426-.168-.647a30.08 30.08 0 0 0-.068-.32 9.32 9.32 0 0 1-.137-.681c-.046-.199-.077-.397-.115-.603a25.499 25.499 0 0 1-.268-2.04c-.022-.252-.045-.511-.06-.763v-.001c-.016-.283-.031-.573-.046-.871a42.068 42.068 0 0 1 1.306-9.359c0-.007 0-.015.015-.03.222-.68.466-1.344.741-2.002l.008-.007v-.015c.01-.024.019-.047.03-.07.09-.306.191-.606.286-.909l.018-.053a39.539 39.539 0 0 1 2.581-6.249c.142-.275.291-.545.439-.817.077-.141.152-.285.231-.426.073-.129.15-.254.224-.383.193-.335.387-.669.592-.998l.008-.006a40.468 40.468 0 0 1 13.829-13.573 40.393 40.393 0 0 1 18.544-5.578c.043-.003.087-.004.131-.006.178-.009.355-.017.533-.023.112-.004.225-.006.337-.009l.333-.009.428-.004.21-.003h.127c.101 0 .202.004.302.007l.18.006.143.004.356.007h.062c1.49.034 2.976.154 4.452.361.477.066.952.14 1.424.222.036.007.072.012.107.02l.077.013.108.019c.762.138 1.53.301 2.294.486l.045.012.333.082.113.029.272.07.137.037.254.069.108.03.289.08a40.608 40.608 0 0 1 2.268.72h.002l.005.002.02.006c.014.005.027.011.042.015l.008.003v-5.229l-.008-.004a.607.607 0 0 1-.053-.023l-.013-.006a26.31 26.31 0 0 0-.38-.179c-.096-.045-.191-.09-.289-.133-.08-.037-.16-.074-.242-.11l-.232-.105a51.564 51.564 0 0 0-2.064-.857l-.215-.083-.205-.078-.027-.01-.298-.111a46.1 46.1 0 0 0-.904-.322 10.491 10.491 0 0 0-.25-.085l-.256-.086-.262-.087a47.593 47.593 0 0 0-.535-.171c-.136-.042-.272-.084-.41-.125a12.383 12.383 0 0 0-.206-.062l-.199-.059c-.27-.079-.541-.155-.813-.23l-.312-.084-.3-.078c-.085-.023-.171-.044-.256-.066a45.94 45.94 0 0 0-1.549-.362c-.077-.018-.152-.033-.229-.049a17.995 17.995 0 0 0-.516-.106c-.09-.02-.18-.036-.27-.054l-.069-.013a30.79 30.79 0 0 0-.267-.05l-.069-.013a21.475 21.475 0 0 0-.569-.101 25.777 25.777 0 0 0-.401-.067l-.289-.046c-.096-.016-.192-.03-.287-.044a39.594 39.594 0 0 0-.969-.135l-.285-.036-.151-.019-.27-.031-.054-.006a39.946 39.946 0 0 0-1.27-.125 34.047 34.047 0 0 0-.664-.052l-.289-.019a23.935 23.935 0 0 0-.378-.022 18.786 18.786 0 0 0-.335-.018l-.273-.013-.118-.004a12.845 12.845 0 0 0-.28-.011 18.284 18.284 0 0 0-.412-.013 11.583 11.583 0 0 0-.262-.006 19.22 19.22 0 0 0-.338-.006c-.113-.002-.226-.004-.339-.004l-.338-.001c-26.018-.001-47.084 21.077-47.084 47.09.03 26.022 21.103 47.098 47.081 47.09.467 0 .929-.021 1.392-.034a46.121 46.121 0 0 0 2.297-.123 46.914 46.914 0 0 0 4.68-.599l.185-.034c.057-.01.115-.02.172-.032a37.612 37.612 0 0 0 1.161-.232l.183-.039a41.161 41.161 0 0 0 1.672-.397 45.57 45.57 0 0 0 3.264-.964c.451-.152.899-.31 1.344-.475.157-.057.312-.117.468-.176a46.753 46.753 0 0 0 3.909-1.705l.229-.112.272-.137a56.6 56.6 0 0 0 .489-.251l.272-.142c.159-.085.318-.17.476-.257a43.805 43.805 0 0 0 1.216-.685l.016-.009c.316-.184.629-.372.94-.564l.016-.009a52.267 52.267 0 0 0 1.624-1.048l.098-.065.133-.092.151-.104.258-.177.267-.189.106-.077.038-.028c.084-.059.167-.119.25-.18l.043-.03.096-.07.254-.186.011-.008c.176-.131.351-.262.525-.395l.019-.015.24-.185.081-.063.028-.023c.131-.102.262-.204.392-.308a.75.75 0 0 0 .033-.026l.16-.127.012-.01a52.935 52.935 0 0 0 1.419-1.187 23.667 23.667 0 0 0 .622-.551c.137-.123.274-.248.409-.374l.019-.018a50.283 50.283 0 0 0 1.378-1.326l.195-.197.214-.218.004-.004.055-.057a47.214 47.214 0 0 0 2.668-2.997l.165-.204a45.236 45.236 0 0 0 1.316-1.707c.053-.073.107-.145.159-.218a46.572 46.572 0 0 0 3.306-5.247l.006-.011a29.493 29.493 0 0 0 .382-.719l.056-.111.027-.053.103-.2.026-.051.021-.042.006-.013.017-.032.087-.174-.044.085.037-.072.012-.024.008-.017.041-.082-.032.065-.001.003.078-.158.085-.175c.16-.324.317-.651.468-.979l.083-.18h-.002a35.332 35.332 0 0 0 .482-1.082 46.848 46.848 0 0 0 3.49-13.305l.043-.41.094-.825c.032-.476.057-.954.078-1.434.014-.3.026-.602.036-.903l.001-.067.006-.129c.009-.314.016-.627.017-.941.008-.099.008-.199.008-.298l-.047-7.576Zm-4.654 27.921-.02.043-.007.013.003-.005.113-.238-.089.187Zm3.402-9.605Zm.597-2.959-.066.378.065-.378.025-.141-.024.141Z" fill="url(#l)"/><path d="m114.818 138.562-.013.03.012-.026.001-.004Z" fill="url(#m)"/><path d="M201.068 166.805a51.05 51.05 0 0 0-.144-3.855l-7.346-20.276-.022-.062-.094-.153.048 7.613c0 .1 0 .199-.008.299-.001.314-.008.627-.017.94l-.005.129c0 .023 0 .045-.002.068a68.109 68.109 0 0 1-.114 2.337 46.109 46.109 0 0 1-.13 1.591 53.778 53.778 0 0 1-3.238 13.66v.002a52.982 52.982 0 0 1-2.347 5.291 54.668 54.668 0 0 1-1.636 2.986 53.716 53.716 0 0 1-2.608 4.003 54.211 54.211 0 0 1-2.543 3.282l-.003.004 5.274 14.563c4.204-2.509 7.811-6.701 10.427-12.003v-.002l.002-.004c2.835-5.747 4.506-12.796 4.506-20.413Z" fill="url(#n)"/><path d="M166.659 107.494v5.23a.011.011 0 0 1-.008-.003l-.042-.014-.02-.007-.005-.002h-.002a39.517 39.517 0 0 0-2.244-.712l-.024-.007-.289-.08a1.875 1.875 0 0 0-.107-.03l-.254-.069-.138-.037-.271-.07-.114-.029a53.652 53.652 0 0 0-.332-.083l-.046-.011a38.747 38.747 0 0 0-2.294-.486l-.108-.019a1.756 1.756 0 0 0-.077-.014l-.106-.019a42.213 42.213 0 0 0-1.425-.222 38.35 38.35 0 0 0-4.452-.362h-.062l-.356-.007-.144-.003a5.012 5.012 0 0 0-.179-.006 7.559 7.559 0 0 0-.302-.008l-.084.002h-.043l-.21.002-.428.005-.333.009c-.111.003-.225.005-.337.009-.178.006-.356.014-.533.023l-.132.005a40.48 40.48 0 0 0-8.359 1.307v-8.738a47.851 47.851 0 0 1 3.588-.134c.114 0 .227 0 .339.002l.339.003.338.006.262.007.178.005c.078.002.156.004.234.008.093.002.187.006.28.01l.118.005a23.617 23.617 0 0 1 .608.031c.126.006.252.014.378.022l.289.019.346.026c.106.008.212.016.317.026.114.01.227.019.34.03l.325.031c.202.02.404.041.606.064.017.002.035.003.053.007l.27.03.151.019.285.036.278.037a31.038 31.038 0 0 1 .978.142l.289.046a28.064 28.064 0 0 1 .682.116l.289.052.069.012.267.051.069.013.269.053c.107.021.214.043.32.066.066.012.131.026.197.041a8.372 8.372 0 0 1 .25.053l.338.075a40.376 40.376 0 0 1 1.189.283c.086.022.172.043.257.066l.3.078.312.084a54.163 54.163 0 0 1 1.628.477 25.558 25.558 0 0 1 .797.257c.087.029.171.056.256.086l.25.085c.303.104.604.212.904.322l.298.111.027.011.205.077.215.083c.199.077.397.155.594.235l.207.084a42.24 42.24 0 0 1 1.262.538l.233.105c.081.036.162.072.242.11.097.044.193.088.289.134.127.059.254.118.38.179l.013.006a.846.846 0 0 0 .053.023l.01.002Z" fill="url(#o)"/><path d="M166.66 103.341v4.153l-.008-.005c-.017-.007-.035-.014-.052-.023l-.014-.005a26.362 26.362 0 0 0-.38-.18l-.288-.134-.242-.11-.233-.105a51.564 51.564 0 0 0-1.262-.537l-.207-.084a33.373 33.373 0 0 0-.81-.319 17.075 17.075 0 0 0-.232-.087 50.72 50.72 0 0 0-1.202-.434l-.249-.085c-.085-.03-.17-.057-.256-.086l-.262-.086a27.6 27.6 0 0 0-.535-.171 27.679 27.679 0 0 0-.409-.126l-.207-.061a44.33 44.33 0 0 0-1.011-.289l-.313-.084c-.1-.027-.2-.054-.3-.079-.085-.023-.171-.044-.256-.065l-.355-.089a46.036 46.036 0 0 0-.835-.195c-.112-.026-.225-.05-.338-.075l-.021-.004a23.783 23.783 0 0 0-.425-.09c-.107-.023-.214-.044-.32-.065a12.86 12.86 0 0 0-.338-.066 13.955 13.955 0 0 0-.337-.064l-.289-.052a27.157 27.157 0 0 0-.682-.116l-.289-.046-.287-.044a49.794 49.794 0 0 0-.69-.098l-.279-.037-.284-.036-.152-.017-.019-.003V97.46a53.586 53.586 0 0 1 14.668 5.88v.001Z" fill="url(#p)"/><path d="M166.659 110.038v39.966a27.643 27.643 0 0 1-2.289 11.055l-.01.021a.021.021 0 0 1-.004.011l-.055.123-.362.779c-.098.203-.188.41-.289.609-.011.014-.021.03-.031.045-.114.223-.229.443-.35.657-.18.328-.375.644-.567.961a27.245 27.245 0 0 1-16.015 11.961l-.178.053c-.073.019-.148.033-.22.052-1.446.37-2.92.62-4.407.748l-.105.006-.125.012.228-.008.389-.011a36.091 36.091 0 0 0 16.884-5.414 36.16 36.16 0 0 0 12.278-12.809h.002v-.002a35.978 35.978 0 0 0 4.713-17.84V96h-9.487v14.038Z" fill="url(#q)"/><path d="m188.515 171.015-.036.072.043-.085.005-.011-.012.024Z" fill="url(#r)"/><path d="m188.236 171.566-.056.111.099-.194.012-.024.032-.062.042-.084-.102.2-.027.053Z" fill="url(#s)"/></g><defs><linearGradient id="b" x1="84.208" y1="38.941" x2="359.566" y2="393" gradientUnits="userSpaceOnUse"><stop offset=".034" stop-color="#fff"/><stop offset="1" stop-color="#80FF9F"/></linearGradient><linearGradient id="d" x1="137.131" y1="119.133" x2="177.527" y2="202.019" gradientUnits="userSpaceOnUse"><stop stop-color="#7CEA57"/><stop offset=".978" stop-color="#C9FFA9"/></linearGradient><linearGradient id="e" x1="180.233" y1="178.823" x2="127.632" y2="115.471" gradientUnits="userSpaceOnUse"><stop stop-color="#94F8A5"/><stop offset="1" stop-color="#00B818"/></linearGradient><linearGradient id="f" x1="139.636" y1="125.104" x2="167.961" y2="125.754" gradientUnits="userSpaceOnUse"><stop offset=".725" stop-color="#00D228" stop-opacity="0"/><stop offset="1" stop-color="#00B322" stop-opacity=".55"/></linearGradient><linearGradient id="g" x1="13976.6" y1="-8478.33" x2="22347" y2="-8478.33" gradientUnits="userSpaceOnUse"><stop offset=".725" stop-color="#00D228" stop-opacity="0"/><stop offset="1" stop-color="#00B322" stop-opacity=".55"/></linearGradient><linearGradient id="h" x1="177.818" y1="163.886" x2="195.125" y2="198.893" gradientUnits="userSpaceOnUse"><stop offset=".311" stop-color="#17D23B"/><stop offset="1" stop-color="#7CEA57"/></linearGradient><linearGradient id="i" x1="13446.8" y1="-15720.8" x2="29117.9" y2="1998.75" gradientUnits="userSpaceOnUse"><stop stop-color="#7CEA57"/><stop offset=".978" stop-color="#C9FFA9"/></linearGradient><linearGradient id="j" x1="117.114" y1="191.88" x2="161.29" y2="109.388" gradientUnits="userSpaceOnUse"><stop stop-color="#17D23B"/><stop offset="1" stop-color="#7CEA57"/></linearGradient><linearGradient id="k" x1="152.096" y1="213.818" x2="218.326" y2="136.263" gradientUnits="userSpaceOnUse"><stop offset=".062" stop-color="#7CEA57"/><stop offset="1" stop-color="#C9FFA9"/></linearGradient><linearGradient id="l" x1="16185.1" y1="-665.947" x2="51453.4" y2="-39209.5" gradientUnits="userSpaceOnUse"><stop offset=".062" stop-color="#7CEA57"/><stop offset="1" stop-color="#C9FFA9"/></linearGradient><linearGradient id="m" x1="115.416" y1="135.132" x2="124.052" y2="130.621" gradientUnits="userSpaceOnUse"><stop offset=".062" stop-color="#7CEA57"/><stop offset="1" stop-color="#C9FFA9"/></linearGradient><linearGradient id="o" x1="156.879" y1="107.885" x2="167.543" y2="108.37" gradientUnits="userSpaceOnUse"><stop offset=".624" stop-color="#00D228" stop-opacity="0"/><stop offset="1" stop-color="#00B322" stop-opacity=".15"/></linearGradient><linearGradient id="p" x1="5975.79" y1="-4256.01" x2="6444.35" y2="-4235.25" gradientUnits="userSpaceOnUse"><stop offset=".624" stop-color="#00D228" stop-opacity="0"/><stop offset="1" stop-color="#00B322" stop-opacity=".15"/></linearGradient><linearGradient id="q" x1="13078.2" y1="-2661.04" x2="23576.1" y2="-35645.6" gradientUnits="userSpaceOnUse"><stop stop-color="#17D23B"/><stop offset="1" stop-color="#7CEA57"/></linearGradient><linearGradient id="r" x1="214.755" y1="163.736" x2="214.768" y2="163.688" gradientUnits="userSpaceOnUse"><stop stop-color="#17D23B"/><stop offset="1" stop-color="#7CEA57"/></linearGradient><linearGradient id="s" x1="288.651" y1="144.903" x2="288.834" y2="144.214" gradientUnits="userSpaceOnUse"><stop stop-color="#17D23B"/><stop offset="1" stop-color="#7CEA57"/></linearGradient><radialGradient id="n" cx="0" cy="0" r="1" gradientUnits="userSpaceOnUse" gradientTransform="matrix(16.80208 6.88076 -26.5079 64.72944 187.757 169.44)"><stop stop-color="#00B322" stop-opacity=".25"/><stop offset=".438" stop-color="#00D228" stop-opacity="0"/></radialGradient><clipPath id="c"><path fill="#fff" transform="translate(85.482 96)" d="M0 0h130v108H0z"/></clipPath><filter id="a" x=".482" y="0" width="300" height="300" filterUnits="userSpaceOnUse" color-interpolation-filters="sRGB"><feFlood flood-opacity="0" result="BackgroundImageFix"/><feColorMatrix in="SourceAlpha" values="0 0 0 0 0 0 0 0 0 0 0 0 0 0 0 0 0 0 127 0" result="hardAlpha"/><feOffset dy="4"/><feGaussianBlur stdDeviation="10"/><feComposite in2="hardAlpha" operator="out"/><feColorMatrix values="0 0 0 0 0.5 0 0 0 0 1 0 0 0 0 0.625065 0 0 0 0.5 0"/><feBlend in2="BackgroundImageFix" result="effect1_dropShadow"/><feBlend in="SourceGraphic" in2="effect1_dropShadow" result="shape"/></filter></defs></svg>