<svg width="21" height="30" fill="none" xmlns="http://www.w3.org/2000/svg"><path d="M10.249 0C4.923 0 .482 4.041.482 9.766c0 2.175.842 4.736 1.744 6.42L9.322 29.44a1.047 1.047 0 0 0 1.853 0l7.096-13.254c.902-1.684 1.744-4.245 1.744-6.42C20.015 4.041 15.574 0 10.249 0Zm0 2.093c4.306 0 7.673 2.996 7.673 7.673 0 1.574-.78 4.098-1.493 5.428l-6.18 11.521-6.18-11.52c-.713-1.33-1.494-3.855-1.494-5.429 0-4.677 3.367-7.673 7.674-7.673Zm0 2.79c-2.685 0-4.884 2.199-4.884 4.883 0 2.685 2.2 4.883 4.884 4.883s4.883-2.198 4.883-4.883c0-2.684-2.199-4.883-4.883-4.883Zm0 2.093a2.775 2.775 0 0 1 2.79 2.79 2.775 2.775 0 0 1-2.79 2.79 2.775 2.775 0 0 1-2.79-2.79 2.775 2.775 0 0 1 2.79-2.79Z" fill="#7CEA57"/></svg>