<svg width="301" height="300" viewBox="0 0 301 300" fill="none" xmlns="http://www.w3.org/2000/svg">
    <g filter="url(#filter0_d)">
        <circle cx="150.482" cy="146" r="130" fill="url(#paint0_linear)"/>
    </g>
    <g clip-path="url(#clip0)">
        <path d="M166.651 112.722C166.636 112.717 166.623 112.712 166.609 112.707L166.59 112.7L166.585 112.698H166.582C165.856 112.443 165.103 112.204 164.338 111.986C164.33 111.984 164.322 111.981 164.314 111.979C164.218 111.952 164.122 111.925 164.025 111.898L163.917 111.868C163.833 111.845 163.748 111.822 163.663 111.8L163.526 111.763C163.435 111.739 163.345 111.716 163.254 111.693L163.141 111.664C163.03 111.636 162.919 111.608 162.808 111.581L162.763 111.57C161.998 111.384 161.231 111.221 160.469 111.084C160.433 111.077 160.397 111.071 160.361 111.065C160.335 111.06 160.31 111.055 160.284 111.051C160.249 111.045 160.213 111.039 160.177 111.032C159.705 110.95 159.231 110.876 158.753 110.81C157.277 110.603 155.791 110.482 154.301 110.448H154.297C154.287 110.448 154.278 110.448 154.268 110.448H154.239C154.079 110.446 153.918 110.445 153.755 110.438H153.739C153.679 110.436 153.62 110.434 153.56 110.432C153.434 110.428 153.303 110.426 153.174 110.426C153.16 110.426 153.145 110.426 153.131 110.426C153.061 110.426 152.991 110.428 152.921 110.428C152.779 110.429 152.636 110.43 152.494 110.433C152.383 110.435 152.272 110.439 152.161 110.442C152.05 110.444 151.936 110.447 151.823 110.451C151.645 110.457 151.467 110.465 151.291 110.474C151.247 110.476 151.203 110.477 151.159 110.479C144.619 110.807 138.256 112.721 132.617 116.057C126.978 119.392 122.233 124.049 118.788 129.627C118.785 129.63 118.783 129.631 118.78 129.633C118.574 129.963 118.38 130.296 118.188 130.631C118.113 130.759 118.037 130.885 117.964 131.014C117.885 131.155 117.811 131.299 117.733 131.44C117.585 131.712 117.435 131.982 117.293 132.258C116.256 134.263 115.393 136.353 114.712 138.506L114.695 138.559C114.6 138.862 114.498 139.162 114.407 139.468C114.403 139.485 114.397 139.501 114.393 139.517V139.517C114.393 139.514 114.395 139.51 114.396 139.507C114.4 139.498 114.404 139.488 114.409 139.478L114.425 139.442L114.428 139.435C114.435 139.412 114.444 139.388 114.452 139.363C114.588 138.965 114.803 138.4 114.927 138.061C114.929 138.053 114.932 138.044 114.935 138.036C115.104 137.572 115.283 137.112 115.472 136.657C118.403 129.598 123.627 123.736 130.299 120.022C136.971 116.308 144.699 114.96 152.232 116.195H152.234C152.428 116.226 152.621 116.26 152.813 116.295C153.031 116.334 153.247 116.376 153.463 116.419C153.679 116.463 153.895 116.509 154.113 116.557C154.166 116.569 154.22 116.581 154.273 116.593C158.704 117.6 162.891 119.479 166.591 122.122L166.599 122.127C166.601 122.129 166.603 122.13 166.605 122.131H166.606C166.621 122.142 166.644 122.157 166.66 122.168V112.723C166.657 112.723 166.654 112.722 166.651 112.722V112.722Z"
              fill="url(#paint1_linear)"/>
        <path d="M166.606 122.133H166.605C166.603 122.132 166.601 122.131 166.599 122.129L166.591 122.124C162.891 119.481 158.704 117.602 154.273 116.595V116.595C154.219 116.583 154.166 116.571 154.113 116.559C153.897 116.511 153.681 116.465 153.463 116.421C153.245 116.378 153.029 116.336 152.813 116.297C152.621 116.262 152.428 116.228 152.234 116.197H152.232C144.7 114.96 136.971 116.307 130.298 120.021C123.626 123.734 118.402 129.596 115.472 136.656C115.284 137.111 115.105 137.571 114.935 138.035C114.932 138.043 114.929 138.052 114.927 138.06C114.803 138.4 114.588 138.965 114.452 139.362C114.443 139.387 114.435 139.411 114.428 139.434L114.425 139.441L114.409 139.477C114.404 139.487 114.4 139.497 114.396 139.506C114.395 139.509 114.393 139.513 114.393 139.516C114.403 139.494 114.422 139.465 114.433 139.441C114.469 139.358 114.509 139.263 114.553 139.162C114.633 138.979 114.721 138.777 114.804 138.591L114.818 138.561C114.885 138.412 114.949 138.274 115.002 138.165C115.026 138.116 115.052 138.068 115.077 138.019C115.28 137.609 115.49 137.203 115.71 136.802C115.753 136.726 115.796 136.651 115.838 136.574C115.865 136.529 115.891 136.483 115.918 136.436C115.963 136.358 116.008 136.279 116.053 136.201C116.07 136.172 116.088 136.144 116.105 136.114C116.159 136.019 116.215 135.926 116.271 135.834C116.287 135.808 116.302 135.783 116.317 135.758C116.332 135.732 116.347 135.712 116.361 135.688C116.365 135.683 116.368 135.678 116.371 135.673C116.38 135.661 116.388 135.645 116.397 135.633C116.426 135.587 116.455 135.544 116.483 135.499C116.52 135.439 116.558 135.38 116.595 135.321C116.606 135.304 116.617 135.287 116.627 135.271C116.673 135.199 116.72 135.127 116.767 135.055C116.858 134.913 116.949 134.777 117.051 134.64C117.076 134.599 117.104 134.559 117.132 134.519C117.155 134.487 117.177 134.455 117.2 134.422C117.206 134.413 117.213 134.405 117.219 134.395C117.277 134.315 117.334 134.231 117.391 134.152C117.41 134.123 117.431 134.094 117.452 134.065C117.474 134.036 117.495 134.007 117.516 133.978C117.521 133.973 117.525 133.967 117.529 133.96C117.55 133.933 117.569 133.905 117.59 133.877C117.687 133.745 117.787 133.614 117.887 133.482C117.921 133.438 117.952 133.393 117.986 133.349L118.01 133.321C118.071 133.239 118.133 133.156 118.201 133.074C118.292 132.963 118.385 132.852 118.477 132.74C118.556 132.645 118.63 132.547 118.71 132.454C118.729 132.432 118.751 132.407 118.772 132.384C118.788 132.364 118.802 132.346 118.82 132.325C118.88 132.254 118.945 132.186 119.006 132.116C119.016 132.106 119.026 132.096 119.035 132.085C119.136 131.972 119.236 131.857 119.339 131.745C119.382 131.694 119.424 131.648 119.466 131.601C119.5 131.564 119.534 131.526 119.57 131.488C119.701 131.341 119.843 131.195 119.985 131.048C120.081 130.947 120.176 130.851 120.278 130.755C120.427 130.602 120.581 130.457 120.737 130.311C120.796 130.253 120.855 130.194 120.916 130.138C120.921 130.128 120.931 130.123 120.941 130.112C120.973 130.083 121.006 130.055 121.039 130.025C121.185 129.888 121.334 129.754 121.478 129.622C121.608 129.507 121.737 129.4 121.861 129.293C121.865 129.289 121.87 129.286 121.874 129.282C121.877 129.28 121.88 129.277 121.883 129.274C121.891 129.269 121.899 129.262 121.907 129.255C122.143 129.057 122.38 128.857 122.617 128.675C122.762 128.557 122.912 128.446 123.061 128.332C123.201 128.226 123.338 128.117 123.48 128.014C123.693 127.857 123.91 127.705 124.133 127.554C124.194 127.513 124.249 127.473 124.31 127.432C124.522 127.291 124.735 127.149 124.952 127.013C125.001 126.985 125.049 126.955 125.094 126.921C125.21 126.848 125.331 126.781 125.449 126.71C125.583 126.631 125.717 126.548 125.856 126.475C126.406 126.151 126.971 125.85 127.545 125.569C127.609 125.539 127.67 125.506 127.734 125.475C127.761 125.461 127.789 125.449 127.816 125.437C127.996 125.35 128.174 125.264 128.361 125.184C128.44 125.148 128.514 125.112 128.593 125.083C128.598 125.081 128.602 125.079 128.607 125.077L128.609 125.076C128.852 124.964 129.094 124.863 129.337 124.767C130 124.504 130.673 124.261 131.355 124.049C131.679 123.948 132.003 123.851 132.326 123.765C132.599 123.69 132.878 123.618 133.156 123.553C133.247 123.533 133.343 123.508 133.444 123.487C133.697 123.427 133.95 123.376 134.208 123.325C134.506 123.265 134.804 123.214 135.108 123.163C135.27 123.138 135.426 123.113 135.588 123.093C135.887 123.047 136.186 123.012 136.489 122.976C136.736 122.951 136.984 122.925 137.237 122.905C137.286 122.899 137.335 122.896 137.384 122.895C137.682 122.87 137.977 122.855 138.274 122.844C138.375 122.835 138.471 122.835 138.567 122.83C138.871 122.819 139.175 122.814 139.478 122.815C139.901 122.815 140.318 122.839 140.735 122.859C141.109 122.878 141.481 122.895 141.85 122.929C141.993 122.943 142.135 122.959 142.277 122.974C142.753 123.025 143.225 123.088 143.693 123.163C143.791 123.179 143.889 123.191 143.986 123.208C144.547 123.305 145.102 123.419 145.652 123.549C145.742 123.571 145.831 123.596 145.921 123.618C146.386 123.733 146.846 123.861 147.302 124.001C147.422 124.038 147.542 124.075 147.662 124.113C148.718 124.452 149.752 124.856 150.758 125.322C150.876 125.377 150.992 125.432 151.109 125.489C151.524 125.689 151.933 125.898 152.336 126.118C152.422 126.165 152.51 126.209 152.596 126.257C153.07 126.522 153.535 126.801 153.992 127.094C154.083 127.153 154.172 127.215 154.264 127.275C154.267 127.277 154.27 127.279 154.274 127.281C154.637 127.521 154.995 127.769 155.345 128.025C155.463 128.111 155.581 128.196 155.697 128.284C156.124 128.606 156.544 128.935 156.95 129.281C156.962 129.291 156.975 129.302 156.987 129.313C157.378 129.647 157.757 129.995 158.128 130.351C158.248 130.466 158.365 130.582 158.483 130.698C158.766 130.978 159.042 131.265 159.311 131.557C159.412 131.666 159.516 131.773 159.615 131.882C159.954 132.262 160.282 132.65 160.599 133.047C160.705 133.179 160.805 133.315 160.908 133.449C161.129 133.737 161.345 134.029 161.555 134.326C161.672 134.491 161.789 134.657 161.902 134.825C162.127 135.158 162.345 135.497 162.555 135.843C162.681 136.049 162.803 136.258 162.925 136.468C163.108 136.788 163.288 137.109 163.458 137.436C163.553 137.617 163.643 137.801 163.733 137.985C163.75 138.019 163.764 138.055 163.781 138.089C164.383 139.752 165.105 141.544 165.708 143.207C165.764 143.361 165.82 143.514 165.876 143.668C165.88 143.679 165.884 143.69 165.887 143.7C165.999 144.008 166.111 144.317 166.223 144.625C166.264 144.738 166.304 144.851 166.345 144.964C166.426 145.164 166.498 145.359 166.576 145.557L166.578 145.562C166.58 145.568 166.581 145.571 166.583 145.577L166.591 145.596V145.596C166.611 145.648 166.644 145.7 166.664 145.752L166.66 122.177V122.171C166.644 122.159 166.621 122.144 166.606 122.133Z"
              fill="url(#paint2_linear)"/>
        <path d="M166.651 112.722C166.636 112.717 166.623 112.712 166.609 112.707L166.59 112.7L166.585 112.698H166.582C165.856 112.443 165.103 112.204 164.338 111.986C164.33 111.984 164.322 111.981 164.314 111.979C164.218 111.952 164.122 111.925 164.025 111.898L163.917 111.868C163.833 111.845 163.748 111.822 163.663 111.8L163.526 111.763C163.435 111.739 163.345 111.716 163.254 111.693L163.141 111.664C163.03 111.636 162.919 111.608 162.808 111.581L162.763 111.57C161.998 111.384 161.231 111.221 160.469 111.084C160.433 111.077 160.397 111.071 160.361 111.065C160.335 111.06 160.31 111.055 160.284 111.051C160.249 111.045 160.213 111.039 160.177 111.032C159.705 110.95 159.231 110.876 158.753 110.81C157.277 110.603 155.791 110.482 154.301 110.448H154.297C154.287 110.448 154.278 110.448 154.268 110.448H154.239C154.079 110.446 153.918 110.445 153.755 110.438H153.739C153.679 110.436 153.62 110.434 153.56 110.432C153.434 110.428 153.303 110.426 153.174 110.426C153.16 110.426 153.145 110.426 153.131 110.426C153.061 110.426 152.991 110.428 152.921 110.428C152.779 110.429 152.636 110.43 152.494 110.433C152.383 110.435 152.272 110.439 152.161 110.442C152.05 110.444 151.936 110.447 151.823 110.451C151.645 110.457 151.467 110.465 151.291 110.474C151.247 110.476 151.203 110.477 151.159 110.479C144.619 110.807 138.256 112.721 132.617 116.057C126.978 119.392 122.233 124.049 118.788 129.627C118.785 129.63 118.783 129.631 118.78 129.633C118.574 129.963 118.38 130.296 118.188 130.631C118.113 130.759 118.037 130.885 117.964 131.014C117.885 131.155 117.811 131.299 117.733 131.44C117.585 131.712 117.435 131.982 117.293 132.258C116.256 134.263 115.393 136.353 114.712 138.506L114.695 138.559C114.6 138.862 114.498 139.162 114.407 139.468C114.403 139.485 114.397 139.501 114.393 139.517V139.517C114.393 139.514 114.395 139.51 114.396 139.507C114.4 139.498 114.404 139.488 114.409 139.478L114.425 139.442L114.428 139.435C114.435 139.412 114.444 139.388 114.452 139.363C114.588 138.965 114.803 138.4 114.927 138.061C114.929 138.053 114.932 138.044 114.935 138.036C115.104 137.572 115.283 137.112 115.472 136.657C118.403 129.598 123.627 123.736 130.299 120.022C136.971 116.308 144.699 114.96 152.232 116.195H152.234C152.428 116.226 152.621 116.26 152.813 116.295C153.031 116.334 153.247 116.376 153.463 116.419C153.679 116.463 153.895 116.509 154.113 116.557C154.166 116.569 154.22 116.581 154.273 116.593C158.704 117.6 162.891 119.479 166.591 122.122L166.599 122.127C166.601 122.129 166.603 122.13 166.605 122.131H166.606C166.621 122.142 166.644 122.157 166.66 122.168V112.723C166.657 112.723 166.654 112.722 166.651 112.722V112.722Z"
              fill="url(#paint3_linear)"/>
        <path d="M166.606 122.133H166.605C166.603 122.132 166.601 122.131 166.599 122.129L166.591 122.124C162.891 119.481 158.704 117.602 154.273 116.595V116.595C154.219 116.583 154.166 116.571 154.113 116.559C153.897 116.511 153.681 116.465 153.463 116.421C153.245 116.378 153.029 116.336 152.813 116.297C152.621 116.262 152.428 116.228 152.234 116.197H152.232C144.7 114.96 136.971 116.307 130.298 120.021C123.626 123.734 118.402 129.596 115.472 136.656C115.284 137.111 115.105 137.571 114.935 138.035C114.932 138.043 114.929 138.052 114.927 138.06C114.803 138.4 114.588 138.965 114.452 139.362C114.443 139.387 114.435 139.411 114.428 139.434L114.425 139.441L114.409 139.477C114.404 139.487 114.4 139.497 114.396 139.506C114.395 139.509 114.393 139.513 114.393 139.516C114.403 139.494 114.422 139.465 114.433 139.441C114.469 139.358 114.509 139.263 114.553 139.162C114.633 138.979 114.721 138.777 114.804 138.591L114.818 138.561C114.885 138.412 114.949 138.274 115.002 138.165C115.026 138.116 115.052 138.068 115.077 138.019C115.28 137.609 115.49 137.203 115.71 136.802C115.753 136.726 115.796 136.651 115.838 136.574C115.865 136.529 115.891 136.483 115.918 136.436C115.963 136.358 116.008 136.279 116.053 136.201C116.07 136.172 116.088 136.144 116.105 136.114C116.159 136.019 116.215 135.926 116.271 135.834C116.287 135.808 116.302 135.783 116.317 135.758C116.332 135.732 116.347 135.712 116.361 135.688C116.365 135.683 116.368 135.678 116.371 135.673C116.38 135.661 116.388 135.645 116.397 135.633C116.426 135.587 116.455 135.544 116.483 135.499C116.52 135.439 116.558 135.38 116.595 135.321C116.606 135.304 116.617 135.287 116.627 135.271C116.673 135.199 116.72 135.127 116.767 135.055C116.858 134.913 116.949 134.777 117.051 134.64C117.076 134.599 117.104 134.559 117.132 134.519C117.155 134.487 117.177 134.455 117.2 134.422C117.206 134.413 117.213 134.405 117.219 134.395C117.277 134.315 117.334 134.231 117.391 134.152C117.41 134.123 117.431 134.094 117.452 134.065C117.474 134.036 117.495 134.007 117.516 133.978C117.521 133.973 117.525 133.967 117.529 133.96C117.55 133.933 117.569 133.905 117.59 133.877C117.687 133.745 117.787 133.614 117.887 133.482C117.921 133.438 117.952 133.393 117.986 133.349L118.01 133.321C118.071 133.239 118.133 133.156 118.201 133.074C118.292 132.963 118.385 132.852 118.477 132.74C118.556 132.645 118.63 132.547 118.71 132.454C118.729 132.432 118.751 132.407 118.772 132.384C118.788 132.364 118.802 132.346 118.82 132.325C118.88 132.254 118.945 132.186 119.006 132.116C119.016 132.106 119.026 132.096 119.035 132.085C119.136 131.972 119.236 131.857 119.339 131.745C119.382 131.694 119.424 131.648 119.466 131.601C119.5 131.564 119.534 131.526 119.57 131.488C119.701 131.341 119.843 131.195 119.985 131.048C120.081 130.947 120.176 130.851 120.278 130.755C120.427 130.602 120.581 130.457 120.737 130.311C120.796 130.253 120.855 130.194 120.916 130.138C120.921 130.128 120.931 130.123 120.941 130.112C120.973 130.083 121.006 130.055 121.039 130.025C121.185 129.888 121.334 129.754 121.478 129.622C121.608 129.507 121.737 129.4 121.861 129.293C121.865 129.289 121.87 129.286 121.874 129.282C121.877 129.28 121.88 129.277 121.883 129.274C121.891 129.269 121.899 129.262 121.907 129.255C122.143 129.057 122.38 128.857 122.617 128.675C122.762 128.557 122.912 128.446 123.061 128.332C123.201 128.226 123.338 128.117 123.48 128.014C123.693 127.857 123.91 127.705 124.133 127.554C124.194 127.513 124.249 127.473 124.31 127.432C124.522 127.291 124.735 127.149 124.952 127.013C125.001 126.985 125.049 126.955 125.094 126.921C125.21 126.848 125.331 126.781 125.449 126.71C125.583 126.631 125.717 126.548 125.856 126.475C126.406 126.151 126.971 125.85 127.545 125.569C127.609 125.539 127.67 125.506 127.734 125.475C127.761 125.461 127.789 125.449 127.816 125.437C127.996 125.35 128.174 125.264 128.361 125.184C128.44 125.148 128.514 125.112 128.593 125.083C128.598 125.081 128.602 125.079 128.607 125.077L128.609 125.076C128.852 124.964 129.094 124.863 129.337 124.767C130 124.504 130.673 124.261 131.355 124.049C131.679 123.948 132.003 123.851 132.326 123.765C132.599 123.69 132.878 123.618 133.156 123.553C133.247 123.533 133.343 123.508 133.444 123.487C133.697 123.427 133.95 123.376 134.208 123.325C134.506 123.265 134.804 123.214 135.108 123.163C135.27 123.138 135.426 123.113 135.588 123.093C135.887 123.047 136.186 123.012 136.489 122.976C136.736 122.951 136.984 122.925 137.237 122.905C137.286 122.899 137.335 122.896 137.384 122.895C137.682 122.87 137.977 122.855 138.274 122.844C138.375 122.835 138.471 122.835 138.567 122.83C138.871 122.819 139.175 122.814 139.478 122.815C139.901 122.815 140.318 122.839 140.735 122.859C141.109 122.878 141.481 122.895 141.85 122.929C141.993 122.943 142.135 122.959 142.277 122.974C142.753 123.025 143.225 123.088 143.693 123.163C143.791 123.179 143.889 123.191 143.986 123.208C144.547 123.305 145.102 123.419 145.652 123.549C145.742 123.571 145.831 123.596 145.921 123.618C146.386 123.733 146.846 123.861 147.302 124.001C147.422 124.038 147.542 124.075 147.662 124.113C148.718 124.452 149.752 124.856 150.758 125.322C150.876 125.377 150.992 125.432 151.109 125.489C151.524 125.689 151.933 125.898 152.336 126.118C152.422 126.165 152.51 126.209 152.596 126.257C153.07 126.522 153.535 126.801 153.992 127.094C154.083 127.153 154.172 127.215 154.264 127.275C154.267 127.277 154.27 127.279 154.274 127.281C154.637 127.521 154.995 127.769 155.345 128.025C155.463 128.111 155.581 128.196 155.697 128.284C156.124 128.606 156.544 128.935 156.95 129.281C156.962 129.291 156.975 129.302 156.987 129.313C157.378 129.647 157.757 129.995 158.128 130.351C158.248 130.466 158.365 130.582 158.483 130.698C158.766 130.978 159.042 131.265 159.311 131.557C159.412 131.666 159.516 131.773 159.615 131.882C159.954 132.262 160.282 132.65 160.599 133.047C160.705 133.179 160.805 133.315 160.908 133.449C161.129 133.737 161.345 134.029 161.555 134.326C161.672 134.491 161.789 134.657 161.902 134.825C162.127 135.158 162.345 135.497 162.555 135.843C162.681 136.049 162.803 136.258 162.925 136.468C163.108 136.788 163.288 137.109 163.458 137.436C163.553 137.617 163.643 137.801 163.733 137.985C163.75 138.019 163.764 138.055 163.781 138.089C164.383 139.752 165.105 141.544 165.708 143.207C165.764 143.361 165.82 143.514 165.876 143.668C165.88 143.679 165.884 143.69 165.887 143.7C165.999 144.008 166.111 144.317 166.223 144.625C166.264 144.738 166.304 144.851 166.345 144.964C166.426 145.164 166.498 145.359 166.576 145.557L166.578 145.562C166.58 145.568 166.581 145.571 166.583 145.577L166.591 145.596V145.596C166.611 145.648 166.644 145.7 166.664 145.752L166.66 122.177V122.171C166.644 122.159 166.621 122.144 166.606 122.133Z"
              fill="url(#paint4_linear)"/>
        <path d="M189.996 169.098C189.48 170.456 188.911 171.787 188.289 173.09C188.081 173.526 187.868 173.959 187.649 174.389C187.396 174.887 187.136 175.38 186.869 175.868C186.591 176.375 186.306 176.878 186.013 177.375C185.475 178.286 184.912 179.18 184.323 180.056C184.024 180.501 183.718 180.942 183.405 181.377C182.599 182.504 181.751 183.599 180.862 184.66L180.859 184.664C183.101 190.855 185.229 196.733 187.281 202.396L187.287 202.411L187.439 202.831C187.443 202.843 187.448 202.855 187.452 202.868C187.459 202.887 187.466 202.906 187.473 202.925L187.544 203.123L187.553 203.146H202.33L189.996 169.098Z"
              fill="url(#paint5_linear)"/>
        <path d="M193.578 142.674L193.556 142.612L193.463 142.459L193.51 150.072C193.51 150.172 193.51 150.271 193.503 150.371C193.501 150.685 193.495 150.998 193.485 151.311C193.484 151.354 193.482 151.397 193.48 151.44C193.48 151.463 193.48 151.485 193.479 151.508C193.469 151.809 193.457 152.11 193.443 152.411C193.422 152.89 193.397 153.368 193.365 153.845C193.332 154.347 193.291 154.847 193.243 155.344C193.236 155.374 193.233 155.405 193.235 155.436C193.152 156.25 193.051 157.057 192.932 157.859C192.362 161.701 191.377 165.469 189.996 169.098L202.329 203.145H215.483L193.578 142.674Z"
              fill="url(#paint6_linear)"/>
        <path d="M193.27 154.669C193.256 154.806 193.242 154.942 193.227 155.079C193.125 156.012 192.995 156.937 192.838 157.854C192.221 161.473 191.18 165.008 189.737 168.384C189.653 168.58 189.568 168.776 189.481 168.971C189.474 168.987 189.467 169.002 189.46 169.018C189.453 169.034 189.445 169.051 189.438 169.067C189.398 169.156 189.359 169.245 189.319 169.333C189.299 169.378 189.278 169.422 189.257 169.467C189.23 169.527 189.203 169.588 189.175 169.647C189.023 169.976 188.866 170.302 188.707 170.626L188.689 170.662C188.667 170.708 188.644 170.754 188.621 170.801C188.595 170.853 188.569 170.907 188.543 170.959C188.531 170.984 188.519 171.008 188.506 171.033C188.483 171.08 188.459 171.129 188.435 171.175C188.43 171.186 188.424 171.197 188.419 171.208L188.412 171.22C188.376 171.29 188.341 171.36 188.305 171.431L188.29 171.459L188.278 171.483C188.245 171.547 188.212 171.612 188.179 171.676C188.122 171.785 188.064 171.894 188.007 172.003C187.938 172.135 187.868 172.265 187.797 172.396C187.794 172.399 187.792 172.403 187.791 172.407C187.704 172.566 187.617 172.725 187.529 172.883C187.396 173.122 187.261 173.359 187.125 173.595C187.038 173.746 186.95 173.895 186.861 174.045C186.673 174.361 186.481 174.675 186.286 174.987C186.238 175.063 186.19 175.14 186.141 175.216C185.614 176.046 185.062 176.859 184.485 177.653C184.432 177.726 184.379 177.799 184.326 177.872C184.06 178.234 183.789 178.592 183.513 178.945C183.477 178.991 183.441 179.037 183.405 179.083C183.275 179.249 183.143 179.415 183.01 179.578C182.955 179.646 182.9 179.714 182.844 179.782C182.778 179.864 182.712 179.945 182.645 180.026C182.588 180.095 182.53 180.164 182.473 180.233C181.74 181.108 180.976 181.956 180.18 182.775C180.179 182.777 180.178 182.778 180.177 182.779C180.158 182.798 180.14 182.817 180.122 182.836L180.118 182.84C180.047 182.913 179.976 182.986 179.904 183.058C179.839 183.124 179.774 183.19 179.709 183.255C179.643 183.32 179.578 183.385 179.513 183.45C179.381 183.581 179.25 183.71 179.117 183.838C178.858 184.09 178.596 184.338 178.331 184.582C178.325 184.588 178.319 184.594 178.312 184.6C178.177 184.726 178.04 184.85 177.903 184.973C177.834 185.036 177.765 185.098 177.696 185.158C177.558 185.282 177.42 185.404 177.28 185.525C177.147 185.641 177.014 185.756 176.879 185.87C176.873 185.876 176.866 185.881 176.86 185.886C176.726 186.001 176.591 186.115 176.454 186.228C176.448 186.233 176.442 186.238 176.435 186.243C176.245 186.401 176.054 186.557 175.862 186.712L175.85 186.721C175.797 186.764 175.743 186.806 175.69 186.849C175.679 186.858 175.668 186.866 175.657 186.875C175.585 186.932 175.512 186.989 175.44 187.045C175.373 187.098 175.305 187.152 175.237 187.205C175.21 187.226 175.183 187.248 175.156 187.269C175.076 187.331 174.996 187.392 174.916 187.453C174.732 187.594 174.546 187.733 174.36 187.872C174.275 187.934 174.191 187.996 174.107 188.058C174.075 188.081 174.042 188.104 174.01 188.127L173.967 188.158C173.884 188.218 173.801 188.278 173.717 188.338C173.704 188.347 173.692 188.357 173.679 188.366C173.644 188.39 173.609 188.416 173.573 188.442L173.306 188.632C173.126 188.757 172.945 188.881 172.764 189.004C172.583 189.127 172.401 189.249 172.217 189.369C172.212 189.373 172.206 189.377 172.2 189.38C171.968 189.534 171.734 189.684 171.498 189.833C171.347 189.929 171.195 190.024 171.042 190.117C171.037 190.121 171.031 190.124 171.026 190.127C170.715 190.318 170.402 190.506 170.086 190.691C170.081 190.694 170.076 190.697 170.07 190.7C169.91 190.794 169.748 190.886 169.587 190.978C169.345 191.116 169.1 191.252 168.854 191.385C168.696 191.471 168.538 191.557 168.378 191.641C168.287 191.689 168.197 191.736 168.106 191.784C167.943 191.868 167.781 191.952 167.618 192.034C167.527 192.08 167.436 192.126 167.346 192.171C167.269 192.21 167.193 192.246 167.116 192.284C166.777 192.451 166.436 192.613 166.092 192.772C165.931 192.846 165.77 192.919 165.607 192.992C164.819 193.345 164.019 193.677 163.207 193.988C163.052 194.048 162.896 194.106 162.739 194.165C162.294 194.329 161.846 194.488 161.395 194.64C161.04 194.758 160.684 194.873 160.325 194.984C160.054 195.068 159.781 195.15 159.508 195.229C159.234 195.308 158.959 195.385 158.684 195.459C158.501 195.508 158.316 195.556 158.132 195.604C157.947 195.651 157.762 195.698 157.577 195.743C157.206 195.834 156.834 195.92 156.46 196.001C156.398 196.014 156.338 196.027 156.276 196.039C156.052 196.088 155.826 196.134 155.6 196.179C155.439 196.211 155.278 196.242 155.116 196.272C155.059 196.283 155.001 196.293 154.944 196.304C154.883 196.315 154.821 196.327 154.759 196.337C153.21 196.616 151.648 196.816 150.079 196.937C149.924 196.95 149.768 196.961 149.612 196.971C149.004 197.012 148.394 197.042 147.781 197.059C147.318 197.073 146.856 197.094 146.39 197.094C120.41 197.102 99.337 176.025 99.3072 150.004C99.3072 123.99 120.373 102.912 146.389 102.912C146.502 102.912 146.615 102.912 146.728 102.914C146.841 102.915 146.953 102.916 147.066 102.917C147.179 102.919 147.291 102.921 147.404 102.924C147.492 102.925 147.579 102.927 147.666 102.93C147.726 102.931 147.785 102.933 147.845 102.935C147.923 102.937 148 102.939 148.078 102.943C148.172 102.946 148.265 102.949 148.358 102.954C148.396 102.955 148.437 102.956 148.476 102.958C148.568 102.962 148.658 102.966 148.749 102.971C148.861 102.976 148.973 102.982 149.084 102.988C149.211 102.995 149.336 103.003 149.462 103.011C149.558 103.017 149.655 103.024 149.752 103.03C149.866 103.038 149.982 103.047 150.098 103.056C150.204 103.064 150.309 103.073 150.415 103.082C150.528 103.092 150.642 103.102 150.755 103.112C150.864 103.122 150.972 103.132 151.079 103.143C151.281 103.163 151.483 103.184 151.685 103.207C151.703 103.209 151.721 103.21 151.738 103.213C151.829 103.223 151.919 103.233 152.009 103.244L152.16 103.263C152.256 103.275 152.35 103.286 152.444 103.299C152.539 103.311 152.63 103.323 152.723 103.335C152.954 103.366 153.184 103.399 153.414 103.434C153.509 103.448 153.605 103.462 153.7 103.478C153.796 103.493 153.893 103.508 153.99 103.524C154.123 103.545 154.257 103.568 154.391 103.591C154.484 103.606 154.577 103.623 154.671 103.64C154.767 103.657 154.863 103.674 154.96 103.692L155.028 103.704C155.118 103.721 155.207 103.738 155.296 103.755L155.364 103.768C155.455 103.785 155.545 103.803 155.634 103.821C155.741 103.842 155.847 103.864 155.954 103.886C156.019 103.899 156.085 103.913 156.151 103.928C156.227 103.943 156.304 103.959 156.379 103.977C156.387 103.978 156.394 103.979 156.4 103.981C156.513 104.005 156.626 104.03 156.738 104.056C157.018 104.118 157.296 104.183 157.573 104.251C157.692 104.28 157.81 104.309 157.928 104.339C158.014 104.361 158.1 104.382 158.185 104.405C158.285 104.43 158.384 104.457 158.484 104.483C158.588 104.511 158.693 104.538 158.797 104.567C159.069 104.641 159.34 104.718 159.609 104.797C159.676 104.816 159.743 104.835 159.808 104.856C159.878 104.876 159.946 104.896 160.015 104.918C160.152 104.959 160.288 105 160.424 105.043C160.604 105.099 160.782 105.156 160.959 105.214C161.047 105.243 161.134 105.272 161.222 105.301C161.307 105.329 161.393 105.357 161.478 105.387C161.563 105.416 161.644 105.443 161.726 105.472C162.03 105.576 162.331 105.684 162.631 105.794C162.73 105.83 162.829 105.868 162.928 105.905C162.937 105.908 162.946 105.912 162.955 105.915L163.161 105.993C163.232 106.02 163.304 106.048 163.376 106.076C163.575 106.153 163.773 106.231 163.97 106.311C164.039 106.339 164.109 106.367 164.177 106.395C164.249 106.424 164.321 106.453 164.391 106.484C164.743 106.629 165.093 106.779 165.439 106.933C165.517 106.968 165.595 107.003 165.672 107.038C165.753 107.074 165.834 107.11 165.914 107.148C166.011 107.191 166.107 107.236 166.203 107.281C166.329 107.34 166.456 107.399 166.583 107.46L166.596 107.466C166.613 107.475 166.631 107.482 166.649 107.489L166.657 107.493V103.341C158.406 98.5179 149.021 95.984 139.469 95.9997C109.649 95.9997 85.4824 120.178 85.4824 150.003C85.4824 179.477 109.084 203.427 138.422 203.984C138.765 203.992 139.117 203.999 139.469 203.999H139.483C142.867 203.999 146.243 203.682 149.568 203.053C155.85 201.87 161.869 199.57 167.34 196.261C168.668 195.466 169.959 194.603 171.212 193.695C174.758 191.108 177.978 188.099 180.8 184.735L180.801 184.734L180.803 184.732L180.809 184.724C180.825 184.704 180.842 184.685 180.858 184.664C180.86 184.663 180.861 184.662 180.862 184.661C181.75 183.6 182.598 182.506 183.405 181.378C183.717 180.942 184.023 180.501 184.323 180.056C184.911 179.181 185.474 178.287 186.013 177.376C186.306 176.878 186.591 176.375 186.869 175.868C187.137 175.38 187.396 174.886 187.648 174.389C187.868 173.96 188.081 173.527 188.289 173.091C188.91 171.789 189.479 170.458 189.996 169.098C191.378 165.469 192.362 161.701 192.932 157.86C193.051 157.057 193.152 156.25 193.235 155.436C193.234 155.405 193.236 155.375 193.243 155.345C193.292 154.848 193.333 154.348 193.365 153.845L193.27 154.669Z"
              fill="url(#paint7_linear)"/>
        <path d="M188.436 171.176C188.459 171.129 188.483 171.08 188.506 171.034C188.519 171.009 188.532 170.985 188.543 170.96L188.542 170.963C188.506 171.034 188.471 171.105 188.436 171.176Z"
              fill="url(#paint8_linear)"/>
        <path d="M193.461 142.497V96H176.146V141.012C176.153 147.269 174.528 153.419 171.432 158.854V158.854C168.465 164.079 164.245 168.481 159.153 171.663C154.061 174.844 148.258 176.705 142.268 177.077L141.879 177.089L141.652 177.096L141.54 177.099L141.148 177.128C141.055 177.135 140.961 177.141 140.866 177.147C140.407 177.174 139.942 177.194 139.468 177.194C139.246 177.194 139.009 177.186 138.788 177.186H138.781C138.53 177.176 138.285 177.163 138.039 177.15C137.918 177.144 137.794 177.141 137.673 177.133C137.649 177.131 137.623 177.128 137.599 177.127C137.49 177.121 137.381 177.114 137.268 177.102C137.14 177.096 137.016 177.083 136.891 177.069C136.843 177.063 136.795 177.063 136.749 177.056C136.573 177.041 136.397 177.025 136.222 177.003C136.149 176.994 136.078 176.98 136.005 176.971C135.632 176.924 135.264 176.876 134.9 176.811C134.775 176.792 134.646 176.767 134.52 176.746C134.499 176.743 134.478 176.738 134.457 176.735C134.335 176.705 134.22 176.69 134.106 176.667C133.9 176.621 133.693 176.575 133.472 176.53C133.437 176.521 133.4 176.51 133.365 176.502C132.983 176.416 132.604 176.321 132.226 176.216C132.097 176.186 131.967 176.147 131.837 176.109C131.318 175.955 130.814 175.795 130.309 175.613C130.116 175.548 129.929 175.476 129.736 175.397C129.724 175.392 129.711 175.388 129.698 175.384C129.685 175.379 129.675 175.374 129.663 175.369C129.483 175.304 129.297 175.233 129.117 175.154C128.799 175.024 128.489 174.886 128.179 174.742L128.124 174.719C128.116 174.714 128.108 174.711 128.1 174.707C127.941 174.635 127.788 174.562 127.635 174.49C127.541 174.446 127.447 174.396 127.346 174.352C127.34 174.349 127.335 174.347 127.33 174.344L126.757 174.046C125.929 173.609 125.126 173.127 124.351 172.602C124.346 172.599 124.34 172.595 124.336 172.592C124.195 172.503 124.055 172.408 123.915 172.305C123.628 172.105 123.347 171.898 123.074 171.692C123.065 171.685 123.055 171.678 123.046 171.671L123.02 171.651C122.739 171.436 122.472 171.221 122.198 171.006C122.075 170.899 121.945 170.792 121.823 170.685C121.631 170.522 121.447 170.347 121.258 170.177C120.738 169.708 120.232 169.224 119.746 168.714C119.718 168.686 119.689 168.659 119.662 168.631C119.659 168.628 119.656 168.624 119.654 168.621C119.534 168.494 119.415 168.368 119.295 168.233C119.236 168.158 119.172 168.087 119.104 168.019C119.001 167.903 118.906 167.786 118.807 167.668C118.779 167.636 118.751 167.603 118.724 167.571C118.625 167.453 118.522 167.335 118.425 167.217C118.282 167.045 118.147 166.879 118.012 166.7C118.01 166.697 118.007 166.694 118.004 166.691C118.002 166.688 118 166.684 117.998 166.681C117.87 166.523 117.742 166.351 117.615 166.186C117.078 165.451 116.578 164.701 116.108 163.915C116.105 163.908 116.1 163.901 116.096 163.894C116.092 163.888 116.088 163.882 116.085 163.875C116.011 163.751 115.932 163.628 115.866 163.504C115.761 163.315 115.656 163.134 115.558 162.946C115.556 162.944 115.555 162.941 115.554 162.939C115.551 162.934 115.549 162.929 115.546 162.925C115.342 162.547 115.146 162.161 114.957 161.77C114.867 161.588 114.777 161.392 114.701 161.211C114.7 161.209 114.699 161.206 114.698 161.204C114.629 161.059 114.568 160.922 114.507 160.777C114.507 160.775 114.506 160.774 114.505 160.772C114.445 160.636 114.392 160.508 114.339 160.372C114.286 160.251 114.233 160.137 114.188 160.016L114.186 160.013L114.184 160.007C114.108 159.803 114.032 159.605 113.957 159.402C113.904 159.265 113.851 159.114 113.806 158.97C113.805 158.968 113.805 158.967 113.805 158.966C113.659 158.546 113.521 158.126 113.392 157.698V157.69C113.308 157.423 113.247 157.155 113.17 156.881V156.878C113.11 156.665 113.056 156.452 113.002 156.231C112.98 156.124 112.957 156.017 112.934 155.911C112.881 155.689 112.834 155.46 112.797 155.23C112.751 155.031 112.72 154.833 112.682 154.627C112.567 153.954 112.475 153.274 112.414 152.587C112.392 152.335 112.369 152.076 112.354 151.824V151.823C112.338 151.54 112.323 151.25 112.308 150.952C112.39 147.793 112.829 144.654 113.614 141.593C113.614 141.586 113.614 141.578 113.629 141.563C113.851 140.883 114.095 140.219 114.37 139.561L114.378 139.554V139.539C114.388 139.515 114.397 139.492 114.408 139.469C114.498 139.163 114.599 138.863 114.694 138.56L114.712 138.507C115.392 136.354 116.256 134.264 117.293 132.258C117.435 131.983 117.584 131.713 117.732 131.441C117.809 131.3 117.884 131.156 117.963 131.015C118.036 130.886 118.113 130.761 118.187 130.632C118.38 130.297 118.574 129.963 118.779 129.634C118.782 129.632 118.784 129.631 118.787 129.628C122.231 124.049 126.977 119.391 132.616 116.055C138.255 112.719 144.619 110.805 151.16 110.477C151.203 110.474 151.247 110.473 151.291 110.471C151.469 110.462 151.646 110.454 151.824 110.448C151.936 110.444 152.049 110.442 152.161 110.439C152.273 110.436 152.383 110.432 152.494 110.43C152.636 110.428 152.779 110.427 152.922 110.426C152.992 110.426 153.061 110.424 153.132 110.423H153.176C153.203 110.423 153.231 110.423 153.259 110.423C153.36 110.423 153.461 110.427 153.561 110.43C153.622 110.432 153.682 110.434 153.741 110.436C153.788 110.438 153.836 110.439 153.884 110.44C154.003 110.442 154.122 110.444 154.24 110.447H154.269H154.298H154.302C155.792 110.481 157.278 110.601 158.754 110.808C159.231 110.874 159.706 110.948 160.178 111.03C160.214 111.037 160.25 111.042 160.285 111.05L160.362 111.063L160.47 111.082C161.232 111.22 162 111.383 162.764 111.568L162.809 111.58C162.92 111.607 163.031 111.634 163.142 111.662L163.255 111.691C163.346 111.715 163.436 111.738 163.527 111.761L163.664 111.798C163.749 111.821 163.834 111.844 163.918 111.867L164.026 111.897C164.123 111.924 164.219 111.95 164.315 111.977C164.323 111.98 164.331 111.982 164.339 111.984C165.103 112.203 165.856 112.442 166.583 112.697H166.585L166.59 112.699L166.61 112.705C166.624 112.71 166.637 112.716 166.652 112.72C166.654 112.721 166.657 112.722 166.66 112.723V112.723V107.494C166.658 107.493 166.654 107.491 166.652 107.49C166.634 107.483 166.617 107.476 166.599 107.467L166.586 107.461C166.46 107.4 166.333 107.341 166.206 107.282C166.11 107.237 166.015 107.192 165.917 107.149C165.837 107.112 165.757 107.075 165.675 107.039C165.599 107.004 165.52 106.969 165.443 106.934C165.096 106.781 164.747 106.631 164.395 106.485C164.324 106.455 164.252 106.425 164.18 106.396C164.112 106.368 164.043 106.34 163.973 106.312C163.776 106.232 163.578 106.154 163.379 106.077C163.307 106.049 163.236 106.021 163.164 105.994L162.959 105.916C162.949 105.913 162.94 105.909 162.932 105.906C162.832 105.868 162.733 105.831 162.634 105.795C162.334 105.685 162.033 105.577 161.73 105.473C161.647 105.444 161.564 105.415 161.48 105.388C161.397 105.36 161.31 105.33 161.224 105.302C161.139 105.274 161.05 105.245 160.962 105.215C160.784 105.157 160.606 105.1 160.427 105.044C160.291 105.002 160.155 104.96 160.017 104.919C159.949 104.898 159.88 104.877 159.811 104.857C159.745 104.838 159.679 104.817 159.612 104.798C159.342 104.719 159.071 104.643 158.799 104.568C158.695 104.539 158.591 104.512 158.487 104.484C158.387 104.458 158.287 104.431 158.187 104.406C158.102 104.383 158.016 104.362 157.931 104.34C157.812 104.31 157.695 104.281 157.576 104.252C157.299 104.184 157.02 104.119 156.741 104.057C156.629 104.031 156.516 104.006 156.403 103.982C156.396 103.98 156.389 103.979 156.382 103.978C156.305 103.96 156.23 103.945 156.153 103.929C156.088 103.914 156.022 103.9 155.956 103.887C155.85 103.865 155.743 103.843 155.637 103.823C155.547 103.803 155.457 103.787 155.367 103.769L155.298 103.756C155.209 103.739 155.119 103.722 155.031 103.706L154.962 103.693C154.867 103.675 154.77 103.658 154.673 103.641C154.58 103.624 154.487 103.608 154.393 103.592C154.26 103.569 154.126 103.546 153.992 103.525C153.895 103.509 153.799 103.494 153.703 103.479C153.607 103.463 153.511 103.449 153.416 103.435C153.186 103.4 152.956 103.368 152.725 103.337C152.633 103.324 152.54 103.311 152.447 103.3C152.354 103.288 152.257 103.276 152.162 103.264L152.011 103.245C151.921 103.234 151.831 103.224 151.741 103.214C151.723 103.211 151.705 103.21 151.687 103.208C151.486 103.185 151.284 103.164 151.082 103.144C150.974 103.133 150.866 103.123 150.757 103.113C150.643 103.102 150.53 103.092 150.417 103.083C150.311 103.074 150.205 103.065 150.099 103.057C149.985 103.048 149.868 103.039 149.753 103.031C149.658 103.024 149.56 103.018 149.464 103.012C149.338 103.004 149.212 102.996 149.086 102.99C148.974 102.983 148.863 102.977 148.751 102.972C148.66 102.968 148.569 102.963 148.478 102.959C148.439 102.957 148.399 102.956 148.36 102.955C148.267 102.95 148.174 102.947 148.08 102.944C148.002 102.941 147.924 102.938 147.846 102.936C147.787 102.934 147.728 102.932 147.668 102.931C147.58 102.928 147.493 102.926 147.406 102.925C147.293 102.922 147.18 102.92 147.068 102.919C146.955 102.917 146.842 102.915 146.729 102.915C146.617 102.914 146.504 102.914 146.391 102.914C120.373 102.913 99.3066 123.991 99.3066 150.004C99.3363 176.026 120.41 197.102 146.388 197.094C146.855 197.094 147.317 197.073 147.78 197.06C148.393 197.042 149.003 197.013 149.61 196.971C149.766 196.961 149.922 196.949 150.077 196.937C151.646 196.816 153.208 196.616 154.757 196.338C154.819 196.327 154.881 196.316 154.942 196.304C154.999 196.294 155.057 196.284 155.114 196.272C155.276 196.242 155.437 196.211 155.598 196.179C155.824 196.135 156.05 196.088 156.275 196.04C156.336 196.027 156.397 196.014 156.458 196.001C156.832 195.92 157.205 195.834 157.575 195.743C157.761 195.698 157.946 195.652 158.13 195.604C158.314 195.557 158.498 195.509 158.682 195.459C158.958 195.385 159.232 195.308 159.506 195.229C159.78 195.15 160.052 195.069 160.323 194.985C160.682 194.874 161.039 194.759 161.394 194.64C161.845 194.488 162.293 194.33 162.738 194.165C162.895 194.108 163.05 194.048 163.206 193.989C164.017 193.678 164.817 193.347 165.606 192.993C165.768 192.92 165.93 192.846 166.091 192.772C166.435 192.614 166.777 192.451 167.115 192.284C167.191 192.247 167.268 192.21 167.344 192.172C167.435 192.126 167.526 192.081 167.616 192.035C167.779 191.952 167.942 191.869 168.105 191.784C168.195 191.737 168.286 191.69 168.377 191.642C168.536 191.557 168.695 191.472 168.853 191.385C169.098 191.252 169.343 191.117 169.586 190.979C169.747 190.887 169.908 190.794 170.069 190.7C170.075 190.697 170.08 190.694 170.085 190.691C170.401 190.507 170.714 190.319 171.025 190.127C171.03 190.124 171.036 190.121 171.041 190.118C171.194 190.024 171.346 189.929 171.497 189.833C171.732 189.684 171.966 189.534 172.199 189.381C172.205 189.378 172.211 189.374 172.216 189.37C172.366 189.271 172.516 189.171 172.665 189.07C172.698 189.048 172.73 189.027 172.763 189.005C172.807 188.975 172.851 188.944 172.896 188.913C172.947 188.879 172.997 188.844 173.047 188.809C173.133 188.75 173.219 188.692 173.305 188.632L173.572 188.443C173.608 188.418 173.643 188.392 173.678 188.366L173.716 188.338C173.8 188.279 173.883 188.219 173.966 188.158L174.009 188.128C174.041 188.104 174.073 188.081 174.105 188.058C174.19 187.996 174.274 187.934 174.359 187.872L174.37 187.864C174.546 187.733 174.721 187.602 174.895 187.469L174.914 187.454C174.994 187.393 175.074 187.331 175.154 187.269C175.181 187.248 175.208 187.227 175.235 187.206L175.263 187.183C175.394 187.081 175.525 186.979 175.655 186.875C175.666 186.867 175.677 186.858 175.688 186.849C175.741 186.807 175.795 186.765 175.848 186.722L175.86 186.712C176.052 186.557 176.244 186.401 176.433 186.244C176.44 186.239 176.446 186.234 176.452 186.228C176.588 186.116 176.723 186.002 176.858 185.887C176.865 185.882 176.871 185.877 176.877 185.871C177.011 185.757 177.145 185.642 177.279 185.525C177.419 185.405 177.557 185.283 177.695 185.159C177.764 185.098 177.833 185.036 177.901 184.974C178.038 184.851 178.175 184.726 178.31 184.6C178.317 184.594 178.323 184.589 178.329 184.582C178.594 184.337 178.856 184.089 179.115 183.839C179.247 183.711 179.379 183.582 179.511 183.451C179.576 183.387 179.642 183.322 179.707 183.256C179.772 183.189 179.837 183.124 179.902 183.059C179.974 182.987 180.045 182.914 180.116 182.841L180.12 182.837C180.139 182.818 180.157 182.799 180.175 182.78C180.176 182.778 180.177 182.777 180.178 182.776C180.973 181.956 181.737 181.109 182.471 180.233C182.529 180.165 182.586 180.096 182.643 180.026C182.71 179.945 182.777 179.864 182.843 179.783C182.898 179.715 182.953 179.647 183.008 179.579C183.142 179.414 183.273 179.249 183.404 179.083C183.439 179.038 183.475 178.992 183.511 178.946C183.787 178.592 184.058 178.234 184.324 177.872C184.377 177.799 184.431 177.727 184.483 177.654C185.06 176.86 185.612 176.048 186.139 175.217C186.188 175.14 186.236 175.064 186.284 174.987C186.479 174.675 186.671 174.361 186.859 174.045C186.948 173.896 187.036 173.746 187.123 173.595C187.26 173.359 187.395 173.122 187.527 172.884C187.615 172.726 187.702 172.567 187.789 172.407C187.791 172.403 187.793 172.4 187.795 172.396C187.866 172.266 187.936 172.135 188.005 172.004C188.063 171.895 188.12 171.786 188.177 171.677C188.196 171.64 188.215 171.603 188.233 171.566L188.26 171.513L188.363 171.313L188.389 171.262L188.41 171.22L188.416 171.207C188.422 171.197 188.427 171.186 188.433 171.175C188.462 171.118 188.49 171.059 188.52 171.001C188.505 171.029 188.491 171.058 188.476 171.086C188.489 171.062 188.501 171.038 188.513 171.014L188.525 170.99L188.533 170.973C188.547 170.946 188.56 170.918 188.574 170.891C188.563 170.912 188.553 170.934 188.542 170.956C188.542 170.958 188.541 170.958 188.541 170.959C188.567 170.907 188.593 170.853 188.619 170.801C188.648 170.743 188.676 170.684 188.704 170.626C188.864 170.302 189.021 169.975 189.172 169.647C189.2 169.587 189.228 169.527 189.255 169.467H189.253C189.315 169.334 189.376 169.201 189.436 169.068C189.45 169.036 189.464 169.004 189.479 168.972C189.565 168.777 189.651 168.581 189.735 168.385C191.178 165.009 192.218 161.475 192.836 157.855C192.992 156.939 193.122 156.014 193.225 155.08C193.239 154.943 193.254 154.807 193.268 154.67L193.362 153.845C193.394 153.369 193.419 152.891 193.44 152.411C193.454 152.111 193.466 151.809 193.476 151.508C193.476 151.486 193.477 151.464 193.477 151.441C193.479 151.398 193.481 151.354 193.483 151.312C193.492 150.998 193.499 150.685 193.5 150.371C193.508 150.272 193.508 150.172 193.508 150.073L193.461 142.497ZM188.807 170.418L188.787 170.461L188.78 170.474L188.783 170.469C188.821 170.39 188.858 170.311 188.896 170.231C188.866 170.293 188.837 170.355 188.807 170.418ZM192.209 160.813C192.277 160.524 192.342 160.233 192.405 159.942C192.342 160.234 192.277 160.524 192.209 160.813ZM192.806 157.854C192.785 157.98 192.763 158.106 192.74 158.232C192.762 158.106 192.784 157.98 192.805 157.854C192.814 157.807 192.822 157.76 192.83 157.713C192.822 157.76 192.814 157.807 192.806 157.854Z"
              fill="url(#paint9_linear)"/>
        <path d="M114.818 138.562L114.805 138.592L114.817 138.566L114.818 138.562Z" fill="url(#paint10_linear)"/>
        <path d="M201.068 166.805C201.068 165.503 201.02 164.218 200.924 162.95L193.578 142.674L193.556 142.612L193.462 142.459L193.51 150.072C193.51 150.172 193.51 150.271 193.502 150.371C193.501 150.685 193.494 150.998 193.485 151.311C193.483 151.354 193.481 151.397 193.48 151.44C193.48 151.463 193.48 151.485 193.478 151.508C193.469 151.809 193.457 152.11 193.443 152.411C193.421 152.89 193.396 153.368 193.364 153.845C193.331 154.347 193.291 154.847 193.242 155.344C193.236 155.374 193.233 155.405 193.234 155.436C193.152 156.25 193.051 157.057 192.931 157.859C192.361 161.7 191.377 165.468 189.996 169.096V169.098C189.48 170.456 188.911 171.787 188.289 173.091C188.081 173.527 187.868 173.96 187.649 174.389C187.396 174.887 187.136 175.38 186.869 175.868C186.591 176.376 186.306 176.878 186.013 177.375C185.475 178.287 184.912 179.18 184.323 180.056C184.024 180.502 183.718 180.942 183.405 181.378C182.599 182.505 181.751 183.599 180.862 184.66L180.859 184.664C182.686 189.709 184.437 194.545 186.133 199.227C190.337 196.718 193.944 192.526 196.56 187.224V187.223V187.222L196.562 187.218C199.397 181.471 201.068 174.422 201.068 166.805Z"
              fill="url(#paint11_radial)"/>
        <path d="M166.659 107.494V112.724C166.656 112.724 166.653 112.723 166.651 112.721C166.636 112.717 166.623 112.712 166.609 112.707L166.589 112.7L166.584 112.698H166.582C165.855 112.443 165.103 112.204 164.338 111.986L164.314 111.979C164.218 111.952 164.122 111.925 164.025 111.899C163.99 111.888 163.954 111.878 163.918 111.869C163.833 111.845 163.748 111.823 163.664 111.8L163.526 111.763C163.436 111.739 163.345 111.716 163.255 111.693C163.216 111.683 163.179 111.674 163.141 111.664C163.03 111.636 162.919 111.608 162.809 111.581L162.763 111.57C161.998 111.384 161.231 111.221 160.469 111.084C160.433 111.077 160.397 111.071 160.361 111.065C160.336 111.06 160.31 111.055 160.284 111.051L160.178 111.032C159.705 110.95 159.23 110.876 158.753 110.81C157.277 110.603 155.791 110.482 154.301 110.448H154.297C154.287 110.448 154.278 110.448 154.268 110.448C154.258 110.448 154.249 110.448 154.239 110.448C154.12 110.446 154.002 110.443 153.883 110.441C153.835 110.441 153.787 110.439 153.739 110.438C153.682 110.435 153.621 110.433 153.56 110.432C153.46 110.428 153.359 110.424 153.258 110.424C153.23 110.424 153.203 110.426 153.174 110.426C153.16 110.426 153.146 110.426 153.131 110.426C153.061 110.426 152.991 110.428 152.921 110.428C152.778 110.429 152.636 110.431 152.493 110.433C152.382 110.435 152.271 110.439 152.16 110.442C152.049 110.445 151.935 110.447 151.823 110.451C151.645 110.457 151.467 110.465 151.29 110.474L151.158 110.479C148.334 110.622 145.532 111.059 142.799 111.786V103.048C143.983 102.959 145.179 102.914 146.387 102.914C146.501 102.914 146.614 102.914 146.726 102.916C146.839 102.917 146.952 102.917 147.065 102.919C147.177 102.921 147.29 102.923 147.403 102.925L147.665 102.932C147.724 102.933 147.784 102.935 147.843 102.937C147.921 102.939 147.999 102.941 148.077 102.945C148.17 102.947 148.264 102.951 148.357 102.955C148.396 102.957 148.436 102.958 148.475 102.96C148.566 102.964 148.657 102.968 148.747 102.973C148.86 102.978 148.971 102.984 149.083 102.991C149.209 102.997 149.335 103.005 149.461 103.013C149.556 103.019 149.654 103.026 149.75 103.032C149.865 103.04 149.981 103.049 150.096 103.058C150.202 103.066 150.308 103.074 150.413 103.084C150.527 103.094 150.64 103.103 150.753 103.114C150.862 103.124 150.97 103.134 151.078 103.145C151.28 103.165 151.482 103.186 151.684 103.209C151.701 103.211 151.719 103.212 151.737 103.216C151.827 103.225 151.917 103.236 152.007 103.246L152.158 103.265C152.254 103.278 152.348 103.289 152.443 103.301C152.537 103.313 152.629 103.325 152.721 103.338C152.952 103.368 153.183 103.401 153.412 103.436C153.508 103.45 153.603 103.464 153.699 103.48C153.794 103.495 153.891 103.51 153.988 103.526C154.122 103.547 154.256 103.57 154.39 103.593C154.484 103.608 154.577 103.625 154.67 103.642C154.767 103.659 154.863 103.676 154.959 103.694L155.028 103.706C155.117 103.723 155.207 103.74 155.295 103.757L155.364 103.77C155.454 103.788 155.544 103.805 155.633 103.823C155.74 103.844 155.847 103.866 155.953 103.889C156.019 103.901 156.084 103.915 156.15 103.93C156.226 103.945 156.303 103.962 156.378 103.979C156.386 103.98 156.393 103.981 156.4 103.983C156.513 104.008 156.625 104.032 156.738 104.058C157.017 104.12 157.295 104.185 157.573 104.253C157.691 104.282 157.809 104.311 157.927 104.341C158.013 104.363 158.099 104.384 158.184 104.407C158.284 104.432 158.384 104.458 158.484 104.485C158.588 104.513 158.692 104.541 158.796 104.569C159.068 104.644 159.339 104.72 159.609 104.799C159.676 104.818 159.742 104.837 159.808 104.858C159.877 104.878 159.946 104.899 160.014 104.92C160.152 104.961 160.287 105.003 160.424 105.046C160.603 105.101 160.781 105.158 160.959 105.217C161.046 105.245 161.134 105.274 161.221 105.303C161.308 105.332 161.392 105.359 161.477 105.389C161.562 105.418 161.644 105.445 161.727 105.474C162.03 105.578 162.331 105.686 162.631 105.796C162.73 105.832 162.829 105.87 162.929 105.907C162.937 105.91 162.946 105.914 162.956 105.918C163.024 105.943 163.092 105.969 163.161 105.995C163.233 106.022 163.304 106.051 163.376 106.078C163.575 106.155 163.773 106.233 163.97 106.313C164.039 106.342 164.109 106.369 164.177 106.397C164.249 106.426 164.321 106.455 164.392 106.486C164.743 106.631 165.093 106.781 165.439 106.935C165.517 106.97 165.595 107.005 165.672 107.04C165.753 107.076 165.834 107.112 165.914 107.15C166.011 107.194 166.107 107.238 166.203 107.284C166.33 107.343 166.457 107.402 166.583 107.463C166.587 107.465 166.592 107.467 166.596 107.469C166.613 107.477 166.631 107.485 166.649 107.492L166.659 107.494Z"
              fill="url(#paint12_linear)"/>
        <path d="M166.66 103.341V107.494L166.652 107.489C166.635 107.482 166.617 107.475 166.6 107.466C166.595 107.464 166.591 107.462 166.586 107.461C166.46 107.4 166.333 107.34 166.206 107.281C166.111 107.236 166.015 107.192 165.918 107.147C165.838 107.11 165.757 107.073 165.676 107.037C165.599 107.002 165.521 106.968 165.443 106.932C165.096 106.779 164.747 106.629 164.395 106.483C164.324 106.453 164.253 106.423 164.181 106.395C164.112 106.366 164.043 106.339 163.974 106.311C163.776 106.23 163.578 106.153 163.379 106.076C163.308 106.048 163.236 106.02 163.164 105.992C163.096 105.966 163.027 105.94 162.959 105.915C162.95 105.911 162.94 105.907 162.932 105.905C162.833 105.867 162.734 105.829 162.634 105.793C162.335 105.683 162.033 105.576 161.73 105.471C161.647 105.443 161.564 105.414 161.481 105.386C161.396 105.356 161.311 105.329 161.225 105.3C161.139 105.271 161.051 105.243 160.963 105.214C160.785 105.155 160.606 105.098 160.428 105.043C160.292 105 160.156 104.958 160.019 104.917C159.95 104.896 159.881 104.876 159.812 104.856C159.746 104.835 159.68 104.815 159.613 104.797C159.343 104.718 159.073 104.641 158.801 104.567C158.696 104.538 158.592 104.511 158.488 104.483C158.388 104.456 158.288 104.429 158.188 104.404C158.103 104.381 158.017 104.36 157.932 104.339C157.814 104.309 157.696 104.279 157.577 104.25C157.3 104.182 157.021 104.118 156.742 104.055C156.63 104.029 156.517 104.005 156.404 103.98C156.397 103.978 156.39 103.977 156.383 103.976C156.306 103.959 156.23 103.943 156.154 103.927C156.089 103.913 156.023 103.899 155.958 103.886C155.851 103.863 155.744 103.842 155.638 103.821C155.548 103.802 155.458 103.785 155.368 103.768C155.345 103.763 155.323 103.759 155.3 103.755C155.21 103.737 155.121 103.72 155.032 103.704C155.009 103.699 154.987 103.695 154.963 103.691C154.868 103.674 154.771 103.656 154.674 103.639C154.581 103.622 154.488 103.606 154.395 103.59C154.261 103.567 154.127 103.544 153.992 103.523L153.703 103.477C153.607 103.462 153.512 103.447 153.416 103.433C153.187 103.399 152.957 103.366 152.726 103.335C152.633 103.322 152.54 103.31 152.447 103.298C152.354 103.286 152.258 103.275 152.163 103.262C152.112 103.257 152.062 103.25 152.011 103.245C152.005 103.245 151.998 103.243 151.992 103.242V97.4601C152.801 97.6516 153.602 97.8613 154.396 98.0893C158.686 99.3219 162.806 101.086 166.66 103.341V103.341Z"
              fill="url(#paint13_linear)"/>
        <path d="M166.659 110.038V150.004C166.665 153.807 165.885 157.571 164.37 161.059L164.36 161.08C164.36 161.084 164.358 161.088 164.356 161.091L164.301 161.214L163.939 161.993C163.841 162.196 163.751 162.403 163.65 162.602C163.639 162.616 163.629 162.632 163.619 162.647C163.505 162.87 163.39 163.09 163.269 163.304C163.089 163.632 162.894 163.948 162.702 164.265C162.524 164.553 162.342 164.836 162.153 165.115C158.499 170.561 153.008 174.505 146.687 176.226C146.627 176.243 146.568 176.262 146.509 176.279C146.436 176.298 146.361 176.312 146.289 176.331C144.843 176.701 143.369 176.951 141.882 177.079L141.777 177.085L141.652 177.097L141.88 177.089L142.269 177.078C148.258 176.706 154.061 174.845 159.153 171.664C164.244 168.482 168.464 164.08 171.431 158.855H171.433V158.853C174.528 153.419 176.152 147.269 176.146 141.013V96H166.659V110.038Z"
              fill="url(#paint14_linear)"/>
        <path d="M188.515 171.015L188.479 171.087C188.493 171.058 188.507 171.03 188.522 171.002L188.527 170.991C188.523 170.999 188.519 171.006 188.515 171.015Z"
              fill="url(#paint15_linear)"/>
        <path d="M188.236 171.566C188.217 171.603 188.199 171.64 188.18 171.677C188.213 171.612 188.246 171.548 188.279 171.483L188.291 171.459C188.302 171.438 188.312 171.417 188.323 171.397C188.337 171.369 188.351 171.341 188.365 171.313L188.263 171.513C188.254 171.531 188.245 171.548 188.236 171.566Z"
              fill="url(#paint16_linear)"/>
    </g>
    <defs>
        <filter id="filter0_d" x="0.482422" y="0" width="300" height="300" filterUnits="userSpaceOnUse"
                color-interpolation-filters="sRGB">
            <feFlood flood-opacity="0" result="BackgroundImageFix"/>
            <feColorMatrix in="SourceAlpha" type="matrix" values="0 0 0 0 0 0 0 0 0 0 0 0 0 0 0 0 0 0 127 0"
                           result="hardAlpha"/>
            <feOffset dy="4"/>
            <feGaussianBlur stdDeviation="10"/>
            <feComposite in2="hardAlpha" operator="out"/>
            <feColorMatrix type="matrix" values="0 0 0 0 0.5 0 0 0 0 1 0 0 0 0 0.625065 0 0 0 0.5 0"/>
            <feBlend mode="normal" in2="BackgroundImageFix" result="effect1_dropShadow"/>
            <feBlend mode="normal" in="SourceGraphic" in2="effect1_dropShadow" result="shape"/>
        </filter>
        <linearGradient id="paint0_linear" x1="84.2079" y1="38.9412" x2="359.566" y2="393"
                        gradientUnits="userSpaceOnUse">
            <stop offset="0.0337936" stop-color="white"/>
            <stop offset="1" stop-color="#80FF9F"/>
        </linearGradient>
        <linearGradient id="paint1_linear" x1="137.131" y1="119.133" x2="177.527" y2="202.019"
                        gradientUnits="userSpaceOnUse">
            <stop stop-color="#7CEA57"/>
            <stop offset="0.978" stop-color="#C9FFA9"/>
        </linearGradient>
        <linearGradient id="paint2_linear" x1="180.233" y1="178.823" x2="127.632" y2="115.471"
                        gradientUnits="userSpaceOnUse">
            <stop stop-color="#94F8A5"/>
            <stop offset="1" stop-color="#00B818"/>
        </linearGradient>
        <linearGradient id="paint3_linear" x1="139.636" y1="125.104" x2="167.961" y2="125.754"
                        gradientUnits="userSpaceOnUse">
            <stop offset="0.725" stop-color="#00D228" stop-opacity="0"/>
            <stop offset="1" stop-color="#00B322" stop-opacity="0.55"/>
        </linearGradient>
        <linearGradient id="paint4_linear" x1="13976.6" y1="-8478.33" x2="22347" y2="-8478.33"
                        gradientUnits="userSpaceOnUse">
            <stop offset="0.725" stop-color="#00D228" stop-opacity="0"/>
            <stop offset="1" stop-color="#00B322" stop-opacity="0.55"/>
        </linearGradient>
        <linearGradient id="paint5_linear" x1="177.818" y1="163.886" x2="195.125" y2="198.893"
                        gradientUnits="userSpaceOnUse">
            <stop offset="0.311" stop-color="#17D23B"/>
            <stop offset="1" stop-color="#7CEA57"/>
        </linearGradient>
        <linearGradient id="paint6_linear" x1="13446.8" y1="-15720.8" x2="29117.9" y2="1998.75"
                        gradientUnits="userSpaceOnUse">
            <stop stop-color="#7CEA57"/>
            <stop offset="0.978" stop-color="#C9FFA9"/>
        </linearGradient>
        <linearGradient id="paint7_linear" x1="117.114" y1="191.88" x2="161.29" y2="109.388"
                        gradientUnits="userSpaceOnUse">
            <stop stop-color="#17D23B"/>
            <stop offset="1" stop-color="#7CEA57"/>
        </linearGradient>
        <linearGradient id="paint8_linear" x1="152.096" y1="213.818" x2="218.326" y2="136.263"
                        gradientUnits="userSpaceOnUse">
            <stop offset="0.062" stop-color="#7CEA57"/>
            <stop offset="1" stop-color="#C9FFA9"/>
        </linearGradient>
        <linearGradient id="paint9_linear" x1="16185.1" y1="-665.947" x2="51453.4" y2="-39209.5"
                        gradientUnits="userSpaceOnUse">
            <stop offset="0.062" stop-color="#7CEA57"/>
            <stop offset="1" stop-color="#C9FFA9"/>
        </linearGradient>
        <linearGradient id="paint10_linear" x1="115.416" y1="135.132" x2="124.052" y2="130.621"
                        gradientUnits="userSpaceOnUse">
            <stop offset="0.062" stop-color="#7CEA57"/>
            <stop offset="1" stop-color="#C9FFA9"/>
        </linearGradient>
        <radialGradient id="paint11_radial" cx="0" cy="0" r="1" gradientUnits="userSpaceOnUse"
                        gradientTransform="translate(187.756 169.438) rotate(22.2698) scale(18.1564 69.9469)">
            <stop stop-color="#00B322" stop-opacity="0.25"/>
            <stop offset="0.438" stop-color="#00D228" stop-opacity="0"/>
        </radialGradient>
        <linearGradient id="paint12_linear" x1="156.879" y1="107.885" x2="167.543" y2="108.37"
                        gradientUnits="userSpaceOnUse">
            <stop offset="0.624" stop-color="#00D228" stop-opacity="0"/>
            <stop offset="1" stop-color="#00B322" stop-opacity="0.15"/>
        </linearGradient>
        <linearGradient id="paint13_linear" x1="5975.79" y1="-4256.01" x2="6444.35" y2="-4235.25"
                        gradientUnits="userSpaceOnUse">
            <stop offset="0.624" stop-color="#00D228" stop-opacity="0"/>
            <stop offset="1" stop-color="#00B322" stop-opacity="0.15"/>
        </linearGradient>
        <linearGradient id="paint14_linear" x1="13078.2" y1="-2661.04" x2="23576.1" y2="-35645.6"
                        gradientUnits="userSpaceOnUse">
            <stop stop-color="#17D23B"/>
            <stop offset="1" stop-color="#7CEA57"/>
        </linearGradient>
        <linearGradient id="paint15_linear" x1="214.755" y1="163.736" x2="214.768" y2="163.688"
                        gradientUnits="userSpaceOnUse">
            <stop stop-color="#17D23B"/>
            <stop offset="1" stop-color="#7CEA57"/>
        </linearGradient>
        <linearGradient id="paint16_linear" x1="288.651" y1="144.903" x2="288.834" y2="144.214"
                        gradientUnits="userSpaceOnUse">
            <stop stop-color="#17D23B"/>
            <stop offset="1" stop-color="#7CEA57"/>
        </linearGradient>
        <clipPath id="clip0">
            <rect width="130" height="108" fill="white" transform="translate(85.4824 96)"/>
        </clipPath>
    </defs>
</svg>
