<svg width="24" height="20" fill="none" xmlns="http://www.w3.org/2000/svg"><path fill-rule="evenodd" clip-rule="evenodd" d="M1.199 20c-.446 0-.855-.23-1.062-.598a1.055 1.055 0 0 1 .075-1.155c2.6-3.47 6.914-5.747 11.792-5.747 4.879 0 9.192 2.276 11.786 5.752.25.34.28.78.073 1.146a1.203 1.203 0 0 1-1.053.594c-.009.008-.017.008-.025.008-.372 0-.72-.173-.928-.46-2.158-2.918-5.768-4.83-9.853-4.83s-7.695 1.912-9.857 4.826a1.136 1.136 0 0 1-.923.459C1.216 20 1.207 20 1.2 20ZM12 0C9.032 0 6.621 2.427 6.621 5.417c0 2.99 2.41 5.416 5.38 5.416 2.968 0 5.379-2.427 5.379-5.416C17.38 2.427 14.97 0 12 0Zm0 2.38c1.665 0 3.016 1.36 3.016 3.037 0 1.676-1.351 3.036-3.016 3.036-1.664 0-3.015-1.36-3.015-3.036S10.335 2.38 12 2.38Z" fill="#5E2CE6" fill-opacity=".8"/></svg>