<svg width="25" height="20" fill="none" xmlns="http://www.w3.org/2000/svg"><path fill-rule="evenodd" clip-rule="evenodd" d="M1.681 20c-.445 0-.854-.23-1.061-.598a1.055 1.055 0 0 1 .074-1.155c2.6-3.47 6.914-5.747 11.793-5.747s9.192 2.276 11.785 5.752c.251.34.28.78.074 1.146a1.203 1.203 0 0 1-1.054.594c-.008.008-.017.008-.025.008-.372 0-.72-.173-.927-.46-2.158-2.918-5.768-4.83-9.853-4.83s-7.695 1.912-9.857 4.826a1.136 1.136 0 0 1-.923.459C1.698 20 1.69 20 1.68 20ZM12.483 0c-2.969 0-5.38 2.427-5.38 5.417 0 2.99 2.411 5.416 5.38 5.416s5.38-2.427 5.38-5.416c0-2.99-2.411-5.417-5.38-5.417Zm0 2.38c1.664 0 3.015 1.36 3.015 3.037 0 1.676-1.351 3.036-3.015 3.036-1.665 0-3.016-1.36-3.016-3.036s1.351-3.037 3.016-3.037Z" fill="#A2A2A4"/></svg>