<svg width="21" height="22" fill="none" xmlns="http://www.w3.org/2000/svg"><path d="m19.488 14.51-3.81-1.96a2.084 2.084 0 0 0-2.586.57l-.964 1.231a12.317 12.317 0 0 1-2.79-2.16l-.002-.001a12.714 12.714 0 0 1-2.189-2.857l1.234-.962a2.099 2.099 0 0 0 .572-2.58V5.79L6.987 2.01A2.063 2.063 0 0 0 5.67.968a2.08 2.08 0 0 0-1.665.272v.001L1.59 2.847A2.717 2.717 0 0 0 .386 5.274v.002c.071.993.166 1.756.31 2.31.74 2.854 2.502 5.774 4.973 8.241 2.472 2.467 5.397 4.225 8.257 4.963.554.144 1.343.239 2.314.31h.172c.91 0 1.77-.466 2.262-1.227l1.585-2.432a2.02 2.02 0 0 0 .25-1.64 2.04 2.04 0 0 0-1.02-1.29Zm-.574 2.058-.005.008-1.585 2.432a1.11 1.11 0 0 1-.977.499c-.873-.048-1.575-.142-2.015-.257-2.56-.656-5.242-2.275-7.504-4.556-2.285-2.282-3.884-4.936-4.565-7.49-.116-.44-.21-1.14-.257-2.011a1.083 1.083 0 0 1 .476-.975l2.412-1.605a.473.473 0 0 1 .254-.079c.05 0 .074.002.097.014l.01.004.01.003a.44.44 0 0 1 .29.231l.001.002L7.52 6.566a.476.476 0 0 1-.116.563L5.158 8.875l-.067.052.04.075.284.518c.737 1.376 1.452 2.496 2.81 3.827 1.31 1.308 2.455 2.045 3.786 2.757l.52.283.075.04.052-.066 1.775-2.267a.447.447 0 0 1 .563-.114l3.809 1.96a.436.436 0 0 1 .227.272c-.024.14-.047.267-.118.356Z" fill="#A2A2A4" stroke="#A2A2A4" stroke-width=".2"/></svg>