<svg width="29" height="28" fill="none" xmlns="http://www.w3.org/2000/svg"><path d="m27.026 19.038-5.334-2.744a2.778 2.778 0 0 0-3.446.76l-1.425 1.82c-1.391-.794-2.65-1.687-4.042-3.11-1.458-1.454-2.319-2.678-3.147-4.133l1.822-1.422a2.798 2.798 0 0 0 .762-3.439l-2.75-5.29A2.748 2.748 0 0 0 7.71.09a2.77 2.77 0 0 0-2.22.364L2.11 2.703C1.019 3.43.422 4.653.488 5.976c.1 1.39.232 2.447.431 3.208 1.027 3.968 3.479 8.036 6.925 11.475 3.445 3.439 7.52 5.886 11.496 6.911.762.198 1.856.33 3.214.43h.232a3.646 3.646 0 0 0 3.048-1.653l2.22-3.407c.43-.66.53-1.455.331-2.182-.199-.727-.662-1.356-1.358-1.72Zm-.63 2.844-2.22 3.406a1.689 1.689 0 0 1-1.49.761c-1.226-.066-2.22-.198-2.85-.364-3.611-.926-7.388-3.207-10.569-6.415-3.213-3.208-5.466-6.944-6.427-10.55-.166-.628-.298-1.62-.365-2.844a1.656 1.656 0 0 1 .73-1.488L6.583 2.14a.803.803 0 0 1 .43-.132.42.42 0 0 1 .2.033.76.76 0 0 1 .496.397l2.75 5.291a.806.806 0 0 1-.199.959l-3.147 2.447.397.728c1.027 1.918 2.021 3.472 3.91 5.324 1.822 1.818 3.412 2.843 5.268 3.836l.729.396 2.485-3.174c.231-.298.629-.364.96-.199l5.335 2.745c.198.1.33.265.397.496-.033.198-.066.43-.199.595Z" fill="#7CEA57"/></svg>