<svg width="22" height="22" fill="none" xmlns="http://www.w3.org/2000/svg"><path d="m19.96 14.599-3.81-1.96a1.984 1.984 0 0 0-2.462.543l-1.017 1.299a12.458 12.458 0 0 1-2.888-2.22 12.862 12.862 0 0 1-2.248-2.953l1.302-1.016c.733-.59.97-1.606.544-2.456l-1.964-3.78c-.26-.496-.71-.85-1.254-.992a1.98 1.98 0 0 0-1.586.26L2.163 2.93a2.618 2.618 0 0 0-1.16 2.339c.072.992.166 1.748.308 2.291.734 2.835 2.485 5.74 4.946 8.196 2.462 2.457 5.372 4.205 8.212 4.937.545.142 1.325.236 2.296.307h.165c.876 0 1.704-.449 2.178-1.181l1.585-2.433a1.92 1.92 0 0 0 .237-1.559 1.94 1.94 0 0 0-.97-1.228Zm-.45 2.031-1.586 2.433a1.206 1.206 0 0 1-1.065.543c-.875-.047-1.585-.141-2.035-.26-2.58-.66-5.277-2.29-7.55-4.582-2.295-2.29-3.904-4.96-4.59-7.535-.119-.448-.213-1.157-.26-2.031a1.183 1.183 0 0 1 .52-1.063L5.358 2.53a.574.574 0 0 1 .308-.095.3.3 0 0 1 .142.024c.094.024.26.095.355.283l1.964 3.78a.576.576 0 0 1-.142.685L5.737 8.954l.284.52c.733 1.37 1.443 2.48 2.792 3.802 1.302 1.3 2.438 2.031 3.763 2.74l.52.284 1.775-2.268a.547.547 0 0 1 .687-.142l3.81 1.96c.142.072.237.19.284.355-.024.142-.047.307-.142.425Z" fill="#5E2CE6" fill-opacity=".8"/><path d="m20.006 14.51-3.81-1.96a2.084 2.084 0 0 0-2.587.57l-.964 1.231a12.317 12.317 0 0 1-2.79-2.16v-.001a12.714 12.714 0 0 1-2.19-2.857l1.233-.962H8.9a2.099 2.099 0 0 0 .57-2.58V5.79L7.506 2.01A2.063 2.063 0 0 0 6.187.968a2.08 2.08 0 0 0-1.665.272l-.001.001-2.414 1.606C1.296 3.387.855 4.295.904 5.274v.002c.07.993.166 1.756.31 2.31.74 2.854 2.501 5.774 4.973 8.241 2.471 2.467 5.397 4.225 8.257 4.963.554.144 1.342.239 2.313.31h.173c.91 0 1.77-.466 2.262-1.227l1.585-2.432a2.02 2.02 0 0 0 .25-1.64 2.04 2.04 0 0 0-1.021-1.29Zm-.574 2.058-.006.008-1.585 2.432a1.11 1.11 0 0 1-.976.499c-.873-.048-1.575-.142-2.015-.257h-.001c-2.559-.656-5.241-2.275-7.503-4.556C5.06 12.412 3.46 9.758 2.78 7.204c-.115-.44-.21-1.14-.257-2.011A1.083 1.083 0 0 1 3 4.217l2.41-1.604a.473.473 0 0 1 .255-.079c.05 0 .074.002.097.014l.01.004.01.003c.079.02.213.078.29.231v.002l1.965 3.778a.476.476 0 0 1-.117.563L5.675 8.875l-.067.052.04.075.284.518c.737 1.376 1.453 2.496 2.81 3.827 1.311 1.308 2.455 2.045 3.786 2.757l.52.283.075.04.052-.066 1.775-2.267a.447.447 0 0 1 .563-.114l3.81 1.96a.436.436 0 0 1 .226.272c-.023.14-.046.267-.117.356Z" stroke="#5E2CE6" stroke-opacity=".8" stroke-width=".2"/></svg>