<svg width="25" height="22" fill="none" xmlns="http://www.w3.org/2000/svg"><path d="M19.44 4.365C16.052 2.392 12.45 2.074 8.707 3.02c-1.979.5-3.744 1.416-5.136 2.962-1.283 1.426-1.876 3.083-1.464 5.012.339 1.587 1.314 2.758 2.553 3.758.268.215.477.409.546.662.07.26-.018.527-.167.845l-.18-.084L19.44 4.365Zm0 0 .003.001m-.003-.001.003.001m0 0a7.635 7.635 0 0 1 2.524 2.307c1.581 2.328 1.372 5.015-.556 7.105-1.547 1.675-3.5 2.588-5.678 3.087a14.565 14.565 0 0 1-6.175.06 1.379 1.379 0 0 0-1.073.208c-1.58.97-3.21 1.796-4.975 2.296M19.443 4.366 3.51 19.43m0 0c-.006 0-.012.002-.019.004l.383-.774-.364.77Zm9.03-.443.023.002.022-.002c.293-.034.587-.062.881-.09.654-.064 1.31-.127 1.95-.249 2.697-.5 5.147-1.581 7.109-3.647 2.676-2.81 2.887-6.654.498-9.688-1.175-1.492-2.683-2.53-4.387-3.256C15.501.72 12.255.474 8.956 1.204c-2.638.584-5.018 1.747-6.834 3.902C.625 6.874-.038 8.928.432 11.277c.365 1.823 1.355 3.269 2.715 4.437.12.102.156.168.166.213.009.039.005.102-.063.225-.175.31-.344.619-.512.927-.275.502-.548 1-.839 1.493-.59.995-.25 2.24.857 2.563l.007.002a2.02 2.02 0 0 0 1.058-.015c1.839-.515 3.537-1.355 5.182-2.296a1.34 1.34 0 0 1 .723-.13h.005c.682.051 1.364.128 2.044.205.256.029.51.058.766.085Z" fill="#A2A2A4" stroke="#A2A2A4" stroke-width=".4"/></svg>