<svg width="26" height="22" fill="none" xmlns="http://www.w3.org/2000/svg"><path d="M13.08 18.787c-.93-.1-1.873-.219-2.816-.29a1.54 1.54 0 0 0-.838.152c-1.64.939-3.324 1.771-5.142 2.28a1.83 1.83 0 0 1-.954.015c-.955-.28-1.28-1.361-.74-2.27.469-.796.898-1.618 1.352-2.425.16-.285.113-.463-.147-.687-1.334-1.145-2.295-2.554-2.65-4.324-.457-2.282.184-4.275 1.647-6.002 1.78-2.114 4.117-3.26 6.725-3.837 3.26-.722 6.463-.478 9.559.841 1.678.715 3.157 1.735 4.307 3.195 2.326 2.955 2.123 6.688-.486 9.427-1.926 2.028-4.334 3.095-7.001 3.589-.92.175-1.859.226-2.816.336Zm-9.415.891c.138-.008.276-.026.41-.055 1.793-.507 3.445-1.345 5.036-2.322a1.195 1.195 0 0 1 .923-.18c2.068.428 4.2.407 6.26-.061 2.205-.505 4.2-1.433 5.781-3.147 1.99-2.157 2.21-4.947.575-7.353a7.834 7.834 0 0 0-2.591-2.368c-3.44-2.003-7.097-2.323-10.884-1.365-2.008.507-3.811 1.44-5.235 3.022-1.318 1.465-1.939 3.185-1.511 5.188.352 1.65 1.365 2.857 2.623 3.872.547.438.622.63.324 1.267-.535 1.153-1.115 2.287-1.71 3.502Z" fill="#5E2CE6" fill-opacity=".8"/><path d="M19.958 4.365c-3.39-1.973-6.99-2.291-10.734-1.344-1.978.5-3.744 1.416-5.135 2.962-1.284 1.426-1.877 3.083-1.465 5.012.34 1.587 1.314 2.758 2.553 3.758.269.215.478.409.547.662.07.26-.018.527-.167.845l-.181-.084L19.958 4.365Zm0 0 .003.001m-.003-.001.003.001m0 0a7.634 7.634 0 0 1 2.524 2.307c1.58 2.328 1.371 5.015-.556 7.105-1.547 1.675-3.5 2.588-5.678 3.087a14.566 14.566 0 0 1-6.175.06 1.38 1.38 0 0 0-1.073.208c-1.58.97-3.211 1.796-4.975 2.296M19.96 4.366 4.027 19.43m0 0a.065.065 0 0 0-.019.004l.383-.774-.364.77Zm9.03-.443.023.002.022-.002c.292-.034.586-.062.88-.09.654-.064 1.31-.127 1.95-.249 2.698-.5 5.147-1.581 7.11-3.647 2.675-2.81 2.886-6.654.497-9.688-1.174-1.492-2.683-2.53-4.386-3.256C16.018.72 12.772.474 9.474 1.204c-2.639.584-5.019 1.747-6.835 3.902C1.142 6.874.48 8.928.95 11.277c.365 1.823 1.355 3.269 2.716 4.437.119.102.156.168.166.213.009.039.005.102-.064.225-.174.31-.343.619-.512.927-.275.502-.548 1-.838 1.493-.59.995-.25 2.24.857 2.563l.007.002c.348.089.712.084 1.057-.015 1.84-.515 3.538-1.355 5.182-2.296a1.34 1.34 0 0 1 .724-.13h.004c.683.051 1.365.128 2.045.205.255.029.51.058.766.085Z" stroke="#5E2CE6" stroke-opacity=".8" stroke-width=".4"/></svg>