<svg width="110" height="90" fill="none" xmlns="http://www.w3.org/2000/svg"><g filter="url(#a)"><rect width="89" height="79" rx="10" fill="#022AF0"/></g><rect x=".5" y=".5" width="88" height="78" rx="9.5" stroke="#FAFAFA" stroke-opacity=".1"/><rect x="9" y="13" width="50" height="8" rx="4" fill="#131DAA" fill-opacity=".37"/><rect x="9.5" y="13.5" width="49" height="7" rx="3.5" stroke="#80FF9F" stroke-opacity=".5"/><rect x="71" y="13" width="10" height="8" rx="4" fill="#022AF0" fill-opacity=".36"/><rect x="71.5" y="13.5" width="9" height="7" rx="3.5" stroke="#80FF9F" stroke-opacity=".5"/><rect x="9" y="34" width="41" height="13" rx="5" fill="#0A1193" fill-opacity=".4"/><rect x="9.5" y="34.5" width="40" height="12" rx="4.5" stroke="#80FF9F" stroke-opacity=".5"/><rect x="9" y="52" width="41" height="13" rx="5" fill="#0A1193" fill-opacity=".4"/><rect x="9.5" y="52.5" width="40" height="12" rx="4.5" stroke="#80FF9F" stroke-opacity=".5"/><rect width="26" height="31" rx="5" transform="matrix(-1 0 0 1 79 34)" fill="#131DAA" fill-opacity=".23"/><rect x="-.5" y=".5" width="25" height="30" rx="4.5" transform="matrix(-1 0 0 1 78 34)" stroke="#80FF9F" stroke-opacity=".5"/><path d="M73.132 83.708a.879.879 0 0 1-.88-.88c0-.832.093-2.267.371-3.886l-2.501-2.498C66.463 80.747 66.046 86.9 66 89.12c0 .463.37.879.88.879 2.223-.046 8.383-.463 12.69-4.118l-2.5-2.498c-1.668.231-3.104.277-3.938.324Z" fill="url(#b)"/><path d="M100.135 73.853C108.518 64.97 110 55.855 110 50.673A4.662 4.662 0 0 0 105.322 46c-5.187 0-14.311 1.48-23.204 9.901l-.231-.092c-3.706-1.573-7.966-.787-10.792 2.082l-3.89 3.886c-.927.925-.649 2.452.51 2.961l6.53 3.008-2.177 3.47c-.556.832-.417 1.943.278 2.637l9.726 9.716c.695.694 1.806.833 2.64.278l3.52-2.221 3.01 6.523c.556 1.157 2.084 1.435 2.965.51l3.844-3.84c2.825-2.823 3.659-7.126 2.084-10.781v-.185Zm-5.65-5.552c-3.752 0-6.809-3.054-6.809-6.802 0-3.747 3.057-6.8 6.808-6.8 3.752 0 6.809 3.053 6.809 6.8 0 3.748-3.057 6.802-6.809 6.802Z" fill="url(#c)"/><path d="M94.484 56.873c-.787 0-1.482.648-1.482 1.48 0 .787.648 1.48 1.482 1.48.926 0 1.714.741 1.714 1.713 0 .786.648 1.48 1.482 1.48.833 0 1.435-.74 1.435-1.527 0-2.544-2.084-4.626-4.631-4.626Z" fill="url(#d)"/><defs><linearGradient id="b" x1="72.785" y1="76.444" x2="72.785" y2="90" gradientUnits="userSpaceOnUse"><stop stop-color="#7BF9AC"/><stop offset="1" stop-color="#61D9DF"/></linearGradient><linearGradient id="c" x1="88.325" y1="46" x2="88.325" y2="89.212" gradientUnits="userSpaceOnUse"><stop stop-color="#7BF9AC"/><stop offset="1" stop-color="#61D9DF"/></linearGradient><linearGradient id="d" x1="96.059" y1="56.873" x2="96.059" y2="63.026" gradientUnits="userSpaceOnUse"><stop stop-color="#7BF9AC"/><stop offset="1" stop-color="#61D9DF"/></linearGradient><filter id="a" x="0" y="0" width="89" height="83" filterUnits="userSpaceOnUse" color-interpolation-filters="sRGB"><feFlood flood-opacity="0" result="BackgroundImageFix"/><feBlend in="SourceGraphic" in2="BackgroundImageFix" result="shape"/><feColorMatrix in="SourceAlpha" values="0 0 0 0 0 0 0 0 0 0 0 0 0 0 0 0 0 0 127 0" result="hardAlpha"/><feOffset dy="4"/><feGaussianBlur stdDeviation="15"/><feComposite in2="hardAlpha" operator="arithmetic" k2="-1" k3="1"/><feColorMatrix values="0 0 0 0 0.5 0 0 0 0 1 0 0 0 0 0.625065 0 0 0 1 0"/><feBlend in2="shape" result="effect1_innerShadow"/></filter></defs></svg>