<svg width="113" height="91" fill="none" xmlns="http://www.w3.org/2000/svg"><g filter="url(#a)"><rect width="89" height="79" rx="10" fill="#022AF0"/></g><rect x=".5" y=".5" width="88" height="78" rx="9.5" stroke="#FAFAFA" stroke-opacity=".1"/><rect x="9" y="13" width="50" height="8" rx="4" fill="#131DAA" fill-opacity=".37"/><rect x="9.5" y="13.5" width="49" height="7" rx="3.5" stroke="#80FF9F" stroke-opacity=".5"/><rect x="71" y="13" width="10" height="8" rx="4" fill="#022AF0" fill-opacity=".36"/><rect x="71.5" y="13.5" width="9" height="7" rx="3.5" stroke="#80FF9F" stroke-opacity=".5"/><rect x="9" y="34" width="70" height="13" rx="5" fill="#0A1193" fill-opacity=".4"/><rect x="9.5" y="34.5" width="69" height="12" rx="4.5" stroke="#80FF9F" stroke-opacity=".5"/><rect width="70" height="13" rx="5" transform="matrix(-1 0 0 1 79 52)" fill="#131DAA" fill-opacity=".23"/><rect x="-.5" y=".5" width="69" height="12" rx="4.5" transform="matrix(-1 0 0 1 78 52)" stroke="#80FF9F" stroke-opacity=".5"/><path d="M110.517 64.245h-3.414c-.396-1.38-.94-2.759-1.682-3.99l2.424-2.415a1.58 1.58 0 0 0 0-2.119l-4.601-4.582a1.497 1.497 0 0 0-2.127 0l-2.424 2.414c-1.237-.69-2.622-1.232-4.057-1.626v-3.449c0-.837-.643-1.478-1.484-1.478h-6.58c-.841 0-1.484.64-1.484 1.478v3.4c-1.435.394-2.77.936-4.057 1.675l-2.375-2.365a1.498 1.498 0 0 0-2.127 0l-4.601 4.582c-.544.542-.544 1.528 0 2.12l2.127 2.118c.396-.69 1.039-1.232 1.83-1.626.594-.296 1.287-.493 1.98-.493.989 0 1.978.345 2.77.936l3.81 2.907c1.533-1.133 3.364-1.823 5.392-1.823 5.046 0 9.153 4.09 9.153 9.116 0 5.025-4.057 9.115-9.153 9.115a8.886 8.886 0 0 1-5.393-1.823l-3.809 2.907a4.69 4.69 0 0 1-2.77.936 4.48 4.48 0 0 1-1.98-.443 4.361 4.361 0 0 1-1.83-1.577l-2.078 2.07c-.594.541-.594 1.527 0 2.118l4.601 4.582a1.497 1.497 0 0 0 2.127 0l2.425-2.414c1.237.69 2.622 1.232 4.056 1.626v3.4c0 .837.644 1.478 1.485 1.478h6.53c.841 0 1.484-.64 1.484-1.478v-3.4a17.175 17.175 0 0 0 4.057-1.675l2.375 2.365a1.497 1.497 0 0 0 2.127 0l4.601-4.582c.594-.542.594-1.528 0-2.12l-2.424-2.413a18.307 18.307 0 0 0 1.682-4.04h3.414c.791 0 1.484-.641 1.484-1.479v-6.455c0-.788-.693-1.478-1.484-1.478Z" fill="url(#b)"/><path d="M76.527 75.627c0 .493.297.986.742 1.232a1.28 1.28 0 0 0 1.435-.148l8.658-6.602c.346-.247.544-.64.544-1.084 0-.444-.198-.838-.544-1.084l-8.658-6.603a1.347 1.347 0 0 0-.84-.295c-.199 0-.397.049-.595.147a1.39 1.39 0 0 0-.742 1.232v3.006h-10.39c-.593 0-1.137.493-1.137 1.133v5.026c0 .591.495 1.133 1.138 1.133h10.39v2.907Z" fill="url(#c)"/><defs><linearGradient id="b" x1="91.76" y1="47" x2="91.76" y2="91" gradientUnits="userSpaceOnUse"><stop stop-color="#7CFAA8"/><stop offset="1" stop-color="#5AD1EB"/></linearGradient><linearGradient id="c" x1="76.453" y1="61.043" x2="76.453" y2="77.013" gradientUnits="userSpaceOnUse"><stop stop-color="#7CFAA8"/><stop offset="1" stop-color="#5AD1EB"/></linearGradient><filter id="a" x="0" y="0" width="89" height="83" filterUnits="userSpaceOnUse" color-interpolation-filters="sRGB"><feFlood flood-opacity="0" result="BackgroundImageFix"/><feBlend in="SourceGraphic" in2="BackgroundImageFix" result="shape"/><feColorMatrix in="SourceAlpha" values="0 0 0 0 0 0 0 0 0 0 0 0 0 0 0 0 0 0 127 0" result="hardAlpha"/><feOffset dy="4"/><feGaussianBlur stdDeviation="15"/><feComposite in2="hardAlpha" operator="arithmetic" k2="-1" k3="1"/><feColorMatrix values="0 0 0 0 0.5 0 0 0 0 1 0 0 0 0 0.625065 0 0 0 1 0"/><feBlend in2="shape" result="effect1_innerShadow"/></filter></defs></svg>