<svg width="121" height="82" fill="none" xmlns="http://www.w3.org/2000/svg"><g filter="url(#a)"><rect width="89" height="79" rx="10" fill="#022AF0"/></g><rect x=".5" y=".5" width="88" height="78" rx="9.5" stroke="#FAFAFA" stroke-opacity=".1"/><rect x="9" y="13" width="50" height="8" rx="4" fill="#131DAA" fill-opacity=".37"/><rect x="9.5" y="13.5" width="49" height="7" rx="3.5" stroke="#80FF9F" stroke-opacity=".5"/><rect x="71" y="13" width="10" height="8" rx="4" fill="#022AF0" fill-opacity=".36"/><rect x="71.5" y="13.5" width="9" height="7" rx="3.5" stroke="#80FF9F" stroke-opacity=".5"/><rect x="9" y="34" width="39" height="34" rx="5" fill="#0A1193" fill-opacity=".4"/><rect x="9.5" y="34.5" width="38" height="33" rx="4.5" stroke="#80FF9F" stroke-opacity=".5"/><rect width="32" height="13" rx="5" transform="matrix(-1 0 0 1 84 34)" fill="#131DAA" fill-opacity=".12"/><rect x="-.5" y=".5" width="31" height="12" rx="4.5" transform="matrix(-1 0 0 1 83 34)" stroke="#80FF9F" stroke-opacity=".5"/><rect width="32" height="13" rx="5" transform="matrix(-1 0 0 1 84 51)" fill="#131DAA" fill-opacity=".23"/><rect x="-.5" y=".5" width="31" height="12" rx="4.5" transform="matrix(-1 0 0 1 83 51)" stroke="#80FF9F" stroke-opacity=".5"/><path fill-rule="evenodd" clip-rule="evenodd" d="m77.593 64.22.337.007C80.537 58.213 86.575 54 93.612 54c7.055 0 13.109 4.234 15.703 10.276.359-.035.722-.056 1.092-.056 5.851 0 10.593 4.69 10.593 10.478 0 2.69-1.024 5.142-2.708 6.997a.95.95 0 0 1-.707.305H96.618a1 1 0 0 1-1-1V70.344l3.192 3.226a.5.5 0 0 0 .71 0l1.585-1.602a.5.5 0 0 0 0-.703l-6.75-6.822a.5.5 0 0 0-.71 0l-6.75 6.822a.5.5 0 0 0 0 .703l1.585 1.602a.5.5 0 0 0 .71 0l3.193-3.227V81a1 1 0 0 1-1 1H70.416a.951.951 0 0 1-.708-.305A10.378 10.378 0 0 1 67 74.698c0-5.787 4.742-10.478 10.593-10.478Z" fill="url(#b)"/><defs><linearGradient id="b" x1="61.162" y1="48.896" x2="120.972" y2="88.313" gradientUnits="userSpaceOnUse"><stop stop-color="#7BF9AB"/><stop offset="1" stop-color="#5BD3EA"/></linearGradient><filter id="a" x="0" y="0" width="89" height="83" filterUnits="userSpaceOnUse" color-interpolation-filters="sRGB"><feFlood flood-opacity="0" result="BackgroundImageFix"/><feBlend in="SourceGraphic" in2="BackgroundImageFix" result="shape"/><feColorMatrix in="SourceAlpha" values="0 0 0 0 0 0 0 0 0 0 0 0 0 0 0 0 0 0 127 0" result="hardAlpha"/><feOffset dy="4"/><feGaussianBlur stdDeviation="15"/><feComposite in2="hardAlpha" operator="arithmetic" k2="-1" k3="1"/><feColorMatrix values="0 0 0 0 0.5 0 0 0 0 1 0 0 0 0 0.625065 0 0 0 1 0"/><feBlend in2="shape" result="effect1_innerShadow"/></filter></defs></svg>