<svg width="141" height="124" fill="none" xmlns="http://www.w3.org/2000/svg"><g filter="url(#a)"><rect width="116.076" height="103.034" rx="10" fill="url(#b)"/></g><rect x=".5" y=".5" width="115.076" height="102.034" rx="9.5" stroke="#FAFAFA" stroke-opacity=".1"/><rect x="11.739" y="16.956" width="65.211" height="10.434" rx="5.217" fill="#131DAA" fill-opacity=".37"/><rect x="12.239" y="17.456" width="64.211" height="9.434" rx="4.717" stroke="#80FF9F" stroke-opacity=".5"/><rect x="92.6" y="16.955" width="13.042" height="10.434" rx="5.217" fill="#022AF0" fill-opacity=".36"/><rect x="93.1" y="17.455" width="12.042" height="9.434" rx="4.717" stroke="#80FF9F" stroke-opacity=".5"/><rect x="11.738" y="44.344" width="50.865" height="44.344" rx="5" fill="#0A1193" fill-opacity=".4"/><rect x="12.238" y="44.844" width="49.865" height="43.344" rx="4.5" stroke="#80FF9F" stroke-opacity=".5"/><rect width="41.735" height="16.955" rx="5" transform="matrix(-1 0 0 1 109.554 44.344)" fill="#131DAA" fill-opacity=".12"/><rect x="-.5" y=".5" width="40.735" height="15.955" rx="4.5" transform="matrix(-1 0 0 1 108.554 44.344)" stroke="#80FF9F" stroke-opacity=".5"/><rect width="41.735" height="16.955" rx="5" transform="matrix(-1 0 0 1 109.554 66.516)" fill="#131DAA" fill-opacity=".23"/><rect x="-.5" y=".5" width="40.735" height="15.955" rx="4.5" transform="matrix(-1 0 0 1 108.554 66.516)" stroke="#80FF9F" stroke-opacity=".5"/><path d="M138.572 92.38h-4.018c-.466-1.63-1.106-3.26-1.98-4.716l2.854-2.853c.64-.699.64-1.805 0-2.504l-5.416-5.416a1.757 1.757 0 0 0-2.504 0l-2.853 2.854c-1.456-.816-3.086-1.456-4.775-1.922v-4.076c0-.99-.757-1.747-1.747-1.747h-7.745c-.989 0-1.746.757-1.746 1.747v4.018a20.164 20.164 0 0 0-4.775 1.98l-2.795-2.795a1.758 1.758 0 0 0-2.504 0l-5.416 5.415c-.64.64-.64 1.805 0 2.504l2.504 2.504c.466-.815 1.223-1.456 2.155-1.922.698-.35 1.514-.582 2.329-.582 1.164 0 2.329.408 3.261 1.106l4.484 3.436c1.805-1.34 3.959-2.155 6.347-2.155 5.939 0 10.772 4.834 10.772 10.773 0 5.94-4.775 10.773-10.772 10.773-2.388 0-4.601-.815-6.347-2.155l-4.484 3.436a5.505 5.505 0 0 1-3.261 1.106c-.815 0-1.63-.174-2.33-.524a5.136 5.136 0 0 1-2.154-1.863l-2.446 2.445c-.698.641-.698 1.806 0 2.504l5.416 5.416a1.757 1.757 0 0 0 2.504 0l2.853-2.853c1.456.815 3.086 1.455 4.775 1.921v4.018c0 .99.757 1.747 1.747 1.747h7.686c.99 0 1.747-.757 1.747-1.747v-4.018a20.148 20.148 0 0 0 4.775-1.98l2.795 2.795a1.757 1.757 0 0 0 2.504 0l5.416-5.415c.698-.641.698-1.805 0-2.504l-2.854-2.853a21.684 21.684 0 0 0 1.98-4.775h4.018c.932 0 1.747-.757 1.747-1.747v-7.628c0-.932-.815-1.747-1.747-1.747Z" fill="url(#c)"/><path d="M98.568 105.832c0 .582.35 1.165.873 1.456a1.502 1.502 0 0 0 1.689-.175l10.19-7.803c.408-.291.641-.757.641-1.28 0-.525-.233-.99-.641-1.282l-10.19-7.803a1.582 1.582 0 0 0-.99-.35c-.233 0-.466.059-.699.175-.524.292-.873.816-.873 1.456v3.552H86.339c-.698 0-1.339.583-1.339 1.34v5.939c0 .699.582 1.339 1.34 1.339h12.228v3.436Z" fill="url(#d)"/><defs><linearGradient id="b" x1="-97.242" y1="-72.644" x2="121.841" y2="111.848" gradientUnits="userSpaceOnUse"><stop stop-color="#0125DA"/><stop offset="1" stop-color="#0125DA" stop-opacity="0"/></linearGradient><linearGradient id="c" x1="91" y1="87" x2="109" y2="105.5" gradientUnits="userSpaceOnUse"><stop stop-color="#73EFBB"/><stop offset="1" stop-color="#65DED6"/></linearGradient><linearGradient id="d" x1="91" y1="87" x2="109" y2="105.5" gradientUnits="userSpaceOnUse"><stop stop-color="#73EFBB"/><stop offset="1" stop-color="#65DED6"/></linearGradient><filter id="a" x="0" y="0" width="116.076" height="107.034" filterUnits="userSpaceOnUse" color-interpolation-filters="sRGB"><feFlood flood-opacity="0" result="BackgroundImageFix"/><feBlend in="SourceGraphic" in2="BackgroundImageFix" result="shape"/><feColorMatrix in="SourceAlpha" values="0 0 0 0 0 0 0 0 0 0 0 0 0 0 0 0 0 0 127 0" result="hardAlpha"/><feOffset dy="4"/><feGaussianBlur stdDeviation="15"/><feComposite in2="hardAlpha" operator="arithmetic" k2="-1" k3="1"/><feColorMatrix values="0 0 0 0 0.5 0 0 0 0 1 0 0 0 0 0.625065 0 0 0 1 0"/><feBlend in2="shape" result="effect1_innerShadow"/></filter></defs></svg>