<svg width="30" height="29" fill="none" xmlns="http://www.w3.org/2000/svg"><path d="M16.583 25.177 12.66 12.28l13.325 3.77-2.547 2.464a2.5 2.5 0 0 0 0 3.593l4.74 4.587-.573.555-4.843-4.686a2.5 2.5 0 0 0-3.477 0l-2.702 2.614Zm11.48 2.516v-.001Z" stroke="#7CEA57" stroke-width="3"/><path d="M5.24 3.451c-.158-.153-.41-.153-.6 0l-.978.947c-.158.153-.158.397 0 .58l3.251 3.116c.158.152.41.152.6 0l.978-.947c.158-.153.158-.397 0-.58L5.241 3.45ZM5.398 14.202v-1.344a.411.411 0 0 0-.41-.397H.41a.411.411 0 0 0-.41.397v1.344c0 .214.19.397.41.397h4.577c.221 0 .41-.183.41-.397ZM7.386 18.967c-.157-.153-.41-.153-.6 0l-3.22 3.146c-.157.152-.157.397 0 .58l.98.947c.157.152.41.152.6 0l3.219-3.146c.158-.153.158-.397 0-.58l-.979-.947ZM20.676 8.185c.158.153.41.153.6 0l3.22-3.115c.157-.153.157-.397 0-.58l-.979-.947c-.158-.153-.41-.153-.6 0l-3.22 3.146c-.157.153-.157.397 0 .58l.979.916ZM13.416 5.223h1.389c.22 0 .41-.184.41-.397V.397a.411.411 0 0 0-.41-.397h-1.39c-.22 0-.41.183-.41.397v4.429c0 .213.19.397.41.397Z" fill="#022AF0"/></svg>