<svg width="141" height="121" fill="none" xmlns="http://www.w3.org/2000/svg"><g filter="url(#a)"><rect y=".483" width="116.076" height="101.858" rx="10" fill="url(#b)"/></g><rect x=".5" y=".983" width="115.076" height="100.858" rx="9.5" stroke="#FAFAFA" stroke-opacity=".1"/><rect x="11.739" y="17.244" width="65.211" height="10.315" rx="5.157" fill="#131DAA" fill-opacity=".37"/><rect x="12.239" y="17.744" width="64.211" height="9.315" rx="4.657" stroke="#80FF9F" stroke-opacity=".14"/><rect x="92.6" y="17.244" width="13.042" height="10.315" rx="5.157" fill="#022AF0" fill-opacity=".36"/><rect x="93.1" y="17.744" width="12.042" height="9.315" rx="4.657" stroke="#80FF9F" stroke-opacity=".14"/><rect x="11.738" y="44.32" width="50.865" height="43.837" rx="5" fill="#0A1193" fill-opacity=".4"/><rect x="12.238" y="44.82" width="49.865" height="42.837" rx="4.5" stroke="#80FF9F" stroke-opacity=".14"/><rect width="41.735" height="16.761" rx="5" transform="matrix(-1 0 0 1 109.554 44.32)" fill="#131DAA" fill-opacity=".12"/><rect x="-.5" y=".5" width="40.735" height="15.761" rx="4.5" transform="matrix(-1 0 0 1 108.554 44.32)" stroke="#80FF9F" stroke-opacity=".14"/><rect width="41.735" height="16.761" rx="5" transform="matrix(-1 0 0 1 109.554 66.239)" fill="#131DAA" fill-opacity=".23"/><rect x="-.5" y=".5" width="40.735" height="15.761" rx="4.5" transform="matrix(-1 0 0 1 108.554 66.239)" stroke="#80FF9F" stroke-opacity=".14"/><path d="M139 80.557h-18v-9.886c0-.524-.211-1.027-.586-1.398a2.012 2.012 0 0 0-1.414-.579H79c-.53 0-1.04.209-1.414.58-.375.37-.586.873-.586 1.397v31.635c0 .525.21 1.028.586 1.398a2.01 2.01 0 0 0 1.414.579h5.17l3.42 3.372c.375.368.882.574 1.41.574.528 0 1.035-.206 1.41-.574l3.42-3.372H97v9.886c0 .525.21 1.028.586 1.398a2.01 2.01 0 0 0 1.414.579h25.17l3.42 3.372c.375.368.882.574 1.41.574.528 0 1.035-.206 1.41-.574l3.42-3.372H139a2.01 2.01 0 0 0 1.414-.579c.375-.37.586-.873.586-1.398V82.534c0-.524-.211-1.027-.586-1.398a2.012 2.012 0 0 0-1.414-.579Zm-42 1.977v17.795h-4a2.012 2.012 0 0 0-1.41.583L89 103.463l-2.59-2.551a2.012 2.012 0 0 0-1.41-.583h-4v-27.68h36v7.908H99c-.53 0-1.04.209-1.414.58-.375.37-.586.873-.586 1.397Zm14 17.795c-.396 0-.782-.116-1.111-.333a1.96 1.96 0 0 1-.303-3.042 2.02 2.02 0 0 1 2.179-.429c.366.15.678.403.898.729a1.96 1.96 0 0 1-.249 2.496 2.01 2.01 0 0 1-1.414.579Zm8 0c-.396 0-.782-.116-1.111-.333a1.96 1.96 0 0 1-.303-3.042 2.02 2.02 0 0 1 2.179-.429c.366.15.678.403.898.729a1.96 1.96 0 0 1-.249 2.496 2.01 2.01 0 0 1-1.414.579Zm8 0c-.396 0-.782-.116-1.111-.333a1.96 1.96 0 0 1-.303-3.042 2.02 2.02 0 0 1 2.179-.429c.366.15.678.403.898.729a1.96 1.96 0 0 1-.249 2.496 2.01 2.01 0 0 1-1.414.579Z" fill="url(#c)"/><defs><linearGradient id="b" x1="-97.242" y1="-71.332" x2="119.75" y2="113.509" gradientUnits="userSpaceOnUse"><stop stop-color="#0125DA"/><stop offset="1" stop-color="#0125DA" stop-opacity="0"/></linearGradient><linearGradient id="c" x1="77" y1="61.28" x2="156.684" y2="132.872" gradientUnits="userSpaceOnUse"><stop stop-color="#80FF9F"/><stop offset="1" stop-color="#56CCF2"/></linearGradient><filter id="a" x="0" y=".483" width="116.076" height="105.858" filterUnits="userSpaceOnUse" color-interpolation-filters="sRGB"><feFlood flood-opacity="0" result="BackgroundImageFix"/><feBlend in="SourceGraphic" in2="BackgroundImageFix" result="shape"/><feColorMatrix in="SourceAlpha" values="0 0 0 0 0 0 0 0 0 0 0 0 0 0 0 0 0 0 127 0" result="hardAlpha"/><feOffset dy="4"/><feGaussianBlur stdDeviation="15"/><feComposite in2="hardAlpha" operator="arithmetic" k2="-1" k3="1"/><feColorMatrix values="0 0 0 0 0.5 0 0 0 0 1 0 0 0 0 0.625065 0 0 0 1 0"/><feBlend in2="shape" result="effect1_innerShadow"/></filter></defs></svg>