<svg width="28" height="28" fill="none" xmlns="http://www.w3.org/2000/svg"><path d="M21.55 1.425a.835.835 0 0 0-1.425.59v4.15c0 .461.375.835.835.835h4.15a.836.836 0 0 0 .59-1.425l-4.15-4.15Z" fill="#022AF0"/><path d="M17.375 7.068c0 1.482 1.2 2.682 2.681 2.682h6.069v15.656c0 .88-.714 1.594-1.595 1.594H9.594C8.714 27 8 26.286 8 25.406V2.594C8 1.714 8.714 1 9.594 1h7.78v6.068Z" stroke="#7DEA58" stroke-width="2"/><path d="M5.25 25.406V2.594c0-.975.335-1.868.881-2.594h-.036A2.594 2.594 0 0 0 3.5 2.594v22.812A2.594 2.594 0 0 0 6.095 28h.036a4.301 4.301 0 0 1-.88-2.594ZM1.75 25.406V2.594c0-.975.335-1.868.881-2.594h-.037A2.594 2.594 0 0 0 0 2.594v22.812A2.594 2.594 0 0 0 2.594 28h.037a4.301 4.301 0 0 1-.881-2.594Z" fill="#022AF0"/></svg>