<svg width="28" height="28" viewBox="0 0 28 28" fill="none" xmlns="http://www.w3.org/2000/svg">
    <path d="M21.5506 1.42526C21.3126 1.18726 20.9521 1.11551 20.6406 1.24413C20.3282 1.37363 20.1252 1.67813 20.1252 2.01588V6.16513C20.1252 6.62626 20.4997 6.99988 20.96 6.99988H25.1092C25.447 6.99988 25.7506 6.79688 25.881 6.48451C26.0096 6.17213 25.9379 5.81251 25.6999 5.57451L21.5506 1.42526Z"
          fill="#022AF0"/>
    <path d="M17.3748 7.06825C17.3748 8.54979 18.575 9.75 20.0565 9.75H26.1248V25.4056C26.1248 26.2864 25.4107 27 24.5304 27H9.59413C8.71382 27 7.99976 26.2864 7.99976 25.4056V2.59437C7.99976 1.71363 8.71382 1 9.59413 1H17.3748V7.06825Z"
          stroke="#7DEA58" stroke-width="2"/>
    <path d="M5.25024 25.4056V2.59437C5.25024 1.61875 5.58537 0.72625 6.13137 0H6.09462C4.66224 0 3.50024 1.16112 3.50024 2.59437V25.4056C3.50024 26.8389 4.66224 28 6.09462 28H6.13137C5.58537 27.2738 5.25024 26.3812 5.25024 25.4056Z"
          fill="#022AF0"/>
    <path d="M1.75 25.4056V2.59437C1.75 1.61875 2.08513 0.72625 2.63113 0H2.59438C1.162 0 0 1.16112 0 2.59437V25.4056C0 26.8389 1.162 28 2.59438 28H2.63113C2.08513 27.2738 1.75 26.3812 1.75 25.4056Z"
          fill="#022AF0"/>
</svg>
