<svg width="29" height="24" fill="none" xmlns="http://www.w3.org/2000/svg"><path d="M13.56 15.341c.305 0 .61-.121.823-.364l4.12-4.436a1.107 1.107 0 0 0-.061-1.58 1.119 1.119 0 0 0-1.587.062l-3.295 3.524-1.373-1.489a1.119 1.119 0 0 0-1.587-.06 1.107 1.107 0 0 0-.061 1.579l2.227 2.37c.183.273.488.395.794.395Z" fill="#7CEA57"/><path d="M20.822 19.443a9.799 9.799 0 0 1-6.317 2.309c-5.4 0-9.794-4.375-9.794-9.752v-.608h1.403c.366 0 .702-.212.885-.516.183-.334.153-.73-.03-1.033l-2.533-3.95c-.366-.577-1.343-.577-1.709 0L.164 9.844c-.213.304-.213.699-.03 1.033.183.304.518.516.885.516h1.403V12c0 6.623 5.401 12 12.053 12 2.838 0 5.614-1.003 7.78-2.825.489-.395.55-1.125.123-1.58-.366-.486-1.068-.547-1.556-.152ZM28.877 13.124a.99.99 0 0 0-.885-.516H26.59V12c0-6.623-5.401-12-12.053-12a12.123 12.123 0 0 0-7.78 2.825 1.084 1.084 0 0 0-.123 1.58 1.095 1.095 0 0 0 1.587.122 9.799 9.799 0 0 1 6.316-2.31c5.4 0 9.795 4.375 9.795 9.753v.607h-1.404c-.366 0-.702.213-.885.517-.183.334-.152.729.03 1.033l2.533 3.949c.183.304.519.456.855.456.335 0 .67-.183.854-.456l2.533-3.95a.98.98 0 0 0 .03-1.002Z" fill="#022AF0"/></svg>