<svg width="29" height="28" fill="none" xmlns="http://www.w3.org/2000/svg"><path d="M4.522 17.405a9.653 9.653 0 0 1-.15-1.634c0-4.268 2.693-7.931 6.477-9.354v-2.33C5.824 5.6 2.13 10.261 2.13 15.77c0 .968.121 1.907.333 2.815l2.058-1.18ZM24.35 15.77c0 .546-.06 1.09-.151 1.635l2.028 1.18c.212-.877.333-1.846.333-2.814 0-5.51-3.663-10.171-8.688-11.685v2.331c3.784 1.423 6.478 5.086 6.478 9.354ZM14.36 25.76a9.94 9.94 0 0 1-6.356-2.27l-1.998 1.15A12.02 12.02 0 0 0 14.36 28c3.24 0 6.176-1.271 8.355-3.33l-1.998-1.18a9.94 9.94 0 0 1-6.357 2.27Z" fill="#022AF0"/><path d="M10.486 9.414a.64.64 0 0 0 .06.696l3.3 4.299a.736.736 0 0 0 .545.272c.212 0 .393-.09.545-.272l3.299-4.299a.724.724 0 0 0 .151-.424c0-.09-.03-.211-.06-.302a.635.635 0 0 0-.606-.363h-1.543V.545A.543.543 0 0 0 15.632 0H13.15a.543.543 0 0 0-.545.545V9.05H11.12c-.302-.03-.544.12-.635.363ZM10.153 22.006a.656.656 0 0 0 .636.334c.242-.03.484-.182.575-.424l2.058-4.995c.09-.181.06-.424-.03-.605-.091-.182-.303-.303-.484-.333l-5.358-.697a.525.525 0 0 0-.424.091.707.707 0 0 0-.212.212.646.646 0 0 0-.03.696l.756 1.302-7.355 4.238a.55.55 0 0 0-.212.757l1.241 2.149a.55.55 0 0 0 .757.212l7.355-4.238.727 1.302ZM28.466 21.855l-7.355-4.238.756-1.302a.646.646 0 0 0-.03-.696.69.69 0 0 0-.636-.302l-5.357.696a.632.632 0 0 0-.485.333.704.704 0 0 0-.03.605l2.058 4.995a.74.74 0 0 0 .273.333c.09.06.181.09.302.09.243.03.485-.12.636-.332l.757-1.302 7.356 4.238a.55.55 0 0 0 .756-.212l1.241-2.15a.588.588 0 0 0-.242-.756Z" fill="#7CEA57"/></svg>