<svg width="160" height="160" viewBox="0 0 160 160" fill="none" xmlns="http://www.w3.org/2000/svg">
<g filter="url(#filter0_d)">
<circle cx="80" cy="76" r="60" fill="url(#paint0_linear)"/>
<circle cx="80" cy="76" r="59.5" stroke="url(#paint1_linear)"/>
</g>
<path d="M98.3289 60H79.0669C79.0669 62.3061 79.983 64.5177 81.6136 66.1484C83.2443 67.7791 85.4559 68.6951 87.762 68.6951H91.3103V72.1211C91.3135 76.9189 95.202 80.8076 99.9998 80.8107V61.671C99.9998 60.7484 99.2519 60 98.3289 60Z" fill="#2684FF"/>
<path d="M88.7984 69.5977H69.5366C69.5396 74.3955 73.4281 78.2842 78.2261 78.2873H81.7744V81.7242C81.7805 86.522 85.6717 90.4081 90.4696 90.4081V71.2689C90.4696 70.346 89.7213 69.5978 88.7984 69.5978V69.5977Z" fill="url(#paint2_linear)"/>
<path d="M79.262 79.1895H60C60 83.9917 63.8931 87.8846 68.6951 87.8846H72.2545V91.3104C72.2577 96.1038 76.1395 99.9908 80.9331 99.9999V80.8606C80.9331 79.9377 80.1849 79.1895 79.262 79.1895Z" fill="url(#paint3_linear)"/>
<defs>
<filter id="filter0_d" x="0" y="0" width="160" height="160" filterUnits="userSpaceOnUse" color-interpolation-filters="sRGB">
<feFlood flood-opacity="0" result="BackgroundImageFix"/>
<feColorMatrix in="SourceAlpha" type="matrix" values="0 0 0 0 0 0 0 0 0 0 0 0 0 0 0 0 0 0 127 0" result="hardAlpha"/>
<feOffset dy="4"/>
<feGaussianBlur stdDeviation="10"/>
<feComposite in2="hardAlpha" operator="out"/>
<feColorMatrix type="matrix" values="0 0 0 0 0.5 0 0 0 0 1 0 0 0 0 0.625065 0 0 0 0.5 0"/>
<feBlend mode="normal" in2="BackgroundImageFix" result="effect1_dropShadow"/>
<feBlend mode="normal" in="SourceGraphic" in2="effect1_dropShadow" result="shape"/>
</filter>
<linearGradient id="paint0_linear" x1="49.4118" y1="26.5882" x2="176.5" y2="190" gradientUnits="userSpaceOnUse">
<stop offset="0.0337936" stop-color="white"/>
<stop offset="1" stop-color="#80FF9F"/>
</linearGradient>
<linearGradient id="paint1_linear" x1="80" y1="16" x2="80" y2="136" gradientUnits="userSpaceOnUse">
<stop stop-color="#56CCF2"/>
<stop offset="1" stop-color="#80FF9F"/>
</linearGradient>
<linearGradient id="paint2_linear" x1="90.0574" y1="69.6312" x2="81.9135" y2="78.129" gradientUnits="userSpaceOnUse">
<stop offset="0.18" stop-color="#0052CC"/>
<stop offset="1" stop-color="#2684FF"/>
</linearGradient>
<linearGradient id="paint3_linear" x1="81.0723" y1="79.2841" x2="71.6518" y2="88.5527" gradientUnits="userSpaceOnUse">
<stop offset="0.18" stop-color="#0052CC"/>
<stop offset="1" stop-color="#2684FF"/>
</linearGradient>
</defs>
</svg>
