<svg width="160" height="160" fill="none" xmlns="http://www.w3.org/2000/svg"><g filter="url(#a)"><circle cx="80" cy="76" r="60" fill="url(#b)"/><circle cx="80" cy="76" r="59.5" stroke="url(#c)"/></g><path d="M98.329 60H79.067a8.695 8.695 0 0 0 8.695 8.695h3.548v3.426a8.695 8.695 0 0 0 8.69 8.69V61.67c0-.923-.748-1.671-1.671-1.671Z" fill="#2684FF"/><path d="M88.798 69.598H69.537a8.695 8.695 0 0 0 8.69 8.69h3.547v3.436a8.695 8.695 0 0 0 8.696 8.684v-19.14c0-.922-.749-1.67-1.672-1.67Z" fill="url(#d)"/><path d="M79.262 79.19H60a8.695 8.695 0 0 0 8.695 8.695h3.56v3.425a8.695 8.695 0 0 0 8.678 8.69V80.86c0-.922-.748-1.67-1.671-1.67Z" fill="url(#e)"/><defs><linearGradient id="b" x1="49.412" y1="26.588" x2="176.5" y2="190" gradientUnits="userSpaceOnUse"><stop offset=".034" stop-color="#fff"/><stop offset="1" stop-color="#80FF9F"/></linearGradient><linearGradient id="c" x1="80" y1="16" x2="80" y2="136" gradientUnits="userSpaceOnUse"><stop stop-color="#56CCF2"/><stop offset="1" stop-color="#80FF9F"/></linearGradient><linearGradient id="d" x1="90.057" y1="69.631" x2="81.913" y2="78.129" gradientUnits="userSpaceOnUse"><stop offset=".18" stop-color="#0052CC"/><stop offset="1" stop-color="#2684FF"/></linearGradient><linearGradient id="e" x1="81.072" y1="79.284" x2="71.652" y2="88.553" gradientUnits="userSpaceOnUse"><stop offset=".18" stop-color="#0052CC"/><stop offset="1" stop-color="#2684FF"/></linearGradient><filter id="a" x="0" y="0" width="160" height="160" filterUnits="userSpaceOnUse" color-interpolation-filters="sRGB"><feFlood flood-opacity="0" result="BackgroundImageFix"/><feColorMatrix in="SourceAlpha" values="0 0 0 0 0 0 0 0 0 0 0 0 0 0 0 0 0 0 127 0" result="hardAlpha"/><feOffset dy="4"/><feGaussianBlur stdDeviation="10"/><feComposite in2="hardAlpha" operator="out"/><feColorMatrix values="0 0 0 0 0.5 0 0 0 0 1 0 0 0 0 0.625065 0 0 0 0.5 0"/><feBlend in2="BackgroundImageFix" result="effect1_dropShadow"/><feBlend in="SourceGraphic" in2="effect1_dropShadow" result="shape"/></filter></defs></svg>