<svg width="144" height="122" fill="none" xmlns="http://www.w3.org/2000/svg"><g filter="url(#a)"><rect y=".191" width="116.076" height="103.034" rx="10" fill="url(#b)"/></g><rect x=".5" y=".691" width="115.076" height="102.034" rx="9.5" stroke="#FAFAFA" stroke-opacity=".1"/><rect x="11.739" y="16.31" width="65.211" height="10.315" rx="5.157" fill="#131DAA" fill-opacity=".37"/><rect x="12.239" y="16.81" width="64.211" height="9.315" rx="4.657" stroke="#80FF9F" stroke-opacity=".14"/><rect x="92.6" y="16.31" width="13.042" height="10.315" rx="5.157" fill="#022AF0" fill-opacity=".36"/><rect x="93.1" y="16.81" width="12.042" height="9.315" rx="4.657" stroke="#80FF9F" stroke-opacity=".14"/><rect x="11.738" y="43.386" width="50.865" height="43.837" rx="5" fill="#0A1193" fill-opacity=".4"/><rect x="12.238" y="43.886" width="49.865" height="42.837" rx="4.5" stroke="#80FF9F" stroke-opacity=".14"/><rect width="41.735" height="16.761" rx="5" transform="matrix(-1 0 0 1 109.554 43.386)" fill="#131DAA" fill-opacity=".12"/><rect x="-.5" y=".5" width="40.735" height="15.761" rx="4.5" transform="matrix(-1 0 0 1 108.554 43.386)" stroke="#80FF9F" stroke-opacity=".14"/><rect width="41.735" height="16.761" rx="5" transform="matrix(-1 0 0 1 109.554 65.305)" fill="#131DAA" fill-opacity=".23"/><rect x="-.5" y=".5" width="40.735" height="15.761" rx="4.5" transform="matrix(-1 0 0 1 108.554 65.305)" stroke="#80FF9F" stroke-opacity=".14"/><path fill-rule="evenodd" clip-rule="evenodd" d="M121.399 104.121c.432.428.999.641 1.566.641.566 0 1.133-.213 1.565-.641a2.17 2.17 0 0 0 0-3.095l-8.856-8.755a2.148 2.148 0 0 0-.339-.274l-.174-.094-.207-.107-.227-.07-.186-.054a2.224 2.224 0 0 0-.868 0l-.186.054-.227.07-.208.108-.172.093c-.122.08-.236.172-.339.274l-8.856 8.755a2.17 2.17 0 0 0 0 3.095c.432.428.998.641 1.565.641s1.134-.213 1.566-.641l5.077-5.02v19.89c0 1.208.992 2.189 2.214 2.189 1.223 0 2.215-.981 2.215-2.189v-19.89l5.077 5.02Z" fill="url(#c)"/><path fill-rule="evenodd" clip-rule="evenodd" d="M134.96 87.235c-.152-.02-2.72-.367-5.187.002l-.167.013c-.538 0-1.01-.387-1.093-.93a1.095 1.095 0 0 1 .928-1.245c1.695-.255 3.389-.215 4.521-.136-.742-8.486-7.865-15.2-16.439-15.2-5.201 0-10.427 2.604-13.602 6.707 2.164 1.809 3.543 4.507 3.543 7.52a1.1 1.1 0 0 1-1.107 1.095 1.1 1.1 0 0 1-1.107-1.094c0-2.695-1.418-5.066-3.553-6.431a7.985 7.985 0 0 0-.777-.434l-.231-.11a8.088 8.088 0 0 0-.925-.352l-.117-.03a7.6 7.6 0 0 0-.874-.192l-.258-.04a7.844 7.844 0 0 0-1.015-.073c-4.272 0-7.75 3.438-7.75 7.662l.013.267.012.23-.008.175c-.008.142-.017.283-.017.422v.69l-.628.296C84.995 88.004 82 92.724 82 97.27c0 6.547 5.386 11.872 12.007 11.872h15.703v-4.754l-1.297 1.282a4.44 4.44 0 0 1-3.132 1.282 4.438 4.438 0 0 1-3.131-1.282 4.343 4.343 0 0 1 0-6.19l8.857-8.757c.206-.203.433-.385.675-.546.109-.071.226-.12.34-.182.14-.076.275-.16.423-.22.146-.06.298-.094.45-.138.125-.036.246-.084.376-.11a4.49 4.49 0 0 1 1.735 0c.131.026.25.074.377.11.15.044.303.078.449.138.148.062.284.144.423.22.113.062.231.11.34.182.242.16.469.343.675.546l8.857 8.756a4.341 4.341 0 0 1 0 6.191 4.439 4.439 0 0 1-3.132 1.282 4.44 4.44 0 0 1-3.131-1.282l-1.297-1.282v4.754h2.574l.191-.01.221-.012.299.012.192.01h10.854c6.121 0 11.102-4.925 11.102-10.976 0-5.266-3.885-9.96-9.04-10.93Z" fill="url(#d)"/><defs><linearGradient id="b" x1="-97.242" y1="-72.453" x2="121.841" y2="112.039" gradientUnits="userSpaceOnUse"><stop stop-color="#0125DA"/><stop offset="1" stop-color="#0125DA" stop-opacity="0"/></linearGradient><linearGradient id="c" x1="75.996" y1="59.846" x2="136.428" y2="113.459" gradientUnits="userSpaceOnUse"><stop stop-color="#7DFCA6"/><stop offset="1" stop-color="#60D8DF"/></linearGradient><linearGradient id="d" x1="75.996" y1="59.846" x2="136.428" y2="113.459" gradientUnits="userSpaceOnUse"><stop stop-color="#7DFCA6"/><stop offset="1" stop-color="#60D8DF"/></linearGradient><filter id="a" x="0" y=".191" width="116.076" height="107.034" filterUnits="userSpaceOnUse" color-interpolation-filters="sRGB"><feFlood flood-opacity="0" result="BackgroundImageFix"/><feBlend in="SourceGraphic" in2="BackgroundImageFix" result="shape"/><feColorMatrix in="SourceAlpha" values="0 0 0 0 0 0 0 0 0 0 0 0 0 0 0 0 0 0 127 0" result="hardAlpha"/><feOffset dy="4"/><feGaussianBlur stdDeviation="15"/><feComposite in2="hardAlpha" operator="arithmetic" k2="-1" k3="1"/><feColorMatrix values="0 0 0 0 0.5 0 0 0 0 1 0 0 0 0 0.625065 0 0 0 1 0"/><feBlend in2="shape" result="effect1_innerShadow"/></filter></defs></svg>