<svg width="27" height="28" fill="none" xmlns="http://www.w3.org/2000/svg"><path fill-rule="evenodd" clip-rule="evenodd" d="M13.5 0c-.593 0-1.191.182-1.694.549l-1.412 1.04c-.493.36-1.098.552-1.709.55l-1.75-.014a2.871 2.871 0 0 0-2.74 1.983L3.66 5.783a2.829 2.829 0 0 1-1.045 1.435L1.188 8.245a2.854 2.854 0 0 0-1.045 3.208l.55 1.66c.191.578.191 1.194 0 1.773l-.55 1.674a2.834 2.834 0 0 0 1.045 3.194l1.426 1.027c.495.356.858.87 1.045 1.449l.536 1.66a2.871 2.871 0 0 0 2.74 1.984h1.75c.611-.002 1.216.19 1.709.549l1.412 1.027a2.884 2.884 0 0 0 3.388 0l1.412-1.027a2.894 2.894 0 0 1 1.709-.549h1.75a2.871 2.871 0 0 0 2.74-1.984l.536-1.66c.187-.58.55-1.093 1.045-1.45l1.426-1.026a2.834 2.834 0 0 0 1.045-3.194l-.55-1.674a2.82 2.82 0 0 1 0-1.773l.55-1.66a2.854 2.854 0 0 0-1.045-3.208l-1.426-1.027a2.83 2.83 0 0 1-1.045-1.435l-.536-1.675a2.871 2.871 0 0 0-2.74-1.983l-1.75.014a2.893 2.893 0 0 1-1.709-.55L15.194.55a2.873 2.873 0 0 0-1.557-.546L13.5 0Zm.105 3.277c5.99 0 10.866 4.86 10.866 10.827 0 5.968-4.877 10.828-10.866 10.828S2.74 20.072 2.74 14.104c0-5.968 4.876-10.827 10.865-10.827Z" fill="#022AF0"/><path d="m8 13.583 4.15 4.564a1 1 0 0 0 1.564-.108L19.5 9.583" stroke="#7CEA57" stroke-width="2.5" stroke-linecap="round"/></svg>