<svg width="38" height="28" fill="none" xmlns="http://www.w3.org/2000/svg"><path d="M7.068 27.804a1.33 1.33 0 0 0 .205-.146l5.04-4.39c.522-.454.522-1.191 0-1.646a1.44 1.44 0 0 0-.945-.341 1.44 1.44 0 0 0-.945.341l-2.76 2.403V1.165C7.663.521 7.063 0 6.325 0c-.738 0-1.337.522-1.337 1.164v22.86L2.283 21.67a1.439 1.439 0 0 0-.946-.341c-.342 0-.684.113-.945.34-.523.456-.523 1.192 0 1.647l4.987 4.342c.062.054.131.103.205.146.034.02.071.034.107.05.04.02.08.042.123.057.045.016.093.026.14.038.037.01.072.021.11.028a1.57 1.57 0 0 0 .523 0c.042-.008.08-.02.12-.03.044-.013.088-.022.13-.037.047-.016.09-.039.133-.06.032-.015.066-.029.098-.046Z" fill="#022AF0"/><path fill-rule="evenodd" clip-rule="evenodd" d="M14.5 5A2.5 2.5 0 0 1 17 2.5h18a2.5 2.5 0 0 1 0 5H17A2.5 2.5 0 0 1 14.5 5Zm0 8a2.5 2.5 0 0 1 2.5-2.5h13a2.5 2.5 0 0 1 0 5H17a2.5 2.5 0 0 1-2.5-2.5Zm2.5 5.5a2.5 2.5 0 0 0 0 5h8a2.5 2.5 0 0 0 0-5h-8Z" fill="#7CEA57"/></svg>