<svg width="35" height="29" fill="none" xmlns="http://www.w3.org/2000/svg"><path fill-rule="evenodd" clip-rule="evenodd" d="m21.94 21.271-6.663 6.608a1.335 1.335 0 0 1-1.881-.005 1.314 1.314 0 0 1-.005-1.865l6.665-6.608a7.851 7.851 0 0 1-1.477-4.593c0-4.381 3.582-7.933 8-7.933 4.419 0 8 3.552 8 7.933 0 4.38-3.581 7.933-8 7.933-1.73 0-3.33-.545-4.639-1.47Zm1.037-2.564a5.339 5.339 0 0 0 3.602 1.39c2.946 0 5.334-2.369 5.334-5.29 0-2.92-2.388-5.288-5.334-5.288-2.945 0-5.333 2.368-5.333 5.289 0 1.374.528 2.625 1.395 3.565a1.37 1.37 0 0 1 .336.334Z" fill="#022AF0"/><path d="M15.51 12.125H3M30.008 3H3.004M11.005 20.875h-8" stroke="#7CEA57" stroke-width="5" stroke-linecap="round"/></svg>