<svg width="109" height="106" viewBox="0 0 109 106" fill="none" xmlns="http://www.w3.org/2000/svg">
<g filter="url(#filter0_d)">
<rect x="30" y="26" width="49" height="46" rx="10" fill="url(#paint0_linear)"/>
<rect x="30.5" y="26.5" width="48" height="45" rx="9.5" stroke="#FAFAFA" stroke-opacity="0.1"/>
</g>
<path fill-rule="evenodd" clip-rule="evenodd" d="M62.8 42.3C62.8 41.5836 62.5156 40.8969 62.0089 40.3911C61.5031 39.8844 60.8164 39.6 60.1 39.6C56.6512 39.6 49.1488 39.6 45.7 39.6C44.9836 39.6 44.2969 39.8844 43.7911 40.3911C43.2844 40.8969 43 41.5836 43 42.3C43 46.368 43 56.232 43 60.3C43 61.0164 43.2844 61.7031 43.7911 62.2089C44.2969 62.7156 44.9836 63 45.7 63C49.1488 63 56.6512 63 60.1 63C60.8164 63 61.5031 62.7156 62.0089 62.2089C62.5156 61.7031 62.8 61.0164 62.8 60.3V42.3ZM61 42.3V60.3C61 60.5385 60.9055 60.768 60.7363 60.9363C60.568 61.1055 60.3385 61.2 60.1 61.2H45.7C45.4615 61.2 45.232 61.1055 45.0637 60.9363C44.8945 60.768 44.8 60.5385 44.8 60.3V42.3C44.8 42.0615 44.8945 41.832 45.0637 41.6637C45.232 41.4945 45.4615 41.4 45.7 41.4H60.1C60.3385 41.4 60.568 41.4945 60.7363 41.6637C60.9055 41.832 61 42.0615 61 42.3ZM66.4 58.5V38.7C66.4 37.9836 66.1156 37.2969 65.6089 36.7911C65.1031 36.2844 64.4164 36 63.7 36C59.1415 36 47.5 36 47.5 36C47.0032 36 46.6 36.4032 46.6 36.9C46.6 37.3968 47.0032 37.8 47.5 37.8C47.5 37.8 59.1415 37.8 63.7 37.8C63.9385 37.8 64.168 37.8945 64.3363 38.0637C64.5055 38.232 64.6 38.4615 64.6 38.7V58.5C64.6 58.9968 65.0032 59.4 65.5 59.4C65.9968 59.4 66.4 58.9968 66.4 58.5Z" fill="#022AF0"/>
<path d="M47.5 47H58.5" stroke="white" stroke-width="2" stroke-linecap="round"/>
<path d="M48 51H56" stroke="white" stroke-width="2" stroke-linecap="round"/>
<path d="M48 55H54" stroke="white" stroke-width="2" stroke-linecap="round"/>
<defs>
<filter id="filter0_d" x="0" y="0" width="109" height="106" filterUnits="userSpaceOnUse" color-interpolation-filters="sRGB">
<feFlood flood-opacity="0" result="BackgroundImageFix"/>
<feColorMatrix in="SourceAlpha" type="matrix" values="0 0 0 0 0 0 0 0 0 0 0 0 0 0 0 0 0 0 127 0" result="hardAlpha"/>
<feOffset dy="4"/>
<feGaussianBlur stdDeviation="15"/>
<feComposite in2="hardAlpha" operator="out"/>
<feColorMatrix type="matrix" values="0 0 0 0 0.5 0 0 0 0 1 0 0 0 0 0.625065 0 0 0 0.25 0"/>
<feBlend mode="normal" in2="BackgroundImageFix" result="effect1_dropShadow"/>
<feBlend mode="normal" in="SourceGraphic" in2="effect1_dropShadow" result="shape"/>
</filter>
<linearGradient id="paint0_linear" x1="30" y1="18.4304" x2="73.9368" y2="66.067" gradientUnits="userSpaceOnUse">
<stop stop-color="#5DD4E8"/>
<stop offset="1" stop-color="#76F3B5"/>
</linearGradient>
</defs>
</svg>
