<svg width="109" height="106" viewBox="0 0 109 106" fill="none" xmlns="http://www.w3.org/2000/svg">
<g filter="url(#filter0_d)">
<rect x="30" y="26" width="49" height="46" rx="10" fill="url(#paint0_linear)"/>
<rect x="30.5" y="26.5" width="48" height="45" rx="9.5" stroke="#FAFAFA" stroke-opacity="0.1"/>
</g>
<path d="M65.78 41.8923L59.6567 35.2872C59.5941 35.2008 59.5118 35.1299 59.4163 35.08C59.3208 35.0302 59.2148 35.0028 59.1067 35H47.1533C46.3262 35.0091 45.535 35.3324 44.9467 35.9017C44.3584 36.4709 44.019 37.2417 44 38.0513V59.9487C44.019 60.7583 44.3584 61.5291 44.9467 62.0983C45.535 62.6676 46.3262 62.9909 47.1533 63H62.8467C63.6738 62.9909 64.465 62.6676 65.0533 62.0983C65.6416 61.5291 65.981 60.7583 66 59.9487V42.359C65.9819 42.1838 65.9044 42.0195 65.78 41.8923V41.8923ZM59.7667 37.7641L63.58 41.8205H60.39C60.1333 41.8205 59.7667 41.5333 59.7667 41.3179V37.7641ZM62.8467 61.5641H47.1533C46.7151 61.5554 46.2967 61.3834 45.9833 61.0833C45.67 60.7832 45.4852 60.3775 45.4667 59.9487V38.0513C45.4852 37.6225 45.67 37.2168 45.9833 36.9167C46.2967 36.6166 46.7151 36.4446 47.1533 36.4359H58.3V41.3179C58.3 42.3231 59.3267 43.2564 60.39 43.2564H64.5333V59.9487C64.5148 60.3775 64.33 60.7832 64.0167 61.0833C63.7033 61.3834 63.2849 61.5554 62.8467 61.5641V61.5641Z" fill="#022AF0" stroke="#022AF0" stroke-width="0.4"/>
<path d="M59.0341 56.9635C58.8831 56.9774 58.7314 56.9444 58.6006 56.8692L55.3736 55.2188L52.1466 56.8692C51.9901 56.954 51.8127 56.9945 51.634 56.9862C51.4554 56.9779 51.2826 56.921 51.1351 56.822C50.9937 56.7104 50.884 56.565 50.8165 56.3998C50.749 56.2347 50.7261 56.0553 50.7498 55.8789L51.3759 52.3424L48.7751 49.9375C48.637 49.8159 48.5401 49.656 48.4971 49.4791C48.454 49.3023 48.467 49.1168 48.5342 48.9473C48.5808 48.7746 48.6791 48.6194 48.8164 48.5018C48.9537 48.3842 49.1238 48.3094 49.3049 48.2871L52.9172 47.7684L54.5066 44.6091C54.5679 44.4316 54.6845 44.2773 54.8401 44.168C54.9956 44.0588 55.1822 44 55.3736 44C55.565 44 55.7516 44.0588 55.9072 44.168C56.0627 44.2773 56.1793 44.4316 56.2406 44.6091L57.83 47.7684L61.4423 48.2871C61.6234 48.3094 61.7935 48.3842 61.9308 48.5018C62.0681 48.6194 62.1664 48.7746 62.213 48.9473C62.2802 49.1168 62.2932 49.3023 62.2502 49.4791C62.2072 49.656 62.1102 49.8159 61.9722 49.9375L59.3713 52.3424L59.9974 55.8789C60.0212 56.0553 59.9982 56.2347 59.9307 56.3998C59.8632 56.565 59.7535 56.7104 59.6121 56.822L59.0341 56.9635ZM55.3736 53.1912C55.5294 53.1943 55.6805 53.2436 55.8071 53.3326L57.7337 54.3229L57.3484 52.1538C57.3327 52.0075 57.3505 51.8597 57.4005 51.721C57.4505 51.5824 57.5314 51.4564 57.6373 51.3521L59.2268 49.8904L57.0594 49.5603C56.9063 49.534 56.7616 49.4735 56.6363 49.3835C56.511 49.2936 56.4085 49.1766 56.3369 49.0416L55.3736 47.1554L54.4103 49.0416C54.3387 49.1766 54.2362 49.2936 54.1109 49.3835C53.9857 49.4735 53.8409 49.534 53.6878 49.5603L51.5204 49.8904L53.1099 51.3521C53.2158 51.4564 53.2967 51.5824 53.3467 51.721C53.3967 51.8597 53.4145 52.0075 53.3989 52.1538L53.0135 54.3229L54.9401 53.3326C55.0667 53.2436 55.2178 53.1943 55.3736 53.1912V53.1912Z" fill="white"/>
<defs>
<filter id="filter0_d" x="0" y="0" width="109" height="106" filterUnits="userSpaceOnUse" color-interpolation-filters="sRGB">
<feFlood flood-opacity="0" result="BackgroundImageFix"/>
<feColorMatrix in="SourceAlpha" type="matrix" values="0 0 0 0 0 0 0 0 0 0 0 0 0 0 0 0 0 0 127 0" result="hardAlpha"/>
<feOffset dy="4"/>
<feGaussianBlur stdDeviation="15"/>
<feComposite in2="hardAlpha" operator="out"/>
<feColorMatrix type="matrix" values="0 0 0 0 0.5 0 0 0 0 1 0 0 0 0 0.625065 0 0 0 0.25 0"/>
<feBlend mode="normal" in2="BackgroundImageFix" result="effect1_dropShadow"/>
<feBlend mode="normal" in="SourceGraphic" in2="effect1_dropShadow" result="shape"/>
</filter>
<linearGradient id="paint0_linear" x1="30" y1="18.4304" x2="73.9368" y2="66.067" gradientUnits="userSpaceOnUse">
<stop stop-color="#5DD4E8"/>
<stop offset="1" stop-color="#76F3B5"/>
</linearGradient>
</defs>
</svg>
