<svg width="109" height="106" viewBox="0 0 109 106" fill="none" xmlns="http://www.w3.org/2000/svg">
<g filter="url(#filter0_d)">
<rect x="30" y="26" width="49" height="46" rx="10" fill="url(#paint0_linear)"/>
<rect x="30.5" y="26.5" width="48" height="45" rx="9.5" stroke="#FAFAFA" stroke-opacity="0.1"/>
</g>
<path d="M69.6872 48.7996L62.6693 42.2906C62.5701 42.1985 62.4524 42.1254 62.3228 42.0756C62.1932 42.0257 62.0543 42 61.914 42C61.7737 42 61.6348 42.0256 61.5052 42.0753C61.3756 42.1251 61.2578 42.1981 61.1586 42.2901C61.0594 42.3821 60.9807 42.4914 60.927 42.6116C60.8734 42.7318 60.8458 42.8607 60.8458 42.9908C60.8459 43.1209 60.8736 43.2498 60.9273 43.37C60.9811 43.4902 61.0598 43.5993 61.1591 43.6913L66.3537 48.5094H58.2144C58.3607 48.8652 58.435 49.243 58.4333 49.6238C58.4345 49.9169 58.3914 50.2086 58.3051 50.4906H66.3537L61.1591 55.3087C61.0598 55.4007 60.9811 55.5098 60.9273 55.63C60.8736 55.7502 60.8459 55.8791 60.8458 56.0092C60.8458 56.1393 60.8734 56.2682 60.927 56.3884C60.9807 56.5086 61.0594 56.6179 61.1586 56.7099C61.2578 56.8019 61.3756 56.8749 61.5052 56.9247C61.6348 56.9744 61.7737 57 61.914 57C62.0543 57 62.1932 56.9743 62.3228 56.9244C62.4524 56.8746 62.5701 56.8015 62.6693 56.7094L69.6872 50.2004C69.7864 50.1084 69.8651 49.9992 69.9188 49.8791C69.9724 49.7589 70.0001 49.6301 70.0001 49.5C70.0001 49.3699 69.9724 49.2411 69.9188 49.1209C69.8651 49.0008 69.7864 48.8916 69.6872 48.7996V48.7996Z" fill="white" stroke="white" stroke-width="0.4"/>
<path d="M43.6526 48.5094L48.8559 43.6909C48.9553 43.599 49.034 43.4898 49.0878 43.3696C49.1416 43.2494 49.1692 43.1206 49.1692 42.9905C49.1692 42.8604 49.1416 42.7316 49.0878 42.6115C49.034 42.4913 48.9553 42.3821 48.8559 42.2901C48.7566 42.1981 48.6387 42.1252 48.5089 42.0754C48.3791 42.0256 48.24 42 48.0995 42C47.9591 42 47.82 42.0256 47.6902 42.0754C47.5604 42.1252 47.4425 42.1981 47.3432 42.2901L40.3134 48.7996C40.2141 48.8916 40.1352 49.0007 40.0815 49.1209C40.0277 49.2411 40 49.3699 40 49.5C40 49.6301 40.0277 49.7589 40.0815 49.8791C40.1352 49.9993 40.2141 50.1084 40.3134 50.2004L47.3432 56.7099C47.4425 56.8019 47.5604 56.8748 47.6902 56.9246C47.82 56.9744 47.9591 57 48.0995 57C48.24 57 48.3791 56.9744 48.5089 56.9246C48.6387 56.8748 48.7566 56.8019 48.8559 56.7099C48.9553 56.6179 49.034 56.5087 49.0878 56.3885C49.1416 56.2684 49.1692 56.1396 49.1692 56.0095C49.1692 55.8794 49.1416 55.7506 49.0878 55.6304C49.034 55.5102 48.9553 55.401 48.8559 55.3091L43.6526 50.4906H51.6948C51.6084 50.2087 51.5652 49.9169 51.5664 49.6238C51.5647 49.243 51.6391 48.8652 51.7857 48.5094H43.6526Z" fill="#022AF0" stroke="#022AF0" stroke-width="0.4"/>
<path d="M55.9343 47.5715C55.6432 47.4302 55.3237 47.3569 55 47.3572C54.6792 47.3569 54.3625 47.4302 54.0744 47.5715C53.7674 47.7185 53.4999 47.9365 53.294 48.2074C53.0881 48.4784 52.9496 48.7945 52.8902 49.1296C52.8307 49.4646 52.8519 49.8091 52.952 50.1343C53.0521 50.4596 53.2282 50.7564 53.4658 51C53.6661 51.2036 53.9049 51.3653 54.1683 51.4757C54.4317 51.5861 54.7145 51.6429 55.0001 51.6429C55.2857 51.6429 55.5684 51.5861 55.8318 51.4757C56.0952 51.3653 56.3341 51.2036 56.5344 51C56.7714 50.7566 56.9472 50.4603 57.0474 50.1356C57.1476 49.8109 57.1693 49.4671 57.1108 49.1324C57.0522 48.7977 56.915 48.4816 56.7105 48.2103C56.506 47.9389 56.24 47.72 55.9343 47.5715V47.5715Z" fill="#022AF0"/>
<defs>
<filter id="filter0_d" x="0" y="0" width="109" height="106" filterUnits="userSpaceOnUse" color-interpolation-filters="sRGB">
<feFlood flood-opacity="0" result="BackgroundImageFix"/>
<feColorMatrix in="SourceAlpha" type="matrix" values="0 0 0 0 0 0 0 0 0 0 0 0 0 0 0 0 0 0 127 0" result="hardAlpha"/>
<feOffset dy="4"/>
<feGaussianBlur stdDeviation="15"/>
<feComposite in2="hardAlpha" operator="out"/>
<feColorMatrix type="matrix" values="0 0 0 0 0.5 0 0 0 0 1 0 0 0 0 0.625065 0 0 0 0.25 0"/>
<feBlend mode="normal" in2="BackgroundImageFix" result="effect1_dropShadow"/>
<feBlend mode="normal" in="SourceGraphic" in2="effect1_dropShadow" result="shape"/>
</filter>
<linearGradient id="paint0_linear" x1="30" y1="18.4304" x2="73.9368" y2="66.067" gradientUnits="userSpaceOnUse">
<stop stop-color="#5DD4E8"/>
<stop offset="1" stop-color="#76F3B5"/>
</linearGradient>
</defs>
</svg>
