<svg width="49" height="46" fill="none" xmlns="http://www.w3.org/2000/svg"><rect width="49" height="46" rx="10" fill="url(#a)"/><rect x=".5" y=".5" width="48" height="45" rx="9.5" stroke="#FAFAFA" stroke-opacity=".1"/><path fill-rule="evenodd" clip-rule="evenodd" d="M32.8 16.3a2.697 2.697 0 0 0-2.7-2.7H15.7a2.697 2.697 0 0 0-2.7 2.7v18a2.697 2.697 0 0 0 2.7 2.7h14.4a2.697 2.697 0 0 0 2.7-2.7v-18Zm-1.8 0v18a.898.898 0 0 1-.9.9H15.7a.898.898 0 0 1-.9-.9v-18a.898.898 0 0 1 .9-.9h14.4a.898.898 0 0 1 .9.9Zm5.4 16.2V12.7a2.697 2.697 0 0 0-2.7-2.7H17.5a.9.9 0 0 0 0 1.8h16.2a.898.898 0 0 1 .9.9v19.8a.9.9 0 0 0 1.8 0Z" fill="#022AF0"/><path d="M17.5 21h11M18 25h8M18 29h6" stroke="#fff" stroke-width="2" stroke-linecap="round"/><defs><linearGradient id="a" x1="0" y1="-7.57" x2="43.937" y2="40.067" gradientUnits="userSpaceOnUse"><stop stop-color="#5DD4E8"/><stop offset="1" stop-color="#76F3B5"/></linearGradient></defs></svg>