<svg width="49" height="46" fill="none" xmlns="http://www.w3.org/2000/svg"><rect width="49" height="46" rx="10" fill="url(#a)"/><rect x=".5" y=".5" width="48" height="45" rx="9.5" stroke="#FAFAFA" stroke-opacity=".1"/><path d="m35.78 15.892-6.123-6.605a.692.692 0 0 0-.55-.287H17.153a3.225 3.225 0 0 0-2.206.902 3.092 3.092 0 0 0-.947 2.15v21.897c.019.81.358 1.58.947 2.15.588.569 1.38.892 2.206.901h15.694a3.225 3.225 0 0 0 2.206-.902c.589-.569.928-1.34.947-2.15V16.36a.783.783 0 0 0-.22-.467Zm-6.013-4.128 3.813 4.056h-3.19c-.257 0-.623-.287-.623-.502v-3.554Zm3.08 23.8H17.153a1.742 1.742 0 0 1-1.17-.48 1.671 1.671 0 0 1-.516-1.135V12.05c.018-.428.203-.834.516-1.134.314-.3.732-.472 1.17-.481H28.3v4.882c0 1.005 1.027 1.938 2.09 1.938h4.143V33.95a1.671 1.671 0 0 1-.516 1.134c-.314.3-.732.472-1.17.481Z" fill="#022AF0" stroke="#022AF0" stroke-width=".4"/><path d="M29.034 30.963a.735.735 0 0 1-.433-.094l-3.227-1.65-3.227 1.65a.98.98 0 0 1-1.012-.047 1.018 1.018 0 0 1-.385-.943l.626-3.537-2.6-2.404a.878.878 0 0 1-.24-.99.894.894 0 0 1 .28-.446.925.925 0 0 1 .489-.215l3.612-.519 1.59-3.159a.898.898 0 0 1 .333-.441.929.929 0 0 1 1.067 0c.156.11.272.264.334.441l1.589 3.16 3.612.518a.925.925 0 0 1 .489.215.894.894 0 0 1 .282.445.878.878 0 0 1-.24.99l-2.602 2.405.626 3.537c.024.176.001.356-.066.52-.068.166-.178.311-.319.423l-.578.142Zm-3.66-3.772a.781.781 0 0 1 .433.142l1.927.99-.386-2.17a.97.97 0 0 1 .29-.8l1.589-1.463-2.168-.33a1.022 1.022 0 0 1-.722-.518l-.963-1.887-.964 1.887a1.021 1.021 0 0 1-.723.519l-2.167.33 1.59 1.461a.99.99 0 0 1 .289.802l-.386 2.169 1.927-.99a.781.781 0 0 1 .434-.142Z" fill="#fff"/><defs><linearGradient id="a" x1="0" y1="-7.57" x2="43.937" y2="40.067" gradientUnits="userSpaceOnUse"><stop stop-color="#5DD4E8"/><stop offset="1" stop-color="#76F3B5"/></linearGradient></defs></svg>