<svg width="49" height="46" fill="none" xmlns="http://www.w3.org/2000/svg"><rect width="49" height="46" rx="10" fill="url(#a)"/><rect x=".5" y=".5" width="48" height="45" rx="9.5" stroke="#FAFAFA" stroke-opacity=".1"/><path d="M24.782 35.538a.98.98 0 0 1-.291.697c-.187.185-.44.289-.705.289h-7.8a4.007 4.007 0 0 1-2.819-1.155A3.923 3.923 0 0 1 12 32.58V12.944c0-1.046.42-2.05 1.167-2.789A4.007 4.007 0 0 1 15.985 9h12.962c1.057 0 2.07.415 2.818 1.155a3.923 3.923 0 0 1 1.167 2.789v6.546a.981.981 0 0 1-.292.697 1.002 1.002 0 0 1-1.409 0 .98.98 0 0 1-.291-.697v-6.546c0-.523-.21-1.025-.584-1.395a2.003 2.003 0 0 0-1.409-.577H15.985c-.528 0-1.035.208-1.409.577-.373.37-.583.872-.583 1.395V32.58c0 .523.21 1.025.583 1.394.374.37.88.578 1.41.578h7.8c.264 0 .518.104.705.289a.981.981 0 0 1 .291.697Zm2.01-14.942H18.14c-.264 0-.518-.104-.704-.288a.98.98 0 0 1 0-1.395c.186-.185.44-.288.704-.288h8.652c.264 0 .518.103.704.288a.98.98 0 0 1 0 1.395c-.186.184-.44.288-.704.288Zm-3.27 4.402h-5.38c-.265 0-.518-.103-.705-.288a.98.98 0 0 1 0-1.395c.186-.184.44-.288.704-.288h5.38c.264 0 .518.104.705.288a.98.98 0 0 1 0 1.395c-.187.185-.44.288-.705.288Zm-1.714 2.436c.264 0 .517.104.704.288a.98.98 0 0 1 0 1.395c-.187.185-.44.288-.704.288H18.14c-.264 0-.517-.103-.704-.288a.98.98 0 0 1 0-1.395c.186-.184.44-.288.704-.288h3.667Z" fill="#022AF0"/><path d="M37.653 29.91v-.02c.48-.386.888-.853 1.204-1.38a.978.978 0 0 0 .008-.995l-1.357-2.326a.998.998 0 0 0-.877-.493 5.258 5.258 0 0 0-1.81.343l-.015-.01a5.173 5.173 0 0 0-.603-1.72.992.992 0 0 0-.87-.506h-2.715a1.003 1.003 0 0 0-.87.507 5.149 5.149 0 0 0-.603 1.72l-.016.009a5.258 5.258 0 0 0-1.81-.343 1.041 1.041 0 0 0-.876.493l-1.358 2.326a.978.978 0 0 0 .009 1c.315.527.723.995 1.203 1.38v.02a5.18 5.18 0 0 0-1.203 1.38.979.979 0 0 0-.01.998l1.359 2.321a1.056 1.056 0 0 0 .877.493 5.258 5.258 0 0 0 1.809-.343l.016.01c.097.604.3 1.186.602 1.72a.99.99 0 0 0 .871.506h2.714a1.004 1.004 0 0 0 .87-.507 5.173 5.173 0 0 0 .604-1.72l.016-.009c.578.22 1.191.336 1.81.343a1.034 1.034 0 0 0 .878-.493l1.357-2.326a.977.977 0 0 0-.008-.998 5.199 5.199 0 0 0-1.206-1.38Zm-1.256 1.534c.16.113.303.249.422.404l-.72 1.232a4.28 4.28 0 0 1-.497-.099 1 1 0 0 0-1.264-.221l-1.047.598a.892.892 0 0 0-.445.464.878.878 0 0 0-.014.64 1.917 1.917 0 0 1-.142.564h-1.437a3.82 3.82 0 0 1-.16-.472.977.977 0 0 0-.437-1.196l-1.05-.598a.904.904 0 0 0-1.195.157 1.934 1.934 0 0 1-.564.16l-.719-1.231c.104-.132.215-.257.334-.375a.999.999 0 0 0 .592-.336.98.98 0 0 0 .235-.635V29.3a.881.881 0 0 0-.184-.613.898.898 0 0 0-.552-.332 1.945 1.945 0 0 1-.423-.404l.72-1.232c.167.024.333.057.498.099a1 1 0 0 0 1.263.223l1.049-.598a.879.879 0 0 0 .46-1.105c.017-.194.066-.384.142-.563H32.7c.063.154.116.313.16.474a.976.976 0 0 0 .437 1.194l1.047.598a.905.905 0 0 0 1.196-.158c.179-.08.369-.135.564-.16l.72 1.232c-.105.131-.216.256-.335.375a.999.999 0 0 0-.592.336.98.98 0 0 0-.235.635V30.5a.881.881 0 0 0 .184.612.899.899 0 0 0 .55.332Zm-4.422-4.502c-.591 0-1.169.173-1.66.498a2.964 2.964 0 0 0-1.101 1.328 2.929 2.929 0 0 0 .648 3.223c.418.414.95.695 1.53.81.58.113 1.18.055 1.727-.169a2.982 2.982 0 0 0 1.341-1.09 2.936 2.936 0 0 0-.371-3.734 3.005 3.005 0 0 0-2.114-.866Zm0 3.943a1.004 1.004 0 0 1-.92-.608.976.976 0 0 1 .216-1.075.999.999 0 0 1 1.085-.213.979.979 0 0 1 .323 1.608c-.186.184-.44.288-.704.288Z" fill="#fff"/><defs><linearGradient id="a" x1="0" y1="-7.57" x2="43.937" y2="40.067" gradientUnits="userSpaceOnUse"><stop stop-color="#5DD4E8"/><stop offset="1" stop-color="#76F3B5"/></linearGradient></defs></svg>