<svg width="109" height="106" viewBox="0 0 109 106" fill="none" xmlns="http://www.w3.org/2000/svg">
<g filter="url(#filter0_d)">
<rect x="30" y="26" width="49" height="46" rx="10" fill="url(#paint0_linear)"/>
<rect x="30.5" y="26.5" width="48" height="45" rx="9.5" stroke="#FAFAFA" stroke-opacity="0.1"/>
</g>
<path d="M54.7825 61.5379C54.7825 61.7994 54.6775 62.0501 54.4907 62.235C54.3038 62.4199 54.0504 62.5238 53.7862 62.5238H45.9852C44.9282 62.5238 43.9146 62.1083 43.1672 61.3687C42.4199 60.6292 42 59.6261 42 58.5801V38.9437C42 37.8977 42.4199 36.8947 43.1672 36.1551C43.9146 35.4155 44.9282 35 45.9852 35H58.947C60.0039 35 61.0176 35.4155 61.7649 36.1551C62.5123 36.8947 62.9322 37.8977 62.9322 38.9437V45.4901C62.9322 45.7516 62.8272 46.0024 62.6404 46.1873C62.4535 46.3722 62.2001 46.4761 61.9359 46.4761C61.6716 46.4761 61.4182 46.3722 61.2314 46.1873C61.0445 46.0024 60.9396 45.7516 60.9396 45.4901V38.9437C60.9396 38.4207 60.7296 37.9192 60.356 37.5494C59.9823 37.1796 59.4755 36.9718 58.947 36.9718H45.9852C45.4567 36.9718 44.9499 37.1796 44.5762 37.5494C44.2025 37.9192 43.9926 38.4207 43.9926 38.9437V58.5801C43.9926 59.1031 44.2025 59.6046 44.5762 59.9744C44.9499 60.3442 45.4567 60.552 45.9852 60.552H53.7862C54.0504 60.552 54.3038 60.6558 54.4907 60.8407C54.6775 61.0256 54.7825 61.2764 54.7825 61.5379ZM56.792 46.5963H48.1402C47.8759 46.5963 47.6225 46.4925 47.4357 46.3076C47.2488 46.1227 47.1439 45.8719 47.1439 45.6104C47.1439 45.3489 47.2488 45.0982 47.4357 44.9133C47.6225 44.7284 47.8759 44.6245 48.1402 44.6245H56.792C57.0562 44.6245 57.3096 44.7284 57.4965 44.9133C57.6833 45.0982 57.7883 45.3489 57.7883 45.6104C57.7883 45.8719 57.6833 46.1227 57.4965 46.3076C57.3096 46.4925 57.0562 46.5963 56.792 46.5963ZM53.5212 50.9985H48.1412C47.8769 50.9985 47.6235 50.8946 47.4367 50.7097C47.2498 50.5248 47.1449 50.274 47.1449 50.0125C47.1449 49.7511 47.2498 49.5003 47.4367 49.3154C47.6235 49.1305 47.8769 49.0266 48.1412 49.0266H53.5212C53.7854 49.0266 54.0388 49.1305 54.2256 49.3154C54.4125 49.5003 54.5175 49.7511 54.5175 50.0125C54.5175 50.274 54.4125 50.5248 54.2256 50.7097C54.0388 50.8946 53.7854 50.9985 53.5212 50.9985ZM51.8075 53.4337C52.0718 53.4337 52.3252 53.5375 52.512 53.7224C52.6989 53.9073 52.8038 54.1581 52.8038 54.4196C52.8038 54.6811 52.6989 54.9318 52.512 55.1167C52.3252 55.3016 52.0718 55.4055 51.8075 55.4055H48.1412C47.8769 55.4055 47.6235 55.3016 47.4367 55.1167C47.2498 54.9318 47.1449 54.6811 47.1449 54.4196C47.1449 54.1581 47.2498 53.9073 47.4367 53.7224C47.6235 53.5375 47.8769 53.4337 48.1412 53.4337H51.8075Z" fill="#022AF0"/>
<path d="M67.653 55.9093V55.8906C68.1335 55.5045 68.5409 55.0372 68.8566 54.5103C68.9469 54.3601 68.9952 54.1888 68.9966 54.014C68.998 53.8392 68.9524 53.6672 68.8645 53.5155L67.5076 51.1888C67.4185 51.0373 67.2904 50.9118 67.1364 50.8252C66.9824 50.7386 66.808 50.694 66.6308 50.6958C66.0119 50.7029 65.3993 50.8191 64.8216 51.0389L64.8056 51.0291C64.7082 50.4253 64.5042 49.8433 64.2029 49.3096C64.1165 49.156 63.9903 49.028 63.8372 48.9389C63.6841 48.8498 63.5097 48.8028 63.3321 48.8029H60.6182C60.4406 48.8028 60.2662 48.8498 60.1131 48.9389C59.96 49.028 59.8337 49.156 59.7474 49.3096C59.4456 49.8431 59.2416 50.4252 59.1447 51.0291L59.1287 51.0389C58.551 50.8191 57.9384 50.7029 57.3195 50.6958C57.1429 50.697 56.9697 50.743 56.8162 50.8293C56.6627 50.9156 56.5341 51.0393 56.4427 51.1888L55.0848 53.5155C54.9961 53.6678 54.9501 53.8408 54.9517 54.0166C54.9533 54.1924 55.0023 54.3645 55.0937 54.5152C55.409 55.0423 55.8165 55.5097 56.2973 55.8955V55.9143C55.8165 56.3001 55.409 56.7675 55.0937 57.2945C55.0025 57.4451 54.9536 57.6171 54.952 57.7927C54.9504 57.9683 54.9963 58.1411 55.0848 58.2933L56.4427 60.6141C56.5361 60.7618 56.6652 60.8841 56.8182 60.9701C56.9712 61.0562 57.1435 61.1032 57.3195 61.1071C57.9384 61.1 58.551 60.9838 59.1287 60.764L59.1447 60.7738C59.2416 61.3777 59.4456 61.9598 59.7474 62.4933C59.8337 62.6469 59.96 62.7749 60.1131 62.864C60.2662 62.9531 60.4406 63 60.6182 63H63.3321C63.5097 63 63.6841 62.9531 63.8372 62.864C63.9903 62.7749 64.1165 62.6469 64.2029 62.4933C64.5042 61.9596 64.7082 61.3776 64.8056 60.7738L64.8216 60.764C65.3999 60.9841 66.0133 61.1003 66.6328 61.1071C66.8095 61.1066 66.9831 61.061 67.1367 60.9746C67.2903 60.8883 67.4187 60.7641 67.5096 60.6141L68.8665 58.2883C68.9552 58.1363 69.0012 57.9635 68.9998 57.7879C68.9984 57.6123 68.9496 57.4403 68.8585 57.2896C68.5423 56.7626 68.1342 56.2953 67.653 55.9093ZM66.3967 57.4444C66.5572 57.557 66.6996 57.693 66.8191 57.8476L66.0998 59.08C65.9319 59.057 65.7656 59.0241 65.6017 58.9814C65.4512 58.8031 65.242 58.6831 65.0109 58.6425C64.7798 58.6019 64.5416 58.6434 64.3384 58.7596L63.2912 59.3581C63.0898 59.4526 62.9312 59.6179 62.8462 59.8219C62.7613 60.0259 62.7562 60.2538 62.832 60.4613C62.8136 60.6557 62.7655 60.8461 62.6895 61.0262H61.2528C61.1894 60.8724 61.1362 60.7146 61.0934 60.554C61.1749 60.3356 61.1757 60.0958 61.0957 59.8769C61.0156 59.658 60.8599 59.4742 60.656 59.3581L59.6069 58.7596C59.4235 58.6341 59.1994 58.5807 58.9784 58.6098C58.7573 58.639 58.5552 58.7486 58.4114 58.9174C58.2328 58.9989 58.0426 59.0528 57.8475 59.0771L57.1282 57.8457C57.2318 57.7143 57.3433 57.5892 57.4619 57.471C57.6933 57.4315 57.9031 57.3124 58.0544 57.1348C58.2057 56.9571 58.2887 56.7322 58.2889 56.4999V55.301C58.3069 55.081 58.2415 54.8623 58.1054 54.6875C57.9692 54.5126 57.7722 54.3943 57.5526 54.3555C57.3921 54.2429 57.2497 54.107 57.1302 53.9523L57.8495 52.7199C58.0172 52.7436 58.1835 52.7766 58.3476 52.8185C58.4978 52.9971 58.7069 53.1175 58.938 53.1585C59.1692 53.1994 59.4075 53.1583 59.6109 53.0423L60.66 52.4438C60.8619 52.3493 61.0209 52.1836 61.1059 51.9792C61.1908 51.7748 61.1956 51.5464 61.1193 51.3386C61.1374 51.1449 61.1855 50.955 61.2618 50.7757H62.6995C62.7628 50.9303 62.8163 51.0887 62.8599 51.2499C62.7789 51.468 62.7784 51.7074 62.8584 51.9258C62.9384 52.1443 63.0938 52.3277 63.2972 52.4438L64.3443 53.0423C64.5277 53.1678 64.7519 53.2212 64.9729 53.1921C65.194 53.1629 65.3961 53.0533 65.5399 52.8845C65.7186 52.8033 65.9087 52.7494 66.1038 52.7248L66.8231 53.9562C66.7189 54.0871 66.6075 54.2121 66.4894 54.3309C66.258 54.3704 66.0481 54.4895 65.8969 54.6671C65.7456 54.8448 65.6625 55.0697 65.6624 55.302V56.4999C65.6445 56.7194 65.7098 56.9377 65.8455 57.1123C65.9812 57.2868 66.1777 57.4052 66.3967 57.4444ZM61.9751 52.9417C61.384 52.9417 60.8061 53.1152 60.3146 53.4402C59.8231 53.7652 59.44 54.2271 59.2138 54.7676C58.9875 55.3081 58.9284 55.9028 59.0437 56.4765C59.159 57.0502 59.4437 57.5773 59.8617 57.9909C60.2797 58.4046 60.8123 58.6863 61.392 58.8004C61.9718 58.9145 62.5728 58.8559 63.1189 58.6321C63.6651 58.4082 64.1319 58.0291 64.4603 57.5427C64.7887 57.0563 64.964 56.4845 64.964 55.8995C64.964 55.115 64.6491 54.3627 64.0886 53.808C63.5281 53.2533 62.7678 52.9417 61.9751 52.9417ZM61.9751 56.8854C61.7781 56.8854 61.5855 56.8276 61.4216 56.7192C61.2578 56.6109 61.1301 56.4569 61.0547 56.2768C60.9793 56.0966 60.9595 55.8984 60.998 55.7071C61.0364 55.5159 61.1313 55.3402 61.2707 55.2023C61.41 55.0644 61.5875 54.9705 61.7808 54.9325C61.974 54.8945 62.1744 54.914 62.3564 54.9886C62.5385 55.0632 62.6941 55.1896 62.8035 55.3517C62.913 55.5139 62.9714 55.7045 62.9714 55.8995C62.9714 56.161 62.8665 56.4117 62.6796 56.5966C62.4928 56.7815 62.2394 56.8854 61.9751 56.8854Z" fill="white"/>
<defs>
<filter id="filter0_d" x="0" y="0" width="109" height="106" filterUnits="userSpaceOnUse" color-interpolation-filters="sRGB">
<feFlood flood-opacity="0" result="BackgroundImageFix"/>
<feColorMatrix in="SourceAlpha" type="matrix" values="0 0 0 0 0 0 0 0 0 0 0 0 0 0 0 0 0 0 127 0" result="hardAlpha"/>
<feOffset dy="4"/>
<feGaussianBlur stdDeviation="15"/>
<feComposite in2="hardAlpha" operator="out"/>
<feColorMatrix type="matrix" values="0 0 0 0 0.5 0 0 0 0 1 0 0 0 0 0.625065 0 0 0 0.25 0"/>
<feBlend mode="normal" in2="BackgroundImageFix" result="effect1_dropShadow"/>
<feBlend mode="normal" in="SourceGraphic" in2="effect1_dropShadow" result="shape"/>
</filter>
<linearGradient id="paint0_linear" x1="30" y1="18.4304" x2="73.9368" y2="66.067" gradientUnits="userSpaceOnUse">
<stop stop-color="#5DD4E8"/>
<stop offset="1" stop-color="#76F3B5"/>
</linearGradient>
</defs>
</svg>
