<svg width="49" height="46" fill="none" xmlns="http://www.w3.org/2000/svg"><rect width="49" height="46" rx="10" fill="url(#a)"/><rect x=".5" y=".5" width="48" height="45" rx="9.5" stroke="#FAFAFA" stroke-opacity=".1"/><path d="m39.687 22.8-7.018-6.51a1.076 1.076 0 0 0-.346-.214 1.139 1.139 0 0 0-1.164.214.99.99 0 0 0-.232.322.93.93 0 0 0 0 .758.99.99 0 0 0 .232.321l5.195 4.818h-8.14c.147.356.221.734.22 1.115 0 .293-.043.585-.129.867h8.049l-5.195 4.818a.99.99 0 0 0-.232.321.93.93 0 0 0 .232 1.08c.099.092.217.165.346.215a1.143 1.143 0 0 0 .818 0c.13-.05.247-.123.346-.216l7.018-6.509a.99.99 0 0 0 .232-.32.93.93 0 0 0 0-.76.99.99 0 0 0-.232-.32Z" fill="#fff" stroke="#fff" stroke-width=".4"/><path d="m13.653 22.51 5.203-4.82a.988.988 0 0 0 .232-.32.927.927 0 0 0 0-.759.989.989 0 0 0-.232-.32 1.078 1.078 0 0 0-.347-.216 1.144 1.144 0 0 0-.819 0c-.13.05-.248.123-.347.215l-7.03 6.51a.989.989 0 0 0-.232.32.927.927 0 0 0 0 .76c.054.12.133.228.232.32l7.03 6.51c.1.092.217.165.347.215a1.144 1.144 0 0 0 .819 0c.13-.05.248-.123.347-.215a.989.989 0 0 0 .232-.322.926.926 0 0 0 0-.758.988.988 0 0 0-.232-.32l-5.203-4.82h8.042a2.915 2.915 0 0 1-.129-.866c-.001-.381.073-.759.22-1.115h-8.133Z" fill="#022AF0" stroke="#022AF0" stroke-width=".4"/><path d="M25.934 21.572a2.135 2.135 0 0 0-2.64.635A2.143 2.143 0 0 0 23.466 25a2.153 2.153 0 0 0 3.068 0 2.146 2.146 0 0 0-.6-3.428Z" fill="#022AF0"/><defs><linearGradient id="a" x1="0" y1="-7.57" x2="43.937" y2="40.067" gradientUnits="userSpaceOnUse"><stop stop-color="#5DD4E8"/><stop offset="1" stop-color="#76F3B5"/></linearGradient></defs></svg>