<svg width="23" height="28" fill="none" xmlns="http://www.w3.org/2000/svg"><path d="M23 19.11c0 2.555-2.29 6.387-6.41 8.096-.342.141-.681-.221-.46-.492.906-1.115 1.345-2.551 1.345-3.822 0-2.412-1.411-3.443-1.411-3.443a6.69 6.69 0 0 1-1.66 2.61c-.705.68-1.947-.049-1.577-.9 1.63-3.745 1.702-5.073-1.316-6.692 1.26 4.268-4.657 4.78-4.657 9.6 0 .735.3 1.734.917 2.607.204.288-.16.625-.499.466C2.973 25.117 0 20.532 0 16.792c0-4.665 5.117-8.569 5.293-8.7l.004-.003c.189 1.819 1.066 3.181 2.373 4.263.278.23.71-.043.542-.346-.642-1.16-1.315-2.988-.98-5.226.004-.016.004-.035.009-.05.34-2.675 2.408-4.733 5.689-6.492C10.453 8.628 23 9.636 23 19.109Z" fill="#7CEA57"/></svg>