<svg width="118" height="87" fill="none" xmlns="http://www.w3.org/2000/svg"><g filter="url(#a)"><rect width="89" height="79" rx="10" fill="#022AF0"/></g><rect x=".5" y=".5" width="88" height="78" rx="9.5" stroke="#FAFAFA" stroke-opacity=".1"/><rect x="7" y="15" width="50" height="8.145" rx="4.073" fill="#131DAA" fill-opacity=".37"/><rect x="7.5" y="15.5" width="49" height="7.145" rx="3.573" stroke="#80FF9F" stroke-opacity=".5"/><rect x="69" y="15" width="10" height="8.145" rx="4.073" fill="#022AF0" fill-opacity=".36"/><rect x="69.5" y="15.5" width="9" height="7.145" rx="3.573" stroke="#80FF9F" stroke-opacity=".5"/><rect x="7" y="36.382" width="39" height="34.618" rx="5" fill="#0A1193" fill-opacity=".4"/><rect x="7.5" y="36.882" width="38" height="33.618" rx="4.5" stroke="#80FF9F" stroke-opacity=".5"/><rect width="32" height="13.236" rx="5" transform="matrix(-1 0 0 1 82 36.382)" fill="#131DAA" fill-opacity=".12"/><rect x="-.5" y=".5" width="31" height="12.236" rx="4.5" transform="matrix(-1 0 0 1 81 36.382)" stroke="#80FF9F" stroke-opacity=".5"/><rect width="32" height="13.236" rx="5" transform="matrix(-1 0 0 1 82 53.69)" fill="#131DAA" fill-opacity=".23"/><rect x="-.5" y=".5" width="31" height="12.236" rx="4.5" transform="matrix(-1 0 0 1 81 53.69)" stroke="#80FF9F" stroke-opacity=".5"/><path d="M114.153 69.629a27.425 27.425 0 0 1-1.837 2.934l-.226.314c-.134.187.29-.38.093-.127-.035.048-.07.09-.105.139-.18.24-.372.476-.558.705-.355.428-.721.85-1.099 1.254a26.31 26.31 0 0 1-2.471 2.338c-.099.084-.198.162-.296.24-.175.145.372-.294.122-.096-.047.037-.088.073-.134.103-.233.18-.471.361-.715.536a25.323 25.323 0 0 1-4.744 2.712l.418-.18a24.988 24.988 0 0 1-6.436 1.82c.157-.025.308-.043.465-.067a25.274 25.274 0 0 1-6.877 0c.156.024.308.042.465.066a24.99 24.99 0 0 1-6.436-1.82l.418.181a26.087 26.087 0 0 1-3.011-1.56 22.86 22.86 0 0 1-1.384-.905 62.263 62.263 0 0 1-.651-.47c-.11-.084-.227-.168-.337-.259-.047-.036-.088-.072-.134-.102-.047-.037-.087-.073-.134-.103.076.06.145.12.221.175-.895-.681-1.727-1.483-2.506-2.296a27.7 27.7 0 0 1-1.633-1.862c-.088-.115-.18-.223-.268-.338-.035-.048-.07-.09-.105-.138-.034-.049-.07-.09-.104-.14l.168.23c-.802-1-1.476-2.151-2.087-3.278v1.826a27.598 27.598 0 0 1 1.837-2.935c.076-.103.151-.211.227-.314.134-.187-.29.38-.093.127.035-.048.07-.09.105-.139.18-.24.372-.476.558-.705.355-.428.72-.85 1.099-1.253a26.309 26.309 0 0 1 2.47-2.339c.1-.084.198-.162.297-.24.174-.145-.372.295-.122.096.046-.037.087-.073.134-.103.232-.18.47-.361.715-.536a25.226 25.226 0 0 1 4.744-2.712l-.419.18a24.982 24.982 0 0 1 6.436-1.82c-.157.025-.308.043-.465.067a25.275 25.275 0 0 1 6.878 0c-.157-.024-.308-.042-.465-.066 2.215.313 4.378.928 6.436 1.82l-.419-.181c1.035.452 2.041.976 3.012 1.56.471.284.93.585 1.384.905.221.156.436.313.651.47.11.084.227.168.337.259.047.036.087.072.134.102.046.037.087.073.134.103-.076-.06-.146-.12-.221-.175.895.675 1.726 1.483 2.505 2.296a27.837 27.837 0 0 1 1.634 1.862c.087.115.18.223.268.338.034.048.069.09.104.138.035.049.07.09.105.14l-.169-.23c.803 1 1.477 2.152 2.087 3.285.448.825 1.605 1.169 2.384.65.803-.536 1.105-1.59.628-2.47a29.12 29.12 0 0 0-7.494-8.896 26.513 26.513 0 0 0-9.977-4.947 26.869 26.869 0 0 0-11.854-.26A26.347 26.347 0 0 0 77.6 60.076 28.719 28.719 0 0 0 69.8 68.61c-.395.657-.89 1.368-.785 2.17.082.626.512 1.229.832 1.765a29.619 29.619 0 0 0 1.65 2.441 27.557 27.557 0 0 0 3.768 4.146c2.919 2.604 6.308 4.58 9.989 5.756 3.744 1.193 7.732 1.488 11.61.952a26.432 26.432 0 0 0 10.668-3.954c3.256-2.097 6.041-4.881 8.239-8.13.5-.74.965-1.506 1.389-2.295.448-.826.215-2.013-.628-2.471-.814-.464-1.901-.241-2.378.639Z" fill="url(#b)"/><path d="M98.276 70.538c0 .308-.024.615-.059.916.024-.162.041-.319.064-.482a7.615 7.615 0 0 1-.465 1.796l.175-.434a7.316 7.316 0 0 1-.61 1.188c-.059.09-.117.174-.175.259-.134.199.133-.175.133-.175-.005.036-.093.12-.122.15a7.63 7.63 0 0 1-.884.922c-.046.043-.098.085-.145.127-.15.133.338-.253.175-.138-.087.06-.163.12-.25.18-.372.26-.768.477-1.18.657l.418-.18a7.007 7.007 0 0 1-1.732.482c.157-.024.308-.043.465-.067a6.722 6.722 0 0 1-1.773 0c.156.024.308.043.465.067a6.935 6.935 0 0 1-1.733-.483l.419.181a6.895 6.895 0 0 1-1.146-.632c-.087-.06-.168-.121-.25-.181-.192-.139.169.138.169.138-.035-.006-.116-.096-.145-.126a7.732 7.732 0 0 1-.89-.916c-.04-.048-.081-.103-.122-.15-.128-.158.244.349.134.18-.059-.09-.117-.169-.175-.26a7.336 7.336 0 0 1-.634-1.223l.175.434a7.69 7.69 0 0 1-.465-1.796c.023.163.04.32.064.483a7.477 7.477 0 0 1 0-1.839c-.024.163-.04.32-.064.483.081-.621.238-1.218.465-1.796l-.175.434a7.32 7.32 0 0 1 .611-1.188c.058-.09.116-.175.174-.259.134-.199-.133.175-.133.175.005-.036.093-.12.122-.15a7.63 7.63 0 0 1 .884-.922c.046-.043.098-.085.145-.127.151-.133-.337.253-.175.138.088-.06.163-.12.25-.18.372-.26.768-.477 1.18-.657l-.418.18a7 7 0 0 1 1.733-.482c-.157.024-.308.042-.465.067a6.722 6.722 0 0 1 1.773 0c-.157-.025-.308-.043-.465-.067a6.933 6.933 0 0 1 1.732.482l-.418-.18a6.891 6.891 0 0 1 1.395.813c.192.139-.169-.138-.169-.138.035.006.117.096.146.126a7.728 7.728 0 0 1 .89.916c.04.048.08.103.121.15.128.157-.244-.349-.133-.18.058.09.116.169.174.26.25.385.46.795.634 1.223l-.175-.434a7.69 7.69 0 0 1 .465 1.796c-.023-.163-.04-.32-.064-.483.035.308.053.615.059.922.005.947.796 1.85 1.744 1.808.942-.042 1.75-.795 1.744-1.808-.012-1.76-.512-3.573-1.5-5.014-1.076-1.56-2.5-2.7-4.233-3.362-3.226-1.236-7.168-.139-9.348 2.621a9.402 9.402 0 0 0-2.03 5.165c-.139 1.766.309 3.622 1.187 5.14.854 1.477 2.162 2.755 3.68 3.466 1.738.813 3.581 1.048 5.46.669 3.313-.67 6.133-3.652 6.644-7.124.076-.518.14-1.036.14-1.56.006-.947-.808-1.85-1.744-1.808a1.806 1.806 0 0 0-1.744 1.808Z" fill="url(#c)"/><defs><linearGradient id="b" x1="93.196" y1="55" x2="93.196" y2="86.097" gradientUnits="userSpaceOnUse"><stop stop-color="#63DCDB"/><stop offset="1" stop-color="#79F6B1"/></linearGradient><linearGradient id="c" x1="93.196" y1="61.658" x2="93.196" y2="79.4" gradientUnits="userSpaceOnUse"><stop stop-color="#63DCDB"/><stop offset="1" stop-color="#79F6B1"/></linearGradient><filter id="a" x="0" y="0" width="89" height="83" filterUnits="userSpaceOnUse" color-interpolation-filters="sRGB"><feFlood flood-opacity="0" result="BackgroundImageFix"/><feBlend in="SourceGraphic" in2="BackgroundImageFix" result="shape"/><feColorMatrix in="SourceAlpha" values="0 0 0 0 0 0 0 0 0 0 0 0 0 0 0 0 0 0 127 0" result="hardAlpha"/><feOffset dy="4"/><feGaussianBlur stdDeviation="15"/><feComposite in2="hardAlpha" operator="arithmetic" k2="-1" k3="1"/><feColorMatrix values="0 0 0 0 0.5 0 0 0 0 1 0 0 0 0 0.625065 0 0 0 1 0"/><feBlend in2="shape" result="effect1_innerShadow"/></filter></defs></svg>