<svg width="814" height="554" viewBox="0 0 814 554" fill="none" xmlns="http://www.w3.org/2000/svg">
<g opacity="0.5">
<path style="mix-blend-mode:screen" opacity="0.5" d="M519.502 -19.5636C527.465 -11.6023 533.781 -2.15051 538.091 8.25214C542.401 18.6548 544.619 29.8045 544.619 41.0645C544.619 52.3244 542.401 63.4741 538.091 73.8768C533.781 84.2794 527.465 93.7313 519.502 101.692L146.386 474.824C130.304 490.9 108.496 499.931 85.7565 499.931C63.0173 499.931 41.209 490.9 25.1274 474.824C9.05645 458.74 0.0290527 436.933 0.0290527 414.196C0.0290527 391.459 9.05645 369.653 25.1274 353.568L398.244 -19.5636C414.325 -35.6397 436.133 -44.6707 458.873 -44.6707C481.612 -44.6707 503.42 -35.6397 519.502 -19.5636Z" fill="url(#paint0_linear_525:37)" fill-opacity="0.5"/>
<path style="mix-blend-mode:screen" opacity="0.5" d="M910.694 -53.6949C919.35 -45.045 926.216 -34.7745 930.901 -23.4701C935.585 -12.1657 937.996 -0.0490265 937.996 12.1876C937.996 24.4241 935.585 36.5408 930.901 47.8452C926.216 59.1496 919.35 69.4202 910.694 78.07L526.081 462.699C508.602 480.169 484.9 489.984 460.186 489.984C435.473 489.984 411.771 480.169 394.291 462.699C376.82 445.22 367.006 421.518 367.006 396.805C367.006 372.092 376.82 348.39 394.291 330.911L778.905 -53.6949C787.557 -62.3509 797.829 -69.2174 809.136 -73.9022C820.442 -78.5871 832.561 -80.9984 844.799 -80.9984C857.038 -80.9984 869.157 -78.5871 880.463 -73.9022C891.77 -69.2174 902.042 -62.3509 910.694 -53.6949Z" fill="url(#paint1_linear_525:37)" fill-opacity="0.5"/>
<path style="mix-blend-mode:screen" opacity="0.5" d="M896.727 199.506C900.848 203.624 904.118 208.514 906.348 213.897C908.579 219.279 909.727 225.049 909.727 230.875C909.727 236.701 908.579 242.471 906.348 247.853C904.118 253.236 900.848 258.126 896.727 262.244L722.385 436.606C714.061 444.918 702.778 449.587 691.015 449.587C679.251 449.587 667.969 444.918 659.645 436.606C655.523 432.486 652.253 427.594 650.022 422.209C647.791 416.825 646.643 411.054 646.643 405.226C646.643 399.397 647.791 393.626 650.022 388.242C652.253 382.857 655.523 377.965 659.645 373.845L833.987 199.506C838.106 195.384 842.996 192.115 848.379 189.885C853.761 187.654 859.531 186.506 865.357 186.506C871.184 186.506 876.953 187.654 882.336 189.885C887.718 192.115 892.609 195.384 896.727 199.506Z" fill="url(#paint2_linear_525:37)" fill-opacity="0.5"/>
<path style="mix-blend-mode:screen" opacity="0.5" d="M753.8 106.206C764.927 117.343 771.178 132.442 771.178 148.185C771.178 163.928 764.927 179.028 753.8 190.164L407.338 536.508C401.826 542.026 395.28 546.404 388.075 549.391C380.87 552.378 373.146 553.915 365.347 553.915C357.547 553.915 349.823 552.378 342.618 549.391C335.413 546.404 328.867 542.026 323.355 536.508C312.228 525.371 305.977 510.272 305.977 494.528C305.977 478.785 312.228 463.686 323.355 452.549L669.84 106.206C675.351 100.691 681.896 96.3157 689.099 93.3307C696.302 90.3458 704.022 88.8094 711.82 88.8094C719.617 88.8094 727.337 90.3458 734.541 93.3307C741.744 96.3157 748.288 100.691 753.8 106.206Z" fill="url(#paint3_linear_525:37)" fill-opacity="0.5"/>
</g>
<defs>
<linearGradient id="paint0_linear_525:37" x1="515.696" y1="-26.0424" x2="22.1654" y2="467.497" gradientUnits="userSpaceOnUse">
<stop stop-color="white"/>
<stop offset="1" stop-opacity="0"/>
</linearGradient>
<linearGradient id="paint1_linear_525:37" x1="-443883" y1="75894.4" x2="-575272" y2="207286" gradientUnits="userSpaceOnUse">
<stop stop-color="white"/>
<stop offset="1" stop-opacity="0"/>
</linearGradient>
<linearGradient id="paint2_linear_525:37" x1="-150315" y1="9365.79" x2="-178094" y2="37145.6" gradientUnits="userSpaceOnUse">
<stop stop-color="white"/>
<stop offset="1" stop-opacity="0"/>
</linearGradient>
<linearGradient id="paint3_linear_525:37" x1="162387" y1="32948.6" x2="122285" y2="73058.2" gradientUnits="userSpaceOnUse">
<stop stop-color="white"/>
<stop offset="1" stop-opacity="0"/>
</linearGradient>
</defs>
</svg>
