<svg xmlns="http://www.w3.org/2000/svg" xmlns:xlink="http://www.w3.org/1999/xlink" viewBox="0 0 680 564">
    <defs>
        <linearGradient id="A" x1="274.47" y1="126.89" x2="485.22" y2="560.01" xlink:href="#R">
            <stop offset="0" stop-color="#7cea57"/>
            <stop offset=".98" stop-color="#c9ffa9"/>
        </linearGradient>
        <linearGradient id="B" x1="499.93" y1="438.61" x2="225.32" y2="107.33" xlink:href="#R">
            <stop offset="0" stop-color="#94f8a5"/>
            <stop offset="1" stop-color="#00b818"/>
        </linearGradient>
        <linearGradient id="C" x1="287.58" y1="158.07" x2="435.74" y2="161.48" xlink:href="#R">
            <stop offset="0" stop-color="#b8ff9e"/>
            <stop offset=".98" stop-color="#fff"/>
        </linearGradient>
        <linearGradient id="D" x1="265.2" y1="187.56" x2="425.33" y2="187.56" xlink:href="#C"/>
        <linearGradient id="E" x1="487.29" y1="360.6" x2="577.58" y2="543.53" xlink:href="#R">
            <stop offset="0" stop-color="#b8ff9e"/>
            <stop offset="1" stop-color="#fff"/>
        </linearGradient>
        <linearGradient id="F" x1="520.14" y1="212.6" x2="689.99" y2="669.88" xlink:href="#C"/>
        <linearGradient id="G" x1="352.77" y1="621.36" x2="698.54" y2="215.82" xlink:href="#R">
            <stop offset="0" stop-color="#b8ff9e"/>
            <stop offset=".32" stop-color="#fff"/>
        </linearGradient>
        <linearGradient id="H" x1="170.76" y1="466.46" x2="516.6" y2="60.85" xlink:href="#G"/>
        <linearGradient id="I" x1="45.64" y1="359.89" x2="391.4" y2="-45.64" xlink:href="#G"/>
        <linearGradient id="J" x1="377.78" y1="68.15" x2="433.55" y2="70.69" xlink:href="#R">
            <stop offset=".62" stop-color="#00d228" stop-opacity="0"/>
            <stop offset="1" stop-color="#00b322" stop-opacity=".15"/>
        </linearGradient>
        <linearGradient id="K" x1="397.04" y1="40.11" x2="429.01" y2="41.07" xlink:href="#J"/>
        <linearGradient id="L" x1="375.04" y1="440" x2="434.58" y2=".13" xlink:href="#R">
            <stop offset="0" stop-color="#a2ff92"/>
            <stop offset="1" stop-color="#fff"/>
        </linearGradient>
        <linearGradient id="M" x1="543.15" y1="398.22" x2="543.22" y2="397.69" xlink:href="#L"/>
        <linearGradient id="N" x1="541.84" y1="401.33" x2="542.11" y2="399.34" xlink:href="#L"/>
        <radialGradient id="O" cx="473.75" cy="-24.22" r="94.81"
                        gradientTransform="matrix(.93 .38 1.46 -3.57 135.6 123.57)" xlink:href="#R">
            <stop offset="0" stop-color="#00b322" stop-opacity=".25"/>
            <stop offset=".44" stop-color="#00d228" stop-opacity="0"/>
        </radialGradient>
        <path id="P"
              d="M428.89 93.41l-.23-.08h-.09c-3.8-1.34-7.74-2.58-11.74-3.73h-.13l-1.5-.42-.57-.16-1.33-.36-.72-.19-1.46-.47-.59-.15-1.74-.43-.24-.06c-4-1-8-1.82-12-2.54l-.56-.1-.41-.07-.56-.1q-3.7-.63-7.45-1.16a200.41 200.41 0 0 0-23.28-1.88h-11.15l-1.76.05q-1.4 0-2.79.12h-.69c-69.448 3.477-132.753 40.862-169.33 100-1.08 1.72-2.1 3.46-3.11 5.21l-1.17 2c-.39.68-.8 1.49-1.2 2.23l-2.31 4.27a206.66 206.66 0 0 0-13.5 32.63l-.09.28-1.5 4.75a2.41 2.41 0 0 0-.08.25c0 0 0 0 0-.05s0-.1.07-.15 0-.12.08-.19l.12-.38c.71-2.07 1.84-5 2.49-6.8v-.13q1.32-3.63 2.81-7.2c31.558-75.898 111.163-120.135 192.28-106.85l3 .52 3.4.65 3.4.72.84.19a179.63 179.63 0 0 1 64.43 28.87l.28.19V93.43z"/>
        <path id="Q"
              d="M428.65 142.56a179.63 179.63 0 0 0-64.43-28.87l-.84-.19q-1.69-.37-3.39-.72l-3.41-.65-3-.52c-81.144-13.365-160.819 30.858-192.4 106.79q-1.47 3.57-2.81 7.2v.13l-2.48 6.8c0 .13-.09.26-.13.38 0 .07 0 .13-.08.19s-.05.11-.07.15 0 0 0 .05c.06-.12.16-.27.21-.39l.63-1.46c.42-1 .88-2 1.32-3l.07-.16c.35-.78.68-1.5 1-2.07l.39-.75a159.55 159.55 0 0 1 3.32-6.36l.67-1.19.41-.72.71-1.23.27-.46c.28-.49.58-1 .87-1.46l.24-.39c.08-.12.16-.24.23-.36v-.08c.05-.07.09-.15.14-.21l.45-.7c.19-.32.39-.63.59-.94l.16-.26.73-1.12c.48-.75 1-1.46 1.49-2.17.13-.21.28-.42.42-.63l.36-.51.1-.14.9-1.27.31-.45a7.8 7.8 0 0 0 .34-.46l.07-.09c.11-.14.21-.29.31-.44.51-.69 1-1.37 1.56-2.06l.52-.69.12-.15c.32-.43.64-.86 1-1.29l1.38-1.64 1.21-1.5.33-.36c.08-.11.16-.2.25-.31.31-.37.65-.72 1-1.09l.15-.16 1.59-1.78.67-.75.54-.59c.69-.77 1.43-1.53 2.17-2.3.5-.53 1-1 1.53-1.53a87.07 87.07 0 0 1 2.4-2.32l.94-.9c0-.06.08-.08.13-.14l.51-.45c.76-.72 1.54-1.42 2.3-2.11s1.36-1.16 2-1.72h.07l.13-.1c1.24-1 2.47-2.08 3.71-3 .76-.62 1.55-1.2 2.33-1.79l2.19-1.67a108.73 108.73 0 0 1 3.41-2.4l.93-.64 3.36-2.19a7.2 7.2 0 0 0 .74-.48c.61-.38 1.24-.73 1.86-1.1s1.4-.85 2.12-1.23c2.88-1.69 5.84-3.26 8.84-4.73l1-.49.43-.2 2.85-1.32c.42-.19.8-.37 1.21-.53h.07c1.27-.58 2.54-1.11 3.8-1.61 3.47-1.37 7-2.64 10.56-3.75 1.7-.53 3.39-1 5.08-1.48 1.43-.4 2.89-.77 4.34-1.11.48-.1 1-.24 1.51-.34 1.32-.32 2.64-.58 4-.85 1.56-.31 3.13-.58 4.71-.84.85-.14 1.67-.27 2.51-.37 1.57-.24 3.13-.42 4.72-.61l3.91-.37a6.49 6.49 0 0 1 .77-.05c1.56-.13 3.09-.21 4.65-.27.53-.05 1-.05 1.54-.07a125.94 125.94 0 0 1 4.76-.08c2.21 0 4.39.12 6.58.23 1.95.09 3.9.19 5.83.36l2.23.24q3.74.39 7.41 1l1.53.23q4.41.77 8.71 1.78c.48.11.94.25 1.41.36 2.43.61 4.84 1.27 7.22 2l1.89.58a143.31 143.31 0 0 1 16.19 6.32l1.84.87c2.17 1 4.31 2.14 6.42 3.28l1.36.73q3.72 2.08 7.3 4.37c.48.31.95.64 1.42.95h.06a146.72 146.72 0 0 1 5.6 3.89c.62.44 1.24.89 1.84 1.35 2.23 1.68 4.43 3.4 6.56 5.2l.19.17c2.05 1.75 4 3.57 6 5.42l1.86 1.82c1.47 1.46 2.92 3 4.33 4.48l1.59 1.7q2.66 3 5.14 6.08c.56.69 1.08 1.4 1.62 2.1 1.16 1.51 2.29 3 3.39 4.58l1.81 2.61c1.18 1.74 2.31 3.51 3.41 5.31.67 1.08 1.3 2.17 1.94 3.27 1 1.67 1.9 3.34 2.79 5.05.49.95 1 1.91 1.44 2.87.09.18.16.36.25.54l10.08 26.73.87 2.41a1.22 1.22 0 0 1 .07.17l1.75 4.83.64 1.76c.43 1.05.8 2.07 1.21 3.1v.17c.11.27.28.54.38.81V142.92z"/>
        <linearGradient id="R" gradientUnits="userSpaceOnUse"/>
    </defs>
    <g transform="translate(-4.31 -6.09)">
        <use xlink:href="#P" fill="url(#A)"/>
        <use xlink:href="#Q" fill="url(#B)"/>
        <use xlink:href="#P" fill="url(#C)"/>
        <use xlink:href="#Q" fill="url(#D)"/>
        <path d="M551 387.82q-4.05 10.64-8.93 20.85-1.62 3.42-3.35 6.78-2 3.9-4.07 7.72-2.19 4-4.48 7.88-4.23 7.13-8.84 14-2.36 3.49-4.8 6.91-6.33 8.82-13.3 17.14l33.59 92.59v.09l.8 2.19c0 .06 0 .12.07.19a2.49 2.49 0 0 0 .11.29l.37 1v.12h77.33z"
              fill="url(#E)"/>
        <path d="M569.73 249.83l-.12-.32-.48-.81.25 39.76v1.56l-.09 4.91v1.03l-.19 4.71-.41 7.49-.63 7.83a2 2 0 0 0 0 .48q-.66 6.38-1.59 12.66A280 280 0 0 1 551 387.82l64.51 177.8h68.81z"
              fill="url(#F)"/>
    </g>
    <path d="M563.81 306.38l-.22 2.14q-.81 7.32-2 14.49a244 244 0 0 1-16.22 55l-1.34 3.07-.85 1.89-.32.7s-.28.63-.43.94a199.86 199.86 0 0 1-2.45 5.12l-.09.18-.36.73-.4.83-.2.38s-.24.5-.37.74l-.09.17v.07l-.56 1.09a1 1 0 0 0-.07.15l-.07.13-.52 1-.9 1.7-1.09 2.05a.21.21 0 0 0 0 .06l-1.37 2.49-2.11 3.72-1.38 2.35-3 4.91-.75 1.2q-4.14 6.51-8.67 12.73l-.83 1.14q-2.08 2.83-4.25 5.6l-.56.72-2.07 2.59-.87 1.07-1 1.27-.91 1.08q-5.75 6.86-12 13.28l-.29.31-1.13 1.14-1 1-1 1-2.07 2q-2 2-4.11 3.88l-.1.09-2.14 2-1.08 1-2.18 1.92-2.1 1.8-.09.08-2.13 1.79-.1.08-3 2.44-.06.05-.84.67-.17.13-1.13.89-1.07.84-.42.33-1.26 1-2.91 2.18-1.32 1-.51.37-.22.16-1.31.94-.2.14-.55.39-1.4 1-2.84 1.95-2.86 1.91-.09.05-3.67 2.37-2.38 1.48-.09.05-4.91 2.95h-.09l-2.53 1.46-3.83 2.12-2.49 1.34-1.42.75-2.56 1.3-1.42.72-1.19.59-5.36 2.54-2.54 1.16q-6.18 2.76-12.55 5.19l-2.45.93-7 2.48-5.6 1.8-4.27 1.27-4.31 1.21-2.89.76-2.9.72-5.85 1.35-1 .2-3.54.73-2.53.49-.9.17-1 .17a245.79 245.79 0 0 1-24.48 3.13l-2.44.18q-4.77.33-9.57.46l-7.28.18c-135.965.144-246.305-109.955-246.46-245.92 0-135.85 110.2-245.92 246.28-245.92h8.83l1.47.06h.62l1.42.07c.59 0 1.17.06 1.76.09l2 .12 1.52.1 1.81.13 1.66.14 1.78.15 1.69.17 3.17.33h.28l1.41.17.79.09 1.49.19 1.46.19 3.61.51 1.5.23 1.52.24 2.1.35 1.46.26 1.52.27.36.07 1.4.26.36.07 1.41.28 1.67.34 1 .21 1.2.26h.11l1.76.39 4.37 1 1.86.46 1.34.34 1.57.41 1.63.44 4.25 1.2 1 .31 1.08.32 2.14.66 2.81.89 1.37.45 1.34.45a33.38 33.38 0 0 1 1.3.45l4.73 1.68 1.56.58h.14l1.07.41 1.13.43 3.11 1.23 1.08.44 1.12.46q2.76 1.14 5.48 2.35l1.22.54 1.27.58 1.51.69 2 .94h.07l.28.12V38.33A281.26 281.26 0 0 0 282.39 0C126.39 0 0 126.26 0 282c0 153.91 123.45 279 276.92 281.91 1.79 0 3.63.08 5.47.08h.08a284.76 284.76 0 0 0 52.75-5 279.88 279.88 0 0 0 93-35.47c6.95-4.15 13.7-8.66 20.25-13.4a283.8 283.8 0 0 0 50.15-46.79l.26-.31q7-8.31 13.3-17.14 2.44-3.42 4.8-6.91 4.6-6.85 8.84-14 2.3-3.9 4.48-7.88 2.08-3.82 4.07-7.72 1.72-3.36 3.35-6.78 4.88-10.2 8.93-20.85a280 280 0 0 0 15.36-58.69q.93-6.28 1.59-12.66a2 2 0 0 1 0-.48q.38-3.89.63-7.83z"
          fill="#fff"/>
    <g transform="translate(-4.31 -6.09)">
        <path d="M542.83 398.67l.37-.74.2-.38z" fill="url(#G)"/>
        <path d="M569.13 248.9V6.09h-90.58v235.06a187.68 187.68 0 0 1-24.65 93.17c-31.535 55.426-88.894 91.212-152.54 95.17l-2 .06h-1.77l-2.05.15-1.48.09c-2.4.14-4.83.24-7.31.24h-3.56l-3.87-.18c-.64 0-1.29-.05-1.92-.1h-.39c-.57 0-1.14-.07-1.73-.14s-1.32-.1-2-.17c-.25 0-.5 0-.74-.07q-1.38-.11-2.76-.27l-1.13-.17c-2-.24-3.88-.5-5.79-.83-.65-.1-1.32-.23-2-.34l-.33-.06c-.64-.16-1.24-.24-1.84-.36l-3.31-.71-.56-.15c-2-.45-4-1-6-1.49-.68-.16-1.35-.36-2-.56-2.72-.8-5.36-1.64-8-2.59-1-.34-2-.72-3-1.13l-.2-.07-.18-.07c-.95-.35-1.92-.72-2.86-1.13-1.66-.68-3.28-1.4-4.91-2.15l-.28-.12-.13-.06-2.45-1.11-1.52-.72h-.08l-3-1.55a136.44 136.44 0 0 1-12.59-7.54l-.07-.06c-.74-.46-1.47-1-2.21-1.5-1.5-1-3-2.12-4.4-3.2l-.15-.11-.14-.1-4.3-3.37c-.64-.56-1.32-1.12-2-1.68-1-.85-2-1.77-3-2.65-2.72-2.45-5.37-5-7.91-7.64l-.44-.44v-.05l-1.88-2a13.32 13.32 0 0 0-1-1.12c-.54-.61-1-1.22-1.55-1.83l-.43-.51-1.57-1.85c-.75-.9-1.45-1.76-2.16-2.7v-.05a.1.1 0 0 0 0-.05c-.67-.83-1.33-1.72-2-2.58a153.54 153.54 0 0 1-7.88-11.87l-.07-.1-.05-.1c-.39-.65-.8-1.29-1.15-1.94l-1.61-2.91a.25.25 0 0 1 0-.07 213.05 213.05 0 0 1-3.08-6c-.48-.94-1-2-1.34-2.91a49.06 49.06 0 0 1-1-2.23c-.31-.71-.59-1.38-.87-2.1s-.55-1.22-.79-1.85v-.05l-1.18-3.16c-.28-.71-.56-1.51-.8-2.26-.76-2.19-1.48-4.38-2.16-6.62-.44-1.39-.76-2.79-1.16-4.23-.32-1.11-.6-2.23-.88-3.38l-.49-1.92c-.28-1.16-.52-2.36-.72-3.56-.24-1-.4-2.07-.6-3.15a133.58 133.58 0 0 1-1.4-10.65l-.31-4-.25-4.55a219.25 219.25 0 0 1 6.84-48.87c0 0 0-.08.08-.16 1.16-3.55 2.43-7 3.87-10.45v-.08l.16-.36c.47-1.6 1-3.17 1.5-4.75l.09-.28a206.7 206.7 0 0 1 13.51-32.63c.74-1.44 1.52-2.85 2.3-4.27l1.21-2.23 1.17-2c1-1.75 2-3.49 3.1-5.21 36.574-59.141 99.88-96.528 169.33-100h.68q1.4-.07 2.79-.12l1.76-.05h11.2a200.41 200.41 0 0 1 23.28 1.88l7.46 1.16.56.1.4.07.56.1a205.09 205.09 0 0 1 12 2.54l.24.06 1.74.43.6.15 1.42.37.72.19 1.32.36.57.16 1.51.42h.12c4 1.15 7.94 2.39 11.74 3.73h.1l.22.08V66.11l-.28-.12h-.07l-2-.94-1.51-.69-1.27-.58-1.22-.54q-2.71-1.21-5.48-2.35l-.94-.51-1.08-.44c-1-.42-2.07-.83-3.11-1.23l-1.13-.43-1.07-.41h-.14l-1.56-.58-4.73-1.68a33.38 33.38 0 0 0-1.3-.45l-1.34-.45-1.37-.45-2.81-.89-2.14-.66-1.08-.32-1-.31-4.25-1.2-1.63-.44-1.65-.44-1.34-.34-1.86-.46c-1.45-.36-2.9-.69-4.37-1-.58-.14-1.17-.26-1.76-.39h-.11l-1.2-.26-1-.21-1.67-.34-1.41-.28-.36-.07-1.4-.26-.36-.07-1.55-.32-1.46-.26-2.1-.35-1.52-.24-1.5-.23-3.61-.51-1.46-.19-1.49-.22-.79-.09-1.41-.17h-.28l-3.17-.33-1.69-.17-1.74-.16-1.66-.14-1.81-.13-1.52-.1a61.49 61.49 0 0 0-2-.12l-1.76-.09-1.42-.07h-.62l-1.47-.06h-8.84c-136.08 0-246.28 110.07-246.28 245.92C76.89 424.102 187.087 534.044 322.9 534c2.44 0 4.85-.11 7.28-.18q4.8-.14 9.57-.46l2.44-.18a245.79 245.79 0 0 0 24.48-3.13l1-.17.9-.17 2.53-.49 3.54-.73 1-.2c2-.43 3.91-.87 5.85-1.35 1-.23 1.93-.47 2.9-.72l2.89-.76 4.31-1.21 4.27-1.27 5.6-1.8 7-2.48 2.45-.93q6.36-2.43 12.55-5.19l2.54-1.16c1.8-.82 3.58-1.67 5.36-2.54l1.19-.59 1.42-.72 2.56-1.3 1.42-.75 2.49-1.34c1.29-.69 2.56-1.4 3.83-2.12l2.53-1.46h.09l4.91-2.95.09-.05 2.38-1.48q1.84-1.17 3.67-2.37l.09-.05 2.35-1.57.51-.34.7-.48.79-.54 1.35-.93 1.4-1 .55-.39.2-.14 1.31-.94.22-.16.51-.37 1.32-1h.06l2.75-2.06.1-.08 1.26-1 .42-.33.15-.12 2.05-1.61.17-.13.84-.67.06-.05 3-2.44.1-.08 2.13-1.79.09-.08 2.1-1.8 2.18-1.92 1.08-1c.71-.64 1.43-1.29 2.14-2l.1-.09q2.07-1.92 4.11-3.88l2.07-2 1-1 1-1 1.13-1.14.29-.31q6.24-6.42 12-13.28l.91-1.08 1-1.27.87-1.07 2.07-2.59.56-.72q2.16-2.76 4.25-5.6l.83-1.14q4.53-6.22 8.67-12.73l.75-1.2 3-4.91 1.38-2.35 2.11-3.72 1.37-2.49a.21.21 0 0 1 0-.06l1.09-2.05.9-1.7.29-.58.15-.28c.18-.35.35-.7.53-1l.14-.27c0-.07.07-.15.11-.22v-.06l.09-.17.45-.91-.22.45c.06-.13.13-.25.19-.38l.06-.12.05-.09.21-.43c-.06.11-.11.22-.17.34l.4-.83.45-.91 2.45-5.12c.15-.31.29-.62.43-.94.32-.7.65-1.39 1-2.09l.22-.5 1.34-3.07a244 244 0 0 0 16.22-55q1.23-7.17 2-14.49l.22-2.14.49-4.31.41-7.49.19-4.71v-1.03c0-1.64.08-3.27.09-4.91v-1.56zm-24.35 145.81a2.4 2.4 0 0 1-.11.23v.07l.6-1.24c-.18.29-.33.62-.49.94zm17.79-50.16c.36-1.51.7-3 1-4.55-.29 1.53-.64 3-1 4.55zm3.13-15.45l-.35 2 .34-2c0-.24.09-.49.13-.73z"
              fill="url(#H)"/>
        <path d="m157.76 228.35-.07.16.06-.14Z" fill="url(#I)"/>
        <path d="M608.91 375.84q0-10.2-.76-20.12l-38.42-105.89-.12-.32-.48-.81.25 39.76v1.56l-.09 4.91v1.03l-.19 4.71-.41 7.49-.63 7.83a2 2 0 0 0 0 .48q-.66 6.38-1.59 12.66A280.53 280.53 0 0 1 551 387.81q-4.05 10.64-8.93 20.85-1.62 3.42-3.35 6.78-2 3.9-4.07 7.72-2.19 4-4.48 7.88-4.23 7.13-8.84 14-2.36 3.49-4.8 6.91-6.33 8.82-13.3 17.14l27.59 76c22-13.1 40.86-35 54.54-62.68 14.81-29.98 23.55-66.79 23.55-106.57z"
              fill="url(#O)"/>
        <path d="M428.93 66.11v27.31h-.05l-.22-.08h-.09c-3.8-1.33-7.74-2.58-11.74-3.71h-.13l-1.5-.42-.57-.16-1.33-.36-.72-.19-1.46-.5-.59-.15-1.74-.43-.24-.06c-4-1-8-1.82-12-2.54l-.57-.1-.4-.07-.55-.1c-2.48-.43-5-.81-7.46-1.16a200.41 200.41 0 0 0-23.28-1.88h-11.16l-1.76.05q-1.4 0-2.79.12h-.69a212.19 212.19 0 0 0-43.72 6.82V42.89q9.28-.69 18.77-.7h10.92l1.42.07c.59 0 1.17 0 1.76.09l2 .11 1.52.11 1.81.13 1.66.14 1.77.15 1.7.17 3.17.33h.28l1.41.16.79.1 1.49.19 1.46.19 3.61.51 1.5.23 1.52.24 2.1.35 1.46.25 1.52.28.36.06 1.4.27.36.07 1.41.28c.56.1 1.11.22 1.67.33l1 .22 1.2.25h.11l1.76.39 4.37 1 1.86.46 1.34.34 1.57.41 1.63.44 4.25 1.2 1 .31 1.08.32a75.79 75.79 0 0 1 2.14.66l2.8.89 1.38.45 1.34.45 1.3.44 4.73 1.69 1.56.58h.14l1.07.41 1.13.43 3.11 1.23 1.08.44 1.12.46q2.76 1.14 5.48 2.35l1.22.54 1.27.58 1.51.69 2 .94h.07l.28.12z"
              fill="url(#J)"/>
        <path d="M428.93 44.42v21.69l-.28-.12h-.07l-2-.94-1.5-.69-1.27-.58-1.22-.54q-2.71-1.21-5.48-2.35l-1.11-.51-1.08-.44-3.11-1.23-1.13-.43-1.07-.41h-.14l-1.56-.58-4.73-1.69-1.3-.44-1.34-.45-1.38-.45-2.8-.89-2.14-.66-1.08-.32-1-.31-4.25-1.2-1.63-.44-1.65-.44-1.34-.34-1.86-.46-4.37-1-1.76-.39h-.11l-1.2-.25-1-.22-1.67-.33-1.41-.28-.36-.07-1.4-.26-.36-.07-1.55-.33-1.46-.25-2.1-.35-1.52-.24-1.5-.23-3.61-.51-1.46-.19-1.49-.23-.79-.09h-.1v-30.2q6.35 1.5 12.57 3.29a280.62 280.62 0 0 1 64.17 27.42z"
              fill="url(#K)"/>
        <path d="M428.93 79.39v208.72a144.12 144.12 0 0 1-12 57.73l-.05.11a.14.14 0 0 1 0 .06l-.29.64-1.89 4.06-1.51 3.18a2.37 2.37 0 0 0-.16.24l-1.83 3.43-3 5-2.87 4.44a142.51 142.51 0 0 1-80.9 58l-.94.28-1.15.27a142.25 142.25 0 0 1-23.05 3.91h-.55l-.65.06h1.19l2-.06c63.648-3.944 121.012-39.729 152.54-95.16a187.68 187.68 0 0 0 24.65-93.17V6.09h-49.54z"
              fill="url(#L)"/>
        <path d="M543.25 397.83l-.19.38.22-.45v-.05z" fill="url(#M)"/>
        <path d="M541.78 400.71l-.29.58.52-1 .07-.13c0-.11.1-.22.16-.33l.22-.43-.53 1z" fill="url(#N)"/>
    </g>
</svg>
