<svg xmlns="http://www.w3.org/2000/svg" xmlns:xlink="http://www.w3.org/1999/xlink" viewBox="0 0 3017 621"><path d="M1121.912 227.936c-51.996 0-96.505 18.513-133.508 55.51-37.007-36.997-81.507-55.51-133.504-55.51-52.47 0-96.965 18.129-133.504 54.358s-54.808 80.529-54.808 132.89v12.207l59.864 165.226h34.995V415.306c0-25.693 9.168-47.538 27.505-65.526 18.333-17.98 40.433-26.983 66.298-26.983 25.386 0 47.257 9.112 65.59 27.338s27.513 39.941 27.513 65.17v177.312h94.86V366.954c18.269-29.436 44.73-44.157 79.4-44.157 25.756 0 47.66 9.003 65.698 26.983 18.029 17.988 27.055 39.833 27.055 65.526v177.311h94.859V415.183c0-52.36-18.27-96.657-54.808-132.889s-81.05-54.358-133.505-54.358zm525.678 24.08c-32.089-22.716-68.046-34.08-107.854-34.08-21.081 0-42.636 3.987-64.648 11.946-37.482 13.593-67.455 36.43-89.941 68.51-22.482 32.092-33.728 68.046-33.728 107.856 0 51.996 18.15 96.264 54.467 132.802s80.72 54.809 133.198 54.809c58.103 0 105.895-22.023 143.377-66.082l23.338 65.012 100.789.077-90.486-250.561c-13.594-37.47-36.43-67.561-68.511-90.29zm-42.51 219.834c-18.27 18.102-40.293 27.15-66.05 27.15-18.741 0-36.306-5.646-52.697-16.932-26.703-18.333-40.055-43.717-40.055-76.17 0-19.28 5.623-37.144 16.864-53.599 17.8-26.328 43.094-39.502 75.889-39.502 20.133 0 37.944 5.41 53.402 16.227 26.703 18.335 40.049 43.96 40.049 76.873 0 25.867-9.133 47.848-27.402 65.953zm468.542-230.022c-28.58-15.92-59.5-23.892-92.753-23.892-52.472 0-96.965 18.129-133.504 54.358s-54.808 80.529-54.808 132.903c0 52.838 18.146 97.383 54.452 133.613 36.299 36.228 80.916 54.348 133.86 54.348 52.455 0 96.846-18.247 133.153-54.745 36.298-36.493 54.458-80.938 54.458-133.34V26.814h-94.858v215.015zm-27.055 229.177c-18.037 18.2-39.942 27.294-65.698 27.294-25.766 0-47.78-9.094-66.05-27.294-18.269-18.206-27.403-40.142-27.403-65.808s9.134-47.49 27.404-65.449 40.283-26.951 66.049-26.951c25.298 0 47.079 9.1 65.348 27.301 18.27 18.206 27.405 39.901 27.405 65.099 0 25.666-9.026 47.602-27.055 65.808zm350.719-253.069c-52.47 0-96.965 18.129-133.504 54.358s-54.808 80.529-54.808 132.903c0 52.838 18.146 97.383 54.453 133.613 36.298 36.228 80.915 54.348 133.86 54.348 49.647 0 92.51-17.096 128.584-51.296l-57.613-76.59c-18.745 22.023-42.404 33.027-70.972 33.027-20.616 0-39.117-5.973-55.508-17.919-16.406-11.946-27.647-27.754-33.728-47.43h274.742a188.783 188.783 0 0 0 2.104-28.017c0-52.284-18.158-96.528-54.457-132.717-36.306-36.186-80.698-54.28-133.153-54.28zm-82.212 144.044c17.326-32.781 44.732-49.183 82.212-49.183 36.997 0 64.175 16.402 81.508 49.183h-163.72zm632.488-89.686c-36.307-36.23-80.698-54.358-133.153-54.358-52.47 0-96.965 18.129-133.504 54.358s-54.808 80.529-54.808 132.903c0 52.838 18.146 97.383 54.452 133.613 36.298 36.228 80.918 54.348 133.86 54.348 52.455 0 96.846-18.228 133.153-54.699 36.298-36.475 54.458-80.893 54.458-133.262 0-52.374-18.16-96.671-54.458-132.903zm-67.455 198.71c-18.037 18.201-39.94 27.295-65.698 27.295-25.766 0-47.78-9.094-66.05-27.294-18.269-18.206-27.403-40.142-27.403-65.808s9.134-47.49 27.404-65.449 40.283-26.951 66.049-26.951c25.298 0 47.079 9.1 65.348 27.301 18.27 18.206 27.404 39.901 27.404 65.099 0 25.666-9.026 47.602-27.054 65.808z" fill="#7cea57"/><linearGradient id="b" gradientUnits="userSpaceOnUse" x1="278.234" y1="153.903" x2="488.981" y2="587.023"><stop offset="0" stop-color="#7cea57"/><stop offset=".978" stop-color="#c9ffa9"/></linearGradient><use xlink:href="#a" fill="url(#b)"/><linearGradient id="d" gradientUnits="userSpaceOnUse" x1="503.694" y1="465.615" x2="229.082" y2="134.338"><stop offset="0" stop-color="#94f8a5"/><stop offset="1" stop-color="#00b818"/></linearGradient><use xlink:href="#c" fill="url(#d)"/><linearGradient id="e" gradientUnits="userSpaceOnUse" x1="291.341" y1="185.082" x2="439.498" y2="188.488"><stop offset=".725" stop-color="#00d228" stop-opacity="0"/><stop offset="1" stop-color="#00b322" stop-opacity=".55"/></linearGradient><use xlink:href="#a" fill="url(#e)"/><linearGradient id="f" gradientUnits="userSpaceOnUse" x1="268.96" y1="214.57" x2="429.093" y2="214.57"><stop offset=".725" stop-color="#00d228" stop-opacity="0"/><stop offset="1" stop-color="#00b322" stop-opacity=".55"/></linearGradient><use xlink:href="#c" fill="url(#f)"/><linearGradient id="g" gradientUnits="userSpaceOnUse" x1="491.052" y1="387.613" x2="581.346" y2="570.544"><stop offset=".311" stop-color="#17d23b"/><stop offset="1" stop-color="#7cea57"/></linearGradient><path d="M554.755 414.827a278.477 278.477 0 0 1-12.279 27.631 281.128 281.128 0 0 1-4.08 7.724 278.08 278.08 0 0 1-13.318 21.87 284.77 284.77 0 0 1-18.1 24.046l-.015.02 33.592 92.596.03.081.795 2.19.07.193.107.296.374 1.032.044.12h77.291l-64.51-177.8z" fill="url(#g)"/><linearGradient id="h" gradientUnits="userSpaceOnUse" x1="523.906" y1="239.607" x2="693.754" y2="696.891"><stop offset="0" stop-color="#7cea57"/><stop offset=".978" stop-color="#c9ffa9"/></linearGradient><path d="m573.491 276.835-.115-.32-.487-.802.25 39.758-.042 1.559a192.85 192.85 0 0 1-.09 4.909l-.028.675-.007.352a383.04 383.04 0 0 1-.186 4.717 339.057 339.057 0 0 1-.41 7.489 241.05 241.05 0 0 1-.638 7.83c-.041.16-.041.318-.041.478a280.42 280.42 0 0 1-16.94 71.346l64.51 177.802h68.804l-114.58-315.793z" fill="url(#h)"/><linearGradient id="i" gradientUnits="userSpaceOnUse" x1="173.527" y1="533.802" x2="404.018" y2="102.698"><stop offset="0" stop-color="#17d23b"/><stop offset="1" stop-color="#7cea57"/></linearGradient><path d="M571.882 339.48v.003l-.224 2.14a242.066 242.066 0 0 1-2.035 14.491 244.168 244.168 0 0 1-17.56 58.057l-.108.245-.116.257-.625 1.388-.32.7-.433.942a226.998 226.998 0 0 1-2.447 5.112l-.091.187-.357.723-.41.83-.191.383-.372.743-.087.17-.033.064-.562 1.098-.074.146-.065.127-.519 1.01-.9 1.708-1.096 2.049a232.799 232.799 0 0 1-1.4 2.547 267.155 267.155 0 0 1-2.113 3.716 250.05 250.05 0 0 1-5.147 8.464 246.145 246.145 0 0 1-8.663 12.727l-.833 1.14a234.357 234.357 0 0 1-4.253 5.607l-.56.716a206.04 206.04 0 0 1-2.068 2.59l-.868 1.065-1.045 1.27a243.956 243.956 0 0 1-12.896 14.36c-.007.006-.01.013-.016.02l-.289.3-.019.02-1.122 1.139-1.019 1.027-1.025 1.02a232.97 232.97 0 0 1-6.282 6 153.16 153.16 0 0 1-2.14 1.953l-1.08.967-2.177 1.914-2.096 1.804a.88.88 0 0 1-.1.083 188.343 188.343 0 0 1-2.22 1.863l-3.004 2.447-.061.05-.84.667-.172.135-1.132.89-1.062.835-.424.333a246.957 246.957 0 0 1-4.165 3.148l-1.325.971-.506.363-.224.161-1.307.94-.2.144-.551.395-1.404.99a234.458 234.458 0 0 1-5.695 3.852.679.679 0 0 1-.09.058 209.54 209.54 0 0 1-3.67 2.362l-2.384 1.485a.954.954 0 0 1-.086.05 224.093 224.093 0 0 1-4.917 2.945 197.953 197.953 0 0 1-2.612 1.501l-3.83 2.125-2.493 1.338a279.033 279.033 0 0 1-3.977 2.055l-1.423.713a240.12 240.12 0 0 1-9.089 4.288 244.13 244.13 0 0 1-15.002 6.119l-7.031 2.48a255.05 255.05 0 0 1-5.596 1.802 244.355 244.355 0 0 1-27.25 6.733l-.901.166a246.124 246.124 0 0 1-27.892 3.482l-9.573.464-7.278.18c-74.113 0-140.492-32.704-185.629-84.384-37.74-43.216-60.645-99.688-60.645-161.532C80.386 179.269 190.578 69.2 326.66 69.2l1.772.007 1.769.019 1.77.032 1.37.032.933.029 1.221.038 1.465.058.619.025 1.426.064 1.753.093 1.977.118a245.68 245.68 0 0 1 4.984.372l1.778.157 1.696.163 3.17.333.278.032 1.414.163.791.096 1.487.185 1.458.192a215.964 215.964 0 0 1 5.115.743 234.757 234.757 0 0 1 3.618.589l1.462.256a216.623 216.623 0 0 1 5.045.95l1.673.34 1.028.214 1.196.256c.038.006.077.013.112.022l1.766.39a216.967 216.967 0 0 1 6.224 1.482l1.342.343 1.568.41 1.634.438a230.943 230.943 0 0 1 5.291 1.507l1.08.323 2.141.656 2.801.893 1.372.452 1.34.448a230.51 230.51 0 0 1 7.592 2.707l.14.051 1.074.41 1.125.432 3.109 1.229 1.083.438a245.406 245.406 0 0 1 6.602 2.81l1.218.547 1.266.573 1.51.694 1.987.935.07.032c.09.045.183.083.276.122.012.006.028.012.04.019h.001V71.431a280.462 280.462 0 0 0-64.167-27.423c-24.796-7.108-50.99-10.913-78.064-10.913-155.977 0-282.39 126.265-282.39 282.018 0 153.918 123.455 278.99 276.916 281.902l5.474.08h.077c18.03 0 35.657-1.722 52.752-4.944 33.449-6.308 64.828-18.469 92.96-35.469 6.948-4.15 13.704-8.66 20.254-13.405 18.576-13.496 35.382-29.254 50.15-46.788l.006-.01.01-.009.032-.038.26-.314a284.322 284.322 0 0 0 18.117-24.065 278.08 278.08 0 0 0 13.319-21.871 280.76 280.76 0 0 0 4.077-7.726 279.032 279.032 0 0 0 12.28-27.63 280.42 280.42 0 0 0 16.942-71.346c0-.16 0-.317.041-.477.257-2.596.465-5.207.638-7.831l-.494 4.307z" fill="url(#i)"/><linearGradient id="j" gradientUnits="userSpaceOnUse" x1="356.527" y1="648.365" x2="702.302" y2="242.827"><stop offset=".062" stop-color="#7cea57"/><stop offset="1" stop-color="#c9ffa9"/></linearGradient><path d="m546.593 425.68.372-.742a10.692 10.692 0 0 0 .184-.37l-.556 1.113z" fill="url(#j)"/><linearGradient id="k" gradientUnits="userSpaceOnUse" x1="174.522" y1="493.473" x2="520.359" y2="87.861"><stop offset=".062" stop-color="#7cea57"/><stop offset="1" stop-color="#c9ffa9"/></linearGradient><path d="M572.889 275.913V33.095h-90.573V268.16c0 33.89-8.992 65.672-24.658 93.172v.003h-.003c-30.677 53.85-87.089 91.13-152.548 95.162l-2.035.064-1.186.036-.586.018-2.048.15-1.478.097c-2.403.14-4.833.243-7.313.243-1.16 0-2.397-.041-3.558-.041h-.038l-3.878-.186-1.916-.093c-.125-.006-.26-.022-.388-.029a33.345 33.345 0 0 1-1.73-.13c-.667-.03-1.318-.103-1.972-.174-.25-.028-.497-.032-.743-.067a62.29 62.29 0 0 1-2.757-.278c-.38-.045-.753-.116-1.134-.164-1.952-.246-3.875-.499-5.782-.835-.65-.102-1.326-.23-1.987-.342-.109-.016-.22-.039-.327-.055-.64-.16-1.24-.237-1.836-.358l-3.317-.717-.56-.144a121.624 121.624 0 0 1-5.955-1.494c-.68-.157-1.356-.359-2.035-.56a135.304 135.304 0 0 1-7.993-2.59 50.83 50.83 0 0 1-2.997-1.126c-.064-.026-.131-.045-.199-.07-.057-.023-.118-.052-.18-.074a46.36 46.36 0 0 1-2.855-1.126 115.42 115.42 0 0 1-4.91-2.151l-.285-.122a2.276 2.276 0 0 0-.125-.06l-2.432-1.136c-.494-.228-.987-.49-1.516-.72a1.897 1.897 0 0 1-.08-.039l-2.997-1.555a133.747 133.747 0 0 1-12.662-7.595 39.497 39.497 0 0 1-2.202-1.5 137.448 137.448 0 0 1-4.403-3.204 4.064 4.064 0 0 0-.151-.109 40.62 40.62 0 0 0-.135-.105l-4.3-3.367-1.959-1.677c-1.01-.854-1.97-1.77-2.958-2.656-2.717-2.448-5.368-4.976-7.91-7.64l-.438-.434c-.013-.016-.03-.032-.042-.048l-1.875-2.026a13.01 13.01 0 0 0-1-1.12c-.541-.608-1.035-1.22-1.554-1.83l-.433-.51-1.567-1.846a75.691 75.691 0 0 1-2.198-2.752c-.013-.016-.023-.035-.036-.051-.67-.826-1.336-1.722-2.003-2.583a152.304 152.304 0 0 1-7.884-11.863c-.019-.035-.045-.07-.064-.106s-.041-.064-.058-.096c-.384-.646-.798-1.293-1.144-1.94l-1.612-2.911a.192.192 0 0 1-.022-.039 49.238 49.238 0 0 1-4.461-9.025c-.007-.01-.01-.022-.016-.035a54.53 54.53 0 0 1-1-2.23.042.042 0 0 0-.007-.023 48.137 48.137 0 0 1-.871-2.093c-.276-.63-.552-1.225-.789-1.856l-.01-.019-.009-.029-1.189-3.162a36.538 36.538 0 0 1-.798-2.275 181.51 181.51 0 0 1-2.16-6.621v-.042c-.44-1.395-.756-2.794-1.157-4.227a91.18 91.18 0 0 1-.881-3.393l-.36-1.673a50.558 50.558 0 0 1-.717-3.556c-.24-1.037-.4-2.07-.6-3.149a134.323 134.323 0 0 1-1.4-10.654l-.317-3.98v-.007l-.24-4.548a219.457 219.457 0 0 1 6.832-48.873c0-.039 0-.08.08-.16a137.471 137.471 0 0 1 3.875-10.452l.042-.039v-.08l.155-.363c.472-1.597 1.004-3.166 1.505-4.748v-.003l.09-.275c3.609-11.313 8.092-22.245 13.502-32.633.744-1.437 1.526-2.848 2.301-4.27l1.209-2.223c.38-.673.781-1.329 1.17-1.997l3.102-5.21c.012-.013.025-.02.038-.032a211.54 211.54 0 0 1 169.33-100.008l.688-.03 2.785-.118 1.764-.049 1.743-.044 2.237-.025 1.095-.012h.229l.437-.003c.53 0 1.054.017 1.579.035l.938.033.748.018 1.868.038.15.003.15.003.023.001c7.89.166 15.65.831 23.284 1.887 2.499.343 4.982.73 7.452 1.16l.56.095.4.072.566.102c3.987.717 8.007 1.57 12.002 2.538l.237.059 1.742.431.592.152 1.42.367.72.192 1.328.357.565.157 1.508.421.126.036a207.16 207.16 0 0 1 11.74 3.721l.013.004.025.01.097.034c.073.026.144.055.22.077a.207.207 0 0 0 .042.016l.001.001V93.119c-.013-.007-.029-.013-.041-.02a4.312 4.312 0 0 1-.276-.121l-.07-.032-1.987-.935-1.51-.694-1.266-.573-1.218-.547a245.405 245.405 0 0 0-6.602-2.81l-1.083-.438a172.71 172.71 0 0 0-3.109-1.229l-1.125-.432-1.073-.41-.141-.05-1.558-.58a230.51 230.51 0 0 0-6.035-2.128 91.795 91.795 0 0 0-1.34-.448l-1.37-.452-2.802-.893-2.14-.656a61.29 61.29 0 0 0-1.08-.323 230.943 230.943 0 0 0-5.291-1.507l-1.635-.439a93.303 93.303 0 0 0-1.568-.41l-1.342-.342-1.856-.46a216.967 216.967 0 0 0-4.368-1.021l-1.766-.39a.964.964 0 0 0-.112-.023l-1.196-.256-1.028-.215-1.673-.339a97.602 97.602 0 0 0-1.77-.345 105.509 105.509 0 0 0-1.762-.333l-1.513-.272a234.758 234.758 0 0 0-5.08-.845 215.965 215.965 0 0 0-5.115-.743l-1.458-.192-1.487-.185-.791-.096a103.45 103.45 0 0 0-1.414-.163 209.103 209.103 0 0 0-3.448-.365l-1.696-.163-1.778-.157-1.66-.135a245.672 245.672 0 0 0-3.323-.237l-1.978-.118a285.27 285.27 0 0 0-1.753-.093l-1.426-.064a21.34 21.34 0 0 0-.619-.025 107.16 107.16 0 0 0-1.465-.058 72.41 72.41 0 0 0-1.22-.038l-.933-.03-1.372-.031-1.769-.032-1.77-.02-1.771-.006c-136.082 0-246.274 110.069-246.274 245.916 0 61.844 22.905 118.316 60.645 161.532 45.137 51.68 111.516 84.384 185.629 84.384 2.439 0 4.855-.11 7.278-.18a240.36 240.36 0 0 0 9.573-.464 246.124 246.124 0 0 0 27.892-3.482l.9-.166a214.898 214.898 0 0 0 6.07-1.216 234.095 234.095 0 0 0 9.708-2.279 244.355 244.355 0 0 0 11.473-3.239l5.596-1.8a247.942 247.942 0 0 0 9.48-3.403 244.13 244.13 0 0 0 21.642-9.485l1.423-.714 2.554-1.309 1.423-.745 2.494-1.338a223.19 223.19 0 0 0 3.83-2.125l2.528-1.453a1.53 1.53 0 0 0 .083-.048l4.917-2.944a184.354 184.354 0 0 0 2.47-1.536l3.67-2.362a235.158 235.158 0 0 0 2.438-1.623l.514-.342.694-.477.79-.542 1.349-.927 1.404-.989.55-.395.2-.144 1.308-.94.224-.16.506-.364 1.325-.97.06-.044 2.746-2.061.104-.08 1.255-.964.424-.333c.05-.038.098-.078.147-.116a247.94 247.94 0 0 0 2.047-1.609l.172-.135.84-.667.06-.05a238.73 238.73 0 0 0 3.005-2.447 188.342 188.342 0 0 0 2.22-1.863 186.917 186.917 0 0 0 2.195-1.888l2.177-1.913 1.08-.967 2.141-1.952a261.664 261.664 0 0 0 4.211-3.975l2.07-2.025 1.026-1.021 1.02-1.027 1.121-1.14.02-.019.288-.3.016-.02a243.956 243.956 0 0 0 13.94-15.63l.87-1.066 2.066-2.589a234.357 234.357 0 0 0 4.814-6.324l.833-1.139a246.146 246.146 0 0 0 17.29-27.397 139.306 139.306 0 0 0 1.128-2.106l.901-1.709.292-.576.143-.279.535-1.043.136-.265.112-.223.002.005.033-.063c.03-.055.058-.113.087-.17l.453-.91-.225.445.189-.376.063-.124.044-.09.215-.43-.169.342.403-.813.448-.91a226.998 226.998 0 0 0 2.447-5.112l.433-.943-.008-.004.953-2.083.224-.502a244.168 244.168 0 0 0 17.56-58.057c.82-4.784 1.5-9.616 2.035-14.49l.224-2.141v-.004l.494-4.307.41-7.489.186-4.717.007-.352.028-.675.09-4.91c.042-.518.042-1.04.042-1.558l-.25-39.558zm-24.345 145.809-.11.225-.032.068.012-.027.594-1.24-.464.974zm17.79-50.16 1.03-4.548-1.03 4.548zm3.129-15.454-.347 1.977.34-1.977.129-.733-.122.733z" fill="url(#k)"/><linearGradient id="l" gradientUnits="userSpaceOnUse" x1="49.401" y1="386.897" x2="395.164" y2="-18.628"><stop offset=".062" stop-color="#7cea57"/><stop offset="1" stop-color="#c9ffa9"/></linearGradient><path d="m161.52 255.362-.07.157.063-.136.007-.021z" fill="url(#l)"/><radialGradient id="m" cx="546.164" cy="416.319" r="94.809" gradientTransform="matrix(.9269 .37862 -1.46068 3.5656 644.976 -1274.897)" gradientUnits="userSpaceOnUse"><stop offset="0" stop-color="#00b322" stop-opacity=".25"/><stop offset=".438" stop-color="#00d228" stop-opacity="0"/></radialGradient><path d="M612.667 402.853a267.94 267.94 0 0 0-.755-20.128l-38.42-105.89-.116-.32-.487-.802.25 39.758-.042 1.559a191.45 191.45 0 0 1-.09 4.909l-.028.675-.007.352a386.69 386.69 0 0 1-.186 4.717 339.056 339.056 0 0 1-.41 7.489 241.395 241.395 0 0 1-.638 7.83c-.041.16-.041.318-.041.478a280.425 280.425 0 0 1-16.938 71.339l-.004.008a278.477 278.477 0 0 1-12.279 27.631 281.46 281.46 0 0 1-22.193 36.497 284.817 284.817 0 0 1-13.304 17.144l-.016.02 27.585 76.047c21.99-13.096 40.86-34.993 54.543-62.678l.003-.007.003-.005.01-.02h-.001c14.828-30.013 23.561-66.824 23.561-106.603z" fill="url(#m)"/><linearGradient id="n" gradientUnits="userSpaceOnUse" x1="381.538" y1="95.16" x2="437.316" y2="97.703"><stop offset=".624" stop-color="#00d228" stop-opacity="0"/><stop offset="1" stop-color="#00b322" stop-opacity=".15"/></linearGradient><path d="M432.691 93.117v27.317h-.003a.229.229 0 0 1-.042-.016c-.076-.022-.147-.05-.22-.077l-.097-.035c-.01-.003-.02-.006-.025-.01l-.013-.002a207.185 207.185 0 0 0-11.74-3.72l-.125-.038-1.51-.419a28.486 28.486 0 0 0-.563-.157l-1.327-.358-.721-.192-1.42-.368-.593-.15-1.74-.433-.237-.057a204.502 204.502 0 0 0-12.57-2.64 14.616 14.616 0 0 0-.4-.074l-.558-.096c-2.47-.429-4.955-.816-7.451-1.158-7.634-1.057-15.396-1.722-23.287-1.889h-.022c-.051 0-.1-.003-.15-.003s-.1 0-.151-.003l-1.865-.038a59.9 59.9 0 0 1-.75-.016 42.315 42.315 0 0 0-.94-.032 42.8 42.8 0 0 0-1.576-.039c-.148 0-.292.007-.44.007-.073 0-.15-.004-.227-.004l-1.096.013-2.237.026-1.74.045-1.766.048-2.785.118-.69.029a212.285 212.285 0 0 0-43.726 6.823V69.903a249.55 249.55 0 0 1 24.081-.647l1.372.032.932.029 1.222.042 1.464.054.619.026 1.426.067 1.753.093 1.977.115 1.513.102 1.81.135 1.66.134 1.78.157 1.695.163 3.17.333c.092.01.185.02.278.035l1.414.16.791.096 1.487.186 1.459.192a217.83 217.83 0 0 1 5.114.742 240.38 240.38 0 0 1 6.592 1.117l.36.067 1.403.266.36.067 1.41.278 1.673.34 1.028.214 1.196.256a.964.964 0 0 1 .112.023l1.766.39a216.91 216.91 0 0 1 6.224 1.482l1.342.342 1.568.41 1.634.438a230.933 230.933 0 0 1 5.291 1.507l1.08.324 2.141.656 2.801.893 1.372.45 1.34.449a229.793 229.793 0 0 1 7.592 2.707 2.52 2.52 0 0 1 .14.055l1.074.406 1.125.432 3.109 1.229 1.083.438a245.653 245.653 0 0 1 6.602 2.81l1.218.547 1.266.573 1.51.695 1.987.937c.022.007.048.02.07.03.09.044.183.082.276.12l.041.02z" fill="url(#n)"/><linearGradient id="o" gradientUnits="userSpaceOnUse" x1="400.797" y1="67.115" x2="432.774" y2="68.084"><stop offset=".624" stop-color="#00d228" stop-opacity="0"/><stop offset="1" stop-color="#00b322" stop-opacity=".15"/></linearGradient><path d="M432.691 71.43v21.687l-.041-.019-.276-.121-.07-.03-1.988-.937-1.509-.695-1.266-.572-1.218-.548a245.593 245.593 0 0 0-5.48-2.349l-1.122-.457-1.083-.439a152.513 152.513 0 0 0-3.109-1.228l-1.125-.436-1.073-.406a1.513 1.513 0 0 0-.141-.051l-1.558-.583a250.582 250.582 0 0 0-4.73-1.683l-1.305-.442a65.464 65.464 0 0 0-1.34-.45l-1.37-.452-2.802-.893a152.072 152.072 0 0 0-3.22-.976 29.839 29.839 0 0 0-1.042-.307 231.23 231.23 0 0 0-4.25-1.2l-1.635-.442a93.365 93.365 0 0 0-1.567-.41l-1.343-.342-1.855-.46a240.627 240.627 0 0 0-4.368-1.022l-1.766-.39c-.035-.01-.074-.016-.112-.023l-1.196-.256-1.029-.214-1.672-.336-1.41-.279a6.452 6.452 0 0 0-.36-.067 71.46 71.46 0 0 0-1.403-.265 6.445 6.445 0 0 0-.36-.068l-1.512-.275-1.461-.256a240.142 240.142 0 0 0-3.619-.589l-1.503-.227a187.869 187.869 0 0 0-3.612-.515l-1.458-.192-1.487-.186-.792-.093-.102-.012V40.72a279.797 279.797 0 0 1 45.685 15.07 280.582 280.582 0 0 1 31.055 15.64z" fill="url(#o)"/><linearGradient id="p" gradientUnits="userSpaceOnUse" x1="378.8" y1="467.012" x2="438.346" y2="27.143"><stop offset="0" stop-color="#17d23b"/><stop offset="1" stop-color="#7cea57"/></linearGradient><path d="M432.69 106.402v208.713c0 20.526-4.266 40.043-11.976 57.73l-.05.11c0 .02-.01.04-.02.06l-.29.64-1.893 4.069-1.512 3.18c-.04.04-.08.12-.16.24l-1.832 3.429c-.941 1.71-1.963 3.359-2.964 5.019a126.86 126.86 0 0 1-2.874 4.439c-18.844 28.025-47.43 48.961-80.902 58.02l-.931.28c-.38.1-.771.17-1.152.27-7.47 1.9-15.159 3.239-23.049 3.909l-.55.03-.651.06 1.191-.04 2.033-.06c65.463-4.04 121.874-41.313 152.543-95.163h.01v-.01c15.66-27.495 24.65-59.28 24.65-93.164V33.095H432.69v73.307z" fill="url(#p)"/><linearGradient id="q" gradientUnits="userSpaceOnUse" x1="546.911" y1="425.228" x2="546.982" y2="424.704"><stop offset="0" stop-color="#17d23b"/><stop offset="1" stop-color="#7cea57"/></linearGradient><path d="m547.01 424.84-.19.376.226-.445.027-.055-.063.124z" fill="url(#q)"/><linearGradient id="r" gradientUnits="userSpaceOnUse" x1="545.603" y1="428.343" x2="545.873" y2="426.349"><stop offset="0" stop-color="#17d23b"/><stop offset="1" stop-color="#7cea57"/></linearGradient><path d="m545.546 427.72-.293.575.519-1.009.065-.127.165-.325.221-.437-.535 1.043-.142.28z" fill="url(#r)"/><defs><path id="a" d="m432.648 120.42-.222-.078-.096-.035a.1.1 0 0 1-.025-.01l-.013-.003a207.168 207.168 0 0 0-11.74-3.72l-.126-.037-1.508-.421-.565-.157-1.329-.357-.72-.192a214.48 214.48 0 0 0-1.419-.367l-.592-.152-1.742-.431-.237-.059a205.17 205.17 0 0 0-12.002-2.538l-.565-.102-.401-.072-.56-.096-7.452-1.159c-7.634-1.056-15.394-1.721-23.284-1.887h-.024l-.15-.004-.15-.003-2.531-.053-.084-.003a71.523 71.523 0 0 0-2.954-.064l-.23-.001-1.094.012-2.237.025-1.743.044-1.764.049-2.785.118-.689.03c-71.473 3.629-133.901 42.604-169.33 100.008-.012.012-.025.019-.038.032-1.076 1.718-2.092 3.462-3.102 5.21l-1.17 1.997-1.208 2.224-2.3 4.269c-5.41 10.388-9.894 21.32-13.503 32.633l-.09.275v.003l-1.505 4.748-.078.257.002-.005-.001.003.018-.048c.02-.048.042-.099.068-.151l.083-.192.014-.033.002-.005.128-.379c.71-2.077 1.836-5.027 2.484-6.803l.042-.128a176.331 176.331 0 0 1 2.81-7.2 176.61 176.61 0 0 1 24.39-41.594 177.617 177.617 0 0 1 45.024-40.509c27.27-17.13 59.524-27.08 94.124-27.08a178.061 178.061 0 0 1 38.583 4.224l.836.186v.003c23.364 5.303 45.594 15.345 64.432 28.872l.042.029c.01.006.02.016.032.022l.007.004.28.193-.002-49.326v-.001a.207.207 0 0 1-.041-.016z"/><path id="c" d="m432.413 169.569-.007-.004c-.012-.006-.022-.016-.032-.022l-.041-.029c-18.838-13.527-41.07-23.57-64.432-28.872v-.003l-.837-.186a166.957 166.957 0 0 0-6.797-1.37 156.19 156.19 0 0 0-3.029-.521 178.062 178.062 0 0 0-28.757-2.333c-34.6 0-66.854 9.95-94.124 27.08a177.617 177.617 0 0 0-45.025 40.509 176.61 176.61 0 0 0-24.388 41.594 176.354 176.354 0 0 0-2.811 7.2c-.013.041-.03.086-.042.128l-2.484 6.803-.128.379-.002.005-.014.033-.083.192a2.288 2.288 0 0 0-.067.151l-.02.048.002-.003c.052-.115.156-.265.21-.388l.631-1.46 1.314-2.981.07-.157.962-2.068.391-.759a168.216 168.216 0 0 1 3.314-6.356l.67-1.19.416-.723.709-1.226.269-.458.871-1.459c.08-.138.16-.269.24-.397l.232-.362a.677.677 0 0 0 .05-.08c.049-.064.09-.144.139-.207l.445-.701.59-.932.166-.262.731-1.127c.478-.742.952-1.452 1.484-2.166.135-.214.279-.422.423-.63l.36-.506c.031-.048.066-.093.098-.14l.898-1.275c.1-.15.205-.3.317-.45l.337-.455.067-.093c.109-.144.208-.291.317-.438l1.554-2.062.52-.69.121-.151c.321-.429.645-.858 1-1.287l1.446-1.744 1.218-1.494.323-.365.25-.307c.318-.372.654-.727.978-1.092l.147-.163 1.593-1.776c.221-.266.442-.509.663-.752l.545-.589a79.362 79.362 0 0 1 2.17-2.3c.5-.529 1.003-1.031 1.532-1.53a85.82 85.82 0 0 1 2.394-2.32l.939-.903c.026-.055.08-.08.131-.135.167-.156.34-.304.51-.457l2.304-2.106 1.997-1.715c.022-.023.045-.039.07-.058a.573.573 0 0 0 .045-.041c.042-.03.083-.058.125-.1l3.715-3.03c.76-.618 1.544-1.194 2.323-1.79l2.192-1.663c1.112-.82 2.25-1.613 3.413-2.404l.927-.637 3.362-2.189c.262-.16.503-.294.74-.48.606-.384 1.24-.73 1.859-1.1.705-.413 1.403-.849 2.124-1.23a130.006 130.006 0 0 1 8.84-4.73l.987-.492c.14-.07.288-.134.429-.202.939-.45 1.875-.902 2.85-1.318.416-.189.8-.375 1.214-.531l.07-.03a77.674 77.674 0 0 1 3.82-1.619c3.468-1.373 6.987-2.643 10.557-3.75 1.696-.528 3.388-1.03 5.08-1.482 1.43-.394 2.884-.765 4.34-1.107l1.509-.346c1.32-.314 2.644-.58 3.993-.845 1.56-.313 3.122-.58 4.708-.845l2.513-.368c1.563-.236 3.124-.422 4.71-.608l3.914-.371c.266-.026.503-.051.769-.051a94.5 94.5 0 0 1 4.657-.266c.528-.05 1.032-.05 1.532-.076a137.67 137.67 0 0 1 4.762-.08c2.215 0 4.394.127 6.58.23l5.832.368 2.23.233a136.87 136.87 0 0 1 7.41.99l1.533.233a142.25 142.25 0 0 1 8.71 1.782c.475.113.936.244 1.407.362a137.3 137.3 0 0 1 7.224 2l1.884.58a141.432 141.432 0 0 1 16.195 6.317l1.836.87c2.17 1.043 4.31 2.138 6.416 3.284l1.362.73a140.86 140.86 0 0 1 7.304 4.368c.478.307.945.633 1.423.944.02.012.035.025.055.035a147.77 147.77 0 0 1 5.605 3.885l1.84 1.35c2.23 1.68 4.428 3.402 6.553 5.207l.193.17a142.727 142.727 0 0 1 5.97 5.418l1.856 1.814a143.283 143.283 0 0 1 4.333 4.484l1.586 1.702a145.64 145.64 0 0 1 5.147 6.08c.555.692 1.077 1.403 1.615 2.1a142.73 142.73 0 0 1 3.388 4.58l1.814 2.605a135.277 135.277 0 0 1 3.413 5.315c.663 1.079 1.301 2.17 1.936 3.268a135.652 135.652 0 0 1 2.788 5.053c.497.947.968 1.907 1.442 2.867.087.18.16.365.247.545l10.084 26.724.875 2.41a4.9 4.9 0 0 1 .061.166l1.756 4.833.638 1.766c.426 1.047.804 2.064 1.208 3.098h.004l.01.026c.009.029.018.048.028.076l.042.097v.006c.105.272.274.544.38.816l-.02-123.122v-.028c-.08-.058-.2-.139-.28-.193z"/></defs></svg>