<svg xmlns="http://www.w3.org/2000/svg" xmlns:xlink="http://www.w3.org/1999/xlink" viewBox="0 0 2994 570">
    <defs>
        <linearGradient id="A" x1="278.23" y1="153.9" x2="488.98" y2="587.02" xlink:href="#R">
            <stop offset="0" stop-color="#7cea57"/>
            <stop offset=".98" stop-color="#c9ffa9"/>
        </linearGradient>
        <linearGradient id="B" x1="503.69" y1="465.62" x2="229.08" y2="134.34" xlink:href="#R">
            <stop offset="0" stop-color="#94f8a5"/>
            <stop offset="1" stop-color="#00b818"/>
        </linearGradient>
        <linearGradient id="C" x1="291.34" y1="185.08" x2="439.5" y2="188.49" xlink:href="#R">
            <stop offset="0" stop-color="#b8ff9e"/>
            <stop offset=".98" stop-color="#fff"/>
        </linearGradient>
        <linearGradient id="D" x1="268.96" y1="214.57" x2="429.09" y2="214.57" xlink:href="#C"/>
        <linearGradient id="E" x1="491.05" y1="387.61" x2="581.35" y2="570.54" xlink:href="#R">
            <stop offset="0" stop-color="#b8ff9e"/>
            <stop offset="1" stop-color="#fff"/>
        </linearGradient>
        <linearGradient id="F" x1="523.91" y1="239.61" x2="693.75" y2="696.89" xlink:href="#C"/>
        <linearGradient id="G" x1="356.53" y1="648.36" x2="702.3" y2="242.83" xlink:href="#R">
            <stop offset="0" stop-color="#b8ff9e"/>
            <stop offset=".32" stop-color="#fff"/>
        </linearGradient>
        <linearGradient id="H" x1="174.52" y1="493.47" x2="520.36" y2="87.86" xlink:href="#G"/>
        <linearGradient id="I" x1="49.4" y1="386.9" x2="395.16" y2="-18.63" xlink:href="#G"/>
        <linearGradient id="J" x1="381.54" y1="95.16" x2="437.32" y2="97.7" xlink:href="#R">
            <stop offset=".62" stop-color="#00d228" stop-opacity="0"/>
            <stop offset="1" stop-color="#00b322" stop-opacity=".15"/>
        </linearGradient>
        <linearGradient id="K" x1="400.8" y1="67.11" x2="432.77" y2="68.08" xlink:href="#J"/>
        <linearGradient id="L" x1="378.8" y1="467.01" x2="438.35" y2="27.14" xlink:href="#R">
            <stop offset="0" stop-color="#a2ff92"/>
            <stop offset="1" stop-color="#fff"/>
        </linearGradient>
        <linearGradient id="M" x1="546.91" y1="425.23" x2="546.98" y2="424.7" xlink:href="#L"/>
        <linearGradient id="N" x1="545.6" y1="428.34" x2="545.87" y2="426.35" xlink:href="#L"/>
        <radialGradient id="O" cx="557.91" cy="-135.8" r="94.81"
                        gradientTransform="matrix(.93 .38 1.46 -3.57 224.34 -279.11)" xlink:href="#R">
            <stop offset="0" stop-color="#00b322" stop-opacity=".25"/>
            <stop offset=".44" stop-color="#00d228" stop-opacity="0"/>
        </radialGradient>
        <path id="P"
              d="M432.65 120.42l-.22-.08h-.1a206.75 206.75 0 0 0-11.74-3.72h-.12l-1.51-.42-.57-.16-1.39-.44-.72-.19-1.41-.37-.6-.15-1.74-.43-.24-.06c-4-1-8-1.82-12-2.54l-.56-.1-.4-.07-.56-.1q-3.71-.63-7.46-1.16a200.41 200.41 0 0 0-23.28-1.88h-.32c-.84 0-1.69 0-2.54-.05h-10.09q-1.39 0-2.79.12h-.68c-69.449 3.474-132.755 40.86-169.33 100-1.08 1.72-2.1 3.46-3.1 5.21l-1.17 2-1.21 2.23-2.3 4.27a206.31 206.31 0 0 0-13.5 32.74l-.09.27-1.5 4.75c0 .08-.05.17-.08.25s0 0 0-.05 0-.1.07-.15.05-.12.08-.19l.12-.38c.71-2.07 1.84-5 2.49-6.8v-.13c.88-2.42 1.83-4.82 2.81-7.2 31.555-75.928 111.189-120.181 192.33-106.88l3 .52 3.4.65 3.4.72.84.19a179.46 179.46 0 0 1 64.43 28.87l.28.19v-49.26z"/>
        <path id="Q"
              d="M432.41 169.57a179.46 179.46 0 0 0-64.43-28.87l-.84-.19-3.39-.72-3.4-.65-3-.52c-81.148-13.37-160.828 30.854-192.41 106.79q-1.47 3.57-2.81 7.2v.13l-2.48 6.8c-.05.13-.09.26-.13.38 0 .07-.05.13-.08.19s0 .11-.07.15a.08.08 0 0 1 0 .05c0-.12.15-.27.2-.39l.64-1.46 1.31-3 .07-.16c.35-.78.68-1.5 1-2.07l.39-.75a159.55 159.55 0 0 1 3.32-6.36l.67-1.19.41-.72.62-1.21.27-.46.87-1.46c.08-.13.16-.27.24-.39s.16-.24.23-.37a.22.22 0 0 0 0-.08c.05-.06.09-.14.14-.2l.45-.7c.19-.32.39-.63.59-.94l.16-.26.74-1.12c.47-.75.95-1.46 1.48-2.17.13-.22.28-.42.42-.63l.36-.51.1-.14.9-1.27c.1-.15.2-.3.32-.45l.33-.46.07-.09c.11-.14.21-.29.32-.44l1.55-2.06.52-.69.12-.15c.32-.43.65-.86 1-1.29l1.45-1.74 1.21-1.5.33-.36c.08-.11.16-.2.25-.31.32-.37.65-.72 1-1.09l.14-.16 1.6-1.78q.33-.39.66-.75l.54-.59c.69-.77 1.43-1.53 2.17-2.3.5-.53 1-1 1.54-1.53.78-.8 1.58-1.56 2.39-2.32l.94-.9c0-.06.08-.08.13-.14l.51-.46 2.3-2.1 2-1.72.07-.05h.05l.12-.09c1.24-1 2.48-2.08 3.72-3 .76-.61 1.54-1.19 2.32-1.78l2.19-1.67a108.73 108.73 0 0 1 3.41-2.4l.93-.64 3.36-2.19a5.53 5.53 0 0 0 .74-.48c.61-.38 1.24-.73 1.86-1.1s1.41-.85 2.13-1.23c2.87-1.69 5.83-3.26 8.84-4.73l1-.49.43-.2 2.85-1.32c.42-.19.8-.37 1.22-.53h.07a77.4 77.4 0 0 1 3.81-1.61 151.94 151.94 0 0 1 10.55-3.75c1.7-.53 3.39-1 5.08-1.48 1.43-.4 2.89-.77 4.34-1.11.48-.1 1-.24 1.51-.34 1.32-.32 2.65-.58 4-.85 1.57-.31 3.13-.58 4.71-.84.85-.14 1.67-.27 2.52-.37 1.56-.24 3.12-.43 4.71-.61l3.91-.37a6.64 6.64 0 0 1 .77 0c1.56-.13 3.09-.21 4.66-.27.52-.05 1-.05 1.53-.08 1.59 0 3.17-.08 4.76-.08 2.21 0 4.39.13 6.58.23l5.83.37 2.23.24q3.74.39 7.41 1l1.53.23a140.2 140.2 0 0 1 8.72 1.78c.47.11.93.24 1.4.36q3.65.9 7.23 2l1.88.58a143.31 143.31 0 0 1 16.19 6.32c.62.28 1.23.58 1.84.87 2.17 1 4.31 2.14 6.42 3.28l1.36.73c2.48 1.39 4.92 2.85 7.3 4.37l1.43.95c1.9 1.26 3.77 2.55 5.61 3.89l1.84 1.35c2.23 1.68 4.42 3.4 6.55 5.2l.19.17c2.05 1.75 4 3.56 6 5.42l1.86 1.82q2.22 2.19 4.33 4.48l1.59 1.7q2.66 3 5.14 6.08c.56.69 1.08 1.4 1.62 2.1 1.16 1.51 2.29 3 3.39 4.58 1.834 2.577 3.575 5.219 5.22 7.92a108.04 108.04 0 0 1 1.94 3.27c1 1.67 1.9 3.34 2.79 5 .49 1 1 1.91 1.44 2.87.09.18.16.36.25.54l10.08 26.73.88 2.41.06.16 1.76 4.74.64 1.76c.43 1 .81 2.07 1.21 3.1v.17c.11.27.28.54.38.81V169.72z"/>
        <linearGradient id="R" gradientUnits="userSpaceOnUse"/>
    </defs>
    <path d="M1113.84 201.13q-78 0-133.51 55.51-55.5-55.45-133.5-55.51-78.71 0-133.5 54.35-54.79 54.35-54.81 132.89v12.21l59.86 165.23h35V388.5q0-38.55 27.5-65.53 27.5-26.98 66.3-27 38.09 0 65.59 27.34 27.5 27.34 27.51 65.17v177.33h94.86V340.19q27.4-44.15 79.4-44.15 38.64 0 65.7 27 27.06 27 27.06 65.53v177.24h94.85V388.37q0-78.54-54.8-132.89-54.8-54.35-133.51-54.35zm525.68 24.06q-48.13-34.08-107.85-34.08-31.63 0-64.65 11.94-56.22 20.4-89.94 68.51-33.72 48.11-33.73 107.86 0 78 54.47 132.8 54.47 54.8 133.19 54.81 87.17 0 143.38-66.08l23.34 65 100.79.08-90.49-250.54q-20.38-56.19-68.51-90.3zm-42.51 219.83q-27.4 27.17-66.08 27.17-28.11 0-52.7-16.93-40-27.49-40-76.17 0-28.92 16.86-53.6 26.7-39.49 75.89-39.5 30.2 0 53.4 16.22 40.07 27.51 40 76.88.03 38.79-27.37 65.95zm468.54-230a187.51 187.51 0 0 0-92.75-23.89q-78.7 0-133.51 54.35-54.81 54.35-54.8 132.91 0 79.24 54.45 133.61 54.45 54.37 133.86 54.35 78.68 0 133.15-54.75 54.47-54.75 54.46-133.34V0h-94.86zm-27 229.17q-27.06 27.31-65.7 27.3-38.64-.01-66-27.3-27.4-27.3-27.4-65.8 0-38.5 27.4-65.45 27.4-26.94 66-26.95 38 0 65.35 27.3 27.35 27.3 27.4 65.1-.05 38.49-27.1 65.8zm350.67-253.06q-78.7 0-133.51 54.35-54.81 54.35-54.78 132.91 0 79.24 54.46 133.61 54.46 54.37 133.86 54.35 74.46 0 128.58-51.3l-57.61-76.59q-28.12 33-71 33a91.88 91.88 0 0 1-55.51-17.92 90 90 0 0 1-33.73-47.35h274.74a188.69 188.69 0 0 0 2.11-28q0-78.42-54.46-132.71-54.46-54.29-133.15-54.35zm-82.22 144q26-49.17 82.22-49.18 55.49 0 81.5 49.18zm632.49-89.65q-54.46-54.35-133.15-54.35-78.69 0-133.51 54.35-54.8 54.36-54.8 132.91 0 79.24 54.45 133.61 54.45 54.37 133.86 54.35 78.68 0 133.15-54.7 54.47-54.7 54.44-133.26 0-78.57-54.44-132.91zm-67.45 198.71q-27.06 27.31-65.7 27.3-38.64-.01-66-27.3-27.41-27.3-27.41-65.8 0-38.5 27.4-65.45 27.41-26.94 66-26.95 38 0 65.35 27.3 27.35 27.3 27.4 65.1.01 38.49-27.04 65.8z"
          fill="#fff"/>
    <g transform="translate(-8.07 -26.81)">
        <use xlink:href="#P" fill="url(#A)"/>
        <use xlink:href="#Q" fill="url(#B)"/>
        <use xlink:href="#P" fill="url(#C)"/>
        <use xlink:href="#Q" fill="url(#D)"/>
        <path d="M554.76 414.83q-4.07 10.64-8.94 20.85l-3.34 6.78-4.08 7.72-4.48 7.87q-4.21 7.14-8.84 14-2.36 3.49-4.8 6.91-6.33 8.82-13.3 17.14l33.59 92.59v.09l.8 2.18c0 .07 0 .13.07.2s.07.2.11.29l.37 1v.12h77.3z"
              fill="url(#E)"/>
        <path d="M573.49 276.83l-.11-.32-.49-.8.25 39.76v1.56l-.09 4.91v1.03q-.08 2.36-.18 4.71l-.41 7.49-.64 7.83a2 2 0 0 0 0 .48c-.44 4.25-1 8.47-1.59 12.66a280.62 280.62 0 0 1-15.35 58.69l64.51 177.8h68.8z"
              fill="url(#F)"/>
    </g>
    <path d="M563.81 312.67l-.22 2.14q-.81 7.32-2 14.49a244 244 0 0 1-16.22 55l-1.34 3.07c0 .08-.07.16-.11.25a2.72 2.72 0 0 1-.11.25l-.63 1.39-.32.7s-.28.63-.43.94a199.86 199.86 0 0 1-2.45 5.12l-.09.18-.35.73s-.27.55-.41.82l-.2.39-.37.74c0 .06-.05.12-.08.17v.07l-.56 1.09-.07.15s-.05.08-.07.13l-.52 1-.9 1.7-1.09 2.05a.21.21 0 0 0 0 .06l-1.36 2.49-2.12 3.72q-.68 1.17-1.38 2.34l-3 4.92-.75 1.2q-4.14 6.51-8.67 12.73l-.83 1.14q-2.08 2.84-4.25 5.6l-.56.72-2.07 2.59-.87 1.07-1 1.27-1.08 1.1q-5.75 6.86-12 13.28l-.28.31-1.12 1.14-1 1-1 1-2.07 2-4.11 3.88-.1.09-2.14 2-1.08 1-2.18 1.91-2.09 1.81-.1.08-2.12 1.79a.39.39 0 0 0-.1.08l-3 2.44-.06.05-.84.67-.17.13-1.13.89-1.06.84-.43.33-1.25 1-2.97 2.15-1.33 1-.5.36-.23.17-1.31.93-.2.15-.55.39-1.4 1-2.83 1.95-2.87 1.91h-.09q-1.82 1.2-3.67 2.37l-2.38 1.48h-.09l-4.91 3h-.09l-2.55 1.51-3.83 2.12-2.5 1.34-1.42.75-2.55 1.3-1.43.72-1.19.59-5.36 2.54-2.54 1.16q-6.18 2.76-12.55 5.19l-2.45.93-7 2.48-5.6 1.8-4.27 1.27-4.31 1.21-2.89.76-2.9.72-5.85 1.35-1 .2a137.93 137.93 0 0 1-3.53.73l-2.54.49-.9.17-1 .17a246 246 0 0 1-24.39 3.13l-2.45.18-9.57.46-7.28.18c-135.907.072-246.161-110.003-246.31-245.91 0-135.85 110.19-245.92 246.27-245.92h10.92l1.42.06 1.76.1q1 0 2 .12l1.51.1 1.81.13 1.66.14 1.78.15 1.69.17 3.17.33h.28l1.41.16.8.1 1.48.19 1.46.19 3.61.51 1.51.23 1.51.24 2.1.35 1.46.53 1.51.27.36.07 1.4.26.36.07 1.37.33 1.67.34c.35.06.69.14 1 .21l1.2.26h.11l1.77.39 4.36 1 1.86.46 1.34.34 1.57.41 1.63.44 4.25 1.2 1.05.31 1.08.32 2.14.66 2.8.89 1.37.45 1.34.45 1.3.44q2.39.82 4.73 1.69l1.56.58h.14l1.08.41 1.12.43 3.11 1.23 1.08.44 1.12.46q2.76 1.14 5.48 2.35l1.22.54 1.27.58 1.51.69 2 .94h.08l.27.12v-21.6A281.26 281.26 0 0 0 282.39 6.29C126.39 6.29 0 132.55 0 288.29c0 153.9 123.46 279 276.93 281.9 1.79 0 3.63.08 5.47.08h.08a284.76 284.76 0 0 0 52.75-5 279.88 279.88 0 0 0 93-35.47c6.95-4.15 13.7-8.66 20.25-13.4a283.45 283.45 0 0 0 50.15-46.79l.26-.31q7-8.31 13.3-17.14 2.44-3.42 4.8-6.91 4.62-6.85 8.84-14 2.3-3.89 4.48-7.87 2.08-3.82 4.07-7.72l3.35-6.78q4.88-10.2 8.94-20.85a280.62 280.62 0 0 0 15.35-58.69c.63-4.19 1.15-8.41 1.59-12.66a2 2 0 0 1 0-.48q.38-3.88.64-7.83z"
          fill="#fff"/>
    <g transform="translate(-8.07 -26.81)">
        <path d="M546.59 425.68l.37-.74.2-.39z" fill="url(#G)"/>
        <path d="M572.89 275.91V33.1h-90.57v235.06a187.68 187.68 0 0 1-24.66 93.17c-31.529 55.436-88.897 91.226-152.55 95.17l-2 .06h-1.77l-2.05.15-1.48.1c-2.4.14-4.83.24-7.31.24h-3.56l-3.87-.18c-.64 0-1.29-.05-1.92-.1h-.39c-.56 0-1.14-.07-1.73-.14s-1.32-.1-2-.17c-.25 0-.5 0-.74-.07q-1.38-.11-2.76-.27l-1.13-.17c-2-.24-3.88-.5-5.78-.83l-2-.35-.33-.05c-.64-.16-1.24-.24-1.83-.36l-3.32-.72-.56-.14a145.87 145.87 0 0 1-6-1.49c-.68-.16-1.35-.36-2-.56-2.72-.8-5.36-1.64-8-2.59-1-.34-2-.72-3-1.13l-.2-.07-.18-.07c-1-.35-1.92-.72-2.86-1.13-1.66-.68-3.28-1.4-4.91-2.15l-.28-.12-.13-.06-2.45-1.13-1.51-.72h-.08l-3-1.55a134.35 134.35 0 0 1-12.59-7.55l-.07-.05c-.74-.46-1.47-1-2.2-1.5-1.51-1-3-2.12-4.41-3.2l-.15-.11-.13-.11-4.3-3.36-2-1.68c-1-.85-2-1.77-3-2.66-2.72-2.44-5.37-5-7.91-7.63l-.44-.44v-.05l-1.88-2a13.32 13.32 0 0 0-1-1.12c-.54-.61-1-1.22-1.55-1.83l-.43-.51-1.57-1.85c-.75-.9-1.45-1.77-2.16-2.7a.1.1 0 0 0 0-.05v-.05c-.67-.83-1.34-1.72-2-2.59-2.81-3.83-5.42-7.75-7.88-11.86a.53.53 0 0 1-.06-.1s-.05-.07-.06-.1c-.39-.65-.8-1.29-1.15-1.94l-1.61-2.91a.43.43 0 0 0 0-.07l-3.08-6c-.47-.94-.94-2-1.34-2.91a49.06 49.06 0 0 1-1-2.23 46.85 46.85 0 0 1-.88-2.1c-.28-.71-.55-1.22-.78-1.85l-1.19-3.16a33.47 33.47 0 0 1-.79-2.26c-.76-2.19-1.48-4.38-2.16-6.62-.44-1.4-.76-2.79-1.16-4.23-.32-1.11-.6-2.23-.88-3.38l-.36-1.67c-.28-1.16-.52-2.36-.72-3.56-.24-1-.4-2.07-.6-3.15-.59-3.51-1.08-7.06-1.4-10.65l-.31-4-.24-4.55a219.25 219.25 0 0 1 6.83-48.87c0 0 0-.08.08-.16 1.16-3.55 2.43-7 3.87-10.45h.05v-.08l.15-.36c.47-1.6 1-3.17 1.51-4.75l.09-.27a205.33 205.33 0 0 1 13.5-32.63c.74-1.44 1.52-2.85 2.3-4.27l1.21-2.23 1.17-2c1-1.75 2-3.49 3.1-5.21 36.577-59.138 99.882-96.523 169.33-100h.69c.92 0 1.85-.09 2.78-.12h12.96a200.76 200.76 0 0 1 23.29 1.88l7.45 1.16.56.1.4.07.56.1a205.09 205.09 0 0 1 12 2.54l.23.06 1.75.43.59.15 1.42.37.72.19 1.33.36.56.16 1.51.42h.12a209.34 209.34 0 0 1 11.74 3.72h.1l.22.08V93.12l-.27-.12h-.08l-2-.94-1.51-.69-1.27-.58-1.22-.54q-2.71-1.22-5.48-2.35l-1.12-.46-1.12-.44c-1-.42-2.07-.83-3.11-1.23l-1.12-.43-1.08-.41h-.14l-1.56-.58q-2.34-.87-4.73-1.69l-1.3-.44-1.34-.45-1.37-.45-2.8-.89-2.09-.76-1.08-.32-1.1-.35-4.25-1.2-1.63-.44-1.57-.36-1.37-.35-1.86-.46a125.37 125.37 0 0 0-4.36-1c-.59-.14-1.18-.26-1.77-.39h-.11l-1.2-.26-1-.21L375 74l-1.41-.28-.36-.07-1.4-.26-.36-.07L370 73l-1.47-.26-2.1-.35-1.51-.24-1.51-.23-3.61-.51-1.46-.19-1.49-.22-.8-.1-1.41-.16h-.28l-3.17-.33-1.69-.17-1.78-.15-1.66-.09-1.81-.13-1.51-.1q-1-.07-2-.12L339 69.5l-1.42-.06h-10.92C190.58 69.2 80.39 179.27 80.39 315.12 80.556 450.999 190.78 561.05 326.66 561c2.44 0 4.86-.11 7.28-.18 3.21-.09 6.39-.24 9.57-.46l2.45-.18a246 246 0 0 0 24.47-3.13l1-.17.9-.17 2.54-.49 3.53-.73 1-.2c2-.43 3.91-.87 5.85-1.35l2.9-.72 2.89-.76 4.31-1.21 4.27-1.27 5.6-1.8 7-2.48 2.45-.93q6.36-2.43 12.55-5.19l2.54-1.16c1.8-.82 3.58-1.67 5.36-2.54l1.19-.59 1.43-.72 2.55-1.3 1.42-.75 2.5-1.34 3.83-2.12 2.52-1.46h.09q2.47-1.46 4.91-3h.09l2.38-1.48q1.86-1.17 3.67-2.37h.09l2.35-1.57.52-.34.69-.48.79-.54 1.35-.93 1.4-1 .55-.39.2-.15 1.31-.93.23-.17.5-.36 1.33-1h.06l2.74-2.06.11-.08 1.25-1 .43-.33.14-.12 2.05-1.61.17-.13.84-.67.06-.05 3-2.44a.39.39 0 0 1 .1-.08l2.12-1.79.1-.08 2.09-1.81 2.18-1.91 1.08-1a49.34 49.34 0 0 0 2.14-2l.1-.09 4.11-3.88 2.07-2c.34-.33.69-.67 1-1l1-1 1.12-1.14.28-.31q6.24-6.42 12-13.28l.91-1.08 1-1.27.87-1.07 2.07-2.59.56-.72q2.16-2.76 4.25-5.6l.83-1.14q4.53-6.22 8.67-12.73l.75-1.2 3-4.92q.71-1.17 1.38-2.34l2.12-3.72 1.36-2.49a.21.21 0 0 1 0-.06l1.09-2.05.9-1.7.29-.58.15-.28.53-1 .14-.27c0-.07.07-.15.11-.22v-.06c0-.05 0-.11.08-.17.16-.3.31-.61.46-.91l-.23.45c.06-.13.13-.25.19-.38l.06-.12v-.09l.21-.43-.17.34.41-.82c.14-.27.29-.61.44-.91l2.45-5.12c.15-.31.29-.63.43-.94.32-.7.64-1.39 1-2.09l.22-.5a80.72 80.72 0 0 0 1.34-3.07 244 244 0 0 0 16.22-55q1.23-7.17 2-14.49l.22-2.14.5-4.31.41-7.49q.11-2.35.18-4.71v-1.03c0-1.64.08-3.27.09-4.91v-1.56zm-24.35 145.81a2.4 2.4 0 0 1-.11.23v.06c.21-.41.4-.83.6-1.24-.18.3-.33.63-.49.95zm17.79-50.16c.36-1.51.7-3 1-4.55l-1 4.55zm3.13-15.45l-.34 2 .34-2 .12-.73z"
              fill="url(#H)"/>
        <path d="m161.52 255.36-.07.16.06-.14Z" fill="url(#I)"/>
        <path d="M612.67 402.85q0-10.2-.76-20.12l-38.42-105.9-.11-.32-.49-.8.25 39.76v1.56l-.09 4.91v1.03q-.08 2.36-.18 4.71l-.41 7.49-.64 7.83a2 2 0 0 0 0 .48c-.44 4.25-1 8.47-1.59 12.66a280.53 280.53 0 0 1-15.35 58.68q-4.07 10.64-8.94 20.85c-1.08 2.28-2.2 4.54-3.34 6.78-1.32 2.6-2.69 5.17-4.08 7.72s-2.95 5.28-4.48 7.87q-4.21 7.14-8.84 14-2.36 3.49-4.8 6.91-6.33 8.82-13.3 17.14l27.59 76c22-13.1 40.86-35 54.54-62.68 14.7-29.97 23.44-66.78 23.44-106.56z"
              fill="url(#O)"/>
        <path d="M432.69 93.12v27.31l-.22-.08h-.1a209.34 209.34 0 0 0-11.74-3.72h-.12l-1.51-.42-.57-.16-1.43-.45-.73-.19-1.41-.37-.6-.15-1.74-.43-.24-.06c-4-1-8-1.82-12-2.54l-.56-.1-.41-.07-.55-.1c-2.47-.43-5-.81-7.45-1.16a200.76 200.76 0 0 0-23.29-1.88h-12.96q-1.39 0-2.79.12h-.69a212.19 212.19 0 0 0-43.72 6.82V69.9q9.28-.69 18.77-.7h10.92l1.42.07c.59 0 1.17 0 1.76.09l2 .11 1.52.11 1.81.13 1.66.13 1.78.16 1.69.17 3.17.33h.28l1.41.16.8.1 1.48.18 1.46.2 3.61.51 1.51.23 1.51.24 2.1.35L370 73l1.51.28.36.06 1.4.27.36.07 1.41.27 1.67.34 1 .22 1.2.25h.11c.59.12 1.18.25 1.76.39l4.37 1 1.86.46 1.34.34 1.57.41 1.63.44 4.25 1.2 1 .31 1.08.32 2.15.66 2.8.89 1.37.45 1.34.45 1.3.44 4.73 1.69c.52.18 1 .38 1.56.58h.14l1.07.41 1.13.43 3.11 1.23c.36.14.72.28 1.08.44l1.12.46q2.76 1.14 5.48 2.35c.41.17.82.36 1.22.54l1.27.58 1.51.69 2 .94a.15.15 0 0 1 .07 0l.28.12z"
              fill="url(#J)"/>
        <path d="M432.69 71.43v21.69l-.28-.12a.15.15 0 0 0-.07 0l-2-.94-1.51-.69-1.27-.58-1.22-.54q-2.71-1.22-5.48-2.35l-1.12-.46-1.1-.44-3.11-1.23-1.13-.43-1.07-.41h-.14l-1.56-.58-4.73-1.69-1.3-.44-1.34-.45-1.37-.45-2.8-.89-2.15-.66-1.08-.32-1-.31-4.25-1.2-1.63-.44-1.61-.5-1.37-.35-1.86-.46-4.37-1-1.76-.39h-.11l-1.2-.25-1-.22L375 74l-1.41-.28-.36-.07-1.4-.26-.36-.07L370 73l-1.47-.25-2.1-.35-1.51-.24-1.51-.23-3.61-.51-1.46-.2-1.49-.22-.8-.09h-.1V40.72q6.35 1.5 12.57 3.29a280.12 280.12 0 0 1 64.17 27.42z"
              fill="url(#K)"/>
        <path d="M432.69 106.4v208.71a144 144 0 0 1-12 57.73v.11a.14.14 0 0 1 0 .06l-.29.64-1.89 4.07-1.51 3.18a2.37 2.37 0 0 0-.16.24l-1.83 3.43-3 5-2.87 4.44a142.47 142.47 0 0 1-80.9 58l-.93.28-1.16.27a142.13 142.13 0 0 1-23 3.91h-.56l-.65.06h1.2l2-.06c63.648-3.944 121.012-39.729 152.54-95.16a187.68 187.68 0 0 0 24.65-93.17V33.1h-49.64z"
              fill="url(#L)"/>
        <path d="M547 424.84l-.19.38.23-.45z" fill="url(#M)"/>
        <path d="M545.55 427.72l-.3.58.52-1 .07-.13.16-.33.22-.43-.53 1-.14.31z" fill="url(#N)"/>
    </g>
</svg>
